<?xml version="1.0" encoding="utf-8"?>
<!-- Generator: Adobe Illustrator 21.0.0, SVG Export Plug-In . SVG Version: 6.00 Build 0)  -->
<svg version="1.1" id="Calque_1" xmlns="http://www.w3.org/2000/svg" xmlns:xlink="http://www.w3.org/1999/xlink" x="0px" y="0px"
	 viewBox="0 0 722.6 628.4" style="enable-background:new 0 0 722.6 628.4;" xml:space="preserve">
<style type="text/css">
	.st0{fill:#3A342A;}
	.st1{fill:#C49A25;}
</style>
<g>
	<g>
		<g>
			<g>
				<path class="st0" d="M275.4,74.7c-8.3,3.9-16.6,7.8-24.8,11.7c-3.7,1.8-8.4,3.1-11.7,5.5c-0.9,0.7-0.8,0.5-1.1,1.8
					c-3.1,15.8-6.1,31.5-9.1,46.9c-4.7,23.8-9.3,47.1-14,69.9c-1.9,9.1-3.7,18.1-5.6,27.1c-0.6,2.9-1.2,5.8-1.8,8.6
					c-0.3,1.3-0.3,3.5-1,4.6c-0.8,1.3-4.1,1-5.8,1.2c-3,0.4-6,0.7-9,1.1c-0.8,0.1-3.4,0-3.9,0.5c-0.6,0.6-0.4,2.9-0.6,3.6
					c-0.4,2.5-0.8,5-1.2,7.4c-0.8,5.2-1.6,10.4-2.5,15.6c-0.1,0.9-0.3,1.9-0.4,2.8c5.6-0.6,11.2-1.1,16.8-1.7
					c-2.2,10.4-4.3,20.8-6.5,31c-13.8-13.4-27.7-26.7-41.7-39.7c-2-1.9-4-3.8-6-5.6c10.6-5.3,21.2-10.7,31.8-16.1
					c6.1-3.1,12.2-6.3,18.2-9.4c1-0.5,3-1.1,3.7-1.9c0.7-0.9,0.8-3,1-4.1c1.6-7.1,3.2-14.3,4.8-21.5c0.6-2.5,0.3-2.2-1.9-4
					c-8.4-7-16.9-13.8-25.4-20.6c-28.1-22.6-56.6-44.2-84.6-64.1c-9.5-6.8-18.9-13.3-28.2-19.6c-0.7-0.5-3.4-3-4.3-2.9
					c-0.6,0.1-2.4,2.7-2.8,3.1c-2.4,2.7-4.9,5.4-7.3,8.1c-5.2,5.7-10.5,11.4-15.7,17c-1,1.1-2.3,2-2.6,3.3
					c-0.9,3.6-0.2,7.9-0.3,11.5c-0.5,19.5-0.8,38.8-0.9,58.1c-0.2,28.8-0.1,57.3-0.2,85.7c-0.1,30.6-0.5,61.1-1.8,91.4
					c-1,25.3-2.7,50.5-5.3,75.7c-1.4,13.3-3,26.6-5,39.9c-0.1,0.6-0.2,1.2-0.3,1.8c10.2-2.9,20.3-5.9,30.4-8.9
					c23.4-6.9,46.5-14.1,69.4-21.3c26.2-8.3,52-16.9,77.6-25.6c19.3-6.6,38.4-13.3,57.4-20.2c4.2-1.5,8.7-2.8,12.7-4.6
					c1.1-0.5,1-0.5,1.5-1.9c1.8-5.5,3.5-11,5.3-16.6c0.4-1.2,2-3.9,1.7-5.3c-0.1-0.5-0.8-1-1.2-1.4c-3.5-3.6-7-7.2-10.5-10.8
					c-10.3-10.5-20.5-20.9-30.9-31.3c-1.7-1.7-3.3-3.3-5-5c-0.5-0.5-2-1.6-2.2-2.2c-0.5-1.4,0.9-4.4,1.2-5.7
					c2.6-11.5,5.1-23.2,7.7-34.9c1.2-5.7,2.4-11.4,3.7-17.1c0.4-1.9,0.8-3.8,1.2-5.7c0.1-0.6,0.1-2.2,0.6-2.6
					c0.9-0.8,4.6-0.5,5.9-0.7c5.5-0.6,11.1-1.1,16.6-1.7c13.6-1.4,27.2-2.7,40.7-4c3.7-0.4,7.8-1.3,11.6-1.1
					c1.7,0.1,1.4,0.8,2.1,2.6c9,23.7,17.9,47.4,26.9,70.9c0.8,2.2,1.6,4.3,2.4,6.5c10.3-1.9,20.6-3.9,30.9-5.8
					c-3.3-8.8-6.6-17.6-9.9-26.3c-7.9-21.1-15.8-42.3-23.7-63.5c-9.6-25.7-19.3-51.6-29-77.7c-8.4-22.5-16.9-45.2-25.5-68
					c-4.1-11.1-8.3-22.2-12.4-33.3C275.5,75,275.5,74.9,275.4,74.7z M64.2,154.5c3.5-4,7-8.1,10.5-12.2c10.5,7.9,21,16,31.6,24.4
					c16.8,13.2,33.6,27,50.3,41.1c3.9,3.3,7.7,6.6,11.6,9.9c-11.5,6.9-23.1,13.6-34.7,20.3c-18.4,10.6-36.8,20.9-55.3,30.9
					c-4.3,2.3-8.5,4.6-12.8,6.9c-0.1-13.5-0.3-27-0.5-40.5c-0.3-21.7-0.5-43.4-0.6-65.4C64.2,164.7,64.2,159.6,64.2,154.5z
					 M222.8,382.3c-18.1,7.7-36.2,15.3-54.5,22.7c-29.1,11.8-58.6,23.3-88.4,34.5c-6.9,2.6-13.7,5.1-20.6,7.6
					c1.6-18,2.7-36.1,3.6-54.1c1.2-25.2,1.9-50.5,2.2-75.9c0-2.2-0.5-5.2,0.1-7.3c0.4-1.4,2.5-1.9,4-2.6
					c12.5-6.1,24.9-12.3,37.3-18.6c2.6-1.3,5.3-2.7,7.9-4c1.1-0.6,3-2.1,4.4-2.2c1.4-0.1,3.4,2.5,4.6,3.6
					c11.1,10.2,22.2,20.6,33.2,31.1c9.5,9.1,19.2,18,28.4,27.5c2,2.1,0.1,5.2-0.4,7.4c-1.5,6.8-3.1,13.5-4.7,20.3
					c-0.3,1.4-0.6,2.7-1,4.1c8.1,1.6,16.2,3.1,24.3,4.7c2.3,0.5,4.7,0.9,7,1.4c1.3,0.2,3.2,1,4.4,0.9c1.1-0.1,0.8,0.1,1.1-1.2
					c0.4-1.8,0.9-3.7,1.3-5.5C218.9,378.3,220.8,380.3,222.8,382.3z M244.7,246.8c2.2-11.9,4.4-24,6.7-36.1
					c3.5-19.4,7.1-39.1,10.6-59.1c0.8-4.6,1.6-9.3,2.5-13.9c4.4,11.6,8.9,23.2,13.3,34.7c7.1,18.4,14.1,36.8,21,55.1
					c1.6,4.2,3.2,8.5,4.8,12.7c-17.2,1.9-34.4,3.9-51.6,5.9C249.6,246.2,247.2,246.5,244.7,246.8z"/>
				<path class="st0" d="M533.1,225.2c-2.4,7.5-18.1,53.3-20.4,60.4c-5.4,17-10.8,33.9-16,50.7c-6,19.2-11.9,38.3-17.7,57.3
					c-4.5,14.6-8.9,29-13.3,43.4c-2.3,7.7-4.7,15.2-7.2,22.8c-0.4,1.1-0.7,2.3-1.1,3.4c-3.3-10.9-6.6-21.9-9.8-32.8
					c-2.4-8-4.7-15.9-7-23.9c-0.7-2.3-1.7-4.3-1.1-6.3c7.3-25.1,14.6-50.5,22.1-76.2c2.7-9.3,13.3-46.2,16.1-55.9
					c-11.6,0.2-23.2,0.4-34.9,0.7c-1.1,0-1.6-0.1-2.1,0.5c-1,1.2-9,31.5-9.4,32.9c-2.1,6.7-4.1,13.4-6.2,20.1
					c-1.5,4.8-3,9.6-4.4,14.4c-3.7-13.3-7.4-26.7-11.1-40.1c-1-3.5-19.2-67.6-20.2-71.4c-0.4-1.3-0.6-4.6-1.5-5.7
					c-0.6-0.7-2.4-0.6-3.3-0.8c-3.8-0.5-7.5-1.1-11.3-1.6c-7.2-1-14.4-2-21.6-3c2.7,11.2,22.7,82.1,25.3,92.7
					c5,20.5,10.1,40.9,15.2,61.2c2.1,8.2,4.1,16.5,6.2,24.7c0.7,2.6,1.3,5.1,2,7.7c0.3,1.1,0.9,2.6,0.9,3.7c0.1,2.9-1.8,6.3-2.6,8.9
					c-2.4,8.1-4.8,16.1-7.3,24.1c-2.7,8.9-5.4,17.7-8.1,26.5c-1,3.3-2,6.7-3.1,10c-0.6,1.9-0.9,4.2-1.8,5.9
					c-0.1,0.2-0.2,0.5-0.2,0.8c-4.1-10.2-8.1-20.4-12-30.5c-5.7-14.6-11.4-29.2-17.1-43.8c-7.8-20.2-15.6-40.3-23.4-60.5
					c-5.1-13.4-10.3-26.7-15.5-40.1c-0.2-0.5-0.5-2-0.9-2.4c-1.1-1-5-1.4-6.4-1.8c-9.3-2.6-18.7-5.2-28-7.8
					c-0.7-0.2-1.5-0.4-2.2-0.6c3.2,8.1,6.4,16.2,9.5,24.4c7.6,19.5,15.2,38.9,22.7,58.4c9.1,23.5,18.2,46.9,27.3,70.5
					c8,20.5,16.1,41.1,24.3,61.9c2.7,6.8,5.4,13.6,8.1,20.4c0.9,2.1,1.7,4.2,2.6,6.4c0.3,0.8,0.7,2.7,1.4,3.4
					c0.1,0.1,0.1,0.3,0.2,0.4c6.8-1.8,13.6-3.7,20.3-5.6c3.6-1,7.3-2,10.9-3c1.4-0.4,1.4-0.3,1.8-1.6c4.9-14.7,8.8-29.9,13.2-44.9
					c1.6-5.3,3.1-10.7,4.7-16c4.4,13.8,8.8,27.5,13.4,41.4c0.4,1.2,0.4,2.1,1.4,2.8c0.7,0.5,2.2,0.7,2.9,1c1.6,0.6,3.3,1.1,4.9,1.7
					c9.1,3,18.2,6.1,27.3,9.2c2.9,1,6.4,2.7,9.4,3.2c0.8,0.1,0.7,0.3,1.1,0.1c0.8-0.6,1.1-3.6,1.3-4.6c2.3-8,4.7-16,7-24
					c8.4-28.7,17-57.5,25.9-86.7c9.7-31.8,19.8-64,30.3-96.6c3.8-11.8,7.7-23.7,11.6-35.6c1.2-3.8,2.5-7.6,3.8-11.4
					c0.6-1.8,1.9-4.1,2-6.1c0-0.2,13.8-39.2,14-39.5C561.9,223,547.5,224.1,533.1,225.2z"/>
				<path class="st0" d="M585.3,439.9c36.6-2,73.2-4.1,109.9-6.4c4.5-0.3,9-0.6,13.6-0.9c2.3-0.2,4.5-0.3,6.8-0.5
					c1.3-0.1,3.5-0.7,4.9,0c2.5,1.1,1.3,3.8,0.9,5.5c-0.9,4.5-1.4,9.2-2.1,13.8c-0.7,4.3-1.4,8.5-1.9,12.9c-0.4,3.6-0.8,6.4-4.4,7.2
					c-3.6,0.8-7.7,0.8-11.5,1.2c-4.8,0.5-9.7,1-14.5,1.4c-35.8,3.5-71.6,7-107.6,10.2c-8.3,0.7-16.4,2.1-24.8,2.5
					c-3.7,0.2-7.5,0.2-11.4-0.1c-4.8-0.4-9.5-1.7-14.3-2.7c-4.2-0.9-8.3-1.7-12.5-2.5c-1.2-0.2-3.6-0.3-4.6-1.5
					c-1.2-1.4,0.2-3.4,0.6-4.4c3-7.5,5.4-15.4,7.7-23.4c19.4-66.4,42.3-133.7,66.3-202.7c6-17.2,12.1-34.5,18.2-51.9
					c3.1-8.7,6.1-17.4,9.2-26.1c1.6-4.3,20.4-58.1,21.8-62.5c0.9-2.7,1.6-7,4.4-8.2c3-1.2,7.9,1,11.2,1.7c4.8,1.1,9.6,2.1,14.4,3
					c2.4,0.5,4.8,1,7.2,1.5c1.1,0.2,3.2,0.4,4.2,1.3c2.2,2.1-1.2,7.5-1.8,9.4c-1.9,6.9-86.3,234-104.8,300.1
					c-2.5,7.9-4.8,15.8-7.2,23.7C570.6,441,578,440.5,585.3,439.9z"/>
			</g>
			<g>
				<path class="st1" d="M256.9,58.8c-8.3,4-16.6,8-24.8,12.1c-3.7,1.8-8.4,3.3-11.7,5.7c-0.9,0.7-0.8,0.6-1.1,1.8
					c-3.1,15.9-6.1,31.5-9.2,46.9c-4.7,23.8-9.3,47.1-14,69.9c-1.8,9.1-3.7,18.1-5.6,27c-0.6,2.9-1.2,5.8-1.8,8.6
					c-0.3,1.3-0.2,3.5-1,4.6c-0.8,1.3-4.1,1-5.8,1.2c-3,0.4-6,0.8-9,1.1c-0.8,0.1-3.4,0-3.9,0.5c-0.6,0.6-0.4,2.9-0.6,3.6
					c-0.4,2.5-0.8,5-1.1,7.4c-0.8,5.2-1.6,10.4-2.4,15.5c-0.1,0.9-0.3,1.9-0.4,2.8c5.6-0.6,11.3-1.2,16.9-1.9c-2,9.7-4,19.4-6,29
					c-13.2-12.7-26.4-25.1-39.8-37.4c-1.9-1.8-3.9-3.5-5.8-5.3c10.6-5.9,21.2-11.9,31.7-17.9c4.9-2.8,10.5-5.3,14.9-8.6
					c0.9-0.7,0.9-0.6,1.2-1.8c0.7-3,1.4-6,2-9c0.9-3.9,1.8-7.9,2.7-11.9c0.5-2.3,2-5.5,1.8-7.9c-0.1-1.3-1.7-2-2.8-3
					c-8.9-7.2-17.8-14.3-26.8-21.2c-27.9-21.7-55.9-42.4-83.2-61.2c-8.7-6-17.2-11.7-25.7-17.3c-0.6-0.4-1.6-1.4-2.3-1.5
					c-0.9-0.1,0.1-0.3-0.9,0.3c-1.9,1.1-3.7,4.1-5.1,5.6c-2.7,3-5.4,6-8.2,8.9c-4.6,5.1-9.3,10.1-14,15c-0.9,1-0.9,0.9-1,2
					c-0.5,4.1-0.4,8.4-0.6,12.5c-0.8,19.4-1.2,38.8-1.4,58.1c-0.3,28.4-0.3,56.6-0.3,84.8c0,29.9-0.2,59.8-1.2,89.6
					c-0.8,24.8-2.2,49.6-4.4,74.5c-1.2,13-2.7,26-4.4,39c-0.1,0.6-0.2,1.2-0.2,1.8c11.2-3.2,22.3-6.5,33.4-9.8
					c25.4-7.6,50.4-15.3,75.2-23.3c27.1-8.7,53.9-17.6,80.4-26.8c17.6-6.1,35.2-12.3,52.6-18.6c1.7-0.6,3.5-1.1,5-1.8
					c1.3-0.6,1.1-0.7,1.6-2.3c1.9-5.8,3.7-11.7,5.6-17.5c0.5-1.5,2.1-4.3,1.9-5.9c-0.1-0.6-0.4-0.8-1-1.4
					c-9.3-9.5-18.5-18.9-27.8-28.2c-5.1-5.1-10.2-10.2-15.3-15.3c-1.6-1.6-3.2-3.1-4.7-4.7c-0.4-0.4-1.4-1.1-1.5-1.5
					c-0.2-0.6,0.4-1.9,0.5-2.4c0.4-1.9,0.9-3.9,1.3-5.8c1.3-6.1,2.7-12.2,4-18.3c2.5-11.5,5-23.1,7.4-34.8c0.4-2.1,0-2.6,2.2-2.8
					c4.6-0.5,9.2-1,13.9-1.5c14.4-1.5,28.8-3.1,43.2-4.6c4.9-0.5,9.9-1,14.8-1.6c2.2-0.2,2.4-0.8,3.2,1.4
					c4.3,11.3,8.6,22.6,12.9,33.9c4.9,13,9.9,26,14.8,38.9c0.5,1.3,1.3,5.1,2.5,5.4c1.6,0.5,4.9-1,6.5-1.2c3.5-0.7,7-1.3,10.4-2
					c4.5-0.9,9-1.7,13.5-2.6c-3.3-8.8-6.6-17.5-9.9-26.3c-7.9-21.1-15.8-42.2-23.8-63.4c-9.7-25.7-19.4-51.5-29.2-77.6
					c-8.5-22.5-17-45.1-25.6-67.9c-4.2-11-8.3-22.1-12.5-33.2C257,59.1,257,59,256.9,58.8z M45.7,141.9c3.5-4,7-8.1,10.6-12.2
					c10.4,7.6,20.9,15.4,31.4,23.5c16.7,12.8,33.5,26.2,50.3,40.1c3.9,3.2,7.8,6.4,11.6,9.7c-11.6,7-23.1,13.8-34.8,20.6
					c-18.4,10.7-36.9,21.2-55.5,31.3c-4.3,2.3-8.6,4.7-12.9,7c-0.2-13.4-0.4-26.7-0.5-40.2c-0.3-21.4-0.4-43-0.4-64.7
					C45.6,152,45.6,146.9,45.7,141.9z M213.3,373.7c-19.1,7-38.2,13.8-57.4,20.5c-30.7,10.7-61.6,21-92.9,31
					c-7.2,2.3-14.3,4.5-21.5,6.8c1.4-17.9,2.4-35.8,3.1-53.8c1-25,1.5-50.1,1.7-75.4c0-2.2-0.6-5.3,0.1-7.3c0.5-1.3,2.7-1.9,4.2-2.6
					c12.6-6.2,25.2-12.5,37.7-19c2.5-1.3,5.1-2.6,7.6-3.9c1.1-0.6,2.9-2.1,4.2-2.2c1.5-0.1,3.7,2.6,4.9,3.7
					c11.4,10.1,22.7,20.3,33.9,30.7c6,5.5,11.9,11.1,17.9,16.7c3.4,3.2,7.2,6.3,10.2,9.7c0.7,0.8,0.6,0.5,0.7,1.3
					c0.3,2-1.1,4.8-1.5,6.6c-1.5,6.8-3.1,13.5-4.6,20.2c-0.3,1.3-0.6,2.7-0.9,4c8.6,1.7,17.2,3.5,25.7,5.3c2.4,0.5,4.7,1,7,1.5
					c0.7,0.1,2.8,0.9,3.4,0.7c0.7-0.3,0.8-2.5,1-3.3c0.4-1.8,0.8-3.5,1.2-5.3C203.9,364.3,208.6,369,213.3,373.7z M226.4,231.2
					c2.2-11.9,4.4-24,6.6-36.2c3.5-19.4,7-39.1,10.5-59.2c0.8-4.6,1.6-9.3,2.4-14c4.5,11.5,8.9,23.1,13.4,34.6
					c7.1,18.4,14.2,36.7,21.2,54.9c1.6,4.2,3.3,8.5,4.9,12.7c-17.2,2.1-34.5,4.2-51.7,6.3C231.3,230.6,228.8,230.9,226.4,231.2z"/>
				<path class="st1" d="M520.3,205c-2.6,7.6-18.8,56.5-21.2,63.6c-5.9,17.1-11.7,34-17.4,50.8c-6.6,19.2-13,38.3-19.4,57.2
					c-4.9,14.6-9.8,29-14.6,43.4c-2.6,7.6-5.1,15.3-7.7,22.9c-0.4,1.1-0.8,2.3-1.1,3.4c-3.3-10.9-6.5-21.8-9.6-32.7
					c-2.3-7.9-4.6-15.9-6.9-23.8c-0.7-2.3-1.6-4.3-1-6.3c7.3-25.1,14.8-50.5,22.3-76.2c2.7-9.3,15.2-47.6,18-57.3
					c-11.6,0.3-23.3,0.5-34.9,0.8c-1.1,0-1.6-0.1-2.1,0.5c-1,1.2-10.9,32.9-11.3,34.3c-2.1,6.8-4.1,13.5-6.2,20.2
					c-1.5,4.8-3,9.6-4.4,14.4c-3.7-13-30.3-112.6-31.2-114c-0.6-0.7-2.4-0.6-3.3-0.7c-3.8-0.5-7.5-1-11.3-1.6
					c-7.2-1-12.6-1.5-19.8-2.5c2.8,11.6,33.9,130.8,38.9,150.7c2,8.2,4.1,16.4,6.2,24.6c0.6,2.6,1.3,5.1,1.9,7.7
					c0.3,1.1,0.9,2.6,0.9,3.7c0.1,3.1-21.9,65.9-23,69c-0.6,1.9-0.9,4.2-1.8,5.8c-0.1,0.2-0.2,0.5-0.2,0.8c-4-10.2-8-20.5-12-30.7
					c-5.8-14.8-11.5-29.6-17.2-44.3c-7.9-20.3-15.7-40.7-23.6-61c-5-12.9-10-25.9-15.1-38.9c-0.2-0.5-0.4-1.5-0.7-1.8
					c-0.5-0.5-2-0.7-2.6-1c-1.9-0.7-3.8-1.4-5.6-2.1c-9.3-3.4-18.6-6.8-28-10.2c-0.7-0.2-1.4-0.5-2-0.7c3.3,8.3,6.6,16.5,9.8,24.8
					c7.8,19.6,15.4,39.3,23.1,58.9c9.3,23.9,18.6,47.8,27.9,71.8c8,20.6,16,41.2,24.1,62c2.7,6.9,5.4,13.8,8.2,20.7
					c0.8,2.1,1.7,4.3,2.5,6.4c0.3,0.7,0.7,2.8,1.4,3.4c0.1,0.1,0.1,0.3,0.2,0.4c6.8-1.9,13.5-3.7,20.3-5.6c3.6-1,7.3-2,10.9-3.1
					c1.4-0.4,1.4-0.3,1.8-1.6c5-14.6,9.1-29.8,13.5-44.8c1.6-5.3,3.2-10.7,4.8-16c4.4,13.6,8.8,27.3,13.3,41
					c0.5,1.5,0.3,1.9,1.6,2.6c2.4,1.4,5.9,2,8.4,2.9c9,3.1,18,6.2,27,9.4c1.8,0.6,8.2,3.8,9.4,2.9c0.9-0.7,1.2-3.6,1.5-4.8
					c2.6-8.1,5.2-16.2,7.8-24.3c9.2-28.6,18.5-57.4,28.1-86.6c10.4-31.7,21.2-63.8,32.3-96.4c4-11.7,8.1-23.6,12.2-35.4
					c1.3-3.8,16.5-49.2,17.9-53.2c0.6-1.8,2-4.1,2.1-6.1c0-0.3,0.2-0.6,0.3-0.8C549.1,202.7,534.7,203.8,520.3,205z"/>
				<path class="st1" d="M569.1,421.8c36.6-2.1,73.2-4.3,109.9-6.7c4.5-0.3,9.1-0.6,13.6-0.9c2.3-0.2,4.5-0.3,6.8-0.5
					c1.3-0.1,3.5-0.7,4.9-0.1c2.5,1.1,1.2,3.7,0.9,5.5c-0.9,4.5-1.5,9.2-2.3,13.7c-0.7,4.3-1.5,8.5-2.1,12.8
					c-0.5,3.6-0.9,6.4-4.5,7.2c-3.6,0.8-7.8,0.9-11.5,1.2c-4.8,0.5-9.7,1-14.5,1.5c-35.9,3.6-71.6,7.2-107.6,10.5
					c-8.3,0.7-16.4,2.1-24.8,2.6c-3.7,0.2-7.5,0.2-11.4-0.1c-4.7-0.4-9.4-1.7-14.2-2.7c-4.1-0.8-8.3-1.7-12.4-2.5
					c-1.2-0.2-3.6-0.2-4.6-1.5c-1.2-1.4,0.2-3.4,0.7-4.4c3.1-7.5,5.5-15.4,7.9-23.3c19.9-66.3,42.9-133.7,67-203
					c6-17.3,12-34.7,18.1-52.2c3-8.7,23.3-67.1,26.3-76c1.5-4.4,3-8.8,4.5-13.2c0.9-2.7,1.5-7.1,4.3-8.2c3-1.2,7.9,1,11.2,1.7
					c4.8,1.1,9.6,2.1,14.4,3.1c2.4,0.5,4.8,1,7.2,1.5c1.1,0.2,3.2,0.4,4.2,1.4c2.2,2.2-1.2,7.6-1.7,9.5c-2.1,7.1-5,13.7-7.5,20.9
					c-3.1,8.9-77.8,214.2-97.4,280.2c-2.5,7.9-4.9,15.8-7.3,23.6C554.4,422.9,561.8,422.3,569.1,421.8z"/>
			</g>
		</g>
		<path class="st0" d="M318.1,498.2c-6.4,1.1-12.9,2.1-19.3,3.1c-15.5,2.5-31.1,4.9-46.8,7.4c-19,2.9-38,5.8-57.2,8.6
			c-16.6,2.4-33.3,4.8-50.1,7.1c-5.5,0.8-11.1,1.5-16.7,2.3c-1.7,0.2-3.5,0.5-5.2,0.7c-0.5,0.1-2.2,0.6-2.8,0.4
			c-0.1,0-0.3,0-0.4,0.1c1.6-7.1,3.1-14.3,4.5-21.4c0.2-1.1,0.2-4.1,1.1-4.8c0.4-0.3,2-0.3,2.6-0.4c12.6-2.1,25.1-4.2,37.6-6.4
			c20.4-3.5,40.8-7.1,60.9-10.8c19.4-3.5,38.7-7.1,57.9-10.8c6.6-1.3,13.3-2.6,19.9-3.8c2.1-0.4,4.2-0.8,6.2-1.2
			c0.7-0.1,2.6-0.9,3.4-0.7c0.1,0,0.3-0.1,0.4-0.1C315.5,477.7,316.8,487.9,318.1,498.2z"/>
		<path class="st1" d="M299.8,480.2c-6.4,1.1-12.8,2.2-19.3,3.2c-15.5,2.6-31,5.1-46.6,7.5c-18.9,3-37.8,5.9-56.9,8.8
			c-16.5,2.5-33.1,4.9-49.8,7.3c-5.5,0.8-11,1.6-16.6,2.4c-1.7,0.2-3.5,0.5-5.2,0.7c-0.5,0.1-2.2,0.6-2.7,0.4c-0.1,0-0.3,0-0.4,0.1
			c1.5-7.1,3-14.2,4.4-21.3c0.2-1.1,0.2-4.1,1-4.8c0.4-0.3,2-0.3,2.6-0.4c12.5-2.1,25-4.3,37.4-6.5c20.3-3.6,40.6-7.3,60.7-11
			c19.3-3.6,38.5-7.3,57.7-11.1c6.6-1.3,13.2-2.6,19.9-3.9c2.1-0.4,4.2-0.8,6.2-1.2c0.7-0.1,2.5-0.9,3.3-0.7c0.1,0,0.3-0.1,0.4-0.1
			C297.3,459.7,298.6,470,299.8,480.2z"/>
	</g>
</g>
</svg>
