<?xml version="1.0" encoding="utf-8"?>
<!-- Generator: Adobe Illustrator 21.0.0, SVG Export Plug-In . SVG Version: 6.00 Build 0)  -->
<svg version="1.1" id="Calque_1" xmlns="http://www.w3.org/2000/svg" xmlns:xlink="http://www.w3.org/1999/xlink" x="0px" y="0px"
	 viewBox="0 0 722.6 628.4" style="enable-background:new 0 0 722.6 628.4;" xml:space="preserve">
<style type="text/css">
	.st0{fill:none;}
	.st1{opacity:0.3;fill:url(#SVGID_1_);enable-background:new    ;}
	.st2{opacity:0.5;fill:url(#SVGID_2_);enable-background:new    ;}
	.st3{opacity:0.8;fill:url(#SVGID_3_);enable-background:new    ;}
	.st4{fill:url(#SVGID_4_);}
	.st5{opacity:0.6;fill:url(#SVGID_5_);enable-background:new    ;}
	.st6{opacity:0.8;fill:url(#SVGID_6_);enable-background:new    ;}
	.st7{opacity:0.8;fill:url(#SVGID_7_);enable-background:new    ;}
	.st8{fill:url(#SVGID_8_);}
</style>
<g>
	<path d="M364.4,320.9c11.5,0,21.3,4.2,29.4,12.4c8.1,8.3,12.2,18.2,12.2,29.9c0,11.6-4.1,21.6-12.2,29.9
		c-8.1,8.3-17.9,12.4-29.4,12.4c-11.4,0-21.2-4.2-29.3-12.4c-8.1-8.3-12.2-18.2-12.2-29.9c0-11.6,4.1-21.6,12.2-29.9
		C343.3,325.1,353,320.9,364.4,320.9z M364.4,401.4c10.3,0,19.1-3.7,26.4-11.3c7.4-7.4,11-16.4,11-27s-3.6-19.5-11-27
		c-7.4-7.4-16.2-11.2-26.4-11.2c-10.3,0-19.1,3.7-26.3,11.2c-7.4,7.4-11,16.5-11,27c0,10.5,3.6,19.5,11,27
		C345.4,397.7,354.1,401.4,364.4,401.4z M443.4,320.9c11.5,0,21.3,4.2,29.4,12.4c8.1,8.3,12.2,18.2,12.2,29.9v2.1h-78.9
		c0.5,10.1,4.4,18.6,11.5,25.6c7.3,7,15.9,10.5,25.7,10.5c7.9,0,15-2.4,21.5-7c6.4-4.6,11.1-10.6,13.7-18.1l3.9,1.4
		c-2.9,8.3-8,15.2-15.2,20.2c-7.2,5.2-15.2,7.7-23.9,7.7c-11.4,0-21.2-4.2-29.3-12.4c-8.1-8.3-12.2-18.2-12.2-29.9
		s4.1-21.6,12.2-29.9C422.1,325,431.9,320.9,443.4,320.9z M480.6,361.1c-0.5-10.1-4.4-18.6-11.6-25.6c-7.2-7-15.8-10.5-25.7-10.5
		c-9.9,0-18.4,3.5-25.7,10.5c-7.2,7-11,15.5-11.5,25.6H480.6z"/>
	<path d="M570,405.6h-4.2v-22.7c-3.1,6.8-7.4,12.3-13.2,16.4c-5.9,4.2-12.3,6.3-19.1,6.3c-10.1,0-18.7-4.2-25.8-12.4
		c-7.1-8.3-10.6-18.2-10.6-29.9V321h4.2v42.3c0,10.5,3.2,19.5,9.4,27s13.9,11.3,22.9,11.3c8.9,0,16.4-3.7,22.8-11.2
		c6.3-7.4,9.4-16.4,9.4-27V321h4.2L570,405.6L570,405.6z"/>
	<path d="M590.2,344.2c3.2-7,7.8-12.6,13.9-16.8c6.3-4.3,13.1-6.4,20.3-6.4h2.1v4.2h-2.1c-9.4,0-17.4,3.7-24.2,11.2
		c-6.7,7.4-10,16.4-10,27v42.4h-4.1V321h4.2L590.2,344.2L590.2,344.2z"/>
</g>
<g>
	<path class="st0" d="M87.2,383.4c0,3.4,0.5,6.4,1.6,9.4c1.1,3,2.4,5.5,4,7.6c1.6,2.2,3.3,3.7,5.1,4.6c1.8,1,3.4,1.1,4.9,0.4
		c1.5-0.7,2.7-2.5,3.6-5.2c1-2.7,1.4-6.6,1.2-11.8c-0.1-4.7-0.4-9.9-1-15.4c-0.6-5.5-1.4-11.3-2.4-17.4c-5.2,4.2-9.3,8.4-12.3,12.8
		C88.8,372.8,87.3,377.8,87.2,383.4z"/>
	<path class="st0" d="M62.7,270.1c4-0.5,7.2-1.8,9.6-3.9c2.5-2,4.3-4.4,5.5-7.1c1.3-2.7,1.9-5.4,2.1-8.4c0.1-2.9-0.2-5.5-0.8-7.9
		c-0.7-2.2-1.5-4-2.5-5.4c-1-1.5-2.6-2-4.9-1.8c-2.1,0.3-3.9,1.8-5.4,4.4c-1.5,2.7-2.9,5.8-3.9,9.5c-1.1,3.6-1.9,7.4-2.5,11.2
		c-0.6,3.8-0.9,7.1-0.9,9.7c0.7,0,1.4,0,1.9-0.1C61.4,270.3,62,270.2,62.7,270.1z"/>
	<path class="st0" d="M162.9,297.4c1.2-2.4,1.5-4.4,1.2-6c-0.4-1.4-0.9-2.3-1.7-2.9c-0.8-0.6-1.7-0.7-2.7-0.5
		c-0.9,0.5-1.5,1.3-2.1,2.5c-0.5,1.3-0.9,2.8-1.1,4.4c-0.3,1.6-0.4,3.3-0.4,4.9c0,1.6,0,3,0.1,4.1l0.2,0.1
		C159.4,302.1,161.7,299.8,162.9,297.4z"/>
	<path class="st0" d="M216,289.9c1.2-2.4,1.5-4.4,1.2-6c-0.4-1.4-0.9-2.3-1.7-2.9c-0.8-0.6-1.7-0.7-2.7-0.5
		c-0.9,0.5-1.5,1.3-2.1,2.5c-0.5,1.3-0.9,2.8-1.1,4.4c-0.3,1.6-0.4,3.3-0.4,4.9c0,1.6,0,3,0.1,4.1l0.2,0.1
		C212.7,294.5,214.8,292.3,216,289.9z"/>
	<path d="M237.8,309.3c-0.8,2.7-1.7,5.2-2.5,7.4c-0.8,2.2-1.6,3.9-2.3,5.1c-2.3,3.8-4.4,6.2-6.4,7.4c-2,1.1-3.7,1.4-5.4,0.8
		s-3-1.7-4.2-3.4c-1.2-1.7-2.2-3.5-2.9-5.4c-1.5-3.5-2.5-7.2-3.2-11c-0.6-3.8-0.9-6.8-0.7-9c4.6-2.6,7.9-5.4,9.7-8.5
		s2.5-5.9,1.8-8.6c-0.6-2.5-2.1-4.5-4.5-6.3c-2.5-1.7-5.4-2.7-8.8-2.9c-4.4,0.1-8,1.3-11,3.4c-2.9,2.2-5.2,4.9-6.7,8.2
		c-1.5,3.4-2.5,7.1-2.7,11.2c-0.1,2-0.1,4,0.1,6.1c-0.3,1.5-0.6,3.1-1,4.6c-0.7,3.1-1.5,6-2.4,8.7c-0.8,2.7-1.7,5.2-2.5,7.4
		c-0.8,2.2-1.6,3.9-2.3,5.1c-2.3,3.8-4.4,6.2-6.4,7.4c-2,1.1-3.7,1.4-5.4,0.8c-1.6-0.5-3-1.7-4.2-3.4c-1.2-1.7-2.2-3.5-2.9-5.4
		c-1.5-3.5-2.5-7.2-3.2-11c-0.6-3.8-0.9-6.8-0.7-9c4.6-2.6,7.9-5.4,9.7-8.5c1.8-3.1,2.5-5.9,1.8-8.6c-0.6-2.5-2.1-4.5-4.5-6.3
		c-2.5-1.7-5.4-2.7-8.8-2.9c-4.4,0.1-8,1.3-11,3.4c-2.9,2.2-5.2,4.9-6.7,8.2c-1.5,3.4-2.5,7.1-2.7,11.2c-0.2,3.1-0.1,6.2,0.5,9.3
		c0.1,2.6-0.3,5-0.9,7.2c-0.7,2.4-1.7,4.4-3.1,6.2c-1.4,1.8-2.8,3.4-4.5,4.8c-1.7,1.5-3.4,2.7-5.1,4c-0.7-3.9-1.5-7.4-2.1-10.6
		s-1.3-6.2-1.9-9.1c-0.6-2.9-1.3-5.8-2-8.7c-0.7-2.9-1.5-6.1-2.5-9.4c-0.5-2.3-0.9-4-1.4-5.2c-0.5-1.2-1-2-1.5-2.5s-1.2-0.6-1.8-0.6
		c-0.6,0.1-1.4,0.1-2.2,0.3c-2.5,0.5-4.5,1.5-6.4,2.6c-1.8,1.2-3.4,2.5-4.8,3.7c-1.5,1.5-2.9,3.1-4.1,4.9l0.8-0.1
		c-0.4,0.3-0.5,0.4-0.6,0.4c0.2,0.6,0.4,1.2,0.5,1.5c-0.1,0.5-0.1,0.8,0,1.2c3.1,13.2,3.8,23.5,2.3,30.9c-1.5,7.5-4.7,11.6-9.3,12.4
		c-3.2,0.5-6.1-0.5-8.8-3c-2.6-2.5-5.1-6.1-7.2-10.4c-2.1-4.4-3.9-9.3-5.4-15c-1.5-5.6-2.7-11.3-3.5-16.9c-0.9-5.6-1.4-11-1.5-16
		c-0.1-5,0.2-9.2,0.8-12.3c0.8,0.1,1.6,0.1,2.4-0.1c0.8-0.1,1.5-0.2,2.4-0.4c4.5-0.6,8.3-2.1,11.3-4.3c3-2.2,5.4-4.8,7.2-7.7
		c1.7-2.9,2.8-6.1,3.2-9.4c0.4-3.4,0.1-6.5-0.8-9.5c-1.2-3.5-3.2-6.6-6-9.1c-2.8-2.5-6.4-3.6-10.8-3.6c-0.8,0-1.4,0.1-1.8,0.3
		c-0.5,0.2-1.1,0.3-1.8,0.4c-6.3,0.9-11.7,3.4-16.3,7.4c-4.7,4.1-8.3,9.6-10.6,16.7c-2.4,7.1-3.5,15.6-3.4,25.6
		c0.2,10,2,21.3,5.4,33.9c1.5,5.7,3.6,11.2,6.3,16.4s5.7,9.9,9.4,13.7c3.7,3.8,8.1,6.7,13,8.5s10.4,2.2,16.6,0.9
		c2.3-0.5,4.3-1.4,6.1-2.7c1.8-1.4,3.4-3.1,4.8-5s2.5-4.1,3.4-6.4c0.8-2.4,1.4-4.8,1.5-7.2l3.5,16.3c-3.4,2.4-6.4,4.8-9.4,7.4
		c-2.9,2.5-5.4,5.4-7.5,8.3c-2.1,3-3.5,6.3-4.5,9.7c-1,3.4-1.2,7.3-0.5,11.4c0.5,3.2,1.4,6.3,2.6,9.3c1.3,3,2.8,5.6,4.5,8
		c1.8,2.4,3.7,4.3,5.9,5.6c2.2,1.5,4.4,2.2,6.8,2.4c1.2,0,2.3,0,3.2,0c1,0,1.9-0.1,2.9-0.3c5-0.7,8.8-3.1,11.5-7.2
		c2.7-4.1,4.5-9.3,5.4-15.5c1-6.3,1.3-13.3,0.8-21.3c-0.5-7.9-1.4-16.2-2.7-24.7c3.4-2.4,6.4-5,8.7-7.8c2.4-2.8,4.3-5.6,5.7-8.3
		c0.4-0.7,0.7-1.4,1-2c0.5,1.2,1,2.5,1.5,3.6c1.6,3.4,3.6,6.4,5.9,9.1c2.3,2.6,4.9,4.8,7.7,6.4c2.9,1.5,6,2.3,9.3,2.1
		c3.9-0.3,7.4-1.1,10.6-2.5s5.9-3.7,8.3-7.1c2.5-3.4,4.6-7.9,6.4-13.6c0.8-2.5,1.5-5.3,2.2-8.4c0.7,2.2,1.5,4.4,2.6,6.4
		c1.6,3.4,3.6,6.4,5.9,9.1c2.3,2.6,4.9,4.8,7.7,6.4c2.9,1.5,6,2.3,9.3,2.1c3.9-0.3,7.4-1.1,10.6-2.5s5.9-3.7,8.3-7.1
		c2.5-3.4,4.6-7.9,6.4-13.6c0.4-1.3,0.8-2.6,1.2-4.1l-2.4-9C239.3,304.4,238.5,307,237.8,309.3z M209.2,292.5c0-1.6,0.1-3.3,0.4-4.9
		c0.3-1.6,0.6-3.2,1.1-4.4c0.5-1.3,1.2-2.2,2.1-2.5c1-0.4,1.9-0.2,2.7,0.5c0.8,0.6,1.5,1.6,1.7,2.9c0.4,1.6,0,3.6-1.2,6
		s-3.4,4.6-6.5,6.8l-0.2-0.1C209.2,295.4,209.2,294.1,209.2,292.5z M156,300c0-1.6,0.1-3.3,0.4-4.9c0.3-1.6,0.6-3.2,1.1-4.4
		c0.5-1.3,1.2-2.2,2.1-2.5c1-0.4,1.9-0.2,2.7,0.5c0.8,0.6,1.5,1.6,1.7,2.9c0.4,1.6,0,3.6-1.2,6c-1.2,2.4-3.4,4.6-6.5,6.8l-0.2-0.1
		C156,303,156,301.6,156,300z M59.8,260.8c0.6-3.8,1.5-7.5,2.5-11.2s2.4-6.8,3.9-9.5c1.5-2.7,3.4-4.2,5.4-4.4
		c2.3-0.2,3.9,0.4,4.9,1.8c1,1.5,1.8,3.3,2.5,5.4c0.6,2.4,0.9,5,0.8,7.9c-0.1,2.9-0.8,5.7-2.1,8.4s-3.1,5.1-5.5,7.1
		s-5.6,3.3-9.6,3.9c-0.6,0.1-1.3,0.2-1.9,0.3s-1.3,0.1-1.9,0.1C58.9,267.9,59.2,264.6,59.8,260.8z M106.6,373
		c0.6,5.5,0.9,10.7,1,15.4c0.2,5.2-0.2,9.2-1.2,11.8c-1,2.7-2.2,4.4-3.6,5.2c-1.5,0.7-3.1,0.6-4.9-0.4s-3.4-2.5-5.1-4.6
		c-1.6-2.2-2.9-4.7-4-7.6s-1.6-6.1-1.6-9.4c0-5.6,1.5-10.6,4.6-15c3.1-4.4,7.2-8.6,12.3-12.8C105.2,361.6,106,367.4,106.6,373z"/>
	<g>
		<path d="M328.1,346.4c-0.5-0.2-0.9-0.2-1.5,0c-0.3,0.1-0.4,1.7-0.6,2.3c-0.5,2.2,1.4-5.8-0.1-1.6s-3.3,8.8-5.1,13.4
			c-1.8,4.6-3.7,9.1-5.5,13.2c-1.9,4.1-3.4,7.1-4.4,8.9c-2,3.3-3.7,6.2-5.1,8.5c-1.5,2.7-3,4.4-4.5,5.2c-1.3,0.6-3.4,1.1-6.1-1.1
			c-1.8-1.5-4-4.2-6.7-8.5c-2-3.2-4.2-6.9-6.4-10.9c-2.3-4.1-4.5-8.3-6.8-12.5c-2.2-4.3-4.4-8.4-6.4-12.6s-3.9-8.1-5.5-11.6
			c-0.2-0.4-0.2-0.8,0-1.2s0.5-0.6,1-0.7c8.5-1.5,15.7-4.4,21.2-8.3c5.6-4,10-8.4,12.9-13.3c2.9-4.9,4.8-10.1,5.4-15.4
			c0.7-5.4,0.4-10.3-0.8-14.8c-1.3-4.4-3.4-8.2-6.4-11.2c-2.9-3-6.4-4.5-10.4-4.8c-2.3-0.2-4.8,0-7.7,0.6c-2.9,0.6-5.8,1.7-8.6,3.4
			c-2.8,1.5-5.4,3.8-7.7,6.7c-2.4,2.8-4.1,6.4-5.2,10.8c-0.2,0.7-0.8,1.2-1.5,1c-0.7-0.1-1.2-0.7-1.2-1.5c0.4-5.6,0.7-10.8,1-15.5
			c0.3-4.7,0.5-9.3,0.7-13.9l0.7-13.3c0.3-4.4,0.6-9.1,1.2-13.9c0.2-1.8-0.2-3.2-1.2-4.2c-1.1-1.1-2.5-1.7-4.4-2
			c-1.9-0.3-4.1-0.2-6.4,0.3c-2.4,0.5-4.6,1.3-6.6,2.4c-2,1.1-3.7,2.4-5.1,3.9c-1.3,1.5-1.9,3-1.9,4.8c0,6.4-0.1,13.7-0.2,21.7
			c-0.1,8.2-0.3,16.7-0.4,25.8l-0.4,27.8c-0.1,6.3-0.4,46.7-0.4,53.4c0,7.9,0.1,15.1,0.2,21.1c0,2.5,0.8,4.4,2.4,5.8
			c1.7,1.5,3.6,2.5,5.6,2.9c2,0.4,3.9,0.1,5.7-0.9c1.7-0.9,2.6-2.7,3-5.4c0.4-4.2,1-8.5,1.9-12.9c0.3-1.5,0.5-3.1,0.6-4.8
			c0.4-3.5,0.8-7.6,2.3-12c0.2-0.5,0.6-0.8,1.1-0.9c0.1,0,0.2,0,0.3,0c0.6,0,1.2,0.5,1.3,1c1.4,4.7,3.8,8.9,6.2,12.9
			c1.1,1.9,2.1,3.6,3.1,5.4c2.9,5.6,6,10.5,9.2,14.6c3.2,4,6.5,7.1,10.2,9.2c3.5,2,7.6,2.7,12.3,2.2c3.3-0.4,6.1-2.6,9.4-6.8
			c3.5-4.4,6.9-10.1,10.2-16.6c3.3-6.6,6.4-14,9.2-21.7c2.8-7.8,2.5-5.6,4.6-12.3c0.1-0.5-0.1-0.8-0.3-1
			C329.1,346.8,328.6,346.5,328.1,346.4z M256.7,335.5c-0.5,0.1-1.1,0.2-1.6,0.2c-0.4,0.1-0.8-0.1-1.1-0.4c-0.3-0.3-0.5-0.6-0.5-1.1
			l0.2-23.2c0-4.7,0.8-9.3,2.5-13.5c1.6-4.2,3.4-7.9,5.6-11.2c2.2-3.3,4.4-5.8,6.5-7.7c2.5-2.1,4.4-2.9,5.9-2.8
			c3,0.5,5.4,2.2,7.4,5.3c1.8,2.9,3,6.4,3.4,10.7c0.5,4.2,0.3,8.6-0.5,13.3c-0.8,4.7-2.4,9.3-4.6,13.5c-2.3,4.3-5.5,8-9.5,11.1
			C266.5,332.8,261.9,334.7,256.7,335.5z"/>
	</g>
</g>
<g>
	
		<linearGradient id="SVGID_1_" gradientUnits="userSpaceOnUse" x1="477.2806" y1="341.0367" x2="541.357" y2="296.1698" gradientTransform="matrix(0.9603 0.2902 0.3939 -0.9223 17.7661 414.3091)">
		<stop  offset="0.1225" style="stop-color:#D43F3F"/>
		<stop  offset="0.7017" style="stop-color:#BF0000"/>
	</linearGradient>
	<path class="st1" d="M629.7,302.6c5.2-8.3,8.3-17.6,11.5-26.8c3.4-9.8,5.7-17.3,9.6-27c-0.5-8-5.7-15-14.2-17.5
		c-11.7-3.5-25,2.7-29.9,14c-9.7,22.8,11.5,35.9,18.3,63.3l0,0l0,0C626.8,306.8,628.4,304.7,629.7,302.6z M621.2,266.7l2.5-8.8
		l-8.8-2.5l1.7-5.9l8.8,2.5l2.5-8.8l5.9,1.7l-2.5,8.8l8.8,2.5l-1.7,5.9l-8.8-2.5l-2.5,8.8L621.2,266.7z"/>
	
		<linearGradient id="SVGID_2_" gradientUnits="userSpaceOnUse" x1="461.2977" y1="266.6563" x2="558.9612" y2="343.0911" gradientTransform="matrix(0.9603 0.2902 0.3939 -0.9223 17.7661 414.3091)">
		<stop  offset="0.1225" style="stop-color:#D43F3F"/>
		<stop  offset="0.7017" style="stop-color:#BF0000"/>
		<stop  offset="0.9949" style="stop-color:#930000"/>
	</linearGradient>
	<path class="st2" d="M675,242.9c-8.4-2.5-17.9,0-24.1,5.9l0,0l0,0c-3.8,9.6-6.2,17.2-9.6,27c-3.3,9.2-6.4,18.5-11.5,26.8
		c-1.3,2.1-2.8,4.2-4.6,5.9c0,0.1,0.1,0.3,0.1,0.4c25-17.8,52.9-17.2,62.3-39.2C692.3,258.4,686.7,246.4,675,242.9z M654.4,264.6
		c0-2.4,1.9-4.4,4.4-4.4c2.4,0,4.4,1.9,4.4,4.4c0,2.4-1.9,4.4-4.4,4.4C656.3,269,654.4,267,654.4,264.6z M664.7,280.2
		c-2.4,0-4.4-1.9-4.4-4.4c0-2.5,1.9-4.4,4.4-4.4c2.4,0,4.4,1.9,4.4,4.4C669,278.3,667,280.2,664.7,280.2z M665.2,258.7
		c0-2.4,1.9-4.4,4.4-4.4c2.4,0,4.4,1.9,4.4,4.4c0,2.4-1.9,4.4-4.4,4.4C667.1,263.1,665.2,261.1,665.2,258.7z M675.8,273.9
		c-2.4,0-4.4-1.9-4.4-4.4c0-2.4,1.9-4.4,4.4-4.4c2.4,0,4.4,1.9,4.4,4.4C680.2,271.9,678.3,273.9,675.8,273.9z"/>
	
		<linearGradient id="SVGID_3_" gradientUnits="userSpaceOnUse" x1="476.3904" y1="339.7934" x2="540.4669" y2="294.9265" gradientTransform="matrix(0.9603 0.2902 0.3939 -0.9223 17.7661 414.3091)">
		<stop  offset="0.1225" style="stop-color:#D43F3F"/>
		<stop  offset="0.7017" style="stop-color:#BF0000"/>
	</linearGradient>
	<path class="st3" d="M641.3,275.9c3.4-9.8,5.7-17.4,9.6-27l0,0C647,258.5,644.7,266.1,641.3,275.9c-3.2,9.2-6.4,18.5-11.5,26.7
		c-1.3,2.1-2.8,4.2-4.6,5.9l0,0c1.8-1.7,3.4-3.8,4.6-5.9C634.8,294.5,638,285.1,641.3,275.9z"/>
	
		<linearGradient id="SVGID_4_" gradientUnits="userSpaceOnUse" x1="461.9361" y1="265.8407" x2="559.5995" y2="342.2756" gradientTransform="matrix(0.9603 0.2902 0.3939 -0.9223 17.7661 414.3091)">
		<stop  offset="0.1225" style="stop-color:#D43F3F"/>
		<stop  offset="0.7017" style="stop-color:#BF0000"/>
		<stop  offset="0.9949" style="stop-color:#930000"/>
	</linearGradient>
	<path class="st4" d="M641.3,275.9c3.4-9.8,5.7-17.4,9.6-27l0,0C647,258.5,644.7,266.1,641.3,275.9c-3.2,9.2-6.4,18.5-11.5,26.7
		c-1.3,2.1-2.8,4.2-4.6,5.9l0,0c1.8-1.7,3.4-3.8,4.6-5.9C634.8,294.5,638,285.1,641.3,275.9z"/>
</g>
<g>
	
		<linearGradient id="SVGID_5_" gradientUnits="userSpaceOnUse" x1="475.5247" y1="341.8616" x2="539.6013" y2="296.9948" gradientTransform="matrix(0.9603 0.2902 0.3939 -0.9223 17.7661 414.3091)">
		<stop  offset="0.1225" style="stop-color:#D43F3F"/>
		<stop  offset="0.7017" style="stop-color:#BF0000"/>
	</linearGradient>
	<path class="st5" d="M628.4,301.3c5.2-8.3,8.3-17.6,11.5-26.8c3.4-9.8,5.7-17.3,9.6-27c-0.5-8-5.7-15-14.2-17.5
		c-11.7-3.5-25,2.7-29.9,14c-9.7,22.8,11.5,35.9,18.3,63.3l0,0l0,0C625.6,305.4,627.1,303.4,628.4,301.3z M619.9,265.3l2.5-8.8
		l-8.8-2.5l1.7-5.9l8.8,2.5l2.5-8.8l5.9,1.7l-2.5,8.8l8.8,2.5l-1.7,5.9l-8.8-2.5l-2.5,8.8L619.9,265.3z"/>
	
		<linearGradient id="SVGID_6_" gradientUnits="userSpaceOnUse" x1="459.5732" y1="267.5059" x2="557.2368" y2="343.9407" gradientTransform="matrix(0.9603 0.2902 0.3939 -0.9223 17.7661 414.3091)">
		<stop  offset="0.1225" style="stop-color:#D43F3F"/>
		<stop  offset="0.7017" style="stop-color:#BF0000"/>
		<stop  offset="0.9949" style="stop-color:#930000"/>
	</linearGradient>
	<path class="st6" d="M673.7,241.6c-8.4-2.5-17.9,0-24.1,5.9l0,0l0,0c-3.8,9.6-6.2,17.2-9.6,27c-3.3,9.2-6.4,18.5-11.5,26.8
		c-1.3,2.1-2.8,4.2-4.6,5.9c0,0.1,0.1,0.3,0.1,0.4c25-17.8,52.9-17.2,62.3-39.2C691,257.2,685.4,245.1,673.7,241.6z M653.1,263.2
		c0-2.4,1.9-4.4,4.4-4.4c2.4,0,4.4,1.9,4.4,4.4c0,2.4-1.9,4.4-4.4,4.4S653.1,265.7,653.1,263.2z M663.3,278.8
		c-2.4,0-4.4-1.9-4.4-4.4c0-2.4,1.9-4.4,4.4-4.4c2.4,0,4.4,1.9,4.4,4.4C667.7,276.8,665.7,278.8,663.3,278.8z M663.9,257.3
		c0-2.4,1.9-4.4,4.4-4.4c2.4,0,4.4,1.9,4.4,4.4c0,2.4-1.9,4.4-4.4,4.4C665.9,261.7,663.9,259.8,663.9,257.3z M674.6,272.5
		c-2.4,0-4.4-1.9-4.4-4.4c0-2.4,1.9-4.4,4.4-4.4c2.4,0,4.4,1.9,4.4,4.4C678.8,270.6,676.9,272.5,674.6,272.5z"/>
	
		<linearGradient id="SVGID_7_" gradientUnits="userSpaceOnUse" x1="474.6263" y1="340.6863" x2="538.7027" y2="295.8195" gradientTransform="matrix(0.9603 0.2902 0.3939 -0.9223 17.7661 414.3091)">
		<stop  offset="0.1225" style="stop-color:#D43F3F"/>
		<stop  offset="0.7017" style="stop-color:#BF0000"/>
	</linearGradient>
	<path class="st7" d="M639.9,274.6c3.4-9.8,5.7-17.4,9.6-27l0,0C645.6,257.2,643.4,264.8,639.9,274.6c-3.2,9.2-6.4,18.5-11.5,26.7
		c-1.3,2.1-2.8,4.2-4.6,5.9l0,0c1.8-1.7,3.4-3.8,4.6-5.9C633.6,293.1,636.6,283.7,639.9,274.6z"/>
	
		<linearGradient id="SVGID_8_" gradientUnits="userSpaceOnUse" x1="460.1557" y1="266.7617" x2="557.8193" y2="343.1966" gradientTransform="matrix(0.9603 0.2902 0.3939 -0.9223 17.7661 414.3091)">
		<stop  offset="0.1225" style="stop-color:#D43F3F"/>
		<stop  offset="0.7017" style="stop-color:#BF0000"/>
		<stop  offset="0.9949" style="stop-color:#930000"/>
	</linearGradient>
	<path class="st8" d="M639.9,274.6c3.4-9.8,5.7-17.4,9.6-27l0,0C645.6,257.2,643.4,264.8,639.9,274.6c-3.2,9.2-6.4,18.5-11.5,26.7
		c-1.3,2.1-2.8,4.2-4.6,5.9l0,0c1.8-1.7,3.4-3.8,4.6-5.9C633.6,293.1,636.6,283.7,639.9,274.6z"/>
</g>
</svg>
