<?xml version="1.0" encoding="utf-8"?>
<!-- Generator: Adobe Illustrator 21.0.0, SVG Export Plug-In . SVG Version: 6.00 Build 0)  -->
<svg version="1.1" id="Calque_1" xmlns="http://www.w3.org/2000/svg" xmlns:xlink="http://www.w3.org/1999/xlink" x="0px" y="0px"
	 viewBox="0 0 722.6 628.4" style="enable-background:new 0 0 722.6 628.4;" xml:space="preserve">
<style type="text/css">
	.st0{fill:#46A767;}
	.st1{fill:#4D4948;}
</style>
<g>
	<path class="st0" d="M458.8,328.7c-12.8,0-15.3-10.1-17.8-20.9c-0.4-1.2-0.5-2.3-0.9-3.5c-1.5-6.2-4-9.3-7.2-9.4
		c-2.8,0-5.3,2.4-6.8,6.8c-1.1,3.3-2.8,16.4-5.5,37.6c-1.8,13.5-3.6,27.3-4.7,34.9c-1,5.5-2,6.8-2,6.9c-1-0.4-2.8-4-3.6-7.1
		c-0.4-1.7-2.7-18.6-5-36.4c-4.1-30.9-9.6-73.1-11.9-83.9c-1-4.6-2.8-10.8-7.3-10.8l0,0c-4.7,0-7.8,7.7-8.6,11.3
		c-0.5,2.8-3.1,17.6-6.1,34.6c-3,17.3-6.3,36.8-7.7,44.4c-1,5.3-2.1,6.3-2.1,6.4c-0.6-0.2-2.1-2.1-3.1-4.7
		c-1.3-3.2-1.3-3.2-3.9-17.8l-1.4-8.1c-1.8-9.9-4.1-14.2-7.6-14.7c-4.5-0.5-7.8,6-12.1,15.1c-5.1,11.3-15,19.4-20.7,19.6
		c-3.5,0.1-70.4,0.1-135.1,0.2c-63.2,0-128.5,0.1-135.7,0.2c-1.2,0-2.2,1-2.2,2.2s1,2.2,2.2,2.2l0,0c7.1-0.1,72.5-0.1,135.6-0.2
		c67.7,0,131.7-0.1,135.2-0.2c8.2-0.2,19.2-10.1,24.6-22.2c1.3-3,5.5-12.3,7.4-12.6c0.1,0,1.9,0.9,3.7,11l1.4,8.1
		c2.7,14.9,2.8,15,4.2,18.7c1,2.4,3.6,7.8,7.7,7.6c3.9-0.4,5.3-5.6,6.1-10.1c1.4-7.7,4.7-27.2,7.7-44.4c2.8-16.4,5.4-31.8,6-34.5
		c0.8-3.7,3.3-7.7,4.4-7.7c0,0,1.5,0.6,3,7.2c2.3,10.6,7.8,52.8,11.8,83.6c3,22.3,4.6,35.1,5.1,36.9c0,0.1,2.8,10.5,8,10.5h0.1
		c4-0.1,5.4-5.8,6.3-10.6c1.3-7.7,3.1-21.6,4.9-35.1c2-15.8,4.4-33.6,5.3-36.7c0.9-2.8,2.1-3.6,2.4-3.6c0,0,1.5,0.4,3,6.1
		c0.4,1.1,0.5,2.2,0.9,3.5c2.7,10.9,5.9,24.2,22.2,24.2c16.2,0,224.1,0.2,224.1,0.2v-4.5C682.8,328.8,475,328.7,458.8,328.7z"/>
	<path class="st1" d="M72.3,316.8c7.3,0,13.2-2.1,17.6-6.1c3.6-3.3,6.3-8,7.7-13.7c0.4-1.3,0.1-2.4-0.4-3.3s-1.3-1.4-2.4-1.7
		c-1-0.2-1.9-0.1-2.8,0.4c-1,0.5-1.5,1.4-1.8,2.7c-1.1,5.3-3.3,9.3-6.5,11.7c-2.8,2.1-6.7,3.2-11.2,3.2c-6.1,0-10.9-2.1-14.5-6.3
		c-3.9-4.5-5.9-11.3-5.9-19.9c0-8.5,2-15,5.9-19.7c3.7-4.5,8.5-6.5,14.5-6.5c4.5,0,8.5,1,11.3,3.1c3.3,2.3,5.3,5.6,6.2,10.1
		c0.2,1.3,0.8,2.3,1.7,2.8c0.8,0.5,1.8,0.8,2.8,0.5c1-0.2,1.8-0.8,2.3-1.5c0.5-0.9,0.8-1.9,0.6-3c-1-5.5-3.5-10.1-7.3-13.4
		c-4.5-3.7-10.3-5.6-17.7-5.6c-8.2,0-15,3.1-20,9.1c-5.1,6.1-7.7,14.2-7.7,24c0,10.1,2.7,18.2,7.7,24.1
		C57.2,313.7,63.9,316.8,72.3,316.8z"/>
	<path class="st1" d="M122.7,287.7c-6.9,0.9-11.8,2.8-14.6,6c-1.9,2.2-2.8,5.3-2.8,9.2c0,4.4,1.4,7.8,4.1,10.1
		c2.8,2.6,6.8,3.7,12.1,3.7c3.7,0,7.2-0.6,10.3-2c1.5-0.6,3-1.5,4.5-2.7c0.4,1,0.9,1.8,1.7,2.4c1.4,0.9,3.7,1.3,7.2,1.3
		c1.1,0,2-0.4,2.7-1.1c0.5-0.6,0.9-1.4,0.9-2.4c-0.1-0.9-0.4-1.7-1-2.3c-0.6-0.6-1.5-1-2.4-1c-0.6,0-1.2-0.2-1.5-0.4
		c-0.4-0.4-0.4-0.8-0.4-1.3v-26.4c0-4.7-1.8-8.3-5.3-10.6c-3-2-7.1-3-12.3-3c-4.9,0-8.9,1.1-11.8,3.3c-3.1,2.3-5.1,5.9-5.8,10.3
		c-0.4,1.5,0.2,2.4,0.8,3c0.6,0.6,1.4,1.1,2.4,1.2h0.4c0.9,0,1.7-0.2,2.2-0.6c0.9-0.5,1.4-1.4,1.5-2.6c0.2-2.4,1.1-4.4,2.6-5.5
		c1.7-1.4,4.4-2.2,7.7-2.2c3.6,0,6.3,0.6,8.1,1.9c1.5,1.2,2.3,2.8,2.3,5.3c0,2-0.6,3.2-1.9,3.9C132.7,285.7,129.9,286.6,122.7,287.7
		z M112.8,302.8c0-2.6,0.6-4.4,2.1-5.5c1.5-1.4,4.4-2.3,8.2-2.8c4.2-0.5,7.6-1.2,10-2c1-0.4,1.9-0.6,2.7-1v11.8
		c-1.2,2-2.8,3.6-5,4.6c-2.6,1.3-5.6,2-9.3,2c-3.1,0-5.3-0.6-6.8-1.9C113.4,306.9,112.8,305.2,112.8,302.8z"/>
	<path class="st1" d="M159.1,316.8c0.9,0,1.8-0.4,2.6-1s1.2-1.7,1.2-2.8v-32.1c0.9-1.9,2.2-3.3,3.9-4.5c1.9-1.2,4.1-1.9,6.7-1.9
		c0.9,0,1.7-0.4,2.2-0.9c0.6-0.6,0.9-1.7,0.9-2.8c-0.1-3.2-2.1-3.6-3-3.6c-2.8,0-5.4,0.8-7.7,2.2c-1,0.5-1.9,1.3-2.8,2.2v-0.4
		c0-1.1-0.4-2.1-1.3-2.8c-1.4-1-3.6-1-5,0.2c-0.8,0.6-1.1,1.5-1.1,2.6v41.7c0,1.1,0.4,2.1,1.1,2.8
		C157.3,316.4,158.2,316.8,159.1,316.8z"/>
	<path class="st1" d="M202.7,316.9c3.6,0,6.8-0.8,9.6-2.4c1.4-0.8,2.7-1.7,3.6-2.8v0.4c0,1.1,0.4,2,1.1,2.8c0.6,0.5,1.4,1,2.4,1
		c1,0,1.9-0.4,2.6-0.9c0.8-0.6,1.2-1.7,1.3-2.8v-57.7c0-1.2-0.4-2.2-1.2-2.8c-1.4-1.3-3.6-1.3-5.1,0c-0.6,0.6-1.1,1.7-1.1,2.8v18.4
		c-1.3-1.4-2.8-2.7-4.5-3.5c-2.4-1.3-5.4-2-8.7-2c-6.8,0-12.1,2.7-15.8,7.7c-3.3,4.5-5,10.1-5,17.1c0,6.8,1.7,12.4,5,16.9
		C190.7,314.3,195.9,316.9,202.7,316.9z M202.7,274.1c4.4,0,7.6,1.8,10,5.4c2.2,3.3,3.3,7.6,3.3,12.6c0,5-1.1,9.2-3.3,12.6
		c-2.4,3.6-5.6,5.4-10,5.4s-7.7-1.8-10.1-5.4c-2.1-3.3-3.2-7.6-3.2-12.6c0-5.1,1.1-9.3,3.2-12.6C195,275.9,198.2,274.1,202.7,274.1z
		"/>
	<path class="st1" d="M239.9,261.4c1.7,0,2.8-0.5,3.9-1.7c0.9-1,1.3-2.2,1.3-3.6c0-1.4-0.4-2.8-1.3-3.7c-1-1.1-2.3-1.7-3.9-1.7
		c-1.7,0-3,0.5-4,1.8c-0.8,1-1.2,2.3-1.2,3.7c0,1.4,0.4,2.7,1.2,3.6C236.9,260.9,238.2,261.4,239.9,261.4z"/>
	<path class="st1" d="M237.4,268c-0.5,0.4-1.2,1.2-1.2,2.7v42.3c0,1.1,0.4,2.1,1.1,2.8c0.6,0.6,1.5,1,2.6,1c1,0,1.9-0.4,2.6-1
		c0.8-0.6,1.2-1.7,1.2-2.8v-42.4c0-1.1-0.4-2-1.2-2.7C241,266.8,238.6,266.8,237.4,268z"/>
	<path class="st1" d="M271.1,287.7c-6.9,0.9-11.8,2.8-14.6,6c-1.9,2.2-2.8,5.3-2.8,9.2c0,4.4,1.4,7.8,4.1,10.1
		c2.8,2.6,6.8,3.7,12.1,3.7c3.7,0,7.2-0.6,10.3-2c1.5-0.6,3-1.5,4.5-2.7c0.4,1,0.9,1.8,1.7,2.4c1.4,0.9,3.7,1.3,7.2,1.3
		c1.1,0,2-0.4,2.7-1.1c0.5-0.6,0.9-1.4,0.9-2.4c-0.1-0.9-0.4-1.7-1-2.3c-0.6-0.6-1.5-1-2.4-1c-0.6,0-1.2-0.2-1.5-0.4
		c-0.4-0.4-0.4-0.8-0.4-1.3v-26.4c0-4.7-1.8-8.3-5.3-10.6c-3-2-7.1-2.8-12.3-2.8c-4.9,0-8.9,1.1-11.8,3.3c-3.1,2.3-5.1,5.9-5.8,10.3
		c-0.4,1.5,0.2,2.4,0.8,3c0.6,0.6,1.4,1.1,2.4,1.2h0.4c0.9,0,1.7-0.2,2.2-0.6c0.9-0.5,1.4-1.4,1.5-2.6c0.2-2.4,1.1-4.4,2.6-5.5
		c1.7-1.4,4.4-2.2,7.7-2.2c3.6,0,6.3,0.6,8.1,1.9c1.5,1.2,2.3,2.8,2.3,5.3c0,2-0.6,3.2-1.9,3.9C281.1,285.7,278.2,286.6,271.1,287.7
		z M261.2,302.8c0-2.6,0.6-4.4,2.1-5.5c1.5-1.4,4.4-2.3,8.2-2.8c4.2-0.5,7.6-1.2,10-2c1-0.4,1.9-0.6,2.7-1v11.8
		c-1.2,2-2.8,3.6-5,4.6c-2.6,1.3-5.6,2-9.3,2c-3.1,0-5.3-0.6-6.8-1.9C261.7,306.9,261.2,305.2,261.2,302.8z"/>
	<path class="st1" d="M485.6,309.9c3.9,3,9.4,4.5,16.4,4.5c6.2,0,11.5-1.5,15.8-4.6c4.6-3.3,6.9-7.8,6.9-13.4
		c0-5.6-1.7-10.1-5.1-13.2c-3.5-3.2-9.1-5.5-17.3-7.2c-5.9-1.2-9.9-2.8-12.1-4.5c-2-1.7-2.8-4-2.8-7.1s1.2-5.3,3.7-6.9
		c2.4-1.5,6-2.4,10.4-2.4c4.1,0,7.2,0.8,9.4,2.4c2.1,1.7,3.6,4.4,4.1,7.8c0.1,1.2,0.6,2.1,1.5,2.8c0.8,0.5,1.5,0.8,2.4,0.8h0.4
		c1.1-0.1,2-0.6,2.4-1.5c0.6-0.9,0.9-2.1,0.6-3.5c-0.6-4.4-2.4-7.8-5.2-10.5c-3.6-3.6-8.9-5.3-15.6-5.3s-12.1,1.4-15.9,4.2
		c-4,2.8-6,7.1-6,12.2c0,5.3,2,9.5,5.9,12.6c3.2,2.3,8.3,4.5,15.1,6s11.4,3.5,13.7,5.6c1.8,1.8,2.7,4.5,2.7,8.3c0,3.3-1.7,6-5.2,8
		c-3,1.8-6.4,2.6-10.1,2.6c-5.1,0-8.9-1-11.4-3c-2.8-2.1-4.4-5.4-4.7-10.1c-0.1-1.2-0.5-2.2-1.3-2.8c-0.6-0.5-1.4-0.9-2.3-0.9h-0.4
		c-0.9,0.1-1.8,0.4-2.3,1.1c-0.8,0.8-1.1,1.9-1,3.1C479,301.5,481.4,306.7,485.6,309.9z"/>
	<path class="st1" d="M552.5,314.5c4.5,0,8.3-1.1,11.7-3.5c3.2-2.2,5.8-5.3,7.4-9.4c0.4-1.1,0.4-2.2,0-3.2c-0.4-0.9-1.1-1.5-2-1.9
		c-1-0.4-1.8-0.4-3-0.1c-1,0.4-1.7,1.2-2.1,2.3c-1.2,2.7-2.7,4.7-4.4,6.1c-2,1.8-4.5,2.7-7.6,2.7c-3.9,0-6.9-1.7-9.1-5.2
		c-1.9-2.8-3-6.2-3.3-10.1h32.6v-2.4c0-6.7-1.7-12.4-5-17.2c-3.7-5.2-8.9-7.7-15.1-7.7s-11.3,2.7-15,7.7c-3.3,4.6-5,10.4-5,17.1
		s1.7,12.3,5,16.9C541.2,311.8,546.2,314.5,552.5,314.5z M552.5,271.6c3.7,0,6.8,1.7,9.1,5c1.8,2.6,2.8,5.4,3.2,8.6h-24.6
		c0.4-3.3,1.5-6.2,3.2-8.7C545.8,273.2,548.8,271.6,552.5,271.6z"/>
	<path class="st1" d="M586.7,314.5L586.7,314.5L586.7,314.5c1-0.1,1.8-0.4,2.6-1.1c0.8-0.8,1.1-1.8,1.1-3v-29.2
		c1.8-3.2,3.9-5.6,6.3-7.3c2.3-1.5,5-2.3,7.8-2.3c2.6,0,4.5,0.8,6.1,2.3c1.3,1.3,2,3,2,5.1v31.6c0,1.1,0.4,2.1,1.1,2.8
		c1.3,1.2,3.6,1.3,5.1,0c0.8-0.8,1.1-1.8,1.1-2.8v-31.4c0-3.9-1.3-7.2-4-9.9c-2.8-2.8-6.8-4.5-11.5-4.5c-3.6,0-6.9,0.8-9.7,2.4
		c-1.7,1-3.2,2.2-4.5,3.7v-1.7c0-1.1-0.4-2.1-1.2-2.8c-1.4-1.3-3.6-1.2-5.1,0c-0.8,0.6-1.1,1.7-1.1,2.8v41.3c0,1.2,0.4,2.1,1.1,2.8
		C584.7,314.1,585.6,314.5,586.7,314.5z"/>
	<path class="st1" d="M656.6,305.4c-1.9,1.4-4.5,2.2-7.7,2.2c-4,0-6.9-0.8-8.6-2.1c-1.5-1.3-2.3-3.1-2.3-5.8c-0.1-1.1-0.5-2-1.3-2.6
		c-0.6-0.4-1.3-0.8-2.4-0.8c-1-0.1-1.9,0.4-2.6,1c-0.8,0.8-1.2,1.7-1.1,2.8c0.2,4.6,1.9,8.3,5.1,10.8c3.1,2.4,7.7,3.6,13.3,3.6
		c5.8,0,10.1-1.3,13.4-4.1c3-2.4,4.5-5.8,4.5-9.9c0-4-1.2-7.2-3.7-9.5c-2.6-2.4-6.8-4.4-12.8-5.6c-4.5-1.2-7.7-2.4-9.4-3.6
		c-1.4-1.1-2.1-2.6-2.1-4.5c0-1.5,0.8-2.8,2.3-3.9c1.7-1,3.9-1.5,6.5-1.5c3.5,0,6.1,0.6,7.7,1.9c1.5,1.1,2.3,2.7,2.6,4.7
		c0.1,1.1,0.5,2,1.4,2.7c0.6,0.4,1.4,0.6,2.3,0.6h0.4c1-0.1,1.9-0.5,2.6-1.1c0.8-0.8,1.1-1.8,1.1-2.8c-0.4-3.6-1.8-6.7-4.5-9
		c-3.1-2.6-7.7-3.9-13.4-3.9c-4.7,0-8.6,1.1-11.5,3.2c-3.2,2.3-4.9,5.5-4.9,9.6c0,3.7,1.3,6.9,4,9.1c2.3,2.1,6,3.7,11.2,5.1
		c5.2,1.3,8.9,2.7,10.8,4.2c1.4,1.1,2.1,2.6,2.1,4.5C659,302.4,658.2,304.1,656.6,305.4z"/>
</g>
</svg>
