<?xml version="1.0" encoding="utf-8"?>
<!-- Generator: Adobe Illustrator 21.0.0, SVG Export Plug-In . SVG Version: 6.00 Build 0)  -->
<svg version="1.1" id="Calque_1" xmlns="http://www.w3.org/2000/svg" xmlns:xlink="http://www.w3.org/1999/xlink" x="0px" y="0px"
	 viewBox="0 0 722.6 628.4" style="enable-background:new 0 0 722.6 628.4;" xml:space="preserve">
<style type="text/css">
	.st0{fill:#545454;}
	.st1{fill:#42A768;}
	.st2{fill:#307149;}
	.st3{fill:#5EBA78;}
</style>
<g>
	<g>
		<path class="st0" d="M695.6,511.1l0-0.1c0,0-6.9-1.1-18.9-3c-1.5-0.2-3.1-0.5-4.7-0.8c-1.7-0.2-3.4-0.4-5.2-0.6
			c-3.6-0.4-7.6-0.9-11.8-1.3c-8.4-1.1-17.9-1.7-28.2-2.4c-2.6-0.2-5.2-0.4-7.9-0.6c-2.7-0.1-5.4-0.2-8.2-0.3
			c-5.6-0.2-11.3-0.5-17.2-0.7c-5.9-0.3-12-0.2-18.2-0.3c-3.1,0-6.2-0.1-9.4-0.1c-3.2-0.1-6.4-0.1-9.6,0c-12.9,0.2-26.2,0.3-39.7,1
			c-6.8,0.3-13.6,0.5-20.4,1c-6.8,0.5-13.7,0.9-20.5,1.4c-6.9,0.4-13.7,1.2-20.5,1.7c-6.8,0.7-13.6,1.1-20.3,2
			c-6.7,0.8-13.4,1.5-19.9,2.3c-6.6,0.7-13,1.8-19.4,2.7c-12.8,1.7-25,3.9-36.6,5.9c-5.8,0.9-11.4,2.2-16.9,3.3
			c-5.4,1.1-10.7,2.1-15.7,3.3c-5,1.2-9.8,2.4-14.4,3.5c-4.6,1.1-8.9,2.1-12.9,3.3c-4,1.2-7.8,2.3-11.3,3.3
			c-3.5,1.1-6.8,1.9-9.5,2.9c-8.5,3-14.2,5-16.6,5.8c-0.3,0-0.5,0.1-0.8,0.3c-0.3,0.1-0.4,0.1-0.4,0.1l0,0.1
			c-0.7,0.5-1.1,1.3-1.1,2.2c0,1.5,1.3,2.8,2.8,2.8l0.1,0.2c0,0,6.5-2.1,17.9-5.7c2.8-1,6-1.7,9.5-2.6c3.5-0.9,7.2-1.8,11.2-2.9
			c4-1.1,8.3-1.9,12.8-2.9c4.5-1,9.3-2,14.3-3c5-1,10.3-1.8,15.7-2.8c5.4-0.9,11-2,16.8-2.8c11.6-1.6,23.8-3.5,36.5-4.8
			c6.3-0.7,12.8-1.6,19.3-2.1c6.5-0.6,13.2-1.1,19.8-1.7c6.7-0.7,13.4-0.9,20.2-1.4c6.8-0.4,13.5-1,20.3-1.1
			c6.8-0.2,13.6-0.5,20.4-0.8c6.8-0.3,13.5-0.2,20.2-0.4c13.4-0.3,26.5,0,39.3,0.2c3.2,0,6.3,0.1,9.5,0.3c3.1,0.1,6.2,0.3,9.3,0.4
			c6.1,0.3,12.1,0.4,17.9,0.8c5.8,0.4,11.5,0.8,16.9,1.2c2.7,0.2,5.4,0.4,8.1,0.6c2.6,0.3,5.2,0.5,7.7,0.8
			c10.1,1.1,19.4,1.9,27.4,3.2c4.1,0.6,7.9,1.1,11.4,1.6c1.8,0.3,3.4,0.5,5.1,0.7c1.6,0.3,3.1,0.6,4.6,0.9
			c11.5,2.2,18.1,3.5,18.1,3.5l0-0.1c0.6,0.1,1.2,0.2,1.8,0.2c4.9,0,8.9-4.1,8.9-9.2C702.6,515.7,699.6,512,695.6,511.1z"/>
	</g>
</g>
<g>
	<g>
		<path class="st0" d="M367.7,188.1c7.4-13.1,1-19-9.8-18.2c-4.5,0.3-8.9,0.7-13.4,1c-10.8,0.8-26.7,8.3-34,21.4
			C233.3,302,180.8,415.8,152.9,525.5c-1.4,13.1,7.4,19.4,17.7,18.6c15.8-1.2,24.7-13.7,40.5-14.9c10.4-0.8,22.1-10.5,23.6-23.7
			C253.7,396.5,300.2,296.9,367.7,188.1z"/>
		<g>
			<path class="st1" d="M183,275.4c-3.7-12.5-13.8-20.9-22-18.7c-14.9,4-29.9,8-44.8,11.9c-8.3,2.2-11.8,14.1-8.2,26.7
				c21.9,77.3,42.3,155.6,44.4,232.8c0.3,12.5,7.4,20.9,16.2,18.7c15.8-4,40.9-16.3,56.7-20.3c8.7-2.2,9.9-22.6,9.4-35.1
				C231.3,414.1,206.2,352.6,183,275.4z"/>
		</g>
	</g>
	<g>
		<path class="st0" d="M299.1,404.4c1.3,0,2.9-0.5,4.9-1.5c2.1-1.1,4.2-2.4,6.3-4.2c2.1-1.7,4.2-3.7,6.1-5.8
			c1.9-2.1,3.7-4.3,5.3-6.6c1.6-2.3,2.9-4.6,4-7c1.1-2.4,1.8-4.5,2.1-6.2c0.3-1.7,0.3-3.1-0.1-4c-0.4-0.9-1.2-1.4-2.4-1.5
			c-1.2-0.1-2.7,0.4-4.6,1.4c-1.8,0.9-3.7,2.2-5.7,3.9c-2.1,1.7-4.1,3.7-6.1,5.8c-2,2.2-4,4.5-5.8,7c-1.9,2.5-3.5,5-4.8,7.5
			c-1.2,2.4-2,4.4-2.3,6c-0.3,1.6-0.1,2.9,0.4,3.7C296.9,404,297.8,404.5,299.1,404.4z"/>
		<path class="st0" d="M722.2,428.5c-0.5-1.4-1.3-2.7-2.3-3.7c-1-1-2.2-1.7-3.5-2.2c-1.3-0.4-2.7-0.5-4,0c-1.3,0.4-2.5,1.4-3.6,2.8
			c-1.1,1.5-1.9,3.6-2.4,6.4c-0.6,3.2-1.6,6.6-3,10.4c-1.4,3.7-3.1,7.3-5.2,10.5c-2.1,3.3-4.5,6.1-7.2,8.5c-2.7,2.4-5.7,3.8-8.9,4.2
			c-5.2,0.7-9-0.6-11.4-3.9c-2.4-3.3-3.6-7.7-3.6-13.3c0-5.3-0.1-10.7-0.1-16c0.6-0.6,1.8-2.6,3.4-6c1.7-3.4,3.5-7.8,5.6-13.1
			c2.1-5.4,4.2-11.5,6.4-18.4c2.2-6.9,4.2-14.1,6.1-21.5c1.8-7.5,3.3-15,4.5-22.6c1.1-7.6,1.7-14.8,1.6-21.5c0-2.6-0.1-5.5-0.2-8.6
			c-0.1-3.2-0.4-6.3-0.9-9.5c-0.5-3.2-1.2-6.3-2.3-9.2c-1-3-2.5-5.5-4.2-7.6c-1.8-2.1-4-3.7-6.8-4.9c-2.7-1.1-6.1-1.4-10-1
			c-3.4,0.4-6.5,1.5-9.5,3.5c-3,2-5.6,4.6-7.8,7.8c-2.2,3.2-4,7-5.3,11.4c-1.3,4.4-1.9,9.1-1.9,14.2c0.1,36.6,0.2,73.2,0.3,109.8
			c-0.5,1.1-0.9,2.4-1.2,3.9c-0.6,3.1-1.4,6.3-2.4,9.8c-1,3.5-2.2,6.7-3.7,9.7c-1.5,3-3.3,5.5-5.3,7.4c-2.1,2-4.5,2.9-7.3,2.9
			c-1.6,0-3.1-0.5-4.3-1.3c-1.2-0.8-2.2-1.8-2.9-3.1c-0.7-1.2-1.3-2.6-1.6-4.1c-0.4-1.5-0.5-3-0.5-4.5c0-15.1,0.1-30.3,0.1-45.4
			c0-3.3-1.3-6.2-4-8.7c-2.7-2.5-6.3-3.9-10.9-4.3c-2-0.2-3.7,0.1-5.1,0.8c-1.4,0.7-2.1,1.8-2.1,3.2c0,0.5,0,0.9,0.1,1.4
			c0.1,0.5,0.2,1.1,0.3,1.7c0.1,0.6,0.3,1.4,0.4,2.3c0.1,0.9,0.2,2,0.2,3.4c-0.1,14.1-0.2,28.3-0.3,42.4c-1.6,3.7-3.7,6.8-6.2,9.3
			c-2.6,2.5-5.8,3.5-9.6,2.9c-4.9-0.7-8.7-3.3-11.5-7.7c-2.8-4.4-4.1-10.2-4-17.5c0.1-9.9,1.6-18.2,4.5-24.9
			c2.9-6.7,6.5-12,10.9-16.1c4.4-4,9.3-6.9,14.7-8.6c5.4-1.7,10.7-2.4,15.9-2.1c1.4,0.1,2.8,0.3,4.2,0.5c1.4,0.2,2.6,0.4,3.9,0.4
			c1.4,0.1,2.3-0.4,2.8-1.3c0.5-0.9,0.7-2.6,0.8-4.9c0-3.6-1.2-6.4-3.5-8.6c-2.3-2.1-5.4-3.3-9.1-3.6c-8.4-0.6-16.5,0.3-24.4,2.6
			c-7.8,2.3-14.8,6-20.9,11.2c-6.1,5.2-11.1,11.9-14.9,20.1c-3.8,8.2-5.8,18-6,29.5c-0.1,5,0.3,9.8,1.3,14.5
			c-0.3,1.3-0.7,2.7-1.1,4.1c-0.9,3.2-2.2,6.1-3.7,8.7c-1.5,2.6-3.3,4.8-5.4,6.4c-2.1,1.6-4.5,2.3-7.3,2c-1.8-0.2-3.2-0.8-4.2-1.9
			c-1-1.1-1.7-2.4-2.1-3.8c-0.4-1.4-0.7-2.8-0.8-4.1c-0.1-1.3-0.1-2.3-0.1-2.9c0.1-22.2-0.3-44.4-1.3-66.4c-0.1-3.1-1.5-5.9-4.1-8.3
			c-2.6-2.4-6-3.6-10.4-3.7c-0.9,0-1.9,0-2.9,0.1c-1,0.1-1.9,0.3-2.7,0.5c-0.8,0.2-1.5,0.5-2,0.9c-0.5,0.3-0.8,0.7-0.8,1.1
			c0,0.5,0.1,0.9,0.5,1.3c0.3,0.4,0.6,0.9,0.9,1.5c0.3,0.6,0.6,1.5,0.9,2.6c0.3,1.1,0.5,2.6,0.5,4.4c0.1,13.9,0.2,27.8,0.3,41.8
			c-0.8,4.5-1.9,8.9-3.4,13c-1.5,4.1-3.2,7.8-5.1,11c-2,3.2-4.1,5.8-6.5,7.7c-2.4,1.9-5,2.9-7.8,2.9c-4.1,0-7.2-1.7-9.4-5.2
			c-2.2-3.5-3.3-8.8-3.3-15.8c0.1-5.3,0.3-10.1,0.7-14.5c0.4-4.3,1-8.5,1.8-12.4c0.8-4,1.7-8,2.8-11.9c1.1-4,2.3-8.4,3.6-13.2
			c0.3-1,0.9-2.3,1.7-3.9c0.9-1.6,1.4-3.2,1.7-4.7c0.2-1.5-0.1-2.8-1-3.9c-0.9-1.1-3-1.5-6.2-1.3c-3.5,0.2-6,0.8-7.7,1.5
			c-1.7,0.7-2.9,1.6-3.8,2.6c-0.8,1-1.4,2-1.7,3.2c-0.3,1.1-0.7,2.3-1.2,3.4c-2.2,6.1-4.1,12.5-5.8,19c-1.5,5.6-2.9,11.8-4.2,18.6
			c-1.3,6.9-1.9,13.6-2,20.3c0,0.4,0,0.9,0,1.3c-1,3.2-2.2,6.2-3.6,9c-1.5,2.8-3.2,5.3-5.2,7.3c-2,2-4.4,3.1-7.2,3.4
			c-2.9,0.3-5.2-0.3-6.9-1.9c-1.7-1.6-2.6-4.3-2.6-8.4c0-26.2,2-52.6,5.7-79.3c6.8-1.3,14.2-2.5,22.1-3.6c7.9-1.1,17-2.2,27.3-3.1
			c1.1-0.1,2.1-0.8,3-2.1c0.9-1.3,1.7-2.8,2.2-4.5c0.5-1.7,0.9-3.5,1.1-5.4c0.2-1.8,0.2-3.4,0.1-4.6c-0.2-1.2-0.6-2-1.2-2.3
			c-0.7-0.3-1.6,0.2-2.8,1.5c-8.5,1-16.9,2.1-25.4,3.4c-8.4,1.3-16.4,2.7-24,4.2c2.4-14.8,5.4-29.7,8.9-44.7
			c0.7-3.1,0.3-5.5-1.1-7.3c-1.4-1.8-3.8-2.3-7.1-1.4c-0.7,0.2-1.5,0.4-2.3,0.7c-0.8,0.3-1.6,0.7-2.3,1.1c-0.7,0.4-1.4,0.9-1.9,1.3
			c-0.5,0.4-0.8,0.9-1,1.4c-0.1,0.4-0.1,0.8,0,1.1c0.1,0.3,0.2,0.8,0.2,1.3c0,0.6,0,1.4-0.1,2.4c-0.1,1-0.4,2.5-0.9,4.3
			c-4.3,14.6-7.9,29.1-10.9,43.5c-3.3,0.7-6.4,1.4-9.1,2.1c-2.7,0.7-5,1.2-6.9,1.6c-2.2,0.5-4.2,1-6,1.4c-1.7,0.5-3.1,1.7-4,3.7
			c-0.9,1.9-1.4,3.9-1.3,5.8c0.1,2,0.7,3.6,1.8,5c1.1,1.3,2.7,1.7,4.7,1.2c1.3-0.3,2.8-0.6,4.5-1c1.5-0.3,3.3-0.7,5.5-1.3
			c2.2-0.5,4.7-1.1,7.5-1.8c-3.6,20.2-5.8,40.2-6.7,59.8c-0.6,1.1-1,2.4-1.4,3.8c-0.7,2.8-1.6,5.9-2.6,9.1c-1,3.2-2.2,6.3-3.7,9.2
			c-1.5,2.9-3.4,5.4-5.5,7.6c-2.2,2.2-4.8,3.6-7.9,4.2c-1.9,0.4-3.5,0.4-4.9,0c-1.4-0.4-2.6-1-3.5-2c-0.9-1-1.6-2.2-2.1-3.6
			c-0.5-1.4-0.7-2.9-0.7-4.6c0-3.9,0.4-8,1.2-12.4c0.8-4.3,1.8-8.6,3.1-12.8c1.2-4.2,2.6-8.2,4-12.1c1.5-3.9,2.8-7.4,4.1-10.5
			c1.3-3.1,2.3-5.6,3.2-7.6c0.9-2,1.4-3.3,1.5-3.8c0.5-1.5,0.4-3-0.3-4.3c-0.7-1.4-1.6-2.6-2.8-3.6c-1.1-1-2.4-1.8-3.6-2.2
			c-1.3-0.5-2.3-0.6-3-0.4c-4.4,1.4-8.9,2.8-13.3,4.3c-0.7,0.2-1.3,0.5-2,0.7c-0.7,0.2-1.5,0.5-2.5,0.7c-1,0.3-2.2,0.6-3.6,1
			c-1.4,0.4-3.1,0.9-5.1,1.4c0-2.3-0.4-4.1-1-5.4c-0.6-1.3-1.5-2.2-2.5-2.8c-1.1-0.5-2.3-0.7-3.7-0.5c-1.4,0.2-2.8,0.6-4.3,1.2
			c-1.6,0.7-3.2,1.6-4.9,2.8c-1.7,1.2-3.3,2.6-4.8,4.1c-1.5,1.5-2.8,3.2-4,5c-1.2,1.8-2.1,3.5-2.6,5.3c-1.2,3.7-1.1,6.5,0.2,8.2
			c1.3,1.8,3.4,2.8,6.1,3.2c-0.9,3.2-1.8,6.8-2.8,10.8c-1,4-1.9,8-2.9,11.9c-0.9,3.9-1.8,7.7-2.7,11.3c-0.9,3.6-1.8,6.6-2.6,9.2
			c-0.1,0.4-0.2,0.7-0.3,1.1c0,0,0,0.1,0,0.1c-0.8,2.7-1.7,5.7-2.7,8.9c-1,3.2-2.2,6.2-3.6,9c-1.4,2.9-3,5.4-4.8,7.7
			c-1.9,2.3-4,3.8-6.6,4.8c-1.7,0.7-3.1,0.8-4.1,0.3c-1-0.4-1.7-1.1-2.2-2c-0.5-0.9-0.8-1.9-0.9-2.9c-0.1-1-0.2-1.8-0.2-2.3
			c-0.1-18,3.1-37.5,9.4-58.6c0.9-3,0.5-5-1.1-6.1c-1.7-1-4.5-0.5-8.6,1.6c-1.8,0.9-3.4,2.1-5,3.6c-1.6,1.5-2.6,2.8-3,4.1
			c-0.3,0.9-0.5,1.8-0.5,2.7c0,0.9-0.4,2.5-1.2,4.9c-7.1,22.2-10.3,42.3-9.6,60.2c0.1,2.6,0.8,4.7,2,6.5c1.2,1.8,2.9,3.1,5,4
			c2.1,0.9,4.6,1.3,7.5,1.2c2.9-0.1,6-0.7,9.5-2c5.6-2,10.3-4.7,14.2-8.3c3.9-3.5,7.2-7.4,10-11.7c2.8-4.3,5.1-8.8,7-13.6
			c1.9-4.7,3.6-9.2,5-13.4c0,0,0,0,0,0c1.2-3.4,2.3-7,3.3-10.9c1.2-4.3,2.3-8.6,3.4-12.8c1.1-4.2,2-8.2,2.9-11.9
			c0.9-3.7,1.6-6.8,2.2-9.3c1-0.3,1.9-0.7,2.9-1.1c6.6-2.4,13.2-4.6,19.9-6.7c-6.2,12-10.8,22.7-13.9,32c-3.1,9.3-4.6,17.6-4.6,25.1
			c0,5.1,1,9,2.9,11.8c1.9,2.8,4.3,4.9,7.1,6.2c2.8,1.3,6,2,9.3,2.1c3.4,0.1,6.6-0.2,9.8-0.8c5.8-1.2,10.8-3.3,14.9-6.5
			c4.2-3.2,7.8-6.9,10.8-11.1c0.1-0.1,0.2-0.3,0.2-0.4c1.3,2.6,3,4.7,5,6.3c2.3,1.8,5.1,3.1,8.2,3.7c3.1,0.6,6.5,0.7,10.1,0.3
			c5.9-0.6,10.9-2.3,15.3-5.2c4.1-2.8,7.7-6.1,10.8-9.9c0.7,1.1,1.5,2.2,2.3,3.2c2.6,3,5.7,5.4,9.3,7c3.6,1.6,7.8,2.4,12.3,2.4
			c6.1,0,11.4-1.7,15.9-5.1c4.5-3.4,8.5-7.7,11.8-13.1c0.4,2.7,1.3,5.1,2.5,7.4c1.2,2.3,2.8,4.4,4.7,6.1c1.9,1.8,4.1,3.2,6.7,4.4
			c2.5,1.1,5.4,1.9,8.5,2.2c5.9,0.6,11.1-0.2,15.6-2.3c4.5-2.1,8.4-4.9,11.6-8.5c1.8-2,3.5-4.2,5-6.5c2.2,2.7,4.6,5.1,7.4,7.1
			c4.1,3,8.9,4.9,14.3,5.8c5.3,0.8,9.9,0.4,13.9-1.3c4-1.7,7.4-4,10.3-6.9c2.1,3.6,4.9,6.6,8.6,8.9c3.6,2.3,8,3.6,12.9,3.7
			c6.1,0.2,11.4-1.2,15.9-4c4.5-2.8,8.4-6.4,11.6-10.8c0.6-0.8,1.1-1.5,1.6-2.3c1.2,2.5,2.7,4.7,4.5,6.6c2.8,3,6.3,5.2,10.4,6.6
			c4.1,1.4,8.9,1.8,14.3,1.1c6.4-0.8,12-3.2,16.9-7.1c4.9-3.9,9.1-8.5,12.6-13.6c3.5-5.1,6.4-10.5,8.7-16c2.2-5.5,3.9-10.2,5.1-14.2
			C722.8,431.4,722.7,429.9,722.2,428.5z M666.2,317.8c0-1.1,0.1-2.3,0.2-3.6c0.1-1.3,0.4-2.5,0.7-3.7c0.3-1.2,0.8-2.1,1.3-2.9
			c0.5-0.8,1.1-1.2,1.8-1.3c2.2-0.2,4,1.7,5.3,5.8c1.4,4.1,2.1,10.7,2.2,19.8c0,2.5-0.1,5.6-0.4,9.1c-0.3,3.6-0.7,7.4-1.2,11.5
			c-0.5,4.1-1.1,8.3-1.8,12.6c-0.7,4.3-1.4,8.4-2.2,12.3c-0.8,3.9-1.7,7.6-2.6,10.8c-0.9,3.3-1.9,5.9-2.8,7.9
			C666.6,370.1,666.4,344,666.2,317.8z"/>
	</g>
</g>
<g>
	<g>
		<g>
			<path class="st1" d="M186.8,164.3c2.3,3.7,2.1,8.1-1.2,11.5c-12,16.8-24.4,33.7-37.3,50.7c-3.5,3.7-7.2,0.9-10-3.9
				c-15.9-28.9-33.2-57.5-51.9-85.8c-2.9-4.3-2.8-4.6,1.6-9.5c14.3-14.2,28.3-28.3,42.1-42.4c3.2-3.3,7.7-0.6,10.7,3.8
				C157.3,113.5,172.6,138.8,186.8,164.3z"/>
			<path class="st2" d="M51.7,227.7c2.4,4,6.2,5,10.8,5.3c22.4,0.7,44.8,1.4,67.2,2.1c5.4-0.2,4.7-6,2.6-9.7
				c-15.7-28.9-32.8-57.6-51.4-86c-3.1-4.8-3.2-4.8-10.4-3.8c-21.9,2.9-43.7,5.9-65.6,8.8c-4.1,0.8-5.7,3.4-1.7,9.6
				C20.4,178.3,36.6,202.9,51.7,227.7z"/>
			<path class="st3" d="M83.5,123.6c-4.8,4.2-6.8,5.1-12.6,6c-19.6,2.9-39.2,5.8-58.8,8.7c-13.5,1.8-13.5,1.6-4.4-6.4
				c13.1-11,25.9-22,38.7-33c5.6-5,6.7-5.9,15.5-7.6c18.2-3.9,36.4-7.7,54.6-11.6c12-1.8,11.9-1.8,4.7,6.4
				C108.9,98.4,96.3,111,83.5,123.6z"/>
		</g>
	</g>
</g>
</svg>
