<?xml version="1.0" encoding="utf-8"?>
<!-- Generator: Adobe Illustrator 21.0.0, SVG Export Plug-In . SVG Version: 6.00 Build 0)  -->
<svg version="1.1" id="Calque_1" xmlns="http://www.w3.org/2000/svg" xmlns:xlink="http://www.w3.org/1999/xlink" x="0px" y="0px"
	 viewBox="0 0 722.6 628.4" style="enable-background:new 0 0 722.6 628.4;" xml:space="preserve">
<style type="text/css">
	.st0{fill:#3A342A;}
	.st1{fill:#C49A25;}
</style>
<g>
	<g>
		<g>
			<g>
				<path class="st0" d="M285.6,101.1c-7.3,3.4-14.6,6.9-21.9,10.3c-3.3,1.6-7.4,2.7-10.3,4.9c-0.8,0.6-0.7,0.4-1,1.6
					c-2.7,13.9-5.4,27.8-8,41.4c-4.1,21-8.2,41.6-12.4,61.7c-1.7,8-3.3,16-4.9,23.9c-0.5,2.6-1.1,5.1-1.6,7.6
					c-0.3,1.1-0.3,3.1-0.9,4.1c-0.7,1.1-3.6,0.9-5.1,1.1c-2.6,0.4-5.3,0.6-7.9,1c-0.7,0.1-3,0-3.4,0.4c-0.5,0.5-0.4,2.6-0.5,3.2
					c-0.4,2.2-0.7,4.4-1.1,6.5c-0.7,4.6-1.4,9.2-2.2,13.8c-0.1,0.8-0.3,1.7-0.4,2.5c4.9-0.5,9.9-1,14.8-1.5
					c-1.9,9.2-3.8,18.4-5.7,27.4c-12.2-11.8-24.4-23.6-36.8-35c-1.8-1.7-3.5-3.4-5.3-4.9c9.4-4.7,18.7-9.4,28.1-14.2
					c5.4-2.7,10.8-5.6,16.1-8.3c0.9-0.4,2.6-1,3.3-1.7c0.6-0.8,0.7-2.6,0.9-3.6c1.4-6.3,2.8-12.6,4.2-19c0.5-2.2,0.3-1.9-1.7-3.5
					c-7.4-6.2-14.9-12.2-22.4-18.2c-24.8-19.9-49.9-39-74.6-56.6c-8.4-6-16.7-11.7-24.9-17.3c-0.6-0.4-3-2.6-3.8-2.6
					c-0.5,0.1-2.1,2.4-2.5,2.7c-2.1,2.4-4.3,4.8-6.4,7.1c-4.6,5-9.3,10.1-13.9,15c-0.9,1-2,1.8-2.3,2.9c-0.8,3.2-0.2,7-0.3,10.1
					C70.3,181,70,198,69.9,215.1c-0.2,25.4-0.1,50.6-0.2,75.6c-0.1,27-0.4,53.9-1.6,80.6c-0.9,22.3-2.4,44.6-4.7,66.8
					c-1.2,11.7-2.6,23.5-4.4,35.2c-0.1,0.5-0.2,1.1-0.3,1.6c9-2.6,17.9-5.2,26.8-7.9c20.6-6.1,41-12.4,61.2-18.8
					c23.1-7.3,45.9-14.9,68.5-22.6c17-5.8,33.9-11.7,50.6-17.8c3.7-1.3,7.7-2.5,11.2-4.1c1-0.4,0.9-0.4,1.3-1.7
					c1.6-4.9,3.1-9.7,4.7-14.6c0.4-1.1,1.8-3.4,1.5-4.7c-0.1-0.4-0.7-0.9-1.1-1.2c-3.1-3.2-6.2-6.4-9.3-9.5
					c-9.1-9.3-18.1-18.4-27.3-27.6c-1.5-1.5-2.9-2.9-4.4-4.4c-0.4-0.4-1.8-1.4-1.9-1.9c-0.4-1.2,0.8-3.9,1.1-5
					c2.3-10.1,4.5-20.5,6.8-30.8c1.1-5,2.1-10.1,3.3-15.1c0.4-1.7,0.7-3.4,1.1-5c0.1-0.5,0.1-1.9,0.5-2.3c0.8-0.7,4.1-0.4,5.2-0.6
					c4.9-0.5,9.8-1,14.6-1.5c12-1.2,24-2.4,35.9-3.5c3.3-0.4,6.9-1.1,10.2-1c1.5,0.1,1.2,0.7,1.9,2.3c7.9,20.9,15.8,41.8,23.7,62.6
					c0.7,1.9,1.4,3.8,2.1,5.7c9.1-1.7,18.2-3.4,27.3-5.1c-2.9-7.8-5.8-15.5-8.7-23.2c-7-18.6-13.9-37.3-20.9-56
					c-8.5-22.7-17-45.5-25.6-68.6c-7.4-19.9-14.9-39.9-22.5-60c-3.6-9.8-7.3-19.6-10.9-29.4C285.7,101.3,285.7,101.2,285.6,101.1z
					 M99.2,171.5c3.1-3.5,6.2-7.1,9.3-10.8c9.3,7,18.5,14.1,27.9,21.5c14.8,11.6,29.6,23.8,44.4,36.3c3.4,2.9,6.8,5.8,10.2,8.7
					c-10.1,6.1-20.4,12-30.6,17.9c-16.2,9.4-32.5,18.4-48.8,27.3c-3.8,2-7.5,4.1-11.3,6.1c-0.1-11.9-0.3-23.8-0.4-35.7
					c-0.3-19.1-0.4-38.3-0.5-57.7C99.2,180.5,99.2,176,99.2,171.5z M239.2,372.5c-16,6.8-31.9,13.5-48.1,20
					c-25.7,10.4-51.7,20.6-78,30.4c-6.1,2.3-12.1,4.5-18.2,6.7c1.4-15.9,2.4-31.9,3.2-47.7c1.1-22.2,1.7-44.6,1.9-67
					c0-1.9-0.4-4.6,0.1-6.4c0.4-1.2,2.2-1.7,3.5-2.3c11-5.4,22-10.9,32.9-16.4c2.3-1.1,4.7-2.4,7-3.5c1-0.5,2.6-1.9,3.9-1.9
					s3,2.2,4.1,3.2c9.8,9,19.6,18.2,29.3,27.4c8.4,8,16.9,15.9,25.1,24.3c1.8,1.9,0.1,4.6-0.4,6.5c-1.3,6-2.7,11.9-4.1,17.9
					c-0.3,1.2-0.5,2.4-0.9,3.6c7.1,1.4,14.3,2.7,21.4,4.1c2,0.4,4.1,0.8,6.2,1.2c1.1,0.2,2.8,0.9,3.9,0.8c1-0.1,0.7,0.1,1-1.1
					c0.4-1.6,0.8-3.3,1.1-4.9C235.7,368.9,237.4,370.7,239.2,372.5z M258.5,252.9c1.9-10.5,3.9-21.2,5.9-31.9
					c3.1-17.1,6.3-34.5,9.4-52.1c0.7-4.1,1.4-8.2,2.2-12.3c3.9,10.2,7.9,20.5,11.7,30.6c6.3,16.2,12.4,32.5,18.5,48.6
					c1.4,3.7,2.8,7.5,4.2,11.2c-15.2,1.7-30.4,3.4-45.5,5.2C262.8,252.4,260.7,252.6,258.5,252.9z"/>
				<path class="st0" d="M512.9,233.9c-2.1,6.6-16,47-18,53.3c-4.8,15-9.5,29.9-14.1,44.7c-5.3,16.9-10.5,33.8-15.6,50.6
					c-4,12.9-7.9,25.6-11.7,38.3c-2,6.8-4.1,13.4-6.4,20.1c-0.4,1-0.6,2-1,3c-2.9-9.6-5.8-19.3-8.6-28.9c-2.1-7.1-4.1-14-6.2-21.1
					c-0.6-2-1.5-3.8-1-5.6c6.4-22.1,12.9-44.6,19.5-67.2c2.4-8.2,11.7-40.8,14.2-49.3c-10.2,0.2-20.5,0.4-30.8,0.6
					c-1,0-1.4-0.1-1.9,0.4c-0.9,1.1-7.9,27.8-8.3,29c-1.9,5.9-3.6,11.8-5.5,17.7c-1.3,4.2-2.6,8.5-3.9,12.7
					c-3.3-11.7-6.5-23.6-9.8-35.4c-0.9-3.1-16.9-59.6-17.8-63c-0.4-1.1-0.5-4.1-1.3-5c-0.5-0.6-2.1-0.5-2.9-0.7
					c-3.4-0.4-6.6-1-10-1.4c-6.4-0.9-12.7-1.8-19.1-2.6c2.4,9.9,20,72.4,22.3,81.8c4.4,18.1,8.9,36.1,13.4,54
					c1.9,7.2,3.6,14.6,5.5,21.8c0.6,2.3,1.1,4.5,1.8,6.8c0.3,1,0.8,2.3,0.8,3.3c0.1,2.6-1.6,5.6-2.3,7.9c-2.1,7.1-4.2,14.2-6.4,21.3
					c-2.4,7.9-4.8,15.6-7.1,23.4c-0.9,2.9-1.8,5.9-2.7,8.8c-0.5,1.7-0.8,3.7-1.6,5.2c-0.1,0.2-0.2,0.4-0.2,0.7
					c-3.6-9-7.1-18-10.6-26.9c-5-12.9-10.1-25.8-15.1-38.6c-6.9-17.8-13.8-35.6-20.6-53.4c-4.5-11.8-9.1-23.6-13.7-35.4
					c-0.2-0.4-0.4-1.8-0.8-2.1c-1-0.9-4.4-1.2-5.6-1.6c-8.2-2.3-16.5-4.6-24.7-6.9c-0.6-0.2-1.3-0.4-1.9-0.5
					c2.8,7.1,5.6,14.3,8.4,21.5c6.7,17.2,13.4,34.3,20,51.5c8,20.7,16.1,41.4,24.1,62.2c7.1,18.1,14.2,36.3,21.4,54.6
					c2.4,6,4.8,12,7.1,18c0.8,1.9,1.5,3.7,2.3,5.6c0.3,0.7,0.6,2.4,1.2,3c0.1,0.1,0.1,0.3,0.2,0.4c6-1.6,12-3.3,17.9-4.9
					c3.2-0.9,6.4-1.8,9.6-2.6c1.2-0.4,1.2-0.3,1.6-1.4c4.3-13,7.8-26.4,11.6-39.6c1.4-4.7,2.7-9.4,4.1-14.1
					c3.9,12.2,7.8,24.3,11.8,36.5c0.4,1.1,0.4,1.9,1.2,2.5c0.6,0.4,1.9,0.6,2.6,0.9c1.4,0.5,2.9,1,4.3,1.5c8,2.6,16.1,5.4,24.1,8.1
					c2.6,0.9,5.6,2.4,8.3,2.8c0.7,0.1,0.6,0.3,1,0.1c0.7-0.5,1-3.2,1.1-4.1c2-7.1,4.1-14.1,6.2-21.2c7.4-25.3,15-50.7,22.9-76.5
					c8.6-28.1,17.5-56.5,26.7-85.2c3.4-10.4,6.8-20.9,10.2-31.4c1.1-3.4,2.2-6.7,3.4-10.1c0.5-1.6,1.7-3.6,1.8-5.4
					c0-0.2,12.2-34.6,12.4-34.9C538.3,231.9,525.6,232.9,512.9,233.9z"/>
				<path class="st0" d="M559,423.3c32.3-1.8,64.6-3.6,97-5.6c4-0.3,7.9-0.5,12-0.8c2-0.2,4-0.3,6-0.4c1.1-0.1,3.1-0.6,4.3,0
					c2.2,1,1.1,3.4,0.8,4.9c-0.8,4-1.2,8.1-1.9,12.2c-0.6,3.8-1.2,7.5-1.7,11.4c-0.4,3.2-0.7,5.6-3.9,6.4c-3.2,0.7-6.8,0.7-10.1,1.1
					c-4.2,0.4-8.6,0.9-12.8,1.2c-31.6,3.1-63.2,6.2-94.9,9c-7.3,0.6-14.5,1.9-21.9,2.2c-3.3,0.2-6.6,0.2-10.1-0.1
					c-4.2-0.4-8.4-1.5-12.6-2.4c-3.7-0.8-7.3-1.5-11-2.2c-1.1-0.2-3.2-0.3-4.1-1.3c-1.1-1.2,0.2-3,0.5-3.9
					c2.6-6.6,4.8-13.6,6.8-20.6c17.1-58.6,37.3-118,58.5-178.8c5.3-15.2,10.7-30.4,16.1-45.8c2.7-7.7,5.4-15.4,8.1-23
					c1.4-3.8,18-51.3,19.2-55.1c0.8-2.4,1.4-6.2,3.9-7.2c2.6-1.1,7,0.9,9.9,1.5c4.2,1,8.5,1.9,12.7,2.6c2.1,0.4,4.2,0.9,6.4,1.3
					c1,0.2,2.8,0.4,3.7,1.1c1.9,1.9-1.1,6.6-1.6,8.3c-1.7,6.1-76.1,206.5-92.5,264.8c-2.2,7-4.2,13.9-6.4,20.9
					C546,424.3,552.6,423.8,559,423.3z"/>
			</g>
			<g>
				<path class="st1" d="M269.2,87c-7.3,3.5-14.6,7.1-21.9,10.7c-3.3,1.6-7.4,2.9-10.3,5c-0.8,0.6-0.7,0.5-1,1.6
					c-2.7,14-5.4,27.8-8.1,41.4c-4.1,21-8.2,41.6-12.4,61.7c-1.6,8-3.3,16-4.9,23.8c-0.5,2.6-1.1,5.1-1.6,7.6
					c-0.3,1.1-0.2,3.1-0.9,4.1c-0.7,1.1-3.6,0.9-5.1,1.1c-2.6,0.4-5.3,0.7-7.9,1c-0.7,0.1-3,0-3.4,0.4c-0.5,0.5-0.4,2.6-0.5,3.2
					c-0.4,2.2-0.7,4.4-1,6.5c-0.7,4.6-1.4,9.2-2.1,13.7c-0.1,0.8-0.3,1.7-0.4,2.5c4.9-0.5,10-1.1,14.9-1.7
					c-1.8,8.6-3.5,17.1-5.3,25.6c-11.6-11.2-23.3-22.1-35.1-33c-1.7-1.6-3.4-3.1-5.1-4.7c9.4-5.2,18.7-10.5,28-15.8
					c4.3-2.5,9.3-4.7,13.1-7.6c0.8-0.6,0.8-0.5,1.1-1.6c0.6-2.6,1.2-5.3,1.8-7.9c0.8-3.4,1.6-7,2.4-10.5c0.4-2,1.8-4.9,1.6-7
					c-0.1-1.1-1.5-1.8-2.5-2.6c-7.9-6.4-15.7-12.6-23.6-18.7c-24.6-19.1-49.3-37.4-73.4-54c-7.7-5.3-15.2-10.3-22.7-15.3
					c-0.5-0.4-1.4-1.2-2-1.3c-0.8-0.1,0.1-0.3-0.8,0.3c-1.7,1-3.3,3.6-4.5,4.9c-2.4,2.6-4.8,5.3-7.2,7.9c-4.1,4.5-8.2,8.9-12.4,13.2
					c-0.8,0.9-0.8,0.8-0.9,1.8c-0.4,3.6-0.4,7.4-0.5,11c-0.7,17.1-1.1,34.2-1.2,51.3C53,230.5,53,255.4,53,280.3
					c0,26.4-0.2,52.8-1.1,79.1c-0.7,21.9-1.9,43.8-3.9,65.7c-1.1,11.5-2.4,22.9-3.9,34.4c-0.1,0.5-0.2,1.1-0.2,1.6
					c9.9-2.8,19.7-5.7,29.5-8.6c22.4-6.7,44.5-13.5,66.3-20.6c23.9-7.7,47.6-15.5,70.9-23.6c15.5-5.4,31.1-10.9,46.4-16.4
					c1.5-0.5,3.1-1,4.4-1.6c1.1-0.5,1-0.6,1.4-2c1.7-5.1,3.3-10.3,4.9-15.4c0.4-1.3,1.9-3.8,1.7-5.2c-0.1-0.5-0.4-0.7-0.9-1.2
					c-8.2-8.4-16.3-16.7-24.5-24.9c-4.5-4.5-9-9-13.5-13.5c-1.4-1.4-2.8-2.7-4.1-4.1c-0.4-0.4-1.2-1-1.3-1.3
					c-0.2-0.5,0.4-1.7,0.4-2.1c0.4-1.7,0.8-3.4,1.1-5.1c1.1-5.4,2.4-10.8,3.5-16.1c2.2-10.1,4.4-20.4,6.5-30.7
					c0.4-1.9,0-2.3,1.9-2.5c4.1-0.4,8.1-0.9,12.3-1.3c12.7-1.3,25.4-2.7,38.1-4.1c4.3-0.4,8.7-0.9,13.1-1.4c1.9-0.2,2.1-0.7,2.8,1.2
					c3.8,10,7.6,19.9,11.4,29.9c4.3,11.5,8.7,22.9,13.1,34.3c0.4,1.1,1.1,4.5,2.2,4.8c1.4,0.4,4.3-0.9,5.7-1.1
					c3.1-0.6,6.2-1.1,9.2-1.8c4-0.8,7.9-1.5,11.9-2.3c-2.9-7.8-5.8-15.4-8.7-23.2c-7-18.6-13.9-37.2-21-55.9
					c-8.6-22.7-17.1-45.4-25.8-68.5c-7.5-19.9-15-39.8-22.6-59.9c-3.7-9.7-7.3-19.5-11-29.3C269.3,87.3,269.3,87.2,269.2,87z
					 M82.9,160.4c3.1-3.5,6.2-7.1,9.4-10.8c9.2,6.7,18.4,13.6,27.7,20.7c14.7,11.3,29.6,23.1,44.4,35.4c3.4,2.8,6.9,5.6,10.2,8.6
					c-10.2,6.2-20.4,12.2-30.7,18.2c-16.2,9.4-32.6,18.7-49,27.6c-3.8,2-7.6,4.1-11.4,6.2c-0.2-11.8-0.4-23.6-0.4-35.5
					c-0.3-18.9-0.4-37.9-0.4-57.1C82.8,169.3,82.8,164.8,82.9,160.4z M230.8,364.9c-16.9,6.2-33.7,12.2-50.6,18.1
					c-27.1,9.4-54.3,18.5-82,27.4c-6.4,2-12.6,4-19,6c1.2-15.8,2.1-31.6,2.7-47.5c0.9-22.1,1.3-44.2,1.5-66.5c0-1.9-0.5-4.7,0.1-6.4
					c0.4-1.1,2.4-1.7,3.7-2.3c11.1-5.5,22.2-11,33.3-16.8c2.2-1.1,4.5-2.3,6.7-3.4c1-0.5,2.6-1.9,3.7-1.9c1.3-0.1,3.3,2.3,4.3,3.3
					c10.1,8.9,20,17.9,29.9,27.1c5.3,4.9,10.5,9.8,15.8,14.7c3,2.8,6.4,5.6,9,8.6c0.6,0.7,0.5,0.4,0.6,1.1c0.3,1.8-1,4.2-1.3,5.8
					c-1.3,6-2.7,11.9-4.1,17.8c-0.3,1.1-0.5,2.4-0.8,3.5c7.6,1.5,15.2,3.1,22.7,4.7c2.1,0.4,4.1,0.9,6.2,1.3c0.6,0.1,2.5,0.8,3,0.6
					c0.6-0.3,0.7-2.2,0.9-2.9c0.4-1.6,0.7-3.1,1.1-4.7C222.5,356.6,226.6,360.7,230.8,364.9z M242.3,239.1
					c1.9-10.5,3.9-21.2,5.8-31.9c3.1-17.1,6.2-34.5,9.3-52.2c0.7-4.1,1.4-8.2,2.1-12.4c4,10.1,7.9,20.4,11.8,30.5
					c6.3,16.2,12.5,32.4,18.7,48.4c1.4,3.7,2.9,7.5,4.3,11.2c-15.2,1.9-30.4,3.7-45.6,5.6C246.7,238.6,244.5,238.9,242.3,239.1z"/>
				<path class="st1" d="M501.6,216c-2.3,6.7-16.6,49.8-18.7,56.1c-5.2,15.1-10.3,30-15.4,44.8c-5.8,16.9-11.5,33.8-17.1,50.5
					c-4.3,12.9-8.6,25.6-12.9,38.3c-2.3,6.7-4.5,13.5-6.8,20.2c-0.4,1-0.7,2-1,3c-2.9-9.6-5.7-19.2-8.5-28.9c-2-7-4.1-14-6.1-21
					c-0.6-2-1.4-3.8-0.9-5.6c6.4-22.1,13.1-44.6,19.7-67.2c2.4-8.2,13.4-42,15.9-50.6c-10.2,0.3-20.6,0.4-30.8,0.7
					c-1,0-1.4-0.1-1.9,0.4c-0.9,1.1-9.6,29-10,30.3c-1.9,6-3.6,11.9-5.5,17.8c-1.3,4.2-2.6,8.5-3.9,12.7
					c-3.3-11.5-26.7-99.3-27.5-100.6c-0.5-0.6-2.1-0.5-2.9-0.6c-3.4-0.4-6.6-0.9-10-1.4c-6.4-0.9-11.1-1.3-17.5-2.2
					c2.5,10.2,29.9,115.4,34.3,133c1.8,7.2,3.6,14.5,5.5,21.7c0.5,2.3,1.1,4.5,1.7,6.8c0.3,1,0.8,2.3,0.8,3.3
					c0.1,2.7-19.3,58.1-20.3,60.9c-0.5,1.7-0.8,3.7-1.6,5.1c-0.1,0.2-0.2,0.4-0.2,0.7c-3.5-9-7.1-18.1-10.6-27.1
					c-5.1-13.1-10.1-26.1-15.2-39.1c-7-17.9-13.9-35.9-20.8-53.8c-4.4-11.4-8.8-22.9-13.3-34.3c-0.2-0.4-0.4-1.3-0.6-1.6
					c-0.4-0.4-1.8-0.6-2.3-0.9c-1.7-0.6-3.4-1.2-4.9-1.9c-8.2-3-16.4-6-24.7-9c-0.6-0.2-1.2-0.4-1.8-0.6c2.9,7.3,5.8,14.6,8.6,21.9
					c6.9,17.3,13.6,34.7,20.4,52c8.2,21.1,16.4,42.2,24.6,63.3c7.1,18.2,14.1,36.4,21.3,54.7c2.4,6.1,4.8,12.2,7.2,18.3
					c0.7,1.9,1.5,3.8,2.2,5.6c0.3,0.6,0.6,2.5,1.2,3c0.1,0.1,0.1,0.3,0.2,0.4c6-1.7,11.9-3.3,17.9-4.9c3.2-0.9,6.4-1.8,9.6-2.7
					c1.2-0.4,1.2-0.3,1.6-1.4c4.4-12.9,8-26.3,11.9-39.5c1.4-4.7,2.8-9.4,4.2-14.1c3.9,12,7.8,24.1,11.7,36.2
					c0.4,1.3,0.3,1.7,1.4,2.3c2.1,1.2,5.2,1.8,7.4,2.6c7.9,2.7,15.9,5.5,23.8,8.3c1.6,0.5,7.2,3.4,8.3,2.6c0.8-0.6,1.1-3.2,1.3-4.2
					c2.3-7.1,4.6-14.3,6.9-21.4c8.1-25.2,16.3-50.6,24.8-76.4c9.2-28,18.7-56.3,28.5-85.1c3.5-10.3,7.1-20.8,10.8-31.2
					c1.1-3.4,14.6-43.4,15.8-46.9c0.5-1.6,1.8-3.6,1.9-5.4c0-0.3,0.2-0.5,0.3-0.7C527.1,214,514.4,215,501.6,216z"/>
				<path class="st1" d="M544.7,407.3c32.3-1.9,64.6-3.8,97-5.9c4-0.3,8-0.5,12-0.8c2-0.2,4-0.3,6-0.4c1.1-0.1,3.1-0.6,4.3-0.1
					c2.2,1,1.1,3.3,0.8,4.9c-0.8,4-1.3,8.1-2,12.1c-0.6,3.8-1.3,7.5-1.9,11.3c-0.4,3.2-0.8,5.6-4,6.4c-3.2,0.7-6.9,0.8-10.1,1.1
					c-4.2,0.4-8.6,0.9-12.8,1.3c-31.7,3.2-63.2,6.4-94.9,9.3c-7.3,0.6-14.5,1.9-21.9,2.3c-3.3,0.2-6.6,0.2-10.1-0.1
					c-4.1-0.4-8.3-1.5-12.5-2.4c-3.6-0.7-7.3-1.5-10.9-2.2c-1.1-0.2-3.2-0.2-4.1-1.3c-1.1-1.2,0.2-3,0.6-3.9
					c2.7-6.6,4.9-13.6,7-20.6c17.6-58.5,37.9-118,59.1-179.1c5.3-15.3,10.6-30.6,16-46.1c2.6-7.7,20.6-59.2,23.2-67.1
					c1.3-3.9,2.6-7.8,4-11.6c0.8-2.4,1.3-6.3,3.8-7.2c2.6-1.1,7,0.9,9.9,1.5c4.2,1,8.5,1.9,12.7,2.7c2.1,0.4,4.2,0.9,6.4,1.3
					c1,0.2,2.8,0.4,3.7,1.2c1.9,1.9-1.1,6.7-1.5,8.4c-1.9,6.3-4.4,12.1-6.6,18.4c-2.7,7.9-68.6,189-85.9,247.2
					c-2.2,7-4.3,13.9-6.4,20.8C531.7,408.3,538.3,407.8,544.7,407.3z"/>
			</g>
		</g>
		<path class="st0" d="M323.2,474.7c-5.6,1-11.4,1.9-17,2.7c-13.7,2.2-27.4,4.3-41.3,6.5c-16.8,2.6-33.5,5.1-50.5,7.6
			c-14.6,2.1-29.4,4.2-44.2,6.3c-4.9,0.7-9.8,1.3-14.7,2c-1.5,0.2-3.1,0.4-4.6,0.6c-0.4,0.1-1.9,0.5-2.5,0.4c-0.1,0-0.3,0-0.4,0.1
			c1.4-6.3,2.7-12.6,4-18.9c0.2-1,0.2-3.6,1-4.2c0.4-0.3,1.8-0.3,2.3-0.4c11.1-1.9,22.1-3.7,33.2-5.6c18-3.1,36-6.3,53.7-9.5
			c17.1-3.1,34.1-6.3,51.1-9.5c5.8-1.1,11.7-2.3,17.6-3.4c1.9-0.4,3.7-0.7,5.5-1.1c0.6-0.1,2.3-0.8,3-0.6c0.1,0,0.3-0.1,0.4-0.1
			C321,456.6,322.1,465.6,323.2,474.7z"/>
		<path class="st1" d="M307.1,458.8c-5.6,1-11.3,1.9-17,2.8c-13.7,2.3-27.4,4.5-41.1,6.6c-16.7,2.6-33.4,5.2-50.2,7.8
			c-14.6,2.2-29.2,4.3-43.9,6.4c-4.9,0.7-9.7,1.4-14.6,2.1c-1.5,0.2-3.1,0.4-4.6,0.6c-0.4,0.1-1.9,0.5-2.4,0.4c-0.1,0-0.3,0-0.4,0.1
			c1.3-6.3,2.6-12.5,3.9-18.8c0.2-1,0.2-3.6,0.9-4.2c0.4-0.3,1.8-0.3,2.3-0.4c11-1.9,22.1-3.8,33-5.7c17.9-3.2,35.8-6.4,53.6-9.7
			c17-3.2,34-6.4,50.9-9.8c5.8-1.1,11.6-2.3,17.6-3.4c1.9-0.4,3.7-0.7,5.5-1.1c0.6-0.1,2.2-0.8,2.9-0.6c0.1,0,0.3-0.1,0.4-0.1
			C304.9,440.7,306,449.8,307.1,458.8z"/>
	</g>
</g>
</svg>
