<?xml version="1.0" encoding="utf-8"?>
<!-- Generator: Adobe Illustrator 21.0.0, SVG Export Plug-In . SVG Version: 6.00 Build 0)  -->
<svg version="1.1" id="Calque_1" xmlns="http://www.w3.org/2000/svg" xmlns:xlink="http://www.w3.org/1999/xlink" x="0px" y="0px"
	 viewBox="0 0 722.6 628.4" style="enable-background:new 0 0 722.6 628.4;" xml:space="preserve">
<style type="text/css">
	.st0{fill:#46A767;}
	.st1{fill:#4D4948;}
</style>
<g>
	<path class="st0" d="M470.8,330.5c-14.4,0-17.2-11.4-20-23.5c-0.4-1.4-0.6-2.6-1-3.9c-1.7-7-4.5-10.4-8.1-10.6
		c-3.1,0-6,2.7-7.6,7.6c-1.2,3.7-3.1,18.4-6.2,42.2c-2,15.2-4,30.7-5.3,39.2c-1.1,6.2-2.2,7.6-2.2,7.8c-1.1-0.5-3.2-4.5-4.1-8
		c-0.5-1.9-3-20.9-5.6-40.9c-4.6-34.7-10.8-82.1-13.4-94.3c-1.1-5.2-3.2-12.1-8.2-12.1l0,0c-5.3,0-8.8,8.6-9.7,12.7
		c-0.6,3.1-3.5,19.8-6.8,38.9c-3.4,19.4-7.1,41.3-8.7,49.9c-1.1,6-2.4,7.1-2.4,7.2c-0.7-0.2-2.4-2.4-3.5-5.3
		c-1.5-3.6-1.5-3.6-4.4-20l-1.6-9.1c-2-11.1-4.6-16-8.5-16.5c-5.1-0.6-8.8,6.7-13.6,17c-5.7,12.7-16.8,21.8-23.3,22
		c-3.9,0.1-79.1,0.1-151.8,0.2c-71,0-144.4,0.1-152.4,0.2c-1.4,0-2.5,1.1-2.5,2.5s1.1,2.5,2.5,2.5l0,0c8-0.1,81.4-0.1,152.3-0.2
		c76.1,0,147.9-0.1,151.9-0.2c9.2-0.2,21.6-11.4,27.6-24.9c1.5-3.4,6.2-13.8,8.3-14.2c0.1,0,2.1,1,4.2,12.4l1.6,9.1
		c3,16.7,3.1,16.9,4.7,21c1.1,2.7,4.1,8.8,8.6,8.5c4.4-0.4,6-6.3,6.8-11.3c1.6-8.6,5.3-30.6,8.7-49.9c3.1-18.4,6.1-35.7,6.7-38.8
		c0.9-4.2,3.7-8.6,4.9-8.7c0,0,1.7,0.7,3.4,8.1c2.6,11.9,8.8,59.3,13.3,93.9c3.4,25.1,5.2,39.4,5.7,41.4c0,0.1,3.1,11.8,9,11.8h0.1
		c4.5-0.1,6.1-6.5,7.1-11.9c1.5-8.6,3.5-24.3,5.5-39.4c2.2-17.7,4.9-37.7,6-41.2c1-3.1,2.4-4.1,2.7-4.1c0,0,1.7,0.5,3.4,6.8
		c0.4,1.2,0.6,2.5,1,3.9c3,12.2,6.6,27.2,24.9,27.2c18.2,0,251.8,0.2,251.8,0.2v-5C722.5,330.6,489,330.5,470.8,330.5z"/>
	<path class="st1" d="M36.6,317.1c8.2,0,14.8-2.4,19.8-6.8c4.1-3.7,7.1-9,8.6-15.4c0.4-1.5,0.1-2.7-0.5-3.7c-0.6-1-1.5-1.6-2.7-1.9
		c-1.1-0.2-2.1-0.1-3.1,0.4c-1.1,0.6-1.7,1.6-2,3c-1.2,6-3.7,10.4-7.3,13.2c-3.2,2.4-7.5,3.6-12.6,3.6c-6.8,0-12.2-2.4-16.3-7.1
		c-4.4-5.1-6.6-12.7-6.6-22.4c0-9.5,2.2-16.9,6.6-22.1c4.2-5,9.6-7.3,16.3-7.3c5.1,0,9.5,1.1,12.7,3.5c3.7,2.6,6,6.3,7,11.4
		c0.2,1.5,0.9,2.6,1.9,3.2c0.9,0.6,2,0.9,3.1,0.6c1.1-0.2,2-0.9,2.6-1.7c0.6-1,0.9-2.1,0.7-3.4c-1.1-6.2-3.9-11.3-8.2-15.1
		c-5-4.2-11.6-6.3-19.9-6.3c-9.2,0-16.8,3.5-22.5,10.2c-5.7,6.8-8.7,15.9-8.7,27c0,11.3,3,20.5,8.7,27.1
		C19.7,313.7,27.2,317.1,36.6,317.1z"/>
	<path class="st1" d="M93.3,284.4c-7.8,1-13.3,3.2-16.4,6.7c-2.1,2.5-3.2,6-3.2,10.3c0,4.9,1.6,8.8,4.6,11.4
		c3.1,2.9,7.6,4.2,13.6,4.2c4.2,0,8.1-0.7,11.6-2.2c1.7-0.7,3.4-1.7,5-3c0.4,1.1,1,2,1.9,2.7c1.6,1,4.2,1.5,8.1,1.5
		c1.2,0,2.2-0.5,3-1.2c0.6-0.7,1-1.6,1-2.7c-0.1-1-0.5-1.9-1.1-2.6c-0.7-0.7-1.7-1.1-2.7-1.1c-0.7,0-1.4-0.2-1.7-0.5
		c-0.4-0.4-0.5-0.9-0.5-1.5v-29.7c0-5.3-2-9.3-6-11.9c-3.4-2.2-8-3.4-13.8-3.4c-5.5,0-10,1.2-13.3,3.7c-3.5,2.6-5.7,6.6-6.5,11.6
		c-0.4,1.7,0.2,2.7,0.9,3.4c0.7,0.7,1.6,1.2,2.7,1.4h0.4c1,0,1.9-0.2,2.5-0.7c1-0.6,1.6-1.6,1.7-2.9c0.2-2.7,1.2-4.9,2.9-6.2
		c1.9-1.6,4.9-2.5,8.7-2.5c4.1,0,7.1,0.7,9.1,2.1c1.7,1.4,2.6,3.2,2.6,6c0,2.2-0.7,3.6-2.1,4.4C104.5,282.2,101.4,283.2,93.3,284.4z
		 M82.1,301.4c0-2.9,0.7-4.9,2.4-6.2c1.7-1.6,4.9-2.6,9.2-3.2c4.7-0.6,8.5-1.4,11.2-2.2c1.1-0.4,2.1-0.7,3-1.1v13.3
		c-1.4,2.2-3.1,4-5.6,5.2c-2.9,1.5-6.3,2.2-10.4,2.2c-3.5,0-6-0.7-7.6-2.1C82.8,306,82.1,304.1,82.1,301.4z"/>
	<path class="st1" d="M134.2,317.1c1,0,2-0.4,2.9-1.1c0.9-0.7,1.4-1.9,1.4-3.2v-36.1c1-2.1,2.5-3.7,4.4-5c2.1-1.4,4.6-2.1,7.5-2.1
		c1,0,1.9-0.4,2.5-1c0.7-0.7,1-1.9,1-3.2c-0.1-3.6-2.4-4-3.4-4c-3.2,0-6.1,0.9-8.7,2.5c-1.1,0.6-2.1,1.5-3.1,2.5V266
		c0-1.2-0.5-2.4-1.5-3.1c-1.6-1.1-4-1.1-5.6,0.2c-0.9,0.7-1.2,1.7-1.2,2.9v46.8c0,1.2,0.4,2.4,1.2,3.2
		C132.1,316.7,133.1,317.1,134.2,317.1z"/>
	<path class="st1" d="M183.1,317.3c4,0,7.6-0.9,10.8-2.7c1.6-0.9,3-1.9,4.1-3.1v0.5c0,1.2,0.4,2.2,1.2,3.1c0.7,0.6,1.6,1.1,2.7,1.1
		c1.1,0,2.1-0.4,2.9-1c0.9-0.7,1.4-1.9,1.5-3.2v-64.8c0-1.4-0.5-2.5-1.4-3.2c-1.6-1.5-4-1.5-5.7,0c-0.7,0.7-1.2,1.9-1.2,3.1v20.7
		c-1.5-1.6-3.2-3-5.1-3.9c-2.7-1.5-6.1-2.2-9.8-2.2c-7.6,0-13.6,3-17.8,8.7c-3.7,5.1-5.6,11.4-5.6,19.2c0,7.6,1.9,13.9,5.6,19
		C169.6,314.3,175.5,317.3,183.1,317.3z M183.1,269.2c4.9,0,8.5,2,11.2,6.1c2.5,3.7,3.7,8.5,3.7,14.2c0,5.6-1.2,10.3-3.7,14.1
		c-2.7,4.1-6.3,6.1-11.2,6.1s-8.6-2-11.3-6.1c-2.4-3.7-3.6-8.5-3.6-14.1c0-5.7,1.2-10.4,3.6-14.2
		C174.5,271.2,178.1,269.2,183.1,269.2z"/>
	<path class="st1" d="M224.9,254.9c1.9,0,3.2-0.6,4.4-1.9c1-1.1,1.5-2.5,1.5-4.1c0-1.6-0.5-3.1-1.5-4.2c-1.1-1.2-2.6-1.9-4.4-1.9
		c-1.9,0-3.4,0.6-4.5,2c-0.9,1.1-1.4,2.6-1.4,4.2s0.5,3,1.4,4.1C221.6,254.3,223,254.9,224.9,254.9z"/>
	<path class="st1" d="M222.1,262.3c-0.6,0.5-1.4,1.4-1.4,3v47.5c0,1.2,0.4,2.4,1.2,3.2c0.7,0.7,1.7,1.1,2.9,1.1
		c1.1,0,2.1-0.4,2.9-1.1c0.9-0.7,1.4-1.9,1.4-3.2v-47.6c0-1.2-0.5-2.2-1.4-3C226.2,261,223.5,261,222.1,262.3z"/>
	<path class="st1" d="M260,284.4c-7.8,1-13.3,3.2-16.4,6.7c-2.1,2.5-3.2,6-3.2,10.3c0,4.9,1.6,8.8,4.6,11.4
		c3.1,2.9,7.6,4.2,13.6,4.2c4.2,0,8.1-0.7,11.6-2.2c1.7-0.7,3.4-1.7,5-3c0.4,1.1,1,2,1.9,2.7c1.6,1,4.2,1.5,8.1,1.5
		c1.2,0,2.2-0.5,3-1.2c0.6-0.7,1-1.6,1-2.7c-0.1-1-0.5-1.9-1.1-2.6c-0.7-0.7-1.7-1.1-2.7-1.1c-0.7,0-1.4-0.2-1.7-0.5
		c-0.4-0.4-0.5-0.9-0.5-1.5v-29.7c0-5.3-2-9.3-6-11.9c-3.4-2.2-8-3.2-13.8-3.2c-5.5,0-10,1.2-13.3,3.7c-3.5,2.6-5.7,6.6-6.5,11.6
		c-0.4,1.7,0.2,2.7,0.9,3.4c0.7,0.7,1.6,1.2,2.7,1.4h0.4c1,0,1.9-0.2,2.5-0.7c1-0.6,1.6-1.6,1.7-2.9c0.2-2.7,1.2-4.9,2.9-6.2
		c1.9-1.6,4.9-2.5,8.7-2.5c4.1,0,7.1,0.7,9.1,2.1c1.7,1.4,2.6,3.2,2.6,6c0,2.2-0.7,3.6-2.1,4.4C271.2,282.2,268,283.2,260,284.4z
		 M248.8,301.4c0-2.9,0.7-4.9,2.4-6.2c1.7-1.6,4.9-2.6,9.2-3.2c4.7-0.6,8.5-1.4,11.2-2.2c1.1-0.4,2.1-0.7,3-1.1v13.3
		c-1.4,2.2-3.1,4-5.6,5.2c-2.9,1.5-6.3,2.2-10.4,2.2c-3.5,0-6-0.7-7.6-2.1C249.4,306,248.8,304.1,248.8,301.4z"/>
	<path class="st1" d="M501,309.4c4.4,3.4,10.6,5.1,18.4,5.1c7,0,12.9-1.7,17.7-5.2c5.2-3.7,7.8-8.8,7.8-15.1
		c0-6.3-1.9-11.3-5.7-14.8c-3.9-3.6-10.2-6.2-19.4-8.1c-6.6-1.4-11.1-3.1-13.6-5.1c-2.2-1.9-3.2-4.5-3.2-8c0-3.5,1.4-6,4.2-7.8
		c2.7-1.7,6.7-2.7,11.7-2.7c4.6,0,8.1,0.9,10.6,2.7c2.4,1.9,4,4.9,4.6,8.8c0.1,1.4,0.7,2.4,1.7,3.1c0.9,0.6,1.7,0.9,2.7,0.9h0.5
		c1.2-0.1,2.2-0.7,2.7-1.7c0.7-1,1-2.4,0.7-3.9c-0.7-4.9-2.7-8.8-5.8-11.8c-4.1-4-10-6-17.5-6c-7.5,0-13.6,1.6-17.9,4.7
		c-4.5,3.2-6.7,8-6.7,13.7c0,6,2.2,10.7,6.6,14.1c3.6,2.6,9.3,5,17,6.7c7.7,1.7,12.8,3.9,15.4,6.3c2,2,3,5.1,3,9.3
		c0,3.7-1.9,6.7-5.8,9c-3.4,2-7.2,2.9-11.4,2.9c-5.7,0-10-1.1-12.8-3.4c-3.1-2.4-4.9-6.1-5.3-11.4c-0.1-1.4-0.6-2.5-1.5-3.2
		c-0.7-0.6-1.6-1-2.6-1h-0.4c-1,0.1-2,0.5-2.6,1.2c-0.9,0.9-1.2,2.1-1.1,3.5C493.5,300,496.2,305.8,501,309.4z"/>
	<path class="st1" d="M576.1,314.5c5,0,9.3-1.2,13.1-3.9c3.6-2.5,6.5-6,8.3-10.6c0.5-1.2,0.5-2.5,0-3.6c-0.5-1-1.2-1.7-2.2-2.1
		c-1.1-0.4-2-0.5-3.4-0.1c-1.1,0.5-1.9,1.4-2.4,2.6c-1.4,3-3,5.3-4.9,6.8c-2.2,2-5.1,3-8.5,3c-4.4,0-7.7-1.9-10.2-5.8
		c-2.1-3.1-3.4-7-3.7-11.4h36.6v-2.7c0-7.5-1.9-13.9-5.6-19.3c-4.2-5.8-10-8.7-17-8.7s-12.7,3-16.9,8.7c-3.7,5.2-5.6,11.7-5.6,19.2
		c0,7.5,1.9,13.8,5.6,19C563.4,311.5,569,314.5,576.1,314.5z M576.1,266.3c4.2,0,7.6,1.9,10.2,5.6c2,2.9,3.1,6.1,3.6,9.7h-27.6
		c0.5-3.7,1.7-7,3.6-9.8C568.6,268.2,571.9,266.3,576.1,266.3z"/>
	<path class="st1" d="M614.5,314.6L614.5,314.6L614.5,314.6c1.1-0.1,2-0.5,2.9-1.2c0.9-0.9,1.2-2,1.2-3.4v-32.8
		c2-3.6,4.4-6.3,7.1-8.2c2.6-1.7,5.6-2.6,8.8-2.6c2.9,0,5.1,0.9,6.8,2.6c1.5,1.5,2.2,3.4,2.2,5.7v35.5c0,1.2,0.4,2.4,1.2,3.2
		c1.5,1.4,4,1.5,5.7,0c0.9-0.9,1.2-2,1.2-3.2v-35.3c0-4.4-1.5-8.1-4.5-11.1c-3.2-3.2-7.6-5-12.9-5c-4.1,0-7.8,0.9-10.9,2.7
		c-1.9,1.1-3.6,2.5-5,4.2v-1.9c0-1.2-0.5-2.4-1.4-3.2c-1.6-1.5-4.1-1.4-5.7,0c-0.9,0.7-1.2,1.9-1.2,3.1v46.4c0,1.4,0.4,2.4,1.2,3.2
		C612.3,314.1,613.3,314.6,614.5,314.6z"/>
	<path class="st1" d="M693,304.3c-2.1,1.6-5,2.5-8.7,2.5c-4.5,0-7.8-0.9-9.7-2.4c-1.7-1.5-2.6-3.5-2.6-6.5c-0.1-1.2-0.6-2.2-1.5-2.9
		c-0.7-0.5-1.5-0.9-2.7-0.9c-1.1-0.1-2.1,0.4-2.9,1.1c-0.9,0.9-1.4,1.9-1.2,3.1c0.2,5.2,2.1,9.3,5.7,12.1c3.5,2.7,8.6,4.1,14.9,4.1
		c6.5,0,11.4-1.5,15.1-4.6c3.4-2.7,5-6.5,5-11.1c0-4.5-1.4-8.1-4.2-10.7c-2.9-2.7-7.6-4.9-14.4-6.3c-5.1-1.4-8.7-2.7-10.6-4.1
		c-1.6-1.2-2.4-2.9-2.4-5.1c0-1.7,0.9-3.2,2.6-4.4c1.9-1.1,4.4-1.7,7.3-1.7c3.9,0,6.8,0.7,8.7,2.1c1.7,1.2,2.6,3,2.9,5.3
		c0.1,1.2,0.6,2.2,1.6,3c0.7,0.5,1.6,0.7,2.6,0.7h0.5c1.1-0.1,2.1-0.6,2.9-1.2c0.9-0.9,1.2-2,1.2-3.2c-0.4-4.1-2-7.5-5-10.1
		c-3.5-2.9-8.6-4.4-15.1-4.4c-5.3,0-9.7,1.2-12.9,3.6c-3.6,2.6-5.5,6.2-5.5,10.8c0,4.2,1.5,7.7,4.5,10.2c2.6,2.4,6.7,4.2,12.6,5.7
		c5.8,1.5,10,3,12.1,4.7c1.6,1.2,2.4,2.9,2.4,5C695.8,301,694.9,302.9,693,304.3z"/>
</g>
</svg>
