<?xml version="1.0" encoding="utf-8"?>
<!-- Generator: Adobe Illustrator 21.0.0, SVG Export Plug-In . SVG Version: 6.00 Build 0)  -->
<svg version="1.1" id="Calque_1" xmlns="http://www.w3.org/2000/svg" xmlns:xlink="http://www.w3.org/1999/xlink" x="0px" y="0px"
	 viewBox="0 0 722.6 628.4" style="enable-background:new 0 0 722.6 628.4;" xml:space="preserve">
<style type="text/css">
	.st0{fill:#545454;}
	.st1{fill:#42A768;}
	.st2{fill:#307149;}
	.st3{fill:#5EBA78;}
</style>
<g>
	<g>
		<path class="st0" d="M639.2,477.9L639.2,477.9c0-0.1-5.7-1-15.7-2.6c-1.2-0.2-2.6-0.4-3.9-0.7c-1.4-0.2-2.8-0.3-4.3-0.5
			c-3-0.3-6.3-0.7-9.8-1.1c-7-0.9-14.9-1.4-23.4-2c-2.2-0.2-4.3-0.3-6.6-0.5c-2.2-0.1-4.5-0.2-6.8-0.2c-4.7-0.2-9.4-0.4-14.3-0.6
			c-4.9-0.2-10-0.2-15.1-0.2c-2.6,0-5.2-0.1-7.8-0.1c-2.7-0.1-5.3-0.1-8,0c-10.7,0.2-21.8,0.2-33,0.8c-5.7,0.2-11.3,0.4-17,0.8
			c-5.7,0.4-11.4,0.7-17,1.2c-5.7,0.3-11.4,1-17,1.4c-5.7,0.6-11.3,0.9-16.9,1.7c-5.6,0.7-11.1,1.2-16.5,1.9
			c-5.5,0.6-10.8,1.5-16.1,2.2c-10.6,1.4-20.8,3.2-30.4,4.9c-4.8,0.7-9.5,1.8-14,2.7c-4.5,0.9-8.9,1.7-13,2.7c-4.2,1-8.1,2-12,2.9
			c-3.8,0.9-7.4,1.7-10.7,2.7c-3.3,1-6.5,1.9-9.4,2.7c-2.9,0.9-5.7,1.6-7.9,2.4c-7.1,2.5-11.8,4.2-13.8,4.8c-0.2,0-0.4,0.1-0.7,0.2
			c-0.2,0.1-0.3,0.1-0.3,0.1v0.1c-0.6,0.4-0.9,1.1-0.9,1.8c0,1.2,1.1,2.3,2.3,2.3l0.1,0.2c0,0,5.4-1.7,14.9-4.7
			c2.3-0.8,5-1.4,7.9-2.2c2.9-0.7,6-1.5,9.3-2.4c3.3-0.9,6.9-1.6,10.6-2.4c3.7-0.8,7.7-1.7,11.9-2.5c4.2-0.8,8.6-1.5,13-2.3
			c4.5-0.7,9.1-1.7,14-2.3c9.6-1.3,19.8-2.9,30.3-4c5.2-0.6,10.6-1.3,16-1.7c5.4-0.5,11-0.9,16.5-1.4c5.6-0.6,11.1-0.7,16.8-1.2
			c5.7-0.3,11.2-0.8,16.9-0.9c5.7-0.2,11.3-0.4,17-0.7c5.7-0.2,11.2-0.2,16.8-0.3c11.1-0.2,22,0,32.7,0.2c2.7,0,5.2,0.1,7.9,0.2
			c2.6,0.1,5.2,0.2,7.7,0.3c5.1,0.2,10.1,0.3,14.9,0.7s9.6,0.7,14,1c2.2,0.2,4.5,0.3,6.7,0.5c2.2,0.2,4.3,0.4,6.4,0.7
			c8.4,0.9,16.1,1.6,22.8,2.7c3.4,0.5,6.6,0.9,9.5,1.3c1.5,0.2,2.8,0.4,4.2,0.6c1.3,0.2,2.6,0.5,3.8,0.7c9.6,1.8,15,2.9,15,2.9v-0.1
			c0.5,0.1,1,0.2,1.5,0.2c4.1,0,7.4-3.4,7.4-7.6C645,481.7,642.5,478.6,639.2,477.9z"/>
	</g>
</g>
<g>
	<g>
		<path class="st0" d="M366.7,209.4c6.1-10.9,0.8-15.8-8.1-15.1c-3.7,0.2-7.4,0.6-11.1,0.8c-9,0.7-22.2,6.9-28.3,17.8
			c-64.2,91.2-107.8,185.7-131,276.9c-1.2,10.9,6.1,16.1,14.7,15.5c13.1-1,20.5-11.4,33.7-12.4c8.6-0.7,18.4-8.7,19.6-19.7
			C272,382.6,310.6,299.9,366.7,209.4z"/>
		<g>
			<path class="st1" d="M213.2,282c-3.1-10.4-11.5-17.4-18.3-15.5c-12.4,3.3-24.8,6.6-37.2,9.9c-6.9,1.8-9.8,11.7-6.8,22.2
				c18.2,64.2,35.2,129.3,36.9,193.5c0.2,10.4,6.1,17.4,13.5,15.5c13.1-3.3,34-13.5,47.1-16.9c7.2-1.8,8.2-18.8,7.8-29.2
				C253.4,397.2,232.5,346.1,213.2,282z"/>
		</g>
	</g>
	<g>
		<path class="st0" d="M309.7,389.2c1.1,0,2.4-0.4,4.1-1.2c1.7-0.9,3.5-2,5.2-3.5c1.7-1.4,3.5-3.1,5.1-4.8s3.1-3.6,4.4-5.5
			c1.3-1.9,2.4-3.8,3.3-5.8s1.5-3.7,1.7-5.2c0.2-1.4,0.2-2.6-0.1-3.3s-1-1.2-2-1.2s-2.2,0.3-3.8,1.2c-1.5,0.7-3.1,1.8-4.7,3.2
			c-1.7,1.4-3.4,3.1-5.1,4.8c-1.7,1.8-3.3,3.7-4.8,5.8c-1.6,2.1-2.9,4.2-4,6.2c-1,2-1.7,3.7-1.9,5c-0.2,1.3-0.1,2.4,0.3,3.1
			C307.9,388.9,308.6,389.3,309.7,389.2z"/>
		<path class="st0" d="M661.3,409.2c-0.4-1.2-1.1-2.2-1.9-3.1c-0.8-0.8-1.8-1.4-2.9-1.8c-1.1-0.3-2.2-0.4-3.3,0
			c-1.1,0.3-2.1,1.2-3,2.3c-0.9,1.2-1.6,3-2,5.3c-0.5,2.7-1.3,5.5-2.5,8.6c-1.2,3.1-2.6,6.1-4.3,8.7c-1.7,2.7-3.7,5.1-6,7.1
			c-2.2,2-4.7,3.2-7.4,3.5c-4.3,0.6-7.5-0.5-9.5-3.2c-2-2.7-3-6.4-3-11.1c0-4.4-0.1-8.9-0.1-13.3c0.5-0.5,1.5-2.2,2.8-5
			c1.4-2.8,2.9-6.5,4.7-10.9c1.7-4.5,3.5-9.6,5.3-15.3s3.5-11.7,5.1-17.9c1.5-6.2,2.7-12.5,3.7-18.8c0.9-6.3,1.4-12.3,1.3-17.9
			c0-2.2-0.1-4.6-0.2-7.1c-0.1-2.7-0.3-5.2-0.7-7.9c-0.4-2.7-1-5.2-1.9-7.6c-0.8-2.5-2.1-4.6-3.5-6.3c-1.5-1.7-3.3-3.1-5.7-4.1
			c-2.2-0.9-5.1-1.2-8.3-0.8c-2.8,0.3-5.4,1.2-7.9,2.9c-2.5,1.7-4.7,3.8-6.5,6.5c-1.8,2.7-3.3,5.8-4.4,9.5
			c-1.1,3.7-1.6,7.6-1.6,11.8c0.1,30.4,0.2,60.8,0.2,91.2c-0.4,0.9-0.7,2-1,3.2c-0.5,2.6-1.2,5.2-2,8.1s-1.8,5.6-3.1,8.1
			c-1.2,2.5-2.7,4.6-4.4,6.1c-1.7,1.7-3.7,2.4-6.1,2.4c-1.3,0-2.6-0.4-3.6-1.1c-1-0.7-1.8-1.5-2.4-2.6c-0.6-1-1.1-2.2-1.3-3.4
			c-0.3-1.2-0.4-2.5-0.4-3.7c0-12.5,0.1-25.2,0.1-37.7c0-2.7-1.1-5.2-3.3-7.2c-2.2-2.1-5.2-3.2-9.1-3.6c-1.7-0.2-3.1,0.1-4.2,0.7
			s-1.7,1.5-1.7,2.7c0,0.4,0,0.7,0.1,1.2s0.2,0.9,0.2,1.4c0.1,0.5,0.2,1.2,0.3,1.9c0.1,0.7,0.2,1.7,0.2,2.8
			c-0.1,11.7-0.2,23.5-0.2,35.2c-1.3,3.1-3.1,5.7-5.2,7.7c-2.2,2.1-4.8,2.9-8,2.4c-4.1-0.6-7.2-2.7-9.6-6.4
			c-2.3-3.7-3.4-8.5-3.3-14.5c0.1-8.2,1.3-15.1,3.7-20.7c2.4-5.6,5.4-10,9.1-13.4c3.7-3.3,7.7-5.7,12.2-7.1c4.5-1.4,8.9-2,13.2-1.7
			c1.2,0.1,2.3,0.2,3.5,0.4c1.2,0.2,2.2,0.3,3.2,0.3c1.2,0.1,1.9-0.3,2.3-1.1c0.4-0.7,0.6-2.2,0.7-4.1c0-3-1-5.3-2.9-7.1
			c-1.9-1.7-4.5-2.7-7.6-3c-7-0.5-13.7,0.2-20.3,2.2c-6.5,1.9-12.3,5-17.4,9.3c-5.1,4.3-9.2,9.9-12.4,16.7c-3.2,6.8-4.8,15-5,24.5
			c-0.1,4.2,0.2,8.1,1.1,12c-0.2,1.1-0.6,2.2-0.9,3.4c-0.7,2.7-1.8,5.1-3.1,7.2c-1.2,2.2-2.7,4-4.5,5.3c-1.7,1.3-3.7,1.9-6.1,1.7
			c-1.5-0.2-2.7-0.7-3.5-1.6c-0.8-0.9-1.4-2-1.7-3.2c-0.3-1.2-0.6-2.3-0.7-3.4c-0.1-1.1-0.1-1.9-0.1-2.4c0.1-18.4-0.2-36.9-1.1-55.2
			c-0.1-2.6-1.2-4.9-3.4-6.9s-5-3-8.6-3.1c-0.7,0-1.6,0-2.4,0.1c-0.8,0.1-1.6,0.2-2.2,0.4c-0.7,0.2-1.2,0.4-1.7,0.7
			c-0.4,0.2-0.7,0.6-0.7,0.9c0,0.4,0.1,0.7,0.4,1.1c0.2,0.3,0.5,0.7,0.7,1.2s0.5,1.2,0.7,2.2c0.2,0.9,0.4,2.2,0.4,3.7
			c0.1,11.6,0.2,23.1,0.2,34.7c-0.7,3.7-1.6,7.4-2.8,10.8s-2.7,6.5-4.2,9.1c-1.7,2.7-3.4,4.8-5.4,6.4c-2,1.6-4.2,2.4-6.5,2.4
			c-3.4,0-6-1.4-7.8-4.3c-1.8-2.9-2.7-7.3-2.7-13.1c0.1-4.4,0.2-8.4,0.6-12c0.3-3.6,0.8-7.1,1.5-10.3c0.7-3.3,1.4-6.6,2.3-9.9
			c0.9-3.3,1.9-7,3-11c0.2-0.8,0.7-1.9,1.4-3.2c0.7-1.3,1.2-2.7,1.4-3.9c0.2-1.2-0.1-2.3-0.8-3.2c-0.7-0.9-2.5-1.2-5.2-1.1
			c-2.9,0.2-5,0.7-6.4,1.2c-1.4,0.6-2.4,1.3-3.2,2.2c-0.7,0.8-1.2,1.7-1.4,2.7c-0.2,0.9-0.6,1.9-1,2.8c-1.8,5.1-3.4,10.4-4.8,15.8
			c-1.2,4.7-2.4,9.8-3.5,15.5c-1.1,5.7-1.6,11.3-1.7,16.9c0,0.3,0,0.7,0,1.1c-0.8,2.7-1.8,5.2-3,7.5c-1.2,2.3-2.7,4.4-4.3,6.1
			c-1.7,1.7-3.7,2.6-6,2.8c-2.4,0.2-4.3-0.2-5.7-1.6c-1.4-1.3-2.2-3.6-2.2-7c0-21.8,1.7-43.7,4.7-65.9c5.7-1.1,11.8-2.1,18.4-3
			c6.6-0.9,14.1-1.8,22.7-2.6c0.9-0.1,1.7-0.7,2.5-1.7c0.7-1.1,1.4-2.3,1.8-3.7s0.7-2.9,0.9-4.5c0.2-1.5,0.2-2.8,0.1-3.8
			c-0.2-1-0.5-1.7-1-1.9c-0.6-0.2-1.3,0.2-2.3,1.2c-7.1,0.8-14,1.7-21.1,2.8c-7,1.1-13.6,2.2-19.9,3.5c2-12.3,4.5-24.7,7.4-37.1
			c0.6-2.6,0.2-4.6-0.9-6.1s-3.2-1.9-5.9-1.2c-0.6,0.2-1.2,0.3-1.9,0.6s-1.3,0.6-1.9,0.9c-0.6,0.3-1.2,0.7-1.6,1.1s-0.7,0.7-0.8,1.2
			c-0.1,0.3-0.1,0.7,0,0.9c0.1,0.2,0.2,0.7,0.2,1.1c0,0.5,0,1.2-0.1,2s-0.3,2.1-0.7,3.6c-3.6,12.1-6.6,24.2-9.1,36.1
			c-2.7,0.6-5.3,1.2-7.6,1.7c-2.2,0.6-4.2,1-5.7,1.3c-1.8,0.4-3.5,0.8-5,1.2c-1.4,0.4-2.6,1.4-3.3,3.1c-0.7,1.6-1.2,3.2-1.1,4.8
			c0.1,1.7,0.6,3,1.5,4.2c0.9,1.1,2.2,1.4,3.9,1c1.1-0.2,2.3-0.5,3.7-0.8c1.2-0.2,2.7-0.6,4.6-1.1c1.8-0.4,3.9-0.9,6.2-1.5
			c-3,16.8-4.8,33.4-5.6,49.7c-0.5,0.9-0.8,2-1.2,3.2c-0.6,2.3-1.3,4.9-2.2,7.6c-0.8,2.7-1.8,5.2-3.1,7.6c-1.2,2.4-2.8,4.5-4.6,6.3
			c-1.8,1.8-4,3-6.6,3.5c-1.6,0.3-2.9,0.3-4.1,0s-2.2-0.8-2.9-1.7c-0.7-0.8-1.3-1.8-1.7-3s-0.6-2.4-0.6-3.8c0-3.2,0.3-6.6,1-10.3
			c0.7-3.6,1.5-7.1,2.6-10.6c1-3.5,2.2-6.8,3.3-10.1c1.2-3.2,2.3-6.1,3.4-8.7c1.1-2.6,1.9-4.7,2.7-6.3c0.7-1.7,1.2-2.7,1.2-3.2
			c0.4-1.2,0.3-2.5-0.2-3.6c-0.6-1.2-1.3-2.2-2.3-3c-0.9-0.8-2-1.5-3-1.8c-1.1-0.4-1.9-0.5-2.5-0.3c-3.7,1.2-7.4,2.3-11.1,3.6
			c-0.6,0.2-1.1,0.4-1.7,0.6c-0.6,0.2-1.2,0.4-2.1,0.6c-0.8,0.2-1.8,0.5-3,0.8s-2.6,0.7-4.2,1.2c0-1.9-0.3-3.4-0.8-4.5
			c-0.5-1.1-1.2-1.8-2.1-2.3c-0.9-0.4-1.9-0.6-3.1-0.4c-1.2,0.2-2.3,0.5-3.6,1c-1.3,0.6-2.7,1.3-4.1,2.3s-2.7,2.2-4,3.4
			c-1.2,1.2-2.3,2.7-3.3,4.2c-1,1.5-1.7,2.9-2.2,4.4c-1,3.1-0.9,5.4,0.2,6.8c1.1,1.5,2.8,2.3,5.1,2.7c-0.7,2.7-1.5,5.7-2.3,9
			c-0.8,3.3-1.6,6.6-2.4,9.9c-0.7,3.2-1.5,6.4-2.2,9.4c-0.7,3-1.5,5.5-2.2,7.6c-0.1,0.3-0.2,0.6-0.2,0.9v0.1
			c-0.7,2.2-1.4,4.7-2.2,7.4c-0.8,2.7-1.8,5.2-3,7.5c-1.2,2.4-2.5,4.5-4,6.4c-1.6,1.9-3.3,3.2-5.5,4c-1.4,0.6-2.6,0.7-3.4,0.2
			c-0.8-0.3-1.4-0.9-1.8-1.7s-0.7-1.6-0.7-2.4s-0.2-1.5-0.2-1.9c-0.1-15,2.6-31.2,7.8-48.7c0.7-2.5,0.4-4.2-0.9-5.1
			c-1.4-0.8-3.7-0.4-7.1,1.3c-1.5,0.7-2.8,1.7-4.2,3c-1.3,1.2-2.2,2.3-2.5,3.4c-0.2,0.7-0.4,1.5-0.4,2.2c0,0.7-0.3,2.1-1,4.1
			c-5.9,18.4-8.6,35.2-8,50c0.1,2.2,0.7,3.9,1.7,5.4c1,1.5,2.4,2.6,4.2,3.3c1.7,0.7,3.8,1.1,6.2,1c2.4-0.1,5-0.6,7.9-1.7
			c4.7-1.7,8.6-3.9,11.8-6.9c3.2-2.9,6-6.1,8.3-9.7c2.3-3.6,4.2-7.3,5.8-11.3c1.6-3.9,3-7.6,4.2-11.1l0,0c1-2.8,1.9-5.8,2.7-9.1
			c1-3.6,1.9-7.1,2.8-10.6c0.9-3.5,1.7-6.8,2.4-9.9c0.7-3.1,1.3-5.7,1.8-7.7c0.8-0.2,1.6-0.6,2.4-0.9c5.5-2,11-3.8,16.5-5.6
			c-5.2,10-9,18.9-11.6,26.6c-2.6,7.7-3.8,14.6-3.8,20.9c0,4.2,0.8,7.5,2.4,9.8s3.6,4.1,5.9,5.2c2.3,1.1,5,1.7,7.7,1.7
			c2.8,0.1,5.5-0.2,8.1-0.7c4.8-1,9-2.7,12.4-5.4c3.5-2.7,6.5-5.7,9-9.2c0.1-0.1,0.2-0.2,0.2-0.3c1.1,2.2,2.5,3.9,4.2,5.2
			c1.9,1.5,4.2,2.6,6.8,3.1c2.6,0.5,5.4,0.6,8.4,0.2c4.9-0.5,9.1-1.9,12.7-4.3c3.4-2.3,6.4-5.1,9-8.2c0.6,0.9,1.2,1.8,1.9,2.7
			c2.2,2.5,4.7,4.5,7.7,5.8c3,1.3,6.5,2,10.2,2c5.1,0,9.5-1.4,13.2-4.2s7.1-6.4,9.8-10.9c0.3,2.2,1.1,4.2,2.1,6.1
			c1,1.9,2.3,3.7,3.9,5.1c1.6,1.5,3.4,2.7,5.6,3.7c2.1,0.9,4.5,1.6,7.1,1.8c4.9,0.5,9.2-0.2,13-1.9c3.7-1.7,7-4.1,9.6-7.1
			c1.5-1.7,2.9-3.5,4.2-5.4c1.8,2.2,3.8,4.2,6.1,5.9c3.4,2.5,7.4,4.1,11.9,4.8c4.4,0.7,8.2,0.3,11.6-1.1c3.3-1.4,6.1-3.3,8.6-5.7
			c1.7,3,4.1,5.5,7.1,7.4c3,1.9,6.6,3,10.7,3.1c5.1,0.2,9.5-1,13.2-3.3s7-5.3,9.6-9c0.5-0.7,0.9-1.2,1.3-1.9c1,2.1,2.2,3.9,3.7,5.5
			c2.3,2.5,5.2,4.3,8.6,5.5c3.4,1.2,7.4,1.5,11.9,0.9c5.3-0.7,10-2.7,14-5.9c4.1-3.2,7.6-7.1,10.5-11.3s5.3-8.7,7.2-13.3
			c1.8-4.6,3.2-8.5,4.2-11.8C661.8,411.6,661.7,410.4,661.3,409.2z M614.8,317.2c0-0.9,0.1-1.9,0.2-3c0.1-1.1,0.3-2.1,0.6-3.1
			c0.2-1,0.7-1.7,1.1-2.4c0.4-0.7,0.9-1,1.5-1.1c1.8-0.2,3.3,1.4,4.4,4.8c1.2,3.4,1.7,8.9,1.8,16.5c0,2.1-0.1,4.7-0.3,7.6
			c-0.2,3-0.6,6.1-1,9.6c-0.4,3.4-0.9,6.9-1.5,10.5c-0.6,3.6-1.2,7-1.8,10.2s-1.4,6.3-2.2,9c-0.7,2.7-1.6,4.9-2.3,6.6
			C615.1,360.7,614.9,339,614.8,317.2z"/>
	</g>
</g>
<g>
	<g>
		<g>
			<path class="st1" d="M216.4,189.7c1.9,3.1,1.7,6.7-1,9.6c-10,14-20.3,28-31,42.1c-2.9,3.1-6,0.7-8.3-3.2
				c-13.2-24-27.6-47.8-43.1-71.3c-2.4-3.6-2.3-3.8,1.3-7.9c11.9-11.8,23.5-23.5,35-35.2c2.7-2.7,6.4-0.5,8.9,3.2
				C191.9,147.4,204.6,168.5,216.4,189.7z"/>
			<path class="st2" d="M104.1,242.3c2,3.3,5.2,4.2,9,4.4c18.6,0.6,37.2,1.2,55.8,1.7c4.5-0.2,3.9-5,2.2-8.1
				c-13-24-27.3-47.9-42.7-71.5c-2.6-4-2.7-4-8.6-3.2c-18.2,2.4-36.3,4.9-54.5,7.3c-3.4,0.7-4.7,2.8-1.4,8
				C78.1,201.3,91.6,221.7,104.1,242.3z"/>
			<path class="st3" d="M130.5,155.8c-4,3.5-5.7,4.2-10.5,5c-16.3,2.4-32.6,4.8-48.9,7.2c-11.2,1.5-11.2,1.3-3.7-5.3
				c10.9-9.1,21.5-18.3,32.2-27.4c4.7-4.2,5.6-4.9,12.9-6.3c15.1-3.2,30.2-6.4,45.4-9.6c10-1.5,9.9-1.5,3.9,5.3
				C151.7,134.9,141.2,145.4,130.5,155.8z"/>
		</g>
	</g>
</g>
</svg>
