<?xml version="1.0" encoding="utf-8"?>
<!-- Generator: Adobe Illustrator 21.0.0, SVG Export Plug-In . SVG Version: 6.00 Build 0)  -->
<svg version="1.1" id="Calque_1" xmlns="http://www.w3.org/2000/svg" xmlns:xlink="http://www.w3.org/1999/xlink" x="0px" y="0px"
	 viewBox="0 0 722.6 628.4" style="enable-background:new 0 0 722.6 628.4;" xml:space="preserve">
<g>
	<path d="M321,174.9c9.6,2.2,19.2,4.5,28.9,6.4c122.8,24.3,245.6,48.5,368.4,72.7c1.4,0.3,2.7,0.7,4.8,1.2
		c-12.7,9.7-24.7,18.9-36.7,28.1c-25.6,19.6-51.1,39.2-76.7,58.5c-2.5,1.9-6.1,3.2-9.2,3.2c-18.3,0.3-36.5,0.1-54.8,0.1
		c-1.6,0-3.1,0-6.2,0c2.8-1.9,4.3-3.1,5.8-4.1c24.8-15.6,49.6-31.1,74.2-47c2.4-1.5,4.4-4.6,5.2-7.4c2-7.3,3.3-14.7,4.9-22.6
		c-39.7,0-78.8,0-118.6,0c-1.9,8.7-3.8,17.7-5.8,27.2c22.1,0,43.7,0,65.3,0c0.2,0.4,0.3,0.8,0.5,1.2c-1.5,1-3,2-4.6,3
		c-24.9,15.7-49.8,31.5-74.8,47.1c-3.2,2-4.8,4.4-5.5,8c-1.3,7.2-3,14.4-4.6,22.4c29,0,57.4,0,85.8,0c0.1,0.4,0.3,0.8,0.4,1.1
		c-8,6.1-15.6,12.7-24,18c-3.9,2.4-9.3,2.5-14.1,3.4c-111.8,21.3-223.6,42.6-335.4,63.9c-1,0.2-2,0.3-3.9,0.5
		c4-8.8,7.7-17,11.4-25.2c8.7-19.1,17.4-38.1,26-57.3c1.5-3.3,3.3-4.6,6.9-4.4c5.9,0.3,11.9-0.1,17.9,0.2c3,0.1,4.6-1,5.6-3.7
		c2.7-6.9,5.6-13.7,8.6-20.5c0.7-1.5,2.5-3.5,3.8-3.5c10.1-0.3,20.2-0.2,30.6-0.2c1.6,8,3.3,15.5,4.7,23.1c0.6,3.4,1.8,4.9,5.6,4.8
		c7.9-0.3,15.9-0.1,24.7-0.1c-1.1-5.5-2.2-10.5-3.2-15.5c-6.4-29.5-12.9-59-19.1-88.5c-0.9-4.1-2.6-5.2-6.5-5.1
		c-9,0.3-18,0.1-28,0.1c13.8-30.3,27.2-59.8,40.7-89.3C320.3,174.9,320.6,174.9,321,174.9z M466.6,318.5c1.6-0.9,2.8-1.6,4.1-2.3
		c12.3-7.2,18.9-20.4,16-32.2c-2.8-11.5-14-19.3-28.5-20.1c-0.7,0-1.4,0-2.2,0c-27.7,0-55.3,0.1-83-0.1c-4,0-5.1,1.4-5.9,5.1
		c-5.2,25.1-10.6,50.2-16,75.3c-2,9.5-4,19-6.2,29.1c2.5,0,4.3,0,6,0c27.3,0,54.6-0.1,81.9,0c13.2,0.1,24.3-4.8,33.7-13.8
		C480.5,346.2,480.5,330,466.6,318.5z"/>
	<path d="M0.9,371.3c1.8-6.9,3.8-13.8,5.2-20.7c0.7-3.6,2.2-4.6,5.7-4.6c22.9,0.1,45.9,0.3,68.8-0.1c3.8-0.1,7.9-2,11.1-4.2
		c1.6-1.1,2.8-5.2,2-7.1c-0.9-2.2-3.9-3.8-6.3-5c-1.5-0.7-3.5-0.3-5.4-0.3c-14.5,0-28.9-0.1-43.4,0c-12.3,0.1-22-4.7-27.2-16
		c-5.2-11.3-2-21.7,5.4-30.8c9.4-11.4,21.4-18,36.6-17.9c24.6,0.1,49.2,0,73.7,0c1.6,0,3.2,0,5.5,0c-1.9,9-3.6,17.4-5.4,26.4
		c-1.9,0.1-3.8,0.3-5.7,0.3c-22.6,0-45.2-0.1-67.8,0.1c-3.4,0-7.4,1.1-10,3c-2.1,1.6-3.7,5.5-3.5,8.2c0.3,3.8,3.9,5.3,7.7,5.4
		c6.3,0.1,12.6,0,19,0c9.9,0,19.9-0.1,29.8,0c23.4,0.4,35.8,22.6,23.5,42.5c-7.6,12.3-18.8,21.1-33.3,21.5
		c-28.7,1-57.4,0.3-86.2,0.3C0.9,372,0.9,371.6,0.9,371.3z"/>
	<path d="M180.5,291.2c-13.4,0-25.8,0-38.8,0c1.8-8.5,3.3-16.5,5.3-24.3c0.3-1.1,3.3-2.2,5.1-2.3c25.7-0.1,51.3-0.1,77-0.1
		c8.6,0,17.3,0,26.6,0c-1.9,9.1-3.7,17.5-5.6,26.7c-9,0-17.9,0-26.9,0c-11.8,0-11.8,0-14.3,11.3c-4.6,21.5-9.4,43.1-13.7,64.7
		c-0.9,4.5-2.7,5.8-7.1,5.6c-8.1-0.4-16.2-0.1-25-0.1C168.9,345.4,174.6,318.8,180.5,291.2z"/>
	<path d="M291.4,284.8c2.7,14.1,5.2,27.6,7.8,41.5c-8.1,0-16,0-24.5,0C280.2,312.6,285.7,299,291.4,284.8z"/>
	<path d="M383,344.7c1-4.9,2-9.8,3.1-14.9c18.1,0,35.7-0.2,53.4,0.2c2.1,0,5.1,2.5,5.9,4.5c0.7,1.7-0.3,5.2-1.8,6.7
		c-2,2-5.2,3.8-7.8,3.9c-16.9,0.3-33.9,0.2-50.9,0.2C384.3,345.3,383.8,345,383,344.7z"/>
	<path d="M391.2,307.3c2.1-15.6,2.1-15.6,16.6-15.6c12.1,0,24.2,0,36.3,0c4.6,0,9,0.3,9.9,6c0.7,4.4-4.5,9.3-10,9.4
		c-9.9,0.2-19.9,0.1-29.8,0.1C406.7,307.3,399.1,307.3,391.2,307.3z"/>
</g>
</svg>
