<?xml version="1.0" encoding="utf-8"?>
<!-- Generator: Adobe Illustrator 21.0.0, SVG Export Plug-In . SVG Version: 6.00 Build 0)  -->
<svg version="1.1" id="Calque_1" xmlns="http://www.w3.org/2000/svg" xmlns:xlink="http://www.w3.org/1999/xlink" x="0px" y="0px"
	 viewBox="0 0 722.6 628.4" style="enable-background:new 0 0 722.6 628.4;" xml:space="preserve">
<style type="text/css">
	.st0{fill:none;}
	.st1{opacity:0.3;fill:url(#SVGID_1_);}
	.st2{opacity:0.5;fill:url(#SVGID_2_);}
	.st3{opacity:0.8;fill:url(#SVGID_3_);}
	.st4{fill:url(#SVGID_4_);}
	.st5{opacity:0.6;fill:url(#SVGID_5_);}
	.st6{opacity:0.8;fill:url(#SVGID_6_);}
	.st7{opacity:0.8;fill:url(#SVGID_7_);}
	.st8{fill:url(#SVGID_8_);}
</style>
<g>
	<path d="M364.7,321.1c12.7,0,23.5,4.6,32.4,13.7c8.9,9.1,13.4,20.1,13.4,32.9c0,12.8-4.5,23.8-13.4,32.9
		c-8.9,9.1-19.7,13.7-32.4,13.7c-12.6,0-23.4-4.6-32.3-13.7c-8.9-9.1-13.4-20.1-13.4-32.9c0-12.8,4.5-23.8,13.4-32.9
		C341.4,325.7,352.1,321.1,364.7,321.1z M364.7,409.8c11.4,0,21.1-4.1,29.1-12.4c8.1-8.2,12.1-18.1,12.1-29.7
		c0-11.6-4-21.5-12.1-29.8c-8.1-8.2-17.8-12.3-29.1-12.3c-11.3,0-21,4.1-29,12.3c-8.1,8.2-12.1,18.2-12.1,29.8
		c0,11.6,4,21.5,12.1,29.7C343.8,405.7,353.4,409.8,364.7,409.8z M451.7,321c12.7,0,23.5,4.6,32.4,13.7c8.9,9.1,13.4,20.1,13.4,32.9
		v2.3h-86.9c0.6,11.1,4.8,20.5,12.7,28.2c8,7.7,17.5,11.6,28.3,11.6c8.7,0,16.5-2.6,23.7-7.7c7.1-5.1,12.2-11.7,15.1-20l4.3,1.5
		c-3.2,9.2-8.8,16.7-16.8,22.3c-7.9,5.7-16.7,8.5-26.3,8.5c-12.6,0-23.4-4.6-32.3-13.7c-8.9-9.1-13.4-20.1-13.4-32.9
		s4.5-23.8,13.4-32.9C428.3,325.6,439.1,321,451.7,321z M492.8,365.4c-0.6-11.1-4.9-20.5-12.8-28.2c-7.9-7.7-17.4-11.6-28.3-11.6
		c-10.9,0-20.3,3.9-28.3,11.6c-7.9,7.7-12.1,17.1-12.7,28.2H492.8z"/>
	<path d="M591.3,414.4h-4.6v-25c-3.4,7.5-8.2,13.6-14.5,18.1c-6.5,4.6-13.5,6.9-21,6.9c-11.1,0-20.6-4.6-28.4-13.7
		c-7.8-9.1-11.7-20.1-11.7-32.9v-46.6h4.6v46.6c0,11.6,3.5,21.5,10.4,29.7c6.9,8.2,15.3,12.4,25.2,12.4c9.8,0,18.1-4.1,25.1-12.3
		c6.9-8.2,10.4-18.1,10.4-29.7v-46.7h4.6V414.4z"/>
	<path d="M613.5,346.7c3.5-7.7,8.6-13.9,15.3-18.5c6.9-4.7,14.4-7.1,22.4-7.1h2.3v4.6h-2.3c-10.4,0-19.2,4.1-26.7,12.3
		c-7.4,8.2-11,18.1-11,29.7v46.7H609v-93.2h4.6V346.7z"/>
</g>
<g>
	<path class="st0" d="M59.2,389.9c0,3.7,0.6,7.1,1.8,10.4c1.2,3.3,2.6,6.1,4.4,8.4c1.8,2.4,3.6,4.1,5.6,5.1c2,1.1,3.8,1.2,5.4,0.4
		c1.6-0.8,3-2.7,4-5.7c1.1-3,1.5-7.3,1.3-13c-0.1-5.2-0.4-10.9-1.1-17c-0.7-6.1-1.5-12.5-2.6-19.2c-5.7,4.6-10.2,9.3-13.6,14.1
		C61,378.2,59.3,383.7,59.2,389.9z"/>
	<path class="st0" d="M32.2,265.1c4.4-0.6,7.9-2,10.6-4.3c2.7-2.2,4.7-4.8,6.1-7.8c1.4-3,2.1-6,2.3-9.3c0.1-3.2-0.2-6.1-0.9-8.7
		c-0.8-2.4-1.7-4.4-2.8-5.9c-1.1-1.6-2.9-2.2-5.4-2c-2.3,0.3-4.3,2-6,4.9c-1.7,3-3.2,6.4-4.3,10.5c-1.2,4-2.1,8.1-2.8,12.3
		c-0.7,4.2-1,7.8-1,10.7c0.8,0,1.5,0,2.1-0.1C30.8,265.3,31.5,265.2,32.2,265.1z"/>
	<path class="st0" d="M142.6,295.2c1.3-2.6,1.7-4.8,1.3-6.6c-0.4-1.5-1-2.5-1.9-3.2c-0.9-0.7-1.9-0.8-3-0.5c-1,0.5-1.7,1.4-2.3,2.8
		c-0.6,1.4-1,3.1-1.2,4.9c-0.3,1.8-0.4,3.6-0.4,5.4c0,1.8,0,3.3,0.1,4.5l0.2,0.1C138.8,300.3,141.3,297.8,142.6,295.2z"/>
	<path class="st0" d="M201.2,286.9c1.3-2.6,1.7-4.8,1.3-6.6c-0.4-1.5-1-2.5-1.9-3.2c-0.9-0.7-1.9-0.8-3-0.5c-1,0.5-1.7,1.4-2.3,2.8
		c-0.6,1.4-1,3.1-1.2,4.9c-0.3,1.8-0.4,3.6-0.4,5.4c0,1.8,0,3.3,0.1,4.5l0.2,0.1C197.5,292,199.9,289.5,201.2,286.9z"/>
	<path d="M225.2,308.3c-0.9,3-1.9,5.7-2.8,8.1c-0.9,2.4-1.8,4.3-2.5,5.6c-2.5,4.2-4.9,6.8-7.1,8.1c-2.2,1.2-4.1,1.5-5.9,0.9
		c-1.8-0.6-3.3-1.9-4.6-3.7c-1.3-1.9-2.4-3.9-3.2-6c-1.6-3.9-2.7-7.9-3.5-12.1c-0.7-4.2-1-7.5-0.8-9.9c5.1-2.9,8.7-6,10.7-9.4
		c2-3.4,2.7-6.5,2-9.5c-0.7-2.7-2.3-5-5-6.9c-2.7-1.9-5.9-3-9.7-3.2c-4.8,0.1-8.8,1.4-12.1,3.7c-3.2,2.4-5.7,5.4-7.4,9
		c-1.7,3.7-2.7,7.8-3,12.3c-0.1,2.2-0.1,4.4,0.1,6.7c-0.3,1.7-0.7,3.4-1.1,5.1c-0.8,3.4-1.7,6.6-2.6,9.6c-0.9,3-1.9,5.7-2.8,8.1
		c-0.9,2.4-1.8,4.3-2.5,5.6c-2.5,4.2-4.9,6.8-7.1,8.1c-2.2,1.2-4.1,1.5-5.9,0.9c-1.8-0.6-3.3-1.9-4.6-3.7c-1.3-1.9-2.4-3.9-3.2-6
		c-1.6-3.9-2.7-7.9-3.5-12.1c-0.7-4.2-1-7.5-0.8-9.9c5.1-2.9,8.7-6,10.7-9.4c2-3.4,2.7-6.5,2-9.5c-0.7-2.7-2.3-5-5-6.9
		c-2.7-1.9-5.9-3-9.7-3.2c-4.8,0.1-8.8,1.4-12.1,3.7c-3.2,2.4-5.7,5.4-7.4,9c-1.7,3.7-2.7,7.8-3,12.3c-0.2,3.4-0.1,6.8,0.5,10.3
		c0.1,2.9-0.3,5.5-1,7.9c-0.8,2.6-1.9,4.8-3.4,6.8c-1.5,2-3.1,3.8-5,5.3c-1.9,1.6-3.7,3-5.6,4.4c-0.8-4.3-1.6-8.2-2.3-11.7
		c-0.7-3.5-1.4-6.8-2.1-10c-0.7-3.2-1.4-6.4-2.2-9.6c-0.8-3.2-1.7-6.7-2.8-10.4c-0.5-2.5-1-4.4-1.5-5.7c-0.5-1.3-1.1-2.2-1.7-2.7
		c-0.6-0.5-1.3-0.7-2-0.7c-0.7,0.1-1.5,0.1-2.4,0.3c-2.7,0.6-5,1.6-7.1,2.9c-2,1.3-3.8,2.7-5.3,4.1c-1.6,1.6-3.2,3.4-4.5,5.4
		l0.9-0.1c-0.4,0.3-0.6,0.4-0.7,0.4c0.2,0.7,0.4,1.3,0.5,1.6c-0.1,0.5-0.1,0.9,0,1.3c3.4,14.5,4.2,25.9,2.5,34.1
		c-1.7,8.3-5.2,12.8-10.3,13.7c-3.5,0.6-6.7-0.5-9.7-3.3c-2.9-2.8-5.6-6.7-7.9-11.5c-2.3-4.8-4.3-10.3-6-16.5
		c-1.6-6.2-3-12.4-3.9-18.6c-1-6.2-1.5-12.1-1.7-17.6c-0.1-5.5,0.2-10.1,0.9-13.6c0.9,0.1,1.8,0.1,2.6-0.1c0.9-0.1,1.7-0.2,2.6-0.4
		c5-0.7,9.2-2.3,12.5-4.7c3.3-2.4,6-5.3,7.9-8.5c1.9-3.2,3.1-6.7,3.5-10.4c0.4-3.7,0.1-7.2-0.9-10.5c-1.3-3.9-3.5-7.3-6.6-10
		c-3.1-2.7-7.1-4-11.9-4c-0.9,0-1.5,0.1-2,0.3c-0.5,0.2-1.2,0.3-2,0.4c-6.9,1-12.9,3.7-18,8.2c-5.2,4.5-9.1,10.6-11.7,18.4
		c-2.6,7.8-3.9,17.2-3.7,28.2c0.2,11,2.2,23.5,6,37.4c1.7,6.3,4,12.3,6.9,18.1c2.9,5.8,6.3,10.9,10.4,15.1c4.1,4.2,8.9,7.4,14.3,9.4
		c5.4,2,11.5,2.4,18.3,1c2.5-0.5,4.7-1.5,6.7-3c2-1.5,3.8-3.4,5.3-5.5c1.5-2.1,2.8-4.5,3.7-7.1c0.9-2.6,1.5-5.3,1.7-7.9l3.9,18
		c-3.7,2.6-7.1,5.3-10.4,8.1c-3.2,2.8-6,5.9-8.3,9.2c-2.3,3.3-3.9,6.9-5,10.7c-1.1,3.8-1.3,8-0.6,12.6c0.5,3.5,1.5,6.9,2.9,10.2
		c1.4,3.3,3.1,6.2,5,8.8c2,2.6,4.1,4.7,6.5,6.2c2.4,1.6,4.9,2.4,7.5,2.6c1.3,0,2.5,0,3.5,0c1.1,0,2.1-0.1,3.2-0.3
		c5.5-0.8,9.7-3.4,12.7-7.9c3-4.5,5-10.2,6-17.1c1.1-6.9,1.4-14.7,0.9-23.5c-0.5-8.7-1.5-17.8-3-27.2c3.8-2.6,7-5.5,9.6-8.6
		c2.6-3.1,4.7-6.2,6.3-9.2c0.4-0.8,0.8-1.5,1.1-2.2c0.5,1.3,1.1,2.7,1.7,4c1.8,3.8,4,7.1,6.5,10c2.5,2.9,5.4,5.3,8.5,7
		c3.2,1.7,6.6,2.5,10.3,2.3c4.3-0.3,8.2-1.2,11.7-2.7c3.5-1.5,6.5-4.1,9.2-7.8c2.7-3.7,5.1-8.7,7-15c0.9-2.7,1.7-5.8,2.4-9.3
		c0.8,2.4,1.7,4.8,2.9,7.1c1.8,3.8,4,7.1,6.5,10c2.5,2.9,5.4,5.3,8.5,7c3.2,1.7,6.6,2.5,10.3,2.3c4.3-0.3,8.2-1.2,11.7-2.7
		c3.5-1.5,6.5-4.1,9.2-7.8c2.7-3.7,5.1-8.7,7-15c0.4-1.4,0.9-2.9,1.3-4.5l-2.6-9.9C226.8,302.9,226,305.7,225.2,308.3z M193.7,289.7
		c0-1.8,0.1-3.6,0.4-5.4c0.3-1.8,0.7-3.5,1.2-4.9c0.6-1.4,1.3-2.4,2.3-2.8c1.1-0.4,2.1-0.2,3,0.5c0.9,0.7,1.6,1.8,1.9,3.2
		c0.4,1.8,0,4-1.3,6.6c-1.3,2.6-3.7,5.1-7.2,7.5l-0.2-0.1C193.7,293,193.7,291.5,193.7,289.7z M135,298c0-1.8,0.1-3.6,0.4-5.4
		c0.3-1.8,0.7-3.5,1.2-4.9c0.6-1.4,1.3-2.4,2.3-2.8c1.1-0.4,2.1-0.2,3,0.5c0.9,0.7,1.6,1.8,1.9,3.2c0.4,1.8,0,4-1.3,6.6
		c-1.3,2.6-3.7,5.1-7.2,7.5l-0.2-0.1C135.1,301.3,135,299.8,135,298z M29,254.8c0.7-4.2,1.6-8.3,2.8-12.3c1.2-4,2.6-7.5,4.3-10.5
		c1.7-3,3.7-4.6,6-4.9c2.5-0.2,4.3,0.4,5.4,2c1.1,1.6,2,3.6,2.8,5.9c0.7,2.6,1,5.5,0.9,8.7c-0.1,3.2-0.9,6.3-2.3,9.3
		c-1.4,3-3.4,5.6-6.1,7.8c-2.7,2.2-6.2,3.6-10.6,4.3c-0.7,0.1-1.4,0.2-2.1,0.3c-0.7,0.1-1.4,0.1-2.1,0.1C28,262.6,28.4,259,29,254.8
		z M80.6,378.5c0.7,6.1,1,11.8,1.1,17c0.2,5.7-0.2,10.1-1.3,13c-1.1,3-2.4,4.9-4,5.7c-1.6,0.8-3.4,0.7-5.4-0.4
		c-2-1.1-3.8-2.8-5.6-5.1c-1.8-2.4-3.2-5.2-4.4-8.4c-1.2-3.2-1.8-6.7-1.8-10.4c0-6.2,1.7-11.7,5.1-16.5c3.4-4.8,7.9-9.5,13.6-14.1
		C79.1,365.9,79.9,372.3,80.6,378.5z"/>
	<g>
		<path d="M324.7,349.1c-0.5-0.2-1-0.2-1.6,0c-0.3,0.1-0.4,1.9-0.7,2.5c-0.5,2.4,1.5-6.4-0.1-1.8c-1.6,4.6-3.6,9.7-5.6,14.8
			c-2,5.1-4.1,10-6.1,14.5c-2.1,4.5-3.7,7.8-4.9,9.8c-2.2,3.6-4.1,6.8-5.6,9.4c-1.7,3-3.3,4.8-5,5.7c-1.4,0.7-3.8,1.2-6.7-1.2
			c-2-1.6-4.4-4.6-7.4-9.4c-2.2-3.5-4.6-7.6-7.1-12c-2.5-4.5-5-9.1-7.5-13.8c-2.4-4.7-4.8-9.3-7.1-13.9c-2.3-4.6-4.3-8.9-6.1-12.8
			c-0.2-0.4-0.2-0.9,0-1.3c0.2-0.4,0.6-0.7,1.1-0.8c9.4-1.7,17.3-4.8,23.4-9.1c6.2-4.4,11-9.3,14.2-14.7c3.2-5.4,5.3-11.1,6-17
			c0.8-5.9,0.4-11.4-0.9-16.3c-1.4-4.8-3.7-9-7-12.3c-3.2-3.3-7-5-11.5-5.3c-2.5-0.2-5.3,0-8.5,0.7c-3.2,0.7-6.4,1.9-9.5,3.7
			c-3.1,1.7-5.9,4.2-8.5,7.4c-2.6,3.1-4.5,7.1-5.7,11.9c-0.2,0.8-0.9,1.3-1.7,1.1c-0.8-0.1-1.3-0.8-1.3-1.6
			c0.4-6.2,0.8-11.9,1.1-17.1c0.3-5.2,0.6-10.3,0.8-15.3l0.8-14.7c0.3-4.9,0.7-10,1.3-15.3c0.2-2-0.2-3.5-1.3-4.6
			c-1.2-1.2-2.8-1.9-4.8-2.2c-2.1-0.3-4.5-0.2-7.1,0.3c-2.6,0.5-5.1,1.4-7.3,2.6c-2.2,1.2-4.1,2.6-5.6,4.3c-1.4,1.6-2.1,3.3-2.1,5.3
			c0,7-0.1,15.1-0.2,23.9c-0.1,9-0.3,18.4-0.4,28.4l-0.4,30.6c-0.1,6.9-0.4,51.5-0.4,58.8c0,8.7,0.1,16.6,0.2,23.3
			c0,2.7,0.9,4.8,2.6,6.4c1.9,1.7,4,2.8,6.2,3.2c2.2,0.4,4.3,0.1,6.3-1c1.9-1,2.9-3,3.3-6c0.4-4.6,1.1-9.4,2.1-14.2
			c0.3-1.6,0.5-3.4,0.7-5.3c0.4-3.9,0.9-8.4,2.5-13.2c0.2-0.5,0.7-0.9,1.2-1c0.1,0,0.2,0,0.3,0c0.7,0,1.3,0.5,1.4,1.1
			c1.5,5.2,4.2,9.8,6.8,14.2c1.2,2.1,2.3,4,3.4,6c3.2,6.2,6.6,11.6,10.1,16.1c3.5,4.4,7.2,7.8,11.2,10.1c3.9,2.2,8.4,3,13.5,2.4
			c3.6-0.4,6.7-2.9,10.4-7.5c3.9-4.9,7.6-11.1,11.2-18.3c3.6-7.3,7-15.4,10.1-23.9c3.1-8.6,2.8-6.2,5.1-13.5
			c0.1-0.5-0.1-0.9-0.3-1.1C325.8,349.6,325.3,349.3,324.7,349.1z M246,337.1c-0.6,0.1-1.2,0.2-1.8,0.2c-0.4,0.1-0.9-0.1-1.2-0.4
			s-0.5-0.7-0.5-1.2l0.2-25.6c0-5.2,0.9-10.2,2.7-14.9c1.8-4.6,3.8-8.7,6.2-12.3c2.4-3.6,4.8-6.4,7.2-8.5c2.7-2.3,4.8-3.2,6.5-3.1
			c3.3,0.5,5.9,2.4,8.1,5.8c2,3.2,3.3,7.1,3.8,11.8c0.5,4.6,0.3,9.5-0.5,14.7c-0.9,5.2-2.6,10.3-5.1,14.9
			c-2.5,4.7-6.1,8.8-10.5,12.2C256.8,334.2,251.8,336.2,246,337.1z"/>
	</g>
</g>
<g>
	
		<linearGradient id="SVGID_1_" gradientUnits="userSpaceOnUse" x1="577.1771" y1="171.0021" x2="647.787" y2="220.4437" gradientTransform="matrix(0.9603 0.2902 -0.3939 0.9223 148.799 -95.1559)">
		<stop  offset="0.1225" style="stop-color:#D43F3F"/>
		<stop  offset="0.7017" style="stop-color:#BF0000"/>
	</linearGradient>
	<path class="st1" d="M657.1,300.9c5.7-9.1,9.1-19.4,12.7-29.5c3.8-10.8,6.3-19.1,10.6-29.8c-0.5-8.8-6.3-16.5-15.6-19.3
		c-12.9-3.9-27.6,3-32.9,15.4c-10.7,25.1,12.7,39.6,20.2,69.7c0,0,0,0,0,0c0,0,0,0,0,0C653.9,305.5,655.6,303.2,657.1,300.9z
		 M647.7,261.3l2.8-9.7l-9.7-2.8l1.9-6.5l9.7,2.8l2.8-9.7l6.5,1.9l-2.8,9.7l9.7,2.8l-1.9,6.5l-9.7-2.8l-2.8,9.7L647.7,261.3z"/>
	
		<linearGradient id="SVGID_2_" gradientUnits="userSpaceOnUse" x1="559.6506" y1="252.8834" x2="667.2722" y2="168.6551" gradientTransform="matrix(0.9603 0.2902 -0.3939 0.9223 148.799 -95.1559)">
		<stop  offset="0.1225" style="stop-color:#D43F3F"/>
		<stop  offset="0.7017" style="stop-color:#BF0000"/>
		<stop  offset="0.9949" style="stop-color:#930000"/>
	</linearGradient>
	<path class="st2" d="M707,235.1c-9.3-2.8-19.7,0-26.6,6.5c0,0,0,0,0,0c0,0,0,0,0,0c-4.2,10.6-6.8,19-10.6,29.8
		c-3.6,10.1-7,20.4-12.7,29.5c-1.4,2.3-3.1,4.6-5.1,6.5c0,0.1,0.1,0.3,0.1,0.4c27.6-19.6,58.3-18.9,68.7-43.2
		C726,252.2,719.9,239,707,235.1z M684.3,259c0-2.6,2.1-4.8,4.8-4.8c2.6,0,4.8,2.1,4.8,4.8c0,2.6-2.1,4.8-4.8,4.8
		C686.4,263.8,684.3,261.7,684.3,259z M695.6,276.2c-2.6,0-4.8-2.1-4.8-4.8s2.1-4.8,4.8-4.8c2.6,0,4.8,2.1,4.8,4.8
		S698.2,276.2,695.6,276.2z M696.2,252.5c0-2.6,2.1-4.8,4.8-4.8c2.6,0,4.8,2.1,4.8,4.8c0,2.6-2.1,4.8-4.8,4.8
		C698.3,257.3,696.2,255.1,696.2,252.5z M707.9,269.2c-2.6,0-4.8-2.1-4.8-4.8c0-2.6,2.1-4.8,4.8-4.8c2.6,0,4.8,2.1,4.8,4.8
		C712.7,267,710.6,269.2,707.9,269.2z"/>
	
		<linearGradient id="SVGID_3_" gradientUnits="userSpaceOnUse" x1="576.25" y1="172.3261" x2="646.86" y2="221.7677" gradientTransform="matrix(0.9603 0.2902 -0.3939 0.9223 148.799 -95.1559)">
		<stop  offset="0.1225" style="stop-color:#D43F3F"/>
		<stop  offset="0.7017" style="stop-color:#BF0000"/>
	</linearGradient>
	<path class="st3" d="M669.8,271.5c3.8-10.8,6.3-19.2,10.6-29.8c0,0,0,0,0,0C676.1,252.3,673.6,260.7,669.8,271.5
		c-3.5,10.1-7,20.4-12.7,29.4c-1.4,2.3-3.1,4.6-5.1,6.5c0,0,0,0,0,0c2-1.9,3.7-4.2,5.1-6.5C662.7,291.9,666.2,281.6,669.8,271.5z"/>
	
		<linearGradient id="SVGID_4_" gradientUnits="userSpaceOnUse" x1="560.3376" y1="253.7611" x2="667.9591" y2="169.5327" gradientTransform="matrix(0.9603 0.2902 -0.3939 0.9223 148.799 -95.1559)">
		<stop  offset="0.1225" style="stop-color:#D43F3F"/>
		<stop  offset="0.7017" style="stop-color:#BF0000"/>
		<stop  offset="0.9949" style="stop-color:#930000"/>
	</linearGradient>
	<path class="st4" d="M669.8,271.5c3.8-10.8,6.3-19.2,10.6-29.8c0,0,0,0,0,0C676.1,252.3,673.6,260.7,669.8,271.5
		c-3.5,10.1-7,20.4-12.7,29.4c-1.4,2.3-3.1,4.6-5.1,6.5c0,0,0,0,0,0c2-1.9,3.7-4.2,5.1-6.5C662.7,291.9,666.2,281.6,669.8,271.5z"/>
</g>
<g>
	
		<linearGradient id="SVGID_5_" gradientUnits="userSpaceOnUse" x1="575.236" y1="170.0139" x2="645.846" y2="219.4555" gradientTransform="matrix(0.9603 0.2902 -0.3939 0.9223 148.799 -95.1559)">
		<stop  offset="0.1225" style="stop-color:#D43F3F"/>
		<stop  offset="0.7017" style="stop-color:#BF0000"/>
	</linearGradient>
	<path class="st5" d="M655.6,299.5c5.7-9.1,9.1-19.4,12.7-29.5c3.8-10.8,6.3-19.1,10.6-29.8c-0.5-8.8-6.3-16.5-15.6-19.3
		c-12.9-3.9-27.6,3-32.9,15.4c-10.7,25.1,12.7,39.6,20.2,69.7c0,0,0,0,0,0c0,0,0,0,0,0C652.5,304,654.2,301.8,655.6,299.5z
		 M646.2,259.8l2.8-9.7l-9.7-2.8l1.9-6.5l9.7,2.8l2.8-9.7l6.5,1.9l-2.8,9.7l9.7,2.8l-1.9,6.5l-9.7-2.8l-2.8,9.7L646.2,259.8z"/>
	
		<linearGradient id="SVGID_6_" gradientUnits="userSpaceOnUse" x1="557.7096" y1="251.8952" x2="665.3312" y2="167.6669" gradientTransform="matrix(0.9603 0.2902 -0.3939 0.9223 148.799 -95.1559)">
		<stop  offset="0.1225" style="stop-color:#D43F3F"/>
		<stop  offset="0.7017" style="stop-color:#BF0000"/>
		<stop  offset="0.9949" style="stop-color:#930000"/>
	</linearGradient>
	<path class="st6" d="M705.5,233.7c-9.3-2.8-19.7,0-26.6,6.5c0,0,0,0,0,0c0,0,0,0,0,0c-4.2,10.6-6.8,19-10.6,29.8
		c-3.6,10.1-7,20.4-12.7,29.5c-1.4,2.3-3.1,4.6-5.1,6.5c0,0.1,0.1,0.3,0.1,0.4c27.6-19.6,58.3-18.9,68.7-43.2
		C724.6,250.8,718.4,237.5,705.5,233.7z M682.8,257.5c0-2.6,2.1-4.8,4.8-4.8c2.6,0,4.8,2.1,4.8,4.8c0,2.6-2.1,4.8-4.8,4.8
		C684.9,262.3,682.8,260.2,682.8,257.5z M694.1,274.7c-2.6,0-4.8-2.1-4.8-4.8c0-2.6,2.1-4.8,4.8-4.8c2.6,0,4.8,2.1,4.8,4.8
		C698.9,272.5,696.7,274.7,694.1,274.7z M694.7,251c0-2.6,2.1-4.8,4.8-4.8c2.6,0,4.8,2.1,4.8,4.8c0,2.6-2.1,4.8-4.8,4.8
		C696.9,255.8,694.7,253.7,694.7,251z M706.5,267.7c-2.6,0-4.8-2.1-4.8-4.8c0-2.6,2.1-4.8,4.8-4.8c2.6,0,4.8,2.1,4.8,4.8
		C711.2,265.6,709.1,267.7,706.5,267.7z"/>
	
		<linearGradient id="SVGID_7_" gradientUnits="userSpaceOnUse" x1="574.309" y1="171.3379" x2="644.9189" y2="220.7795" gradientTransform="matrix(0.9603 0.2902 -0.3939 0.9223 148.799 -95.1559)">
		<stop  offset="0.1225" style="stop-color:#D43F3F"/>
		<stop  offset="0.7017" style="stop-color:#BF0000"/>
	</linearGradient>
	<path class="st7" d="M668.3,270c3.8-10.8,6.3-19.2,10.6-29.8c0,0,0,0,0,0C674.6,250.8,672.1,259.2,668.3,270
		c-3.5,10.1-7,20.4-12.7,29.4c-1.4,2.3-3.1,4.6-5.1,6.5c0,0,0,0,0,0c2-1.9,3.7-4.2,5.1-6.5C661.3,290.4,664.7,280.1,668.3,270z"/>
	
		<linearGradient id="SVGID_8_" gradientUnits="userSpaceOnUse" x1="558.3965" y1="252.7729" x2="666.0181" y2="168.5445" gradientTransform="matrix(0.9603 0.2902 -0.3939 0.9223 148.799 -95.1559)">
		<stop  offset="0.1225" style="stop-color:#D43F3F"/>
		<stop  offset="0.7017" style="stop-color:#BF0000"/>
		<stop  offset="0.9949" style="stop-color:#930000"/>
	</linearGradient>
	<path class="st8" d="M668.3,270c3.8-10.8,6.3-19.2,10.6-29.8c0,0,0,0,0,0C674.6,250.8,672.1,259.2,668.3,270
		c-3.5,10.1-7,20.4-12.7,29.4c-1.4,2.3-3.1,4.6-5.1,6.5c0,0,0,0,0,0c2-1.9,3.7-4.2,5.1-6.5C661.3,290.4,664.7,280.1,668.3,270z"/>
</g>
</svg>
