<?xml version="1.0" encoding="utf-8"?>
<!-- Generator: Adobe Illustrator 21.0.0, SVG Export Plug-In . SVG Version: 6.00 Build 0)  -->
<svg version="1.1" id="Calque_1" xmlns="http://www.w3.org/2000/svg" xmlns:xlink="http://www.w3.org/1999/xlink" x="0px" y="0px"
	 viewBox="0 0 722.6 628.4" style="enable-background:new 0 0 722.6 628.4;" xml:space="preserve">
<g>
	<path d="M0,312.3c1.5-3.5,3-7,4.6-10.5c4-8.5,11.1-12.1,19.8-10c5.6,1.4,9.5,5.1,12.3,9.9c1.7,3,3.1,6.1,4.6,9.2
		c1,2.2,2.2,2.2,3.9,0.6c1.9-1.9,4-3.7,6-5.5c6-5.2,12.5-6.2,19.8-2.9c8.9,4,8.8,3.8,14.9-4.5c1.8-2.4,4.4-4.5,7.1-6.1
		c2.5-1.5,4.8-0.7,5.7,2.4c0.7,2.3,1.4,4.7,1.8,7.1c1.6,11.7,2.9,23.4,4.6,35c0.6,4.1,1.3,8.3,2.8,12.1c2.4,6,6.5,7,11.7,3.3
		c5.6-4,9.1-9.6,10.4-16.4c2-10.9,3.8-21.8,5.8-32.6c0.5-2.9,1.1-5.8,2-8.6c0.3-0.9,1.3-2,2.2-2.3c0.5-0.2,1.9,0.9,2.2,1.6
		c0.7,2,1.3,4.2,1.2,6.3c-0.1,7.6-0.7,15.2-0.8,22.8c-0.1,5.6,0.1,11.3,0.5,16.9c0.4,5.1,2.9,8.9,8,10.3c5,1.4,9-0.3,12.6-5.4
		c4.4-6.1,6.5-13.2,7.5-20.5c0.7-5.1,0.8-10.3,1.7-15.4c0.7-3.8,2-7.5,3.3-11.2c0.3-0.9,1.8-2,2.6-1.9c0.9,0.2,2.1,1.4,2.4,2.4
		c0.5,2.1,0.7,4.3,0.7,6.5c-0.1,5.9-0.5,11.8-0.6,17.7c-0.1,2.5-0.1,4.9,0.2,7.4c0.8,7.3,3.9,13.1,11.1,16.1
		c7.4,3.1,14,1.1,19.8-3.9c6.6-5.7,10.2-13.2,11.9-21.5c1.8-9.1,3-18.4,4.6-27.6c0.8-4.6,2-9.1,3.1-13.6c0.5-2.1,1.8-2.7,3.9-1.6
		c1.3,0.7,2.8,0.9,4.1,1.7c15,9.3,26.9,21.3,32.6,38.5c0.5,1.6,1.1,3.3,1.5,4.9c2.5,9.6,11.3,10.8,19.4,11c1.2,0,3.1-2.2,3.7-3.8
		c0.8-2.2,0.7-4.8,1-7.2c0.6-4.4,0.7-8.9,1.8-13.1c2.1-8.1,7.1-14,15.6-16c8.8-2.1,16.6,0.2,23.1,6.3c5.4,5.1,6.6,12.8,2.8,19.7
		c-2.1,3.8-5,7.3-8.2,10.3c-4.7,4.3-9.8,8.2-14.9,12.1c-2.1,1.6-2.5,2.5,0.2,4c11.3,6.3,23.4,7.3,35.7,5c5.5-1,10.6-3.7,16-5.4
		c2.2-0.7,6.9-3.4,6.9-0.9c0,2.5-2.7,5.5-5.1,6.6c-20.4,8.9-40.8,12.6-61-1c-4-2.7-8.6-4.5-13.2-6.2c-4.4-1.5-9-2.3-13.5-3.4
		c-7.7-1.8-14.2,0.2-18.6,7c-2.7,4.1-6.4,6.8-10.6,8.9c-6.8,3.4-12.6,0.9-16.1-6.5c-3.4-7.2-1.5-13.9,5.6-16.4
		c5-1.8,10.4-2.7,15.8-3.5c3.5-0.5,4.5-2.1,4.4-5.3c-0.2-6.9-2.7-12.9-6.4-18.5c-4.1-6.2-9.5-11.1-15.9-15.1
		c-2.6-1.7-4.1-1.1-4.8,1.7c-1,3.8-1.9,7.6-2.8,11.4c-2,8.4-3.5,16.8-6,25c-1.5,4.8-4,9.5-7,13.7c-8.3,11.5-21.5,14.2-33.9,7.1
		c-3.2-1.8-6.1-4.1-8.9-6.5c-3.3-2.9-4-2.5-6.2,0.6c-2.4,3.4-5.3,6.5-8.5,9.1c-7.8,6.4-15,6-22.5-0.5c-0.7-0.6-1.4-1.4-2.1-2
		c-3.9-3.3-4.9-3.2-8.7,0.3c-2,1.8-3.7,3.9-5.9,5.6c-11.5,8.8-23.1,4.6-25.9-9.6c-1.4-7.2-2.1-14.6-3.1-21.9
		c-0.5-3.9-1-7.8-1.6-11.7c-0.2-1.4-0.7-2.9-1.4-4.1c-0.7-1.1-1.9-1.9-3-2.8c-0.6,1-1.5,1.9-1.8,2.9c-1.9,8.1-3.8,16.2-5.5,24.4
		c-0.8,3.8-1.3,7.8-2,11.6c-0.3,1.7-0.7,3.4-1.5,4.9c-0.5,0.8-1.9,1.4-3,1.5c-0.5,0-1.5-1.2-1.7-2c-0.4-1.9-0.5-3.9-0.8-5.8
		c-0.9-8.5-1.8-17.1-2.7-25.6c-0.4-3.9-2.3-7-5.1-9.5c-3.8-3.4-7.2-3.2-9.9,1c-2,3.3-3.7,7-4.6,10.8c-1.8,8.4-2.9,16.9-4.6,25.3
		c-0.5,2.8-1.4,5.7-2.8,8.1c-1.5,2.5-3.9,2-4.6-0.9c-1.1-4-1.9-8.1-2.4-12.2c-0.8-5.6-1.2-11.2-1.8-16.8c-0.7-7.5-3.4-14.3-7.3-20.6
		c-1.9-3-4.4-6.1-8-5.7c-4,0.4-5.8,4.3-6.7,8c-2.8,11.5-5.2,23-4.7,34.9c0.1,3.6-0.2,7.3-0.8,11c-0.2,1.5-1.5,2.9-2.3,4.3
		c-0.9-1.2-1.9-2.4-2.8-3.7c-1-1.5-1.9-3.1-2.9-4.7C0,335.9,0,324.1,0,312.3z M304.5,319.9c0.9,3.9,1.4,7.6,2.7,11
		c1.3,3.6,4,5,7.5,4c8.7-2.4,15.4-7.3,18.4-16.2c2.5-7.4-0.8-14.8-7.7-17.5c-7.7-3-15-0.1-18,7.6C306,312.3,305.5,316.3,304.5,319.9
		z M254.9,340.2c-1.3,0.1-2.3,0.1-3.3,0.3c-2.4,0.6-3.9,2.2-3.6,4.7c0.1,1.2,1.2,3.4,1.7,3.4c1.8-0.1,3.6-0.8,5.2-1.7
		c0.8-0.4,1.3-1.4,1.7-2.3c0.5-1.1,1.2-2.4,0.9-3.3C257.3,340.7,255.6,340.5,254.9,340.2z"/>
	<path d="M482.3,409.7c-2.7-1.3-3.3-2.4-4.2-4c-1.3-2.5-3-5.4-2.7-8c1.3-12.6,6.6-23.1,18.2-29.4c7.6-4.1,15.3-7.7,23-11.5
		c2.2-1.1,4.5-2.1,6.5-3.3c6.3-3.8,7.9-9,5-15.7c-0.8-1.8-1.8-2.1-3.4-1.2c-1.9,1.2-3.7,2.5-5.6,3.6c-5.8,3.5-8.4,2.9-12.2-2.8
		c-7.5-11.3-9.4-23.7-6.1-36.6c1.4-5.6,4.1-10.9,6.6-16.2c0.5-1,2.3-1.4,3.5-2c0.4,1.1,1.2,2.4,1.1,3.4c-0.4,2.9-1,5.8-1.9,8.6
		c-3.7,11.4-3.4,22.7,0.8,33.9c0.7,1.9,2.6,4.8,3.6,4.7c2.1-0.3,4.5-1.9,5.8-3.6c1.6-2.1,2.3-4.8,3.2-7.4c1.7-4.9,3.1-9.8,5-14.6
		c0.9-2.2,2.3-4.3,3.8-6.2c0.4-0.5,2.4-0.5,3,0.1c2.3,1.8,2.9,4.4,2.7,7.2c-0.5,8.6-0.9,17.2-1.3,25.7c-0.1,2.7-0.3,5.4-0.1,8.1
		c0.4,4.3,1.6,5.1,5.7,4.3c2.2-0.4,4.3-1.2,6.4-1.8c11.3-3.4,22.7-6.4,33.8-10.2c9.9-3.4,19.6-7.7,29.4-11.6
		c3.9-1.6,7.7-3.3,11.5-4.9c0.6-0.2,1.3,0,2,0.1c-0.1,0.9,0.2,2.1-0.3,2.6c-1.1,1.2-2.5,2.4-4,3.2c-7.2,3.6-14.2,7.8-21.8,10.5
		c-14.8,5.2-29.8,9.7-44.9,14.1c-12.3,3.6-20.5,10.7-23.9,23.4c-3.9,14.7-12.4,23.6-25.5,31.9c-4.3,2.5-10.3,5.5-13,6.3
		C489.3,410.9,485,411,482.3,409.7z M525.4,365.4c0-5.5-0.6-5.9-4.6-4c-6,2.8-12.1,5.3-17.7,8.6c-4.6,2.7-8.7,6.2-12.7,9.8
		c-4.6,4.2-5.9,10.1-6.3,16c-0.4,5.4,2.5,7.6,7.9,6.4c0.9-0.2,1.8-0.6,2.7-1c14.4-5.9,24.3-16,29.4-30.8
		C524.8,368.4,525.2,366.3,525.4,365.4z"/>
	<path d="M493.9,319.6c0.5,13.7-5.7,23.6-18.5,29.5c-14.3,6.5-29.1,10.5-44.9,7.5c-2.6-0.5-5.3-1-7.9-1.9c-4.9-1.6-5.2-2.2-2.1-6.4
		c3.3-4.6,4.7-9.5,4.6-15.1c-0.4-21.6-0.3-43.2-0.7-64.8c-0.2-9.5-1.5-19.1-1.8-28.6c-0.2-4.6,0.6-9.2,1.1-13.8
		c0.1-0.6,0.7-1.1,1.1-1.6c0.5,0.6,1.3,1.2,1.6,1.9c3.1,8.1,3.3,16.8,4.2,25.3c1.3,12.7,2.3,25.4,3.5,38.1c0.2,2.4,0.6,4.9,1,7.3
		c0.4,2.3,1.8,2.7,3.7,1.7c2.1-1.2,4.2-2.5,6.4-3.6c10.6-5.8,21.4-6.1,32.5-1.2C488.8,298.7,494.4,307,493.9,319.6z M446.2,351.9
		c11.3-0.6,21-2.9,29.4-9c14-10,15.2-28.3,2.5-40c-3.2-3-7-5.4-10.8-7.6c-4.5-2.6-9.5-2.7-14.1-0.1c-5.9,3.3-11,7.8-12.7,14.6
		c-2.9,11.4-5.4,22.9-7.8,34.4c-0.8,3.8,0.6,5.5,4.4,6.3C440.5,351.2,443.9,351.5,446.2,351.9z"/>
	<path d="M648.4,348.9c3.3,0,6.2,2.6,6.3,5.9c0.2,3.6-2.9,6.6-6.5,6.4c-3.3-0.1-6-3-6-6.3C642.3,351.6,645.1,348.9,648.4,348.9z"/>
	<path d="M688.7,354.8c0.1,3.2-2.4,6.1-5.7,6.4c-3.6,0.3-6.7-2.4-6.9-5.9c-0.1-3.2,2.4-6.1,5.7-6.4
		C685.4,348.6,688.5,351.3,688.7,354.8z"/>
	<path d="M716.4,348.9c3.4-0.1,6.1,2.5,6.2,5.9c0.2,3.7-2.7,6.6-6.4,6.5c-3.5-0.1-5.8-2.7-5.8-6.2
		C710.5,351.4,712.9,348.9,716.4,348.9z"/>
</g>
</svg>
