<?xml version="1.0" encoding="utf-8"?>
<!-- Generator: Adobe Illustrator 21.0.0, SVG Export Plug-In . SVG Version: 6.00 Build 0)  -->
<svg version="1.1" id="Calque_1" xmlns="http://www.w3.org/2000/svg" xmlns:xlink="http://www.w3.org/1999/xlink" x="0px" y="0px"
	 viewBox="0 0 566.9 566.9" style="enable-background:new 0 0 566.9 566.9;" xml:space="preserve">
<style type="text/css">
	.st0{opacity:0.3;}
	.st1{enable-background:new    ;}
	.st2{clip-path:url(#SVGID_2_);enable-background:new    ;}
	.st3{fill:#7E7E7E;}
	.st4{fill:#838383;}
	.st5{fill:#888888;}
	.st6{fill:#8C8C8C;}
	.st7{fill:#919191;}
	.st8{fill:#969696;}
	.st9{fill:#9B9B9B;}
	.st10{fill:#A0A0A0;}
	.st11{clip-path:url(#SVGID_4_);enable-background:new    ;}
	.st12{clip-path:url(#SVGID_6_);enable-background:new    ;}
	.st13{clip-path:url(#SVGID_8_);enable-background:new    ;}
	.st14{clip-path:url(#SVGID_10_);enable-background:new    ;}
	.st15{fill:#D0D0D0;}
	.st16{clip-path:url(#SVGID_12_);enable-background:new    ;}
	.st17{clip-path:url(#SVGID_14_);enable-background:new    ;}
	.st18{clip-path:url(#SVGID_16_);enable-background:new    ;}
	.st19{clip-path:url(#SVGID_18_);enable-background:new    ;}
	.st20{clip-path:url(#SVGID_20_);enable-background:new    ;}
	.st21{clip-path:url(#SVGID_22_);enable-background:new    ;}
	.st22{clip-path:url(#SVGID_24_);enable-background:new    ;}
	.st23{clip-path:url(#SVGID_26_);enable-background:new    ;}
	.st24{clip-path:url(#SVGID_28_);enable-background:new    ;}
	.st25{clip-path:url(#SVGID_30_);enable-background:new    ;}
	.st26{clip-path:url(#SVGID_32_);enable-background:new    ;}
	.st27{clip-path:url(#SVGID_34_);enable-background:new    ;}
	.st28{clip-path:url(#SVGID_36_);enable-background:new    ;}
	.st29{clip-path:url(#SVGID_38_);enable-background:new    ;}
	.st30{clip-path:url(#SVGID_40_);enable-background:new    ;}
	.st31{clip-path:url(#SVGID_42_);enable-background:new    ;}
	.st32{clip-path:url(#SVGID_44_);enable-background:new    ;}
	.st33{clip-path:url(#SVGID_46_);enable-background:new    ;}
	.st34{clip-path:url(#SVGID_48_);enable-background:new    ;}
	.st35{clip-path:url(#SVGID_50_);enable-background:new    ;}
	.st36{clip-path:url(#SVGID_52_);enable-background:new    ;}
	.st37{clip-path:url(#SVGID_54_);enable-background:new    ;}
	.st38{clip-path:url(#SVGID_56_);enable-background:new    ;}
	.st39{clip-path:url(#SVGID_58_);enable-background:new    ;}
	.st40{clip-path:url(#SVGID_60_);enable-background:new    ;}
	.st41{clip-path:url(#SVGID_62_);enable-background:new    ;}
	.st42{clip-path:url(#SVGID_64_);enable-background:new    ;}
	.st43{clip-path:url(#SVGID_66_);enable-background:new    ;}
	.st44{clip-path:url(#SVGID_68_);enable-background:new    ;}
	.st45{clip-path:url(#SVGID_70_);enable-background:new    ;}
	.st46{clip-path:url(#SVGID_72_);enable-background:new    ;}
	.st47{clip-path:url(#SVGID_74_);enable-background:new    ;}
	.st48{clip-path:url(#SVGID_76_);enable-background:new    ;}
	.st49{clip-path:url(#SVGID_78_);enable-background:new    ;}
	.st50{clip-path:url(#SVGID_80_);enable-background:new    ;}
	.st51{clip-path:url(#SVGID_82_);enable-background:new    ;}
	.st52{clip-path:url(#SVGID_84_);enable-background:new    ;}
	.st53{clip-path:url(#SVGID_86_);enable-background:new    ;}
	.st54{clip-path:url(#SVGID_88_);enable-background:new    ;}
	.st55{clip-path:url(#SVGID_90_);enable-background:new    ;}
	.st56{clip-path:url(#SVGID_92_);enable-background:new    ;}
	.st57{clip-path:url(#SVGID_94_);enable-background:new    ;}
	.st58{clip-path:url(#SVGID_96_);enable-background:new    ;}
	.st59{clip-path:url(#SVGID_98_);enable-background:new    ;}
	.st60{clip-path:url(#SVGID_100_);enable-background:new    ;}
	.st61{clip-path:url(#SVGID_102_);enable-background:new    ;}
	.st62{clip-path:url(#SVGID_104_);enable-background:new    ;}
	.st63{clip-path:url(#SVGID_106_);enable-background:new    ;}
	.st64{clip-path:url(#SVGID_108_);enable-background:new    ;}
	.st65{clip-path:url(#SVGID_110_);enable-background:new    ;}
</style>
<g class="st0">
	<g>
		<g class="st1">
			<g class="st1">
				<defs>
					<path id="SVGID_1_" class="st1" d="M228.5,106l4.3,4c-1.6-1.5-3.4-2.6-5.6-3.3c-2.4-0.7-4.8-1.2-7.2-1.3
						c-2.2-0.1-4.5,0.1-6.7,0.6c-9.1,2.2-15.1,7.9-15.7,17.9c-0.3,4.4-0.5,8.7-0.7,13.1c-0.1,1.3-0.1,1.9,0.3,2.3l-4.3-4
						c-0.4-0.3-0.3-1-0.3-2.3c0.2-4.4,0.5-8.7,0.7-13.1c0.7-10,6.6-15.7,15.7-17.9c2.3-0.5,4.5-0.7,6.7-0.6c2.4,0.1,4.8,0.6,7.2,1.3
						C225.1,103.4,227,104.5,228.5,106z"/>
				</defs>
				<clipPath id="SVGID_2_">
					<use xlink:href="#SVGID_1_"  style="overflow:visible;"/>
				</clipPath>
				<g class="st2">
					<path class="st3" d="M228.5,106l4.3,4c-1.6-1.5-3.4-2.6-5.6-3.3c-2.4-0.7-4.8-1.2-7.2-1.3c-2.2-0.1-4.5,0.1-6.7,0.6
						c-5,1.2-9,3.5-11.8,6.9l-4.3-4c2.7-3.4,6.8-5.7,11.8-6.9c2.3-0.5,4.5-0.7,6.7-0.6c2.4,0.1,4.8,0.6,7.2,1.3
						C225.1,103.4,227,104.5,228.5,106"/>
					<path class="st4" d="M197.2,109l4.3,4c-0.6,0.7-1.1,1.5-1.6,2.4l-4.3-4C196.1,110.5,196.6,109.7,197.2,109"/>
					<path class="st5" d="M195.6,111.4l4.3,4c-0.4,0.7-0.8,1.5-1.1,2.4l-4.3-4C194.8,112.9,195.2,112.1,195.6,111.4"/>
					<path class="st6" d="M194.5,113.7l4.3,4c-0.3,0.8-0.6,1.7-0.8,2.7l-4.3-4C193.9,115.5,194.2,114.6,194.5,113.7"/>
					<path class="st7" d="M193.7,116.4l4.3,4c-0.2,1.1-0.4,2.2-0.5,3.4l-4.3-4C193.3,118.6,193.5,117.5,193.7,116.4"/>
					<path class="st8" d="M193.3,119.8l4.3,4c0,0,0,0.1,0,0.1c-0.3,4.4-0.5,8.7-0.7,13.1c0,0.7-0.1,1.1,0,1.5l-4.3-4
						c0-0.4,0-0.9,0-1.5c0.2-4.4,0.5-8.7,0.7-13.1C193.3,119.9,193.3,119.8,193.3,119.8"/>
					<path class="st9" d="M192.5,134.5l4.3,4c0,0.2,0,0.3,0.1,0.4l-4.3-4C192.5,134.8,192.5,134.7,192.5,134.5"/>
					<path class="st10" d="M192.6,134.9l4.3,4c0,0.1,0.1,0.2,0.1,0.2l-4.3-4C192.7,135.1,192.6,135,192.6,134.9"/>
					<path class="st9" d="M192.7,135.2l4.3,4c0,0,0.1,0.1,0.1,0.1L192.7,135.2C192.8,135.2,192.7,135.2,192.7,135.2"/>
				</g>
			</g>
			<g class="st1">
				<defs>
					<path id="SVGID_3_" class="st1" d="M236,99.2l4.3,4c2.9,2.7,5.1,6,6.6,10c2.4,6.3,3,12.7,2.5,19.3c-0.1,2.1-0.2,4.2-0.3,6.3
						c-0.1,1.8-0.1,2.6,0.4,3.1l-4.3-4c-0.5-0.5-0.5-1.3-0.4-3.1c0.1-2.1,0.2-4.2,0.3-6.3c0.4-6.6-0.2-13.1-2.5-19.3
						C241.1,105.2,238.9,101.9,236,99.2z"/>
				</defs>
				<clipPath id="SVGID_4_">
					<use xlink:href="#SVGID_3_"  style="overflow:visible;"/>
				</clipPath>
				<g class="st11">
					<path class="st9" d="M236,99.2l4.3,4c0.9,0.8,1.7,1.7,2.5,2.7l-4.3-4C237.7,100.9,236.9,100,236,99.2"/>
					<path class="st10" d="M238.5,101.9l4.3,4c1.7,2.1,3.1,4.6,4.1,7.4c0,0.1,0,0.1,0.1,0.2l-4.3-4c0-0.1,0-0.1-0.1-0.2
						C241.5,106.5,240.2,104,238.5,101.9"/>
					<path class="st9" d="M242.7,109.4l4.3,4c1.3,3.4,2,6.9,2.4,10.5l-4.3-4C244.7,116.3,243.9,112.9,242.7,109.4"/>
					<path class="st8" d="M245,119.9l4.3,4c0.3,2.9,0.3,5.8,0.1,8.7c-0.1,2.1-0.2,4.2-0.3,6.3c0,0.9-0.1,1.5,0,2l-4.3-4
						c0-0.5,0-1.1,0-2c0.1-2.1,0.2-4.2,0.3-6.3C245.3,125.6,245.3,122.7,245,119.9"/>
					<path class="st9" d="M244.7,136.9l4.3,4c0,0.2,0.1,0.4,0.1,0.6l-4.3-4C244.8,137.4,244.8,137.2,244.7,136.9"/>
					<path class="st10" d="M244.9,137.5l4.3,4c0,0.1,0.1,0.2,0.2,0.3l-4.3-4C245,137.8,244.9,137.7,244.9,137.5"/>
					<path class="st9" d="M245.1,137.9l4.3,4c0,0.1,0.1,0.1,0.1,0.1l-4.3-4C245.1,138,245.1,137.9,245.1,137.9"/>
				</g>
			</g>
			<g class="st1">
				<defs>
					<path id="SVGID_5_" class="st1" d="M218.2,158.3l4.3,4c-1.1-1.1-2.6-1.7-4.4-2.1c-0.5-0.1-1-0.2-1.6-0.2
						c-3.3-0.2-6.4,1.6-8.4,4.7c-1.7,2.7-1.9,8,0.4,10.2c2.2,2.1,1.8,4,1.2,6.4c-1.3,4.7-2.5,9.3-3.7,14c-0.3,1.3-0.3,2.1,0.3,2.6
						l-4.3-4c-0.5-0.5-0.6-1.3-0.3-2.6c1.2-4.7,2.4-9.4,3.7-14c0.6-2.3,1-4.3-1.2-6.4c-2.3-2.2-2.2-7.5-0.4-10.2
						c1.9-3,5-4.8,8.4-4.7c0.5,0,1,0.1,1.6,0.2C215.6,156.5,217,157.2,218.2,158.3z"/>
				</defs>
				<clipPath id="SVGID_6_">
					<use xlink:href="#SVGID_5_"  style="overflow:visible;"/>
				</clipPath>
				<g class="st12">
					<path class="st3" d="M218.2,158.3l4.3,4c-1.1-1.1-2.6-1.7-4.4-2.1c-0.5-0.1-1-0.2-1.6-0.2c-3-0.1-5.7,1.2-7.7,3.7l-4.3-4
						c1.9-2.4,4.7-3.8,7.7-3.7c0.5,0,1,0.1,1.6,0.2C215.6,156.5,217,157.2,218.2,158.3"/>
					<path class="st4" d="M204.6,159.6l4.3,4c-0.3,0.3-0.5,0.6-0.7,1c-0.1,0.1-0.1,0.2-0.2,0.4l-4.3-4c0.1-0.1,0.1-0.2,0.2-0.4
						C204.1,160.2,204.3,159.9,204.6,159.6"/>
					<path class="st5" d="M203.7,160.9l4.3,4c-0.2,0.3-0.3,0.7-0.5,1l-4.3-4C203.3,161.6,203.5,161.2,203.7,160.9"/>
					<path class="st6" d="M203.2,161.9l4.3,4c-0.2,0.4-0.3,0.9-0.4,1.3l-4.3-4C202.9,162.8,203.1,162.3,203.2,161.9"/>
					<path class="st7" d="M202.8,163.2l4.3,4c-0.1,0.5-0.2,1.1-0.2,1.6l-4.3-4C202.6,164.3,202.7,163.8,202.8,163.2"/>
					<path class="st8" d="M202.6,164.8l4.3,4c0,0.6,0,1.2,0,1.8l-4.3-4C202.6,166.1,202.6,165.5,202.6,164.8"/>
					<path class="st9" d="M202.6,166.7l4.3,4c0.1,0.8,0.2,1.5,0.5,2.2l-4.3-4C202.9,168.2,202.7,167.4,202.6,166.7"/>
					<path class="st10" d="M203.1,168.9l4.3,4c0.2,0.6,0.5,1.1,0.8,1.5l-4.3-4C203.6,169.9,203.3,169.4,203.1,168.9"/>
					<path class="st9" d="M203.9,170.3l4.3,4c0.1,0.2,0.3,0.3,0.4,0.4c0.2,0.2,0.5,0.5,0.6,0.7l-4.3-4c-0.2-0.2-0.4-0.5-0.6-0.7
						C204.2,170.6,204,170.5,203.9,170.3"/>
					<path class="st10" d="M205,171.5l4.3,4c0.3,0.4,0.6,0.9,0.8,1.3l-4.3-4C205.6,172.3,205.3,171.9,205,171.5"/>
					<path class="st9" d="M205.7,172.8l4.3,4c0.1,0.4,0.2,0.7,0.3,1.1l-4.3-4C205.9,173.5,205.9,173.2,205.7,172.8"/>
					<path class="st8" d="M206,173.9l4.3,4c0,0.3,0,0.6,0,0.9l-4.3-4C206,174.5,206,174.2,206,173.9"/>
					<path class="st7" d="M206,174.8l4.3,4c0,0.4-0.1,0.9-0.2,1.3l-4.3-4C205.9,175.7,206,175.2,206,174.8"/>
					<path class="st6" d="M205.8,176.1l4.3,4c-0.1,0.3-0.2,0.7-0.3,1c-1.3,4.7-2.5,9.3-3.7,14c0,0.1,0,0.2-0.1,0.3l-4.3-4
						c0-0.1,0-0.2,0.1-0.3c1.2-4.7,2.4-9.4,3.7-14C205.6,176.8,205.7,176.5,205.8,176.1"/>
					<path class="st7" d="M201.8,191.5l4.3,4c-0.1,0.3-0.1,0.6-0.1,0.8l-4.3-4C201.7,192,201.7,191.8,201.8,191.5"/>
					<path class="st8" d="M201.6,192.3l4.3,4c0,0.2,0,0.3,0,0.5l-4.3-4C201.6,192.6,201.6,192.5,201.6,192.3"/>
					<path class="st9" d="M201.6,192.8l4.3,4c0,0.2,0.1,0.3,0.1,0.5l-4.3-4C201.7,193.1,201.7,193,201.6,192.8"/>
					<path class="st10" d="M201.8,193.3l4.3,4c0.1,0.1,0.1,0.3,0.2,0.4l-4.3-4C201.9,193.5,201.8,193.4,201.8,193.3"/>
					<path class="st9" d="M202,193.6l4.3,4c0,0.1,0.1,0.1,0.1,0.2l-4.3-4C202.1,193.7,202,193.7,202,193.6"/>
				</g>
			</g>
			<g class="st1">
				<defs>
					<path id="SVGID_7_" class="st1" d="M172.2,211.6l-4.3-4c0.5,0.4,1,0.9,1.6,1.3c2.6,1.8,5.4,3,8.6,3.1c10.4,0.5,20.9,1,31.3,1.5
						l4.3,4c-10.4-0.5-20.9-1-31.3-1.5c-3.2-0.2-6-1.3-8.6-3.1C173.2,212.5,172.7,212.1,172.2,211.6z"/>
				</defs>
				<clipPath id="SVGID_8_">
					<use xlink:href="#SVGID_7_"  style="overflow:visible;"/>
				</clipPath>
				<g class="st13">
					<path class="st3" d="M209.4,213.5l4.3,4c-10.4-0.5-20.9-1-31.3-1.5c-3.2-0.2-6-1.3-8.6-3.1c-0.6-0.4-1.1-0.8-1.6-1.3l-4.3-4
						c0.5,0.4,1,0.9,1.6,1.3c2.6,1.8,5.4,3,8.6,3.1C188.6,212.5,199,213,209.4,213.5"/>
				</g>
			</g>
			<g class="st1">
				<defs>
					<path id="SVGID_9_" class="st1" d="M254.1,142.5l4.3,4c0.5,0.5,1,1,1.5,1.6c1.7,2.1,2.6,4.4,2.7,7.1
						c0.6,10.6-0.8,21.1-1.2,31.7l-4.3-4c0.5-10.6,1.8-21.1,1.2-31.7c-0.1-2.8-1-5-2.7-7.1C255.1,143.5,254.6,143,254.1,142.5z"/>
				</defs>
				<clipPath id="SVGID_10_">
					<use xlink:href="#SVGID_9_"  style="overflow:visible;"/>
				</clipPath>
				<g class="st14">
					<path class="st9" d="M254.1,142.5l4.3,4c0.5,0.5,1,1,1.4,1.6l-4.3-4C255.1,143.5,254.6,143,254.1,142.5"/>
					<path class="st10" d="M255.6,144.1l4.3,4c0,0,0,0,0,0c0.9,1.1,1.5,2.2,2,3.4l-4.3-4C257.1,146.3,256.4,145.2,255.6,144.1
						C255.6,144.1,255.6,144.1,255.6,144.1"/>
					<path class="st9" d="M257.5,147.5l4.3,4c0.4,1,0.6,2,0.7,3.1l-4.3-4C258.1,149.5,257.9,148.5,257.5,147.5"/>
					<path class="st8" d="M258.2,150.6l4.3,4c0,0.2,0,0.4,0,0.7c0.6,10.6-0.8,21.1-1.2,31.7l-4.3-4c0.5-10.6,1.8-21.1,1.2-31.7
						C258.3,151,258.3,150.8,258.2,150.6"/>
				</g>
			</g>
			<g>
				<path class="st15" d="M257,182.9c-0.3,6.3-1.3,12.6-1.5,18.9c-0.2,6.2-6,13.6-14.6,13.2c-4.3-0.3-8.4-0.5-12.6-0.7
					c-6.3-0.3-12.6-0.6-18.9-0.9c-10.4-0.5-20.9-1-31.3-1.5c-3.2-0.2-6-1.3-8.6-3.1c-3.8-2.6-5.5-6.3-5.2-10.8
					c0.9-16.3,1.8-32.6,2.6-48.9c0.3-6.1,5.4-12.8,12.6-13.5c2.5-0.3,3.1-0.9,3.2-3.6c0.3-4.1,0.5-8.2,0.7-12.3
					c0.2-5.9,2-11.3,5.4-16c1.8-2.5,4.1-4.9,6.7-6.5c6-3.7,12.5-6,19.8-5.6c0.2,0,0.5,0,0.7,0c4.5,0.3,8.9,0.8,13,2.8
					c6.5,3.2,11.1,8,13.7,14.8c2.4,6.3,3,12.7,2.5,19.3c-0.1,2.1-0.2,4.2-0.3,6.3c-0.1,3.1-0.2,3.2,2.9,4c3.2,0.9,5.9,2.5,7.9,5.1
					c1.7,2.1,2.6,4.4,2.7,7.1C258.8,161.9,257.5,172.4,257,182.9z M234.4,134.9c0.3-4.4,0.5-8.7,0.7-13.1c0.1-3.8-0.9-7.5-2.6-10.7
					c-2.1-3.8-5-7.1-9.5-8.4c-2.4-0.7-4.8-1.2-7.2-1.3c-2.2-0.1-4.5,0.1-6.7,0.6c-9.1,2.2-15.1,7.9-15.7,17.9
					c-0.3,4.4-0.5,8.7-0.7,13.1c-0.1,2.5-0.1,2.5,2.4,2.7c2.4,0.1,4.9,0.3,7.3,0.4c3.7,0.2,7.3,0.3,11,0.5c3.5,0.2,7,0.3,10.4,0.5
					c2.6,0.1,5.2,0.2,7.8,0.4C234.1,137.5,234.2,137.5,234.4,134.9 M216.7,176.8c-0.2-1.1,0.2-2.4,0.6-3.5c0.4-0.9,1.1-1.6,1.8-2.4
					c2.1-2.4,2.6-5,1.7-8c-1.2-4.1-3.4-6-7-6.9c-0.5-0.1-1-0.2-1.6-0.2c-3.3-0.2-6.4,1.6-8.4,4.7c-1.7,2.7-1.9,8,0.4,10.2
					c2.2,2.1,1.8,4,1.2,6.4c-1.3,4.7-2.5,9.3-3.7,14c-0.6,2.3,0,3.1,2.5,3.3c0.8,0.1,1.5,0.1,2.3,0.1c1.1,0.1,2.2,0.1,3.3,0.1
					c1.3,0,2.7,0.1,4,0.2c0.8,0,1.5,0.1,2.3,0.1c2.5,0,3.1-0.8,2.7-3.2C218.2,186.8,217.3,181.8,216.7,176.8"/>
			</g>
			<g class="st1">
				<defs>
					<path id="SVGID_11_" class="st1" d="M257,182.9l4.3,4c-0.3,6.3-1.3,12.6-1.5,18.9c-0.2,6.2-6,13.6-14.6,13.2
						c-4.3-0.3-8.4-0.5-12.6-0.7c-6.3-0.3-12.6-0.6-18.9-0.9l-4.3-4c6.3,0.3,12.6,0.6,18.9,0.9c4.1,0.2,8.3,0.4,12.6,0.7
						c8.6,0.4,14.3-7,14.6-13.2C255.8,195.6,256.8,189.3,257,182.9z"/>
				</defs>
				<clipPath id="SVGID_12_">
					<use xlink:href="#SVGID_11_"  style="overflow:visible;"/>
				</clipPath>
				<g class="st16">
					<path class="st8" d="M257,182.9l4.3,4c0,0.9-0.1,1.8-0.2,2.7l-4.3-4C256.9,184.8,257,183.9,257,182.9"/>
					<path class="st7" d="M256.9,185.7l4.3,4c-0.3,4.4-0.9,8.7-1.2,13.1l-4.3-4C256,194.4,256.6,190.1,256.9,185.7"/>
					<path class="st8" d="M255.7,198.8l4.3,4c-0.1,1-0.1,2.1-0.2,3.1c0,0.1,0,0.2,0,0.3l-4.3-4c0-0.1,0-0.2,0-0.3
						C255.6,200.9,255.6,199.8,255.7,198.8"/>
					<path class="st7" d="M255.5,202.2l4.3,4c0,0.6-0.1,1.1-0.2,1.7l-4.3-4C255.4,203.3,255.5,202.8,255.5,202.2"/>
					<path class="st6" d="M255.3,203.9l4.3,4c-0.1,0.6-0.3,1.2-0.5,1.8l-4.3-4C255,205.1,255.1,204.5,255.3,203.9"/>
					<path class="st5" d="M254.8,205.7l4.3,4c-0.2,0.7-0.5,1.3-0.9,1.9l-4.3-4C254.2,207,254.5,206.3,254.8,205.7"/>
					<path class="st4" d="M253.9,207.6l4.3,4c-0.4,0.8-0.9,1.5-1.4,2.2l-4.3-4C253,209.1,253.5,208.4,253.9,207.6"/>
					<path class="st3" d="M252.4,209.8l4.3,4c-2.5,3.2-6.5,5.5-11.5,5.3c-4.3-0.3-8.4-0.5-12.6-0.7c-6.3-0.3-12.6-0.6-18.9-0.9
						l-4.3-4c6.3,0.3,12.6,0.6,18.9,0.9c4.1,0.2,8.3,0.4,12.6,0.7C245.9,215.3,249.9,213,252.4,209.8"/>
				</g>
			</g>
		</g>
		<g class="st1">
			<g class="st1">
				<defs>
					<path id="SVGID_13_" class="st1" d="M319.4,162l4.3,4c-1.6-1.5-3.3-2.8-4.9-4.3c-0.3-0.3-0.6-0.5-0.9-0.8l-4.3-4
						c0.3,0.3,0.6,0.5,0.9,0.8C316.1,159.2,317.8,160.5,319.4,162z"/>
				</defs>
				<clipPath id="SVGID_14_">
					<use xlink:href="#SVGID_13_"  style="overflow:visible;"/>
				</clipPath>
				<g class="st17">
					<path class="st3" d="M319.4,162l4.3,4c-1.6-1.5-3.3-2.8-4.9-4.3c-0.3-0.3-0.6-0.5-0.9-0.8l-4.3-4c0.3,0.3,0.6,0.5,0.9,0.8
						C316.1,159.2,317.8,160.5,319.4,162"/>
				</g>
			</g>
			<g class="st1">
				<defs>
					<path id="SVGID_15_" class="st1" d="M341.5,158.4l-4.3-4c-0.5-0.5-0.9-1.4-1.3-2.8c-0.8-2.5-1.5-5-2.4-7.4
						c-0.2-0.6-0.6-1.2-0.9-1.8l4.3,4c0.3,0.6,0.7,1.2,0.9,1.8c0.8,2.5,1.6,4.9,2.4,7.4C340.6,157,341,157.9,341.5,158.4z"/>
				</defs>
				<clipPath id="SVGID_16_">
					<use xlink:href="#SVGID_15_"  style="overflow:visible;"/>
				</clipPath>
				<g class="st18">
					<path class="st10" d="M332.6,142.4l4.3,4c0.3,0.6,0.7,1.1,0.9,1.7l-4.3-4C333.3,143.5,332.9,142.9,332.6,142.4"/>
					<path class="st9" d="M333.5,144.1l4.3,4c0,0,0,0.1,0,0.1c0.8,2.5,1.6,4.9,2.4,7.4c0.1,0.4,0.3,0.8,0.4,1.1l-4.3-4
						c-0.1-0.3-0.2-0.7-0.4-1.1C335.1,149.1,334.4,146.6,333.5,144.1C333.6,144.2,333.6,144.1,333.5,144.1"/>
					<path class="st10" d="M336.3,152.7l4.3,4c0.2,0.6,0.4,1.1,0.7,1.4l-4.3-4C336.8,153.8,336.5,153.3,336.3,152.7"/>
					<path class="st9" d="M337,154.1l4.3,4c0.1,0.1,0.2,0.2,0.2,0.3l-4.3-4C337.2,154.3,337.1,154.2,337,154.1"/>
				</g>
			</g>
			<g>
				<path class="st15" d="M332.6,142.4c0.3,0.6,0.7,1.2,0.9,1.8c0.8,2.5,1.6,4.9,2.4,7.4c1,3.1,1.4,3.4,4.7,3.7
					c1.1,0.1,2.3,0.1,3.5,0.2c0.8,0,1.7,0.1,2.5,0.1c0.4,0,0.8,0,1.2,0c0.3,0,0.7,0.1,1,0.2c0.6,0.2,1.3,0.7,1.6,1.3
					c0.1,0.3-0.4,1.1-0.9,1.5c-1.9,1.4-3.9,2.7-5.8,4c-2.6,1.7-4.1,3.7-2.9,7.1c0.9,2.8,1,5.8,1.4,8.7c0,0.3-0.3,0.6-0.6,1.1
					c-0.7-0.4-1.1-0.7-1.5-1c-2.2-1.7-4.5-3.5-6.7-5.2c-1.2-0.9-2.1-1.3-3.1-1.4c-0.9,0-1.9,0.3-3,1.1c-2.3,1.5-4.5,3.1-6.8,4.5
					c-0.5,0.3-1.4,0.3-2,0.4c-0.1-0.7-0.4-1.5-0.2-2.1c0.8-2.3,1.7-4.7,2.6-6.9c1.3-3,1.2-4.4-1.2-6.6c-1.7-1.6-3.5-3.1-5.3-4.6
					c-0.5-0.4-1-0.8-1.3-1.3c-0.8-0.9-0.4-2,0.7-2.2c0.8-0.2,1.7-0.1,2.6-0.1c2,0.1,4,0.1,6,0.2c2.3,0.1,4.1-0.7,5.1-3
					c0.9-2.2,1.9-4.3,2.8-6.5c0.1-0.3,0.1-0.8,0.4-1C331.3,143.4,332,142.9,332.6,142.4z"/>
			</g>
			<g class="st1">
				<defs>
					<path id="SVGID_17_" class="st1" d="M349.9,156.5l4.3,4c0.2,0.2,0.4,0.4,0.5,0.6c0.1,0.3-0.4,1.1-0.9,1.5
						c-1.9,1.4-3.9,2.7-5.8,4c-2.6,1.7-4.1,3.7-2.9,7.1c0.9,2.8,1,5.8,1.4,8.7c0,0.3-0.3,0.6-0.6,1.1l-4.3-4
						c0.2-0.5,0.6-0.8,0.6-1.1c-0.4-2.9-0.5-6-1.4-8.7c-1.2-3.5,0.4-5.4,2.9-7.1c1.9-1.3,3.9-2.6,5.8-4c0.4-0.3,1-1.2,0.9-1.5
						C350.3,156.9,350.1,156.6,349.9,156.5z"/>
				</defs>
				<clipPath id="SVGID_18_">
					<use xlink:href="#SVGID_17_"  style="overflow:visible;"/>
				</clipPath>
				<g class="st19">
					<path class="st9" d="M349.9,156.5l4.3,4c0.1,0.1,0.2,0.2,0.3,0.3l-4.3-4C350.1,156.6,350,156.5,349.9,156.5"/>
					<path class="st10" d="M350.1,156.7l4.3,4c0.1,0.1,0.2,0.2,0.2,0.3c0,0,0,0,0,0l-4.3-4c0,0,0,0,0,0
						C350.3,157,350.2,156.8,350.1,156.7"/>
					<path class="st9" d="M350.4,157.1l4.3,4c0,0,0,0,0,0.1L350.4,157.1C350.4,157.1,350.4,157.1,350.4,157.1"/>
					<path class="st8" d="M350.4,157.2l4.3,4c0,0,0,0,0,0.1L350.4,157.2C350.4,157.2,350.4,157.2,350.4,157.2"/>
					<path class="st7" d="M350.4,157.2l4.3,4c0,0,0,0.1,0,0.1L350.4,157.2C350.4,157.3,350.4,157.3,350.4,157.2"/>
					<path class="st6" d="M350.4,157.3l4.3,4c0,0,0,0.1,0,0.1l-4.3-4C350.4,157.4,350.4,157.3,350.4,157.3"/>
					<path class="st5" d="M350.3,157.4l4.3,4c0,0.1-0.1,0.2-0.1,0.2l-4.3-4C350.3,157.6,350.3,157.5,350.3,157.4"/>
					<path class="st4" d="M350.2,157.7l4.3,4c-0.1,0.1-0.2,0.3-0.3,0.4l-4.3-4C350,158,350.2,157.8,350.2,157.7"/>
					<path class="st3" d="M349.9,158.1l4.3,4c-0.1,0.2-0.3,0.3-0.4,0.4c-1.9,1.4-3.9,2.7-5.8,4c-0.9,0.6-1.7,1.2-2.3,2l-4.3-4
						c0.6-0.7,1.4-1.4,2.3-2c1.9-1.3,3.9-2.6,5.8-4C349.6,158.4,349.8,158.3,349.9,158.1"/>
					<path class="st4" d="M341.4,164.5l4.3,4c-0.2,0.2-0.4,0.5-0.5,0.8l-4.3-4C341.1,165,341.2,164.8,341.4,164.5"/>
					<path class="st5" d="M340.9,165.3l4.3,4c-0.1,0.2-0.2,0.4-0.3,0.6l-4.3-4C340.7,165.7,340.8,165.5,340.9,165.3"/>
					<path class="st6" d="M340.7,165.9l4.3,4c-0.1,0.2-0.1,0.4-0.2,0.6l-4.3-4C340.5,166.3,340.6,166.1,340.7,165.9"/>
					<path class="st7" d="M340.5,166.5l4.3,4c0,0.2-0.1,0.4-0.1,0.7l-4.3-4C340.4,166.9,340.4,166.7,340.5,166.5"/>
					<path class="st8" d="M340.4,167.2l4.3,4c0,0.3,0,0.6,0,0.9l-4.3-4C340.4,167.7,340.4,167.4,340.4,167.2"/>
					<path class="st9" d="M340.4,168l4.3,4c0,0.5,0.2,1.1,0.4,1.6c0.9,2.8,1,5.8,1.4,8.7c0,0,0,0,0,0l-4.3-4c0,0,0,0,0,0
						c-0.4-2.9-0.5-6-1.4-8.7C340.6,169.1,340.5,168.5,340.4,168"/>
					<path class="st8" d="M342.2,178.4l4.3,4c0,0,0,0,0,0.1L342.2,178.4C342.2,178.5,342.2,178.4,342.2,178.4"/>
					<path class="st7" d="M342.2,178.5l4.3,4c0,0,0,0,0,0.1L342.2,178.5C342.2,178.5,342.2,178.5,342.2,178.5"/>
					<path class="st6" d="M342.2,178.6l4.3,4c0,0,0,0.1,0,0.1L342.2,178.6C342.2,178.6,342.2,178.6,342.2,178.6"/>
					<path class="st5" d="M342.2,178.6l4.3,4c0,0,0,0.1-0.1,0.1l-4.3-4C342.1,178.7,342.2,178.7,342.2,178.6"/>
					<path class="st4" d="M342.1,178.8l4.3,4c-0.1,0.2-0.3,0.5-0.5,0.7l-4.3-4C341.8,179.2,342,179,342.1,178.8"/>
					<path class="st5" d="M341.7,179.5l4.3,4c0,0,0,0,0,0L341.7,179.5C341.6,179.5,341.7,179.5,341.7,179.5"/>
				</g>
			</g>
			<g class="st1">
				<defs>
					<path id="SVGID_19_" class="st1" d="M341.6,179.5l4.3,4c-0.7-0.4-1.1-0.7-1.5-1c-2.2-1.7-4.5-3.5-6.7-5.2
						c-1.2-0.9-2.1-1.3-3.1-1.4c-0.9,0-1.9,0.3-3,1.1c-2.3,1.5-4.5,3.1-6.8,4.5c-0.5,0.3-1.4,0.3-2,0.4l-4.3-4
						c0.7-0.1,1.5-0.1,2-0.4c2.3-1.5,4.5-3.1,6.8-4.5c1.2-0.7,2.1-1.1,3-1.1c0.9,0,1.9,0.5,3.1,1.4c2.3,1.7,4.5,3.4,6.7,5.2
						C340.6,178.8,341,179.1,341.6,179.5z"/>
				</defs>
				<clipPath id="SVGID_20_">
					<use xlink:href="#SVGID_19_"  style="overflow:visible;"/>
				</clipPath>
				<g class="st20">
					<path class="st3" d="M341.6,179.5l4.3,4c-0.7-0.4-1.1-0.7-1.5-1c-2.2-1.7-4.5-3.5-6.7-5.2c-1.2-0.9-2.1-1.3-3.1-1.4
						c-0.9,0-1.9,0.3-3,1.1c-2.3,1.5-4.5,3.1-6.8,4.5c-0.5,0.3-1.4,0.3-2,0.4l-4.3-4c0.7-0.1,1.5-0.1,2-0.4c2.3-1.5,4.5-3.1,6.8-4.5
						c1.2-0.7,2.1-1.1,3-1.1c0.9,0,1.9,0.5,3.1,1.4c2.3,1.7,4.5,3.4,6.7,5.2C340.6,178.8,341,179.1,341.6,179.5"/>
				</g>
			</g>
		</g>
		<g class="st1">
			<g class="st1">
				<defs>
					<path id="SVGID_21_" class="st1" d="M259.4,47.9l4.3,4c0,0.2,0.1,0.5,0.1,0.7l-4.3-4C259.5,48.3,259.5,48.1,259.4,47.9z"/>
				</defs>
				<clipPath id="SVGID_22_">
					<use xlink:href="#SVGID_21_"  style="overflow:visible;"/>
				</clipPath>
				<g class="st21">
					<path class="st9" d="M259.4,47.9l4.3,4c0,0.2,0.1,0.5,0.1,0.7l-4.3-4C259.5,48.3,259.5,48.1,259.4,47.9"/>
				</g>
			</g>
			<g class="st1">
				<defs>
					<path id="SVGID_23_" class="st1" d="M264.6,56.6l4.3,4c-0.2-0.1-0.3-0.3-0.5-0.4c-1.9-1.5-3.7-3-5.4-4.7l-4.3-4
						c1.7,1.6,3.5,3.2,5.4,4.7C264.3,56.4,264.4,56.5,264.6,56.6z"/>
				</defs>
				<clipPath id="SVGID_24_">
					<use xlink:href="#SVGID_23_"  style="overflow:visible;"/>
				</clipPath>
				<g class="st22">
					<path class="st3" d="M264.6,56.6l4.3,4c-0.2-0.1-0.3-0.3-0.5-0.4c-1.9-1.5-3.7-3-5.4-4.7l-4.3-4c1.7,1.6,3.5,3.2,5.4,4.7
						C264.3,56.4,264.4,56.5,264.6,56.6"/>
				</g>
			</g>
			<g class="st1">
				<defs>
					<path id="SVGID_25_" class="st1" d="M285.8,52.4l-4.3-4c-0.5-0.4-0.8-1-1-1.8c-0.8-2.7-1.6-5.4-2.5-8.2
						c-0.2-0.8-0.7-1.4-1.1-2.1l4.3,4c0.4,0.7,0.9,1.4,1.1,2.1c0.9,2.7,1.7,5.4,2.5,8.2C285.1,51.4,285.4,52,285.8,52.4z"/>
				</defs>
				<clipPath id="SVGID_26_">
					<use xlink:href="#SVGID_25_"  style="overflow:visible;"/>
				</clipPath>
				<g class="st23">
					<path class="st10" d="M277,36.4l4.3,4c0.3,0.7,0.8,1.3,1.1,2l-4.3-4C277.8,37.7,277.3,37.1,277,36.4"/>
					<path class="st9" d="M278,38.4l4.3,4c0,0.1,0,0.1,0.1,0.2c0.9,2.7,1.7,5.4,2.5,8.2c0,0.1,0.1,0.3,0.1,0.4l-4.3-4
						c0-0.1-0.1-0.2-0.1-0.4c-0.8-2.7-1.6-5.4-2.5-8.2C278.1,38.5,278,38.4,278,38.4"/>
					<path class="st10" d="M280.7,47l4.3,4c0.2,0.4,0.3,0.8,0.6,1.1l-4.3-4C281,47.8,280.9,47.5,280.7,47"/>
					<path class="st9" d="M281.3,48.1l4.3,4c0.1,0.1,0.2,0.2,0.3,0.3l-4.3-4C281.5,48.3,281.4,48.2,281.3,48.1"/>
				</g>
			</g>
			<g class="st1">
				<defs>
					<path id="SVGID_27_" class="st1" d="M294.5,50.9l4.3,4c0.1,0.1,0.2,0.2,0.2,0.3l-4.3-4C294.7,51.1,294.6,51,294.5,50.9z"/>
				</defs>
				<clipPath id="SVGID_28_">
					<use xlink:href="#SVGID_27_"  style="overflow:visible;"/>
				</clipPath>
				<g class="st24">
					<path class="st9" d="M294.5,50.9l4.3,4c0,0,0.1,0.1,0.1,0.1L294.5,50.9C294.6,51,294.6,50.9,294.5,50.9"/>
					<path class="st10" d="M294.6,51l4.3,4c0,0,0.1,0.1,0.1,0.1l-4.3-4C294.7,51.1,294.7,51,294.6,51"/>
					<path class="st9" d="M294.7,51.1l4.3,4c0,0,0,0,0,0L294.7,51.1C294.7,51.2,294.7,51.1,294.7,51.1"/>
				</g>
			</g>
			<g>
				<path class="st15" d="M277,36.4c0.4,0.7,0.9,1.4,1.1,2.1c0.9,2.7,1.7,5.4,2.5,8.2c0.5,1.8,1.6,2.6,3.5,2.7
					c3.2,0.2,6.4,0.7,9.6,1.1c0.4,0.1,1,0.4,1.1,0.7c0.1,0.4-0.3,1-0.6,1.2c-1.8,1.3-3.6,2.6-5.4,3.9c-0.8,0.6-1.6,1.2-2.4,1.8
					c-1.5,1.1-1.9,2.6-1.5,4.3c0.7,2.9,1.2,5.8,2,8.7c0.2,0.9,0.2,1.6-0.6,1.9c-0.1,0-0.2,0-0.3,0c-0.5,0-1.1-0.3-1.5-0.6
					c-2.3-1.7-4.6-3.3-6.8-5.2c-0.7-0.6-1.4-1-2.2-1c-0.6,0-1.2,0.1-1.9,0.6c-2.7,1.7-5.5,3.2-8.4,4.7c-0.7,0.4-1.5,0.3-2.3,0.5
					c0.1-0.8,0.1-1.7,0.3-2.4c0.8-2.3,1.9-4.6,2.6-6.9c0.7-2.4,0.6-4.6-1.7-6.4c-2.1-1.6-4-3.3-5.9-5.1c-0.5-0.5-1.1-1.6-0.8-2.1
					c0.2-0.6,1.3-0.8,2.1-1.2c0,0.2,0.1,0.5,0.1,0.7c3,0,6.1-0.1,9.1,0c1.8,0,2.7-0.9,3.3-2.4c0.8-2.1,1.7-4.1,2.5-6.2
					c0.2-0.6,0.3-1.2,0.7-1.7C275.7,37.5,276.4,37,277,36.4z"/>
			</g>
			<g class="st1">
				<defs>
					<path id="SVGID_29_" class="st1" d="M294.7,51.2l4.3,4c0.1,0.4-0.3,1-0.6,1.2c-1.8,1.3-3.6,2.6-5.4,3.9
						c-0.8,0.6-1.6,1.2-2.4,1.8c-1.5,1.1-1.9,2.6-1.5,4.3c0.7,2.9,1.2,5.8,2,8.7c0.2,0.9,0.2,1.6-0.6,1.9c-0.1,0-0.2,0-0.3,0
						c-0.5,0-1.1-0.3-1.5-0.6c-2.3-1.7-4.6-3.3-6.8-5.2c-0.7-0.6-1.4-1-2.2-1c-0.6,0-1.2,0.1-1.9,0.6c-2.7,1.7-5.5,3.2-8.4,4.7
						c-0.7,0.4-1.5,0.3-2.3,0.5l-4.3-4c0.8-0.2,1.6-0.1,2.3-0.5c2.8-1.5,5.6-3.1,8.4-4.7c0.7-0.4,1.3-0.6,1.9-0.6
						c0.7,0,1.4,0.4,2.2,1c2.2,1.8,4.5,3.5,6.8,5.2c0.4,0.3,1,0.6,1.5,0.6c0.1,0,0.2,0,0.3,0c0.8-0.2,0.8-1,0.6-1.9
						c-0.7-2.9-1.3-5.8-2-8.7c-0.4-1.7-0.1-3.2,1.5-4.3c0.8-0.6,1.6-1.2,2.4-1.8c1.8-1.3,3.6-2.6,5.4-3.9
						C294.5,52.1,294.8,51.5,294.7,51.2z"/>
				</defs>
				<clipPath id="SVGID_30_">
					<use xlink:href="#SVGID_29_"  style="overflow:visible;"/>
				</clipPath>
				<g class="st25">
					<path class="st9" d="M294.7,51.2l4.3,4c0,0,0,0,0,0.1L294.7,51.2C294.7,51.2,294.7,51.2,294.7,51.2"/>
					<path class="st8" d="M294.7,51.2l4.3,4c0,0,0,0.1,0,0.1l-4.3-4C294.7,51.3,294.7,51.3,294.7,51.2"/>
					<path class="st7" d="M294.7,51.3l4.3,4c0,0,0,0.1,0,0.1l-4.3-4C294.7,51.4,294.7,51.4,294.7,51.3"/>
					<path class="st6" d="M294.7,51.5l4.3,4c0,0.1,0,0.1-0.1,0.2l-4.3-4C294.7,51.6,294.7,51.5,294.7,51.5"/>
					<path class="st5" d="M294.7,51.6l4.3,4c0,0.1-0.1,0.2-0.1,0.2l-4.3-4C294.6,51.8,294.6,51.7,294.7,51.6"/>
					<path class="st4" d="M294.6,51.9l4.3,4c-0.1,0.1-0.1,0.2-0.2,0.3l-4.3-4C294.4,52.1,294.5,52,294.6,51.9"/>
					<path class="st3" d="M294.4,52.2l4.3,4c-0.1,0.1-0.2,0.2-0.2,0.2c-1.8,1.3-3.6,2.6-5.4,3.9c-0.8,0.6-1.6,1.2-2.4,1.8
						c-0.4,0.2-0.6,0.5-0.9,0.8l-4.3-4c0.2-0.3,0.5-0.6,0.9-0.8c0.8-0.6,1.6-1.2,2.4-1.8c1.8-1.3,3.6-2.6,5.4-3.9
						C294.2,52.3,294.3,52.2,294.4,52.2"/>
					<path class="st4" d="M285.4,58.9l4.3,4c-0.1,0.2-0.2,0.3-0.3,0.5l-4.3-4C285.2,59.2,285.3,59,285.4,58.9"/>
					<path class="st5" d="M285.1,59.4l4.3,4c-0.1,0.1-0.1,0.3-0.2,0.4l-4.3-4C285,59.7,285,59.5,285.1,59.4"/>
					<path class="st6" d="M284.9,59.8l4.3,4c-0.1,0.1-0.1,0.3-0.1,0.5l-4.3-4C284.8,60.1,284.9,60,284.9,59.8"/>
					<path class="st7" d="M284.8,60.3l4.3,4c0,0.2-0.1,0.4-0.1,0.5l-4.3-4C284.7,60.6,284.7,60.4,284.8,60.3"/>
					<path class="st8" d="M284.7,60.8l4.3,4c0,0.3,0,0.5,0,0.8l-4.3-4C284.7,61.3,284.7,61.1,284.7,60.8"/>
					<path class="st9" d="M284.7,61.6l4.3,4c0,0.3,0.1,0.5,0.1,0.8c0.7,2.9,1.2,5.8,2,8.7c0.1,0.2,0.1,0.4,0.1,0.6l-4.3-4
						c0-0.2-0.1-0.4-0.1-0.6c-0.7-2.9-1.3-5.8-2-8.7C284.8,62.1,284.7,61.8,284.7,61.6"/>
					<path class="st8" d="M286.9,71.6l4.3,4c0,0.1,0,0.2,0,0.4l-4.3-4C286.9,71.9,286.9,71.7,286.9,71.6"/>
					<path class="st7" d="M286.9,72l4.3,4c0,0.1,0,0.1,0,0.2l-4.3-4C286.9,72.1,286.9,72,286.9,72"/>
					<path class="st6" d="M286.9,72.2l4.3,4c0,0.1,0,0.1,0,0.1l-4.3-4C286.9,72.3,286.9,72.2,286.9,72.2"/>
					<path class="st5" d="M286.8,72.3l4.3,4c0,0,0,0.1-0.1,0.1l-4.3-4C286.8,72.4,286.8,72.4,286.8,72.3"/>
					<path class="st4" d="M286.8,72.5l4.3,4c0,0-0.1,0.1-0.1,0.1l-4.3-4C286.7,72.5,286.8,72.5,286.8,72.5"/>
					<path class="st3" d="M286.7,72.6l4.3,4c-0.1,0.1-0.3,0.2-0.5,0.3c-0.1,0-0.2,0-0.3,0c-0.5,0-1.1-0.3-1.5-0.6
						c-2.3-1.7-4.6-3.3-6.8-5.2c-0.7-0.6-1.4-1-2.2-1c-0.6,0-1.2,0.1-1.9,0.6c-2.7,1.7-5.5,3.2-8.4,4.7c-0.7,0.4-1.5,0.3-2.3,0.5
						l-4.3-4c0.8-0.2,1.6-0.1,2.3-0.5c2.8-1.5,5.6-3.1,8.4-4.7c0.7-0.4,1.3-0.6,1.9-0.6c0.7,0,1.4,0.4,2.2,1
						c2.2,1.8,4.5,3.5,6.8,5.2c0.4,0.3,1,0.6,1.5,0.6c0.1,0,0.2,0,0.3,0C286.4,72.8,286.6,72.7,286.7,72.6"/>
				</g>
			</g>
		</g>
		<g class="st1">
			<g class="st1">
				<defs>
					<path id="SVGID_31_" class="st1" d="M300.1,222.1l4.3,4c-0.1-0.1-0.2-0.2-0.3-0.2c-1.6-1.4-3.2-2.6-4.8-4
						c-0.2-0.2-0.4-0.3-0.6-0.5l-4.3-4c0.2,0.2,0.4,0.3,0.6,0.5c1.6,1.4,3.2,2.7,4.8,4C299.9,222,300,222.1,300.1,222.1z"/>
				</defs>
				<clipPath id="SVGID_32_">
					<use xlink:href="#SVGID_31_"  style="overflow:visible;"/>
				</clipPath>
				<g class="st26">
					<path class="st3" d="M300.1,222.1l4.3,4c-0.1-0.1-0.2-0.2-0.3-0.2c-1.6-1.4-3.2-2.6-4.8-4c-0.2-0.2-0.4-0.3-0.6-0.5l-4.3-4
						c0.2,0.2,0.4,0.3,0.6,0.5c1.6,1.4,3.2,2.7,4.8,4C299.9,222,300,222.1,300.1,222.1"/>
				</g>
			</g>
			<g class="st1">
				<defs>
					<path id="SVGID_33_" class="st1" d="M320.7,217.2l-4.3-4c-0.6-0.5-1-1.3-1.3-2.2c-0.2-0.5-0.2-1-0.4-1.4
						c-0.6-2.1-1.2-4.3-1.8-6.4c-0.2-0.6-0.7-1.2-1.1-1.8l4.3,4c0.4,0.6,0.9,1.2,1.1,1.8c0.7,2.1,1.2,4.3,1.8,6.4
						c0.1,0.5,0.2,1,0.4,1.4C319.7,215.9,320.1,216.7,320.7,217.2z"/>
				</defs>
				<clipPath id="SVGID_34_">
					<use xlink:href="#SVGID_33_"  style="overflow:visible;"/>
				</clipPath>
				<g class="st27">
					<path class="st10" d="M311.8,201.3l4.3,4c0.4,0.6,0.8,1.1,1.1,1.7l-4.3-4C312.7,202.4,312.2,201.9,311.8,201.3"/>
					<path class="st9" d="M312.9,203l4.3,4c0,0,0,0.1,0,0.1c0.7,2.1,1.2,4.3,1.8,6.4c0.1,0.5,0.2,1,0.4,1.4c0,0.1,0.1,0.3,0.1,0.4
						l-4.3-4c0-0.1-0.1-0.2-0.1-0.4c-0.2-0.5-0.2-1-0.4-1.4C314.2,207.4,313.6,205.2,312.9,203C312.9,203.1,312.9,203.1,312.9,203"
						/>
					<path class="st10" d="M315.3,211.3l4.3,4c0.2,0.6,0.5,1.1,0.8,1.5l-4.3-4C315.7,212.4,315.5,211.9,315.3,211.3"/>
					<path class="st9" d="M316.1,212.8l4.3,4c0.1,0.1,0.2,0.3,0.4,0.4l-4.3-4C316.3,213.1,316.2,212.9,316.1,212.8"/>
				</g>
			</g>
			<g class="st1">
				<defs>
					<path id="SVGID_35_" class="st1" d="M319.9,237.3l4.3,4c-0.3,0-0.6-0.4-0.9-0.6c-2.4-1.7-4.9-3.3-7.3-5
						c-0.7-0.5-1.4-0.8-2.1-0.8c-0.8,0-1.5,0.2-2.3,0.7c-2.3,1.5-4.6,2.9-7,4.2c-0.6,0.3-1.4,0.3-2,0.5l-4.3-4
						c0.7-0.1,1.5-0.1,2-0.5c2.4-1.3,4.7-2.7,7-4.2c0.8-0.5,1.6-0.8,2.3-0.7c0.7,0,1.4,0.3,2.1,0.8c2.4,1.7,4.9,3.4,7.3,5
						C319.3,237,319.6,237.3,319.9,237.3z"/>
				</defs>
				<clipPath id="SVGID_36_">
					<use xlink:href="#SVGID_35_"  style="overflow:visible;"/>
				</clipPath>
				<g class="st28">
					<path class="st3" d="M319.9,237.3l4.3,4c-0.3,0-0.6-0.4-0.9-0.6c-2.4-1.7-4.9-3.3-7.3-5c-0.7-0.5-1.4-0.8-2.1-0.8
						c-0.8,0-1.5,0.2-2.3,0.7c-2.3,1.5-4.6,2.9-7,4.2c-0.6,0.3-1.4,0.3-2,0.5l-4.3-4c0.7-0.1,1.5-0.1,2-0.5c2.4-1.3,4.7-2.7,7-4.2
						c0.8-0.5,1.6-0.8,2.3-0.7c0.7,0,1.4,0.3,2.1,0.8c2.4,1.7,4.9,3.4,7.3,5C319.3,237,319.6,237.3,319.9,237.3"/>
				</g>
			</g>
			<g class="st1">
				<defs>
					<path id="SVGID_37_" class="st1" d="M329.5,215.1l4.3,4c0.4,0.4,0.4,1-0.2,1.5c-0.3,0.4-0.7,0.7-1.1,1
						c-2.4,1.7-4.8,3.5-7.2,5.2c-1.5,1.1-2,2.3-1.5,4.1c0.7,2.7,1.2,5.5,1.8,8.3c0.1,0.4,0.2,0.7,0.4,1.4l-4.3-4
						c-0.2-0.7-0.3-1-0.4-1.4c-0.6-2.8-1.1-5.6-1.8-8.3c-0.5-1.9,0-3.1,1.5-4.1c2.4-1.7,4.8-3.5,7.2-5.2c0.4-0.3,0.8-0.6,1.1-1
						C329.9,216.1,329.9,215.5,329.5,215.1z"/>
				</defs>
				<clipPath id="SVGID_38_">
					<use xlink:href="#SVGID_37_"  style="overflow:visible;"/>
				</clipPath>
				<g class="st29">
					<path class="st9" d="M329.5,215.1l4.3,4c0,0,0.1,0.1,0.1,0.1l-4.3-4C329.6,215.2,329.5,215.1,329.5,215.1"/>
					<path class="st10" d="M329.6,215.2l4.3,4c0.1,0.1,0.1,0.1,0.1,0.2l-4.3-4C329.7,215.4,329.7,215.3,329.6,215.2"/>
					<path class="st9" d="M329.7,215.4l4.3,4c0,0.1,0,0.1,0,0.2l-4.3-4C329.8,215.6,329.8,215.5,329.7,215.4"/>
					<path class="st8" d="M329.8,215.6l4.3,4c0,0,0,0.1,0,0.1l-4.3-4C329.8,215.7,329.8,215.7,329.8,215.6"/>
					<path class="st7" d="M329.8,215.8l4.3,4c0,0,0,0.1,0,0.1l-4.3-4C329.8,215.9,329.8,215.8,329.8,215.8"/>
					<path class="st6" d="M329.8,215.9l4.3,4c0,0,0,0.1,0,0.1l-4.3-4C329.7,216,329.8,216,329.8,215.9"/>
					<path class="st5" d="M329.7,216.1l4.3,4c0,0.1,0,0.1-0.1,0.2l-4.3-4C329.7,216.2,329.7,216.1,329.7,216.1"/>
					<path class="st4" d="M329.6,216.2l4.3,4c0,0.1-0.1,0.2-0.2,0.2l-4.3-4C329.5,216.4,329.6,216.3,329.6,216.2"/>
					<path class="st3" d="M329.5,216.5l4.3,4c0,0-0.1,0.1-0.1,0.1c-0.3,0.4-0.7,0.7-1.1,1c-2.4,1.7-4.8,3.5-7.2,5.2
						c-0.4,0.3-0.8,0.6-1.1,1l-4.3-4c0.3-0.3,0.6-0.7,1.1-1c2.4-1.7,4.8-3.5,7.2-5.2c0.4-0.3,0.8-0.6,1.1-1
						C329.4,216.6,329.4,216.5,329.5,216.5"/>
					<path class="st4" d="M319.9,223.8l4.3,4c-0.1,0.1-0.2,0.3-0.3,0.5l-4.3-4C319.7,224.1,319.8,223.9,319.9,223.8"/>
					<path class="st5" d="M319.6,224.2l4.3,4c-0.1,0.1-0.1,0.3-0.2,0.4l-4.3-4C319.5,224.5,319.6,224.4,319.6,224.2"/>
					<path class="st6" d="M319.5,224.6l4.3,4c0,0.1-0.1,0.3-0.1,0.4l-4.3-4C319.4,224.9,319.4,224.7,319.5,224.6"/>
					<path class="st7" d="M319.3,225l4.3,4c0,0.1-0.1,0.3-0.1,0.4l-4.3-4C319.3,225.3,319.3,225.1,319.3,225"/>
					<path class="st8" d="M319.3,225.4l4.3,4c0,0.2,0,0.4,0,0.6l-4.3-4C319.3,225.9,319.3,225.6,319.3,225.4"/>
					<path class="st9" d="M319.3,226.1l4.3,4c0,0.3,0.1,0.6,0.2,0.9c0.7,2.7,1.2,5.5,1.8,8.3c0.1,0.4,0.2,0.7,0.4,1.4l-4.3-4
						c-0.2-0.7-0.3-1-0.4-1.4c-0.6-2.8-1.1-5.6-1.8-8.3C319.4,226.7,319.3,226.4,319.3,226.1"/>
				</g>
			</g>
			<g>
				<path class="st15" d="M311.8,201.3c0.4,0.6,0.9,1.2,1.1,1.8c0.7,2.1,1.2,4.3,1.8,6.4c0.1,0.5,0.2,1,0.4,1.4
					c0.6,2,1.8,3.2,3.9,3.3c0.1,0,0.3,0,0.4,0c0.8,0,1.7,0,2.5,0.1c1.5,0.1,3.1,0.2,4.6,0.3c0.3,0,0.6,0,0.9,0
					c0.5,0,0.9,0.1,1.4,0.2c1.1,0.2,1.3,1.1,0.6,1.9c-0.3,0.4-0.7,0.7-1.1,1c-2.4,1.7-4.8,3.5-7.2,5.2c-1.5,1.1-2,2.3-1.5,4.1
					c0.7,2.7,1.2,5.5,1.8,8.3c0.1,0.4,0.2,0.7,0.4,1.4c-0.6,0.2-1.1,0.6-1.7,0.7c-0.3,0-0.6-0.4-0.9-0.6c-2.4-1.7-4.9-3.3-7.3-5
					c-0.7-0.5-1.4-0.8-2.1-0.8c-0.8,0-1.5,0.2-2.3,0.7c-2.3,1.5-4.6,2.9-7,4.2c-0.6,0.3-1.4,0.3-2,0.5c0-0.7-0.3-1.4-0.1-2
					c0.8-3,1.6-5.9,2.7-8.8c0.6-1.6,0.1-2.6-1-3.6c-1.6-1.4-3.2-2.6-4.8-4c-0.7-0.6-1.5-1.4-2-2.2c-0.4-0.5-0.8-1.4-0.6-1.9
					c0.1-0.4,1.2-0.7,1.8-0.7c2.6,0,5.2,0.2,7.8,0.3c3,0.1,4.2-0.7,5.3-3.6c0.9-2.3,1.8-4.6,2.9-6.8
					C310.4,202.3,311.2,201.8,311.8,201.3z"/>
			</g>
			<g class="st1">
				<defs>
					<path id="SVGID_39_" class="st1" d="M321.7,236.7l4.3,4c-0.6,0.2-1.1,0.6-1.7,0.7l-4.3-4C320.5,237.2,321.1,236.9,321.7,236.7z
						"/>
				</defs>
				<clipPath id="SVGID_40_">
					<use xlink:href="#SVGID_39_"  style="overflow:visible;"/>
				</clipPath>
				<g class="st30">
					<path class="st3" d="M321.7,236.7l4.3,4c-0.6,0.2-1.1,0.6-1.7,0.7l-4.3-4C320.5,237.2,321.1,236.9,321.7,236.7"/>
				</g>
			</g>
		</g>
		<g class="st1">
			<g class="st1">
				<defs>
					<path id="SVGID_41_" class="st1" d="M254.9,260.7l4.3,4c-0.2-0.2-0.5-0.4-0.8-0.7c-1.9-1.7-3.9-3.3-5.8-5.1l-4.3-4
						c1.9,1.7,3.9,3.4,5.8,5.1C254.4,260.3,254.7,260.5,254.9,260.7z"/>
				</defs>
				<clipPath id="SVGID_42_">
					<use xlink:href="#SVGID_41_"  style="overflow:visible;"/>
				</clipPath>
				<g class="st31">
					<path class="st3" d="M254.9,260.7l4.3,4c-0.2-0.2-0.5-0.4-0.8-0.7c-1.9-1.7-3.9-3.3-5.8-5.1l-4.3-4c1.9,1.7,3.9,3.4,5.8,5.1
						C254.4,260.3,254.7,260.5,254.9,260.7"/>
				</g>
			</g>
			<g class="st1">
				<defs>
					<path id="SVGID_43_" class="st1" d="M276,256.4l-4.3-4c-0.4-0.4-0.8-1-1-1.7c-0.8-2.9-1.6-5.7-2.4-8.5c-0.2-0.6-0.6-1.2-1-1.8
						l4.3,4c0.3,0.6,0.8,1.2,1,1.8c0.9,2.8,1.6,5.7,2.4,8.5C275.2,255.4,275.6,256,276,256.4z"/>
				</defs>
				<clipPath id="SVGID_44_">
					<use xlink:href="#SVGID_43_"  style="overflow:visible;"/>
				</clipPath>
				<g class="st32">
					<path class="st10" d="M267.4,240.4l4.3,4c0.3,0.5,0.7,1.1,0.9,1.6l-4.3-4C268.1,241.4,267.7,240.9,267.4,240.4"/>
					<path class="st9" d="M268.3,242l4.3,4c0,0.1,0,0.1,0.1,0.2c0.9,2.8,1.6,5.7,2.4,8.5c0,0.1,0.1,0.3,0.1,0.4l-4.3-4
						c0-0.1-0.1-0.3-0.1-0.4c-0.8-2.9-1.6-5.7-2.4-8.5C268.3,242.1,268.3,242,268.3,242"/>
					<path class="st10" d="M270.9,251.1l4.3,4c0.1,0.4,0.3,0.7,0.6,1l-4.3-4C271.2,251.8,271.1,251.5,270.9,251.1"/>
					<path class="st9" d="M271.5,252.1l4.3,4c0.1,0.1,0.2,0.2,0.3,0.3l-4.3-4C271.6,252.3,271.6,252.2,271.5,252.1"/>
				</g>
			</g>
			<g>
				<path class="st15" d="M267.4,240.4c0.3,0.6,0.8,1.2,1,1.8c0.9,2.8,1.6,5.7,2.4,8.5c0.5,1.6,1.5,2.4,3.2,2.6
					c3.3,0.3,6.6,0.7,9.9,1.2c0.5,0.1,1,0.4,1.6,0.7c-0.4,0.6-0.6,0.9-0.8,1.2c-0.8,0.6-1.5,1.2-2.4,1.8c-0.8,0.6-1.8,0.9-2.5,1.5
					c-1.6,1.2-3.3,2.4-4.5,3.9c-1.4,1.7,0.3,3.5,0.5,5.2c0.3,2.3,0.9,4.6,1.1,6.9c0.1,0.9-0.2,1.4-0.7,1.4c-0.3,0-0.7-0.2-1.2-0.5
					c-2.3-1.7-4.5-3.3-6.7-5.1c-1.2-0.9-2.1-1.4-3-1.4c-1,0-2,0.4-3.3,1.2c-2.3,1.5-4.6,2.9-7,4.3c-0.5,0.3-1.1,0.2-1.7,0.3
					c0-0.6-0.2-1.2,0-1.7c0.8-2.7,1.7-5.4,2.7-8.1c1.3-3.2,0.5-4.1-1.8-6.1c-1.9-1.7-3.9-3.3-5.8-5.1c-0.4-0.4-0.5-1.1-0.7-1.6
					c0.5-0.2,1.1-0.5,1.6-0.5c3.2-0.1,6.4-0.3,9.6-0.3c1.6,0,2.6-0.6,3.2-2c1-2.5,2.1-5,3.1-7.5c0.2-0.5,0.2-1,0.5-1.4
					C266.1,241.1,266.8,240.8,267.4,240.4z"/>
			</g>
			<g class="st1">
				<defs>
					<path id="SVGID_45_" class="st1" d="M285.4,255.1l4.3,4c-0.4,0.6-0.6,0.9-0.8,1.2c-0.8,0.6-1.5,1.2-2.4,1.8
						c-0.8,0.6-1.8,0.9-2.5,1.5c-1.6,1.2-3.3,2.4-4.5,3.9c-1.4,1.7,0.3,3.5,0.5,5.2c0.3,2.3,0.9,4.6,1.1,6.9
						c0.1,0.9-0.2,1.4-0.7,1.4c-0.3,0-0.7-0.2-1.2-0.5c-2.3-1.7-4.5-3.3-6.7-5.1c-1.2-0.9-2.1-1.4-3-1.4c-1,0-2,0.4-3.3,1.2
						c-2.3,1.5-4.6,2.9-7,4.3c-0.5,0.3-1.1,0.2-1.7,0.3l-4.3-4c0.6-0.1,1.2,0,1.7-0.3c2.3-1.4,4.7-2.9,7-4.3
						c1.3-0.9,2.3-1.3,3.3-1.2c0.9,0,1.9,0.5,3,1.4c2.2,1.7,4.5,3.4,6.7,5.1c0.5,0.3,0.9,0.5,1.2,0.5c0.5,0,0.7-0.4,0.7-1.4
						c-0.2-2.3-0.8-4.6-1.1-6.9c-0.2-1.8-1.9-3.5-0.5-5.2c1.2-1.5,2.9-2.7,4.5-3.9c0.8-0.6,1.7-1,2.5-1.5c0.8-0.6,1.6-1.2,2.4-1.8
						C284.9,256.1,285,255.7,285.4,255.1z"/>
				</defs>
				<clipPath id="SVGID_46_">
					<use xlink:href="#SVGID_45_"  style="overflow:visible;"/>
				</clipPath>
				<g class="st33">
					<path class="st4" d="M285.4,255.1l4.3,4c-0.3,0.4-0.5,0.7-0.6,1l-4.3-4C285,255.9,285.1,255.6,285.4,255.1"/>
					<path class="st3" d="M284.8,256.1l4.3,4c-0.1,0.1-0.1,0.1-0.2,0.2c-0.8,0.6-1.5,1.2-2.4,1.8c-0.8,0.6-1.8,0.9-2.5,1.5
						c-1.6,1.2-3.3,2.4-4.5,3.9c0,0,0,0,0,0l-4.3-4c0,0,0,0,0,0c1.2-1.5,2.9-2.7,4.5-3.9c0.8-0.6,1.7-1,2.5-1.5
						c0.8-0.6,1.6-1.2,2.4-1.8C284.7,256.3,284.7,256.2,284.8,256.1"/>
					<path class="st4" d="M275.2,263.6l4.3,4c-0.1,0.1-0.2,0.2-0.2,0.4l-4.3-4C275,263.8,275.1,263.7,275.2,263.6"/>
					<path class="st5" d="M274.9,263.9l4.3,4c-0.1,0.1-0.1,0.2-0.1,0.3l-4.3-4C274.8,264.1,274.9,264,274.9,263.9"/>
					<path class="st6" d="M274.8,264.2l4.3,4c0,0.1-0.1,0.2-0.1,0.3l-4.3-4C274.7,264.4,274.8,264.3,274.8,264.2"/>
					<path class="st7" d="M274.7,264.5l4.3,4c0,0.1,0,0.2,0,0.3l-4.3-4C274.7,264.7,274.7,264.6,274.7,264.5"/>
					<path class="st8" d="M274.7,264.8l4.3,4c0,0.1,0,0.3,0,0.4l-4.3-4C274.7,265.1,274.7,265,274.7,264.8"/>
					<path class="st9" d="M274.7,265.3l4.3,4c0,0.4,0.2,0.8,0.3,1.3l-4.3-4C274.8,266.1,274.7,265.7,274.7,265.3"/>
					<path class="st10" d="M275,266.5l4.3,4c0.1,0.3,0.3,0.7,0.4,1l-4.3-4C275.3,267.2,275.1,266.9,275,266.5"/>
					<path class="st9" d="M275.4,267.5l4.3,4c0.2,0.4,0.3,0.8,0.3,1.2c0.2,2.2,0.8,4.4,1.1,6.6l-4.3-4c-0.2-2.2-0.8-4.4-1.1-6.6
						C275.7,268.4,275.5,268,275.4,267.5"/>
					<path class="st8" d="M276.8,275.4l4.3,4c0,0.1,0,0.2,0,0.3c0,0.2,0,0.4,0,0.5l-4.3-4c0-0.2,0-0.3,0-0.5
						C276.8,275.6,276.8,275.5,276.8,275.4"/>
					<path class="st7" d="M276.8,276.2l4.3,4c0,0.1,0,0.2,0,0.3l-4.3-4C276.8,276.4,276.8,276.3,276.8,276.2"/>
					<path class="st6" d="M276.8,276.5l4.3,4c0,0.1,0,0.1,0,0.2l-4.3-4C276.7,276.6,276.8,276.5,276.8,276.5"/>
					<path class="st5" d="M276.7,276.6l4.3,4c0,0,0,0.1-0.1,0.1l-4.3-4C276.7,276.7,276.7,276.7,276.7,276.6"/>
					<path class="st4" d="M276.7,276.8l4.3,4c0,0,0,0.1-0.1,0.1L276.7,276.8C276.6,276.8,276.7,276.8,276.7,276.8"/>
					<path class="st3" d="M276.6,276.9l4.3,4c-0.1,0.1-0.3,0.2-0.5,0.2c-0.3,0-0.7-0.2-1.2-0.5c-2.3-1.7-4.5-3.3-6.7-5.1
						c-1.2-0.9-2.1-1.4-3-1.4c-1,0-2,0.4-3.3,1.2c-2.3,1.5-4.6,2.9-7,4.3c-0.5,0.3-1.1,0.2-1.7,0.3l-4.3-4c0.6-0.1,1.2,0,1.7-0.3
						c2.3-1.4,4.7-2.9,7-4.3c1.3-0.9,2.3-1.3,3.3-1.2c0.9,0,1.9,0.5,3,1.4c2.2,1.7,4.5,3.4,6.7,5.1c0.5,0.3,0.9,0.5,1.2,0.5
						C276.3,277.1,276.5,277,276.6,276.9"/>
				</g>
			</g>
		</g>
		<g class="st1">
			<g class="st1">
				<defs>
					<path id="SVGID_47_" class="st1" d="M307.3,100.1l4.3,4c-0.3-0.2-0.5-0.5-0.8-0.7c-1.9-1.6-3.9-3-5.8-4.6c0,0-0.1,0-0.1-0.1
						l-4.3-4c0,0,0.1,0,0.1,0.1c1.9,1.6,3.9,3,5.8,4.6C306.7,99.6,307,99.9,307.3,100.1z"/>
				</defs>
				<clipPath id="SVGID_48_">
					<use xlink:href="#SVGID_47_"  style="overflow:visible;"/>
				</clipPath>
				<g class="st34">
					<path class="st3" d="M307.3,100.1l4.3,4c-0.3-0.2-0.5-0.5-0.8-0.7c-1.9-1.6-3.9-3-5.8-4.6c0,0-0.1,0-0.1-0.1l-4.3-4
						c0,0,0.1,0,0.1,0.1c1.9,1.6,3.9,3,5.8,4.6C306.7,99.6,307,99.9,307.3,100.1"/>
				</g>
			</g>
			<g class="st1">
				<defs>
					<path id="SVGID_49_" class="st1" d="M320,80.5l4.3,4c0.2,0.2,0.4,0.5,0.5,0.9c0.8,2.5,1.6,4.9,2.4,7.4c0.5,1.7,1,2.7,1.6,3.3
						l-4.3-4c-0.7-0.6-1.1-1.7-1.6-3.3c-0.8-2.5-1.5-5-2.4-7.4C320.4,81,320.2,80.7,320,80.5z"/>
				</defs>
				<clipPath id="SVGID_50_">
					<use xlink:href="#SVGID_49_"  style="overflow:visible;"/>
				</clipPath>
				<g class="st35">
					<path class="st9" d="M320,80.5l4.3,4c0,0,0.1,0.1,0.1,0.1l-4.3-4C320.1,80.6,320,80.6,320,80.5"/>
					<path class="st10" d="M320.1,80.7l4.3,4c0.1,0.2,0.2,0.4,0.4,0.7l-4.3-4C320.4,81,320.2,80.8,320.1,80.7"/>
					<path class="st9" d="M320.5,81.3l4.3,4c0,0,0,0.1,0,0.1c0.8,2.5,1.6,4.9,2.4,7.4c0.1,0.5,0.3,0.9,0.4,1.2l-4.3-4
						c-0.1-0.4-0.3-0.8-0.4-1.2C322.1,86.4,321.4,83.9,320.5,81.3C320.5,81.4,320.5,81.4,320.5,81.3"/>
					<path class="st10" d="M323.3,90l4.3,4c0.3,0.8,0.6,1.3,0.9,1.8l-4.3-4C323.8,91.4,323.6,90.8,323.3,90"/>
					<path class="st9" d="M324.2,91.8l4.3,4c0.1,0.1,0.2,0.2,0.3,0.4l-4.3-4C324.4,92.1,324.3,91.9,324.2,91.8"/>
				</g>
			</g>
			<g>
				<path class="st15" d="M319.5,80.3c0.4,0,0.7,0.4,1,1.1c0.8,2.5,1.6,4.9,2.4,7.4c1.1,3.7,1.8,4.2,5.8,4.5c0.4,0,0.8,0,1.2,0.1
					c0.4,0,0.8,0,1.2,0.1c0.4,0,0.8,0,1.3,0.1c1,0,2.1,0.1,3.1,0.2c0.7,0.1,1.4,0.8,2,1.3c-0.4,0.6-0.7,1.3-1.2,1.7
					c-2.2,1.6-4.4,3.3-6.8,4.6c-2.1,1.1-2.4,2.6-1.8,4.6c0.5,1.8,0.9,3.6,1.3,5.4c0.2,1.3,0.2,2.7,0.2,4.1c0,0.7-0.4,1-0.9,1
					c-0.2,0-0.5-0.1-0.7-0.3c-2.2-1.6-4.3-3.3-6.5-4.9c-0.5-0.4-1-0.8-1.5-1.1c-0.6-0.4-1.1-0.6-1.7-0.6c-0.5,0-1.1,0.1-1.7,0.6
					c-2.3,1.6-4.8,3-7.3,4.5c-0.5,0.3-1,0.8-1.6,0.9c-0.1,0-0.3,0-0.4,0c-0.4,0-0.9-0.2-1.3-0.4c-0.2-0.1,0-0.9,0.1-1.3
					c0.8-2.3,1.6-4.7,2.4-7c0.3-0.9,0.5-1.9,0.8-2.8c0.4-2.1-1-3.3-2.3-4.4c-1.9-1.6-3.9-3-5.8-4.6c-0.5-0.4-1-1.3-0.9-1.7
					c0.2-0.5,1.1-1,1.8-1c1.7,0,3.4,0.1,5.1,0.2c0.6,0,1.3,0.1,2,0.1c4.5,0.2,4.7,0,6.4-4c0.8-1.9,1.5-3.9,2.3-5.8
					c0.2-0.6,0.6-1.1,1-1.5C318.8,80.5,319.2,80.3,319.5,80.3z"/>
			</g>
			<g class="st1">
				<defs>
					<path id="SVGID_51_" class="st1" d="M309.7,119l-4.3-4c0,0,0,0,0,0c0.4,0.2,0.9,0.4,1.3,0.4c0.1,0,0.3,0,0.4,0
						c0.6-0.1,1.1-0.6,1.6-0.9c2.4-1.5,4.9-2.9,7.3-4.5c0.6-0.4,1.2-0.6,1.7-0.6c0.6,0,1.1,0.3,1.7,0.6c0.5,0.3,1,0.7,1.5,1.1
						c2.2,1.6,4.3,3.3,6.5,4.9c0.3,0.2,0.5,0.3,0.7,0.3c0.5,0,0.8-0.3,0.9-1c0.1-1.3,0-2.7-0.2-4.1c-0.3-1.8-0.8-3.6-1.3-5.4
						c-0.5-2-0.3-3.5,1.8-4.6c2.4-1.3,4.6-3,6.8-4.6c0.5-0.4,0.8-1.1,1.2-1.7l4.3,4c-0.4,0.6-0.7,1.3-1.2,1.7
						c-2.2,1.6-4.4,3.3-6.8,4.6c-2.1,1.1-2.4,2.6-1.8,4.6c0.5,1.8,0.9,3.6,1.3,5.4c0.2,1.3,0.2,2.7,0.2,4.1c0,0.7-0.4,1-0.9,1
						c-0.2,0-0.5-0.1-0.7-0.3c-2.2-1.6-4.3-3.3-6.5-4.9c-0.5-0.4-1-0.8-1.5-1.1c-0.6-0.4-1.1-0.6-1.7-0.6c-0.5,0-1.1,0.1-1.7,0.6
						c-2.3,1.6-4.8,3-7.3,4.5c-0.5,0.3-1,0.8-1.6,0.9c-0.1,0-0.3,0-0.4,0C310.6,119.4,310.1,119.2,309.7,119
						C309.7,119,309.7,119,309.7,119z"/>
				</defs>
				<clipPath id="SVGID_52_">
					<use xlink:href="#SVGID_51_"  style="overflow:visible;"/>
				</clipPath>
				<g class="st36">
					<path class="st4" d="M337.4,95l4.3,4c-0.3,0.4-0.5,1-0.9,1.4l-4.3-4C336.8,95.9,337.1,95.4,337.4,95"/>
					<path class="st3" d="M336.5,96.4l4.3,4c-0.1,0.1-0.2,0.3-0.4,0.4c-2.2,1.6-4.4,3.3-6.8,4.6c-0.6,0.3-1.1,0.7-1.4,1.1l-4.3-4
						c0.3-0.4,0.8-0.8,1.4-1.1c2.4-1.3,4.6-3,6.8-4.6C336.3,96.6,336.4,96.5,336.5,96.4"/>
					<path class="st4" d="M327.9,102.4l4.3,4c-0.1,0.1-0.2,0.3-0.3,0.4l-4.3-4C327.7,102.7,327.8,102.6,327.9,102.4"/>
					<path class="st5" d="M327.6,102.8l4.3,4c-0.1,0.1-0.1,0.2-0.2,0.4l-4.3-4C327.5,103.1,327.6,103,327.6,102.8"/>
					<path class="st6" d="M327.5,103.2l4.3,4c0,0.1-0.1,0.3-0.1,0.4l-4.3-4C327.4,103.5,327.4,103.3,327.5,103.2"/>
					<path class="st7" d="M327.4,103.6l4.3,4c0,0.2-0.1,0.3-0.1,0.5l-4.3-4C327.3,103.9,327.3,103.7,327.4,103.6"/>
					<path class="st8" d="M327.3,104.1l4.3,4c0,0.2,0,0.5,0,0.7l-4.3-4C327.3,104.6,327.3,104.3,327.3,104.1"/>
					<path class="st9" d="M327.3,104.8l4.3,4c0,0.4,0.1,0.7,0.2,1.1c0.5,1.8,0.9,3.6,1.3,5.4c0.1,0.3,0.1,0.6,0.1,1l-4.3-4
						c0-0.3-0.1-0.6-0.1-1c-0.3-1.8-0.8-3.6-1.3-5.4C327.4,105.5,327.3,105.2,327.3,104.8"/>
					<path class="st8" d="M328.9,112.3l4.3,4c0.1,1,0.1,2.1,0,3.1c0,0,0,0,0,0l-4.3-4c0,0,0,0,0,0C329,114.4,329,113.3,328.9,112.3"
						/>
					<path class="st7" d="M328.9,115.4l4.3,4c0,0.1,0,0.2,0,0.2l-4.3-4C328.9,115.6,328.9,115.5,328.9,115.4"/>
					<path class="st6" d="M328.9,115.7l4.3,4c0,0.1,0,0.1-0.1,0.2l-4.3-4C328.9,115.8,328.9,115.7,328.9,115.7"/>
					<path class="st5" d="M328.8,115.8l4.3,4c0,0.1,0,0.1-0.1,0.1l-4.3-4C328.8,115.9,328.8,115.9,328.8,115.8"/>
					<path class="st4" d="M328.8,116l4.3,4c0,0-0.1,0.1-0.1,0.1l-4.3-4C328.7,116.1,328.7,116,328.8,116"/>
					<path class="st3" d="M328.7,116.1l4.3,4c-0.2,0.2-0.4,0.3-0.6,0.3c-0.2,0-0.5-0.1-0.7-0.3c-2.2-1.6-4.3-3.3-6.5-4.9
						c-0.5-0.4-1-0.8-1.5-1.1c-0.6-0.4-1.1-0.6-1.7-0.6c-0.5,0-1.1,0.1-1.7,0.6c-2.3,1.6-4.8,3-7.3,4.5c-0.5,0.3-1,0.8-1.6,0.9
						c-0.1,0-0.3,0-0.4,0c-0.4,0-0.9-0.2-1.3-0.4c0,0,0,0,0,0l-4.3-4c0,0,0,0,0,0c0.4,0.2,0.9,0.4,1.3,0.4c0.1,0,0.3,0,0.4,0
						c0.6-0.1,1.1-0.6,1.6-0.9c2.4-1.5,4.9-2.9,7.3-4.5c0.6-0.4,1.2-0.6,1.7-0.6c0.6,0,1.1,0.3,1.7,0.6c0.5,0.3,1,0.7,1.5,1.1
						c2.2,1.6,4.3,3.3,6.5,4.9c0.3,0.2,0.5,0.3,0.7,0.3C328.3,116.4,328.5,116.3,328.7,116.1"/>
				</g>
			</g>
		</g>
		<g class="st1">
			<g class="st1">
				<defs>
					<path id="SVGID_53_" class="st1" d="M95.7,210.1l4.3,4c0,0-0.1-0.1-0.1-0.1c-1.6-1.5-3.3-2.9-5-4.4c-0.4-0.3-0.7-0.7-1.1-1
						l-4.3-4c0.4,0.3,0.7,0.7,1.1,1C92.2,207.1,93.9,208.5,95.7,210.1C95.6,210,95.6,210,95.7,210.1z"/>
				</defs>
				<clipPath id="SVGID_54_">
					<use xlink:href="#SVGID_53_"  style="overflow:visible;"/>
				</clipPath>
				<g class="st37">
					<path class="st3" d="M95.7,210.1l4.3,4c0,0-0.1-0.1-0.1-0.1c-1.6-1.5-3.3-2.9-5-4.4c-0.4-0.3-0.7-0.7-1.1-1l-4.3-4
						c0.4,0.3,0.7,0.7,1.1,1C92.2,207.1,93.9,208.5,95.7,210.1C95.6,210,95.6,210,95.7,210.1"/>
				</g>
			</g>
			<g class="st1">
				<defs>
					<path id="SVGID_55_" class="st1" d="M116,205l-4.3-4c-0.6-0.6-1-1.3-1.3-2.1c-0.8-2.6-1.6-5.2-2.4-7.8c-0.2-0.6-0.6-1.2-1-1.8
						l4.3,4c0.3,0.6,0.8,1.2,1,1.8c0.8,2.6,1.6,5.2,2.4,7.8C115,203.7,115.4,204.5,116,205z"/>
				</defs>
				<clipPath id="SVGID_56_">
					<use xlink:href="#SVGID_55_"  style="overflow:visible;"/>
				</clipPath>
				<g class="st38">
					<path class="st10" d="M107.1,189.3l4.3,4c0.3,0.6,0.7,1.1,0.9,1.7l-4.3-4C107.8,190.4,107.4,189.9,107.1,189.3"/>
					<path class="st9" d="M108,191l4.3,4c0,0,0,0.1,0,0.1c0.8,2.6,1.6,5.2,2.4,7.8c0,0.1,0.1,0.2,0.1,0.4l-4.3-4
						c0-0.1-0.1-0.2-0.1-0.4c-0.8-2.6-1.6-5.2-2.4-7.8C108.1,191.1,108,191,108,191"/>
					<path class="st10" d="M110.6,199.2l4.3,4c0.2,0.5,0.4,0.9,0.7,1.3l-4.3-4C111,200.2,110.8,199.7,110.6,199.2"/>
					<path class="st9" d="M111.3,200.6l4.3,4c0.1,0.2,0.3,0.3,0.4,0.4l-4.3-4C111.6,200.9,111.5,200.7,111.3,200.6"/>
				</g>
			</g>
			<g>
				<path class="st15" d="M107.1,189.3c0.3,0.6,0.8,1.2,1,1.8c0.8,2.6,1.6,5.2,2.4,7.8c0.6,1.9,1.9,3.1,4,3.3c2.5,0.2,5,0.3,7.4,0.4
					c0.7,0,1.5,0.2,2.2,0.4c0.5,0.1,0.9,0.5,1.5,0.8c-1,1-1.4,1.7-2,2.1c-2.1,1.5-4.2,3.2-6.5,4.3c-2.3,1.2-2.5,2.7-2,4.9
					c0.7,3,1.2,6,1.8,9.1c0.2,0.9-0.2,1.4-0.8,1.4c-0.2,0-0.4-0.1-0.7-0.2c-1.4-0.8-2.7-1.8-4-2.7c-0.6-0.4-1.2-0.9-1.8-1.3
					c-2.3-1.7-3.4-2.5-4.6-2.6c-1.2-0.1-2.4,0.7-4.9,2.2c-1.7,1.1-3.3,2.3-5,3.2c-0.7,0.4-1.6,0.3-2.3,0.4c0.1-0.7,0.1-1.4,0.3-2.1
					c1-3,2-6.1,3.3-9c0.7-1.6,0.2-2.6-0.9-3.6c-1.6-1.5-3.3-2.9-5-4.4c-0.9-0.8-1.8-1.7-2.7-2.6c-0.3-0.3-0.5-1-0.4-1.2
					c0.2-0.4,0.8-0.7,1.2-0.7c2.9,0,5.7,0.2,8.6,0.3c3.6,0.1,3.9-0.1,5.2-3.5c0.9-2.3,1.8-4.6,2.8-6.9
					C105.7,190.4,106.5,189.9,107.1,189.3z"/>
			</g>
			<g class="st1">
				<defs>
					<path id="SVGID_57_" class="st1" d="M125.5,203.7l4.3,4c-1,1-1.4,1.7-2,2.1c-2.1,1.5-4.2,3.2-6.5,4.3c-2.3,1.2-2.5,2.7-2,4.9
						c0.7,3,1.2,6,1.8,9.1c0.2,0.9-0.2,1.4-0.8,1.4c-0.2,0-0.4-0.1-0.7-0.2c-1.4-0.8-2.7-1.8-4-2.7c-0.6-0.4-1.2-0.9-1.8-1.3
						c-2.3-1.7-3.4-2.5-4.6-2.6c-1.2-0.1-2.4,0.7-4.9,2.2c-1.7,1.1-3.3,2.3-5,3.2c-0.7,0.4-1.6,0.3-2.3,0.4l-4.3-4
						c0.8-0.1,1.7-0.1,2.3-0.4c1.7-1,3.3-2.2,5-3.2c2.5-1.5,3.7-2.3,4.9-2.2c1.2,0.1,2.3,0.9,4.6,2.6c0.6,0.4,1.2,0.9,1.8,1.3
						c1.3,0.9,2.6,1.9,4,2.7c0.2,0.1,0.5,0.2,0.7,0.2c0.6,0,1-0.5,0.8-1.4c-0.6-3-1.1-6.1-1.8-9.1c-0.5-2.2-0.3-3.7,2-4.9
						c2.3-1.2,4.4-2.8,6.5-4.3C124.1,205.4,124.6,204.8,125.5,203.7z"/>
				</defs>
				<clipPath id="SVGID_58_">
					<use xlink:href="#SVGID_57_"  style="overflow:visible;"/>
				</clipPath>
				<g class="st39">
					<path class="st3" d="M125.5,203.7l4.3,4c-1,1-1.4,1.7-2,2.1c-2.1,1.5-4.2,3.2-6.5,4.3c-0.7,0.4-1.2,0.8-1.6,1.2l-4.3-4
						c0.4-0.4,0.9-0.8,1.6-1.2c2.3-1.2,4.4-2.8,6.5-4.3C124.1,205.4,124.6,204.8,125.5,203.7"/>
					<path class="st4" d="M115.5,211.4l4.3,4c-0.1,0.1-0.2,0.3-0.3,0.4l-4.3-4C115.3,211.6,115.4,211.5,115.5,211.4"/>
					<path class="st5" d="M115.2,211.8l4.3,4c-0.1,0.1-0.1,0.2-0.2,0.4l-4.3-4C115.1,212,115.2,211.9,115.2,211.8"/>
					<path class="st6" d="M115.1,212.2l4.3,4c0,0.1-0.1,0.3-0.1,0.4l-4.3-4C115,212.4,115,212.3,115.1,212.2"/>
					<path class="st7" d="M114.9,212.6l4.3,4c0,0.2-0.1,0.3-0.1,0.5l-4.3-4C114.9,212.9,114.9,212.7,114.9,212.6"/>
					<path class="st8" d="M114.9,213.1l4.3,4c0,0.2,0,0.5,0,0.8l-4.3-4C114.9,213.6,114.9,213.3,114.9,213.1"/>
					<path class="st9" d="M114.9,213.8l4.3,4c0,0.4,0.1,0.8,0.2,1.2c0.7,3,1.2,6,1.8,9.1c0,0.1,0,0.1,0,0.2l-4.3-4
						c0-0.1,0-0.1,0-0.2c-0.6-3-1.1-6.1-1.8-9.1C115,214.6,114.9,214.2,114.9,213.8"/>
					<path class="st8" d="M116.9,224.4l4.3,4c0,0.1,0,0.2,0,0.3l-4.3-4C116.9,224.6,116.9,224.5,116.9,224.4"/>
					<path class="st7" d="M116.9,224.7l4.3,4c0,0.1,0,0.1,0,0.2l-4.3-4C116.9,224.8,116.9,224.7,116.9,224.7"/>
					<path class="st6" d="M116.9,224.9l4.3,4c0,0.1,0,0.1,0,0.2l-4.3-4C116.9,225,116.9,224.9,116.9,224.9"/>
					<path class="st5" d="M116.9,225l4.3,4c0,0,0,0.1-0.1,0.1l-4.3-4C116.8,225.1,116.9,225,116.9,225"/>
					<path class="st4" d="M116.8,225.1l4.3,4c0,0,0,0.1-0.1,0.1l-4.3-4C116.8,225.2,116.8,225.2,116.8,225.1"/>
					<path class="st3" d="M116.7,225.2l4.3,4c-0.1,0.2-0.4,0.3-0.6,0.3c-0.2,0-0.4-0.1-0.7-0.2c-1.4-0.8-2.7-1.8-4-2.7
						c-0.6-0.4-1.2-0.9-1.8-1.3c-2.3-1.7-3.4-2.5-4.6-2.6c-1.2-0.1-2.4,0.7-4.9,2.2c-1.7,1.1-3.3,2.3-5,3.2
						c-0.7,0.4-1.6,0.3-2.3,0.4l-4.3-4c0.8-0.1,1.7-0.1,2.3-0.4c1.7-1,3.3-2.2,5-3.2c2.5-1.5,3.7-2.3,4.9-2.2
						c1.2,0.1,2.3,0.9,4.6,2.6c0.6,0.4,1.2,0.9,1.8,1.3c1.3,0.9,2.6,1.9,4,2.7c0.2,0.1,0.5,0.2,0.7,0.2
						C116.4,225.5,116.6,225.4,116.7,225.2"/>
				</g>
			</g>
		</g>
		<g class="st1">
			<g class="st1">
				<defs>
					<path id="SVGID_59_" class="st1" d="M195.2,276l4.3,4c-0.3-0.3-0.7-0.6-1.2-1c-2-1.6-4-3.3-6-5c0,0,0,0,0,0l-4.3-4c0,0,0,0,0,0
						c2,1.7,4,3.3,6,5C194.5,275.4,194.9,275.7,195.2,276z"/>
				</defs>
				<clipPath id="SVGID_60_">
					<use xlink:href="#SVGID_59_"  style="overflow:visible;"/>
				</clipPath>
				<g class="st40">
					<path class="st3" d="M195.2,276l4.3,4c-0.3-0.3-0.7-0.6-1.2-1c-2-1.6-4-3.3-6-5c0,0,0,0,0,0l-4.3-4c0,0,0,0,0,0
						c2,1.7,4,3.3,6,5C194.5,275.4,194.9,275.7,195.2,276"/>
				</g>
			</g>
			<g class="st1">
				<defs>
					<path id="SVGID_61_" class="st1" d="M207.6,255.9l4.3,4c0.2,0.2,0.3,0.4,0.4,0.5c0.9,2.8,1.7,5.7,2.7,8.5
						c0.4,1.1,1,2.2,1.7,3.2l-4.3-4c-0.7-1-1.3-2-1.7-3.2c-1-2.8-1.8-5.7-2.7-8.5C207.9,256.3,207.8,256.1,207.6,255.9z"/>
				</defs>
				<clipPath id="SVGID_62_">
					<use xlink:href="#SVGID_61_"  style="overflow:visible;"/>
				</clipPath>
				<g class="st41">
					<path class="st9" d="M207.6,255.9l4.3,4c0.1,0.1,0.1,0.1,0.2,0.2l-4.3-4C207.8,256,207.7,256,207.6,255.9"/>
					<path class="st10" d="M207.8,256.1l4.3,4c0.1,0.1,0.2,0.2,0.2,0.3l-4.3-4C208,256.3,207.9,256.2,207.8,256.1"/>
					<path class="st9" d="M208,256.4l4.3,4c0,0,0,0,0,0c0.9,2.8,1.7,5.7,2.7,8.5c0,0.1,0,0.1,0.1,0.2l-4.3-4c0-0.1,0-0.1-0.1-0.2
						C209.7,262.1,208.9,259.3,208,256.4C208,256.4,208,256.4,208,256.4"/>
					<path class="st10" d="M210.8,265.1l4.3,4c0.4,1.1,1,2,1.6,3l-4.3-4C211.8,267.2,211.1,266.2,210.8,265.1"/>
				</g>
			</g>
			<g class="st1">
				<defs>
					<path id="SVGID_63_" class="st1" d="M216.7,272.2l-4.3-4c0,0-0.1-0.1-0.1-0.1l4.3,4C216.7,272.1,216.7,272.2,216.7,272.2z"/>
				</defs>
				<clipPath id="SVGID_64_">
					<use xlink:href="#SVGID_63_"  style="overflow:visible;"/>
				</clipPath>
				<g class="st42">
					<path class="st10" d="M212.4,268.1l4.3,4c0,0,0,0,0,0L212.4,268.1C212.4,268.1,212.4,268.1,212.4,268.1"/>
					<path class="st9" d="M212.4,268.1l4.3,4c0,0,0,0.1,0.1,0.1L212.4,268.1C212.5,268.2,212.4,268.2,212.4,268.1"/>
				</g>
			</g>
			<g class="st1">
				<defs>
					<path id="SVGID_65_" class="st1" d="M224.9,270.2l4.3,4c0.1,0.1,0.2,0.4,0.2,0.7l-4.3-4C225,270.6,225,270.4,224.9,270.2z"/>
				</defs>
				<clipPath id="SVGID_66_">
					<use xlink:href="#SVGID_65_"  style="overflow:visible;"/>
				</clipPath>
				<g class="st43">
					<path class="st9" d="M224.9,270.2l4.3,4c0,0,0,0,0,0L224.9,270.2C224.9,270.3,224.9,270.2,224.9,270.2"/>
					<path class="st10" d="M224.9,270.3l4.3,4c0,0,0.1,0.1,0.1,0.1l-4.3-4C225,270.4,224.9,270.3,224.9,270.3"/>
					<path class="st9" d="M225,270.4l4.3,4c0.1,0.1,0.1,0.3,0.1,0.5l-4.3-4C225.1,270.7,225,270.5,225,270.4"/>
				</g>
			</g>
			<g class="st1">
				<defs>
					<path id="SVGID_67_" class="st1" d="M197.5,294.8l-4.3-4c0,0,0,0,0,0c0.2,0.1,0.4,0.1,0.6,0.1c0.2,0,0.5,0,0.6-0.1
						c2.6-1.5,5.1-3.1,7.6-4.6c1.3-0.8,2.2-1.1,3.1-1.1c1,0,1.9,0.6,3.2,1.6c1.9,1.5,3.9,3,6,4.3l4.3,4c-2.1-1.4-4.1-2.8-6-4.3
						c-1.3-1-2.2-1.6-3.2-1.6c-0.9,0-1.8,0.3-3.1,1.1c-2.6,1.5-5.1,3.1-7.6,4.6c-0.2,0.1-0.4,0.1-0.6,0.1
						C197.9,294.9,197.7,294.9,197.5,294.8C197.5,294.8,197.5,294.8,197.5,294.8z"/>
				</defs>
				<clipPath id="SVGID_68_">
					<use xlink:href="#SVGID_67_"  style="overflow:visible;"/>
				</clipPath>
				<g class="st44">
					<path class="st3" d="M214.5,291.1l4.3,4c-2.1-1.4-4.1-2.8-6-4.3c-1.3-1-2.2-1.6-3.2-1.6c-0.9,0-1.8,0.3-3.1,1.1
						c-2.6,1.5-5.1,3.1-7.6,4.6c-0.2,0.1-0.4,0.1-0.6,0.1c-0.2,0-0.5-0.1-0.6-0.1c0,0,0,0,0,0l-4.3-4c0,0,0,0,0,0
						c0.2,0.1,0.4,0.1,0.6,0.1c0.2,0,0.5,0,0.6-0.1c2.6-1.5,5.1-3.1,7.6-4.6c1.3-0.8,2.2-1.1,3.1-1.1c1,0,1.9,0.6,3.2,1.6
						C210.4,288.3,212.4,289.7,214.5,291.1"/>
				</g>
			</g>
			<g class="st1">
				<defs>
					<path id="SVGID_69_" class="st1" d="M225.1,270.9l4.3,4c-0.2,0.2-0.5,0.5-0.8,0.7c-2.5,1.8-4.9,3.8-7.6,5.4
						c-2,1.2-2.2,2.6-1.7,4.7c0.7,2.6,1.1,5.3,1.6,8c0.1,0.5-0.1,1.1-0.2,1.7l-4.3-4c0.1-0.6,0.3-1.2,0.2-1.7
						c-0.5-2.7-0.9-5.3-1.6-8c-0.5-2-0.3-3.4,1.7-4.7c2.6-1.6,5.1-3.6,7.6-5.4C224.6,271.4,224.9,271.1,225.1,270.9z"/>
				</defs>
				<clipPath id="SVGID_70_">
					<use xlink:href="#SVGID_69_"  style="overflow:visible;"/>
				</clipPath>
				<g class="st45">
					<path class="st3" d="M225.1,270.9l4.3,4c-0.2,0.2-0.5,0.5-0.8,0.7c-2.5,1.8-4.9,3.8-7.6,5.4c-0.6,0.3-1,0.7-1.3,1.1l-4.3-4
						c0.3-0.4,0.7-0.7,1.3-1.1c2.6-1.6,5.1-3.6,7.6-5.4C224.6,271.4,224.9,271.1,225.1,270.9"/>
					<path class="st4" d="M215.5,278.1l4.3,4c-0.1,0.1-0.2,0.3-0.3,0.4l-4.3-4C215.3,278.4,215.4,278.2,215.5,278.1"/>
					<path class="st5" d="M215.2,278.5l4.3,4c-0.1,0.1-0.1,0.2-0.2,0.4l-4.3-4C215.1,278.8,215.1,278.7,215.2,278.5"/>
					<path class="st6" d="M215,278.9l4.3,4c0,0.1-0.1,0.3-0.1,0.4l-4.3-4C214.9,279.2,215,279,215,278.9"/>
					<path class="st7" d="M214.9,279.3l4.3,4c0,0.2-0.1,0.3-0.1,0.5l-4.3-4C214.8,279.6,214.9,279.4,214.9,279.3"/>
					<path class="st8" d="M214.8,279.8l4.3,4c0,0.2,0,0.5,0,0.7l-4.3-4C214.8,280.2,214.8,280,214.8,279.8"/>
					<path class="st9" d="M214.8,280.5l4.3,4c0,0.4,0.1,0.8,0.2,1.2c0.7,2.6,1.1,5.3,1.6,8c0,0,0,0.1,0,0.1l-4.3-4c0,0,0-0.1,0-0.1
						c-0.5-2.7-0.9-5.3-1.6-8C215,281.2,214.9,280.8,214.8,280.5"/>
					<path class="st8" d="M216.7,289.8l4.3,4c0,0.1,0,0.2,0,0.3l-4.3-4C216.7,290,216.7,289.9,216.7,289.8"/>
					<path class="st7" d="M216.7,290.1l4.3,4c0,0.4-0.1,0.8-0.2,1.2l-4.3-4C216.5,290.9,216.7,290.5,216.7,290.1"/>
				</g>
			</g>
			<g>
				<path class="st15" d="M207,255.5c0.4,0.1,0.9,0.5,1.1,0.9c0.9,2.8,1.7,5.7,2.7,8.5c0.4,1.1,1,2.2,1.7,3.2
					c0.2,0.3,0.8,0.5,1.3,0.5c3.3,0.3,6.6,0.6,9.9,1c0.5,0,0.9,0.4,1.3,0.6c0.2,0.1,0.2,0.4,0.3,0.7c-0.2,0.2-0.5,0.5-0.8,0.7
					c-2.5,1.8-4.9,3.8-7.6,5.4c-2,1.2-2.2,2.6-1.7,4.7c0.7,2.6,1.1,5.3,1.6,8c0.1,0.5-0.1,1.1-0.2,1.7c-0.1,0-0.1,0-0.2,0
					c-0.2,0-0.3,0-0.5,0c-0.1,0-0.3,0-0.4,0c-0.3,0-0.7-0.1-0.9-0.2c-2.1-1.4-4.1-2.8-6-4.3c-1.3-1-2.2-1.6-3.2-1.6
					c-0.9,0-1.8,0.3-3.1,1.1c-2.6,1.5-5.1,3.1-7.6,4.6c-0.2,0.1-0.4,0.1-0.6,0.1c-0.2,0-0.5-0.1-0.6-0.1c-0.2-0.1-0.2-0.7-0.1-1
					c0.9-2.8,1.9-5.6,2.8-8.5c1.1-3.5,1-4-1.9-6.4c-2-1.6-4-3.3-6-5c-0.3-0.3-0.7-1-0.5-1.2c0.3-0.4,0.9-0.9,1.4-0.9
					c3.3-0.2,6.7-0.2,10-0.3c1.6,0,2.4-0.6,3-2.1c1.2-3.1,2.7-6.1,4.1-9.2C206.2,256,206.7,255.5,207,255.5z"/>
			</g>
			<g class="st1">
				<defs>
					<path id="SVGID_71_" class="st1" d="M216.5,291.4l4.3,4c-0.1,0-0.1,0-0.2,0c-0.2,0-0.3,0-0.5,0c-0.1,0-0.3,0-0.4,0
						c-0.3,0-0.7-0.1-0.9-0.2l-4.3-4c0.2,0.2,0.6,0.2,0.9,0.2c0.1,0,0.3,0,0.4,0c0.2,0,0.3,0,0.5,0
						C216.4,291.3,216.4,291.3,216.5,291.4z"/>
				</defs>
				<clipPath id="SVGID_72_">
					<use xlink:href="#SVGID_71_"  style="overflow:visible;"/>
				</clipPath>
				<g class="st46">
					<path class="st3" d="M216.5,291.4l4.3,4c-0.1,0-0.1,0-0.2,0c-0.2,0-0.3,0-0.5,0c-0.1,0-0.3,0-0.4,0c-0.3,0-0.7-0.1-0.9-0.2
						l-4.3-4c0.2,0.2,0.6,0.2,0.9,0.2c0.1,0,0.3,0,0.4,0c0.2,0,0.3,0,0.5,0C216.4,291.3,216.4,291.3,216.5,291.4"/>
				</g>
			</g>
		</g>
		<g class="st1">
			<g class="st1">
				<defs>
					<path id="SVGID_73_" class="st1" d="M83.3,152l4.3,4c0,0-0.1-0.1-0.1-0.1c-1.5-1.3-3-2.6-4.5-3.8c-0.4-0.3-0.8-0.6-1.2-1
						l-4.3-4c0.4,0.3,0.8,0.7,1.2,1C80.2,149.3,81.7,150.6,83.3,152C83.2,151.9,83.3,152,83.3,152z"/>
				</defs>
				<clipPath id="SVGID_74_">
					<use xlink:href="#SVGID_73_"  style="overflow:visible;"/>
				</clipPath>
				<g class="st47">
					<path class="st3" d="M83.3,152l4.3,4c0,0-0.1-0.1-0.1-0.1c-1.5-1.3-3-2.6-4.5-3.8c-0.4-0.3-0.8-0.6-1.2-1l-4.3-4
						c0.4,0.3,0.8,0.7,1.2,1C80.2,149.3,81.7,150.6,83.3,152C83.2,151.9,83.3,152,83.3,152"/>
				</g>
			</g>
			<g class="st1">
				<defs>
					<path id="SVGID_75_" class="st1" d="M103.4,147.1l-4.3-4c-0.8-0.7-0.8-2-1.8-4.6c-0.7-1.7-0.9-3.6-1.5-5.4
						c-0.3-0.8-0.9-1.4-1.6-2.3l4.3,4c0.7,0.9,1.3,1.6,1.6,2.3c0.6,1.8,0.8,3.6,1.5,5.4C102.6,145.1,102.7,146.4,103.4,147.1z"/>
				</defs>
				<clipPath id="SVGID_76_">
					<use xlink:href="#SVGID_75_"  style="overflow:visible;"/>
				</clipPath>
				<g class="st48">
					<path class="st10" d="M94.3,130.8l4.3,4c0.6,0.9,1.3,1.5,1.5,2.3l-4.3-4C95.6,132.4,95,131.7,94.3,130.8"/>
					<path class="st9" d="M95.9,133.1l4.3,4c0,0,0,0.1,0,0.1c0.6,1.7,0.8,3.5,1.4,5.1l-4.3-4C96.7,136.6,96.4,134.8,95.9,133.1
						C95.9,133.1,95.9,133.1,95.9,133.1"/>
					<path class="st10" d="M97.3,138.3l4.3,4c0,0.1,0.1,0.2,0.1,0.2c0.1,0.2,0.2,0.4,0.2,0.6l-4.3-4c-0.1-0.2-0.1-0.4-0.2-0.6
						C97.3,138.4,97.3,138.4,97.3,138.3"/>
					<path class="st9" d="M97.6,139.1l4.3,4c0.5,1.3,0.7,2.2,1,2.9l-4.3-4C98.3,141.3,98.1,140.4,97.6,139.1"/>
					<path class="st10" d="M98.5,142l4.3,4c0.1,0.3,0.3,0.6,0.4,0.9l-4.3-4C98.8,142.6,98.7,142.3,98.5,142"/>
					<path class="st9" d="M99,142.9l4.3,4c0.1,0.1,0.1,0.2,0.2,0.2l-4.3-4C99.1,143,99,142.9,99,142.9"/>
				</g>
			</g>
			<g class="st1">
				<defs>
					<path id="SVGID_77_" class="st1" d="M102.3,166.7l4.3,4c-2.2-1.6-4.4-3.2-6.6-4.8c-0.9-0.7-1.9-1.1-2.8-1.2
						c-0.8,0-1.7,0.2-2.6,0.7c-2.4,1.4-4.7,2.8-7,4.2c-0.6,0.3-1.4,0.3-2.1,0.4l-4.3-4c0.7-0.1,1.5-0.1,2.1-0.4
						c2.4-1.3,4.7-2.8,7-4.2c0.9-0.5,1.8-0.8,2.6-0.7c0.9,0,1.9,0.5,2.8,1.2C97.9,163.5,100.1,165.1,102.3,166.7z"/>
				</defs>
				<clipPath id="SVGID_78_">
					<use xlink:href="#SVGID_77_"  style="overflow:visible;"/>
				</clipPath>
				<g class="st49">
					<path class="st3" d="M102.3,166.7l4.3,4c-2.2-1.6-4.4-3.2-6.6-4.8c-0.9-0.7-1.9-1.1-2.8-1.2c-0.8,0-1.7,0.2-2.6,0.7
						c-2.4,1.4-4.7,2.8-7,4.2c-0.6,0.3-1.4,0.3-2.1,0.4l-4.3-4c0.7-0.1,1.5-0.1,2.1-0.4c2.4-1.3,4.7-2.8,7-4.2
						c0.9-0.5,1.8-0.8,2.6-0.7c0.9,0,1.9,0.5,2.8,1.2C97.9,163.5,100.1,165.1,102.3,166.7"/>
				</g>
			</g>
			<g class="st1">
				<defs>
					<path id="SVGID_79_" class="st1" d="M112.2,145.5l4.3,4c0.4,0.4,0.3,0.9-0.4,1.5c-1.8,1.4-3.6,2.6-5.4,3.9
						c-0.5,0.4-1,0.7-1.6,1c-2.2,1.5-3.1,3.3-2.1,6c0.9,2.3,1.2,4.8,1.7,7.2c0.1,0.6-0.2,1.3-0.3,2l-4.3-4c0.1-0.7,0.5-1.4,0.3-2
						c-0.5-2.4-0.8-4.9-1.7-7.2c-1-2.8,0-4.5,2.1-6c0.5-0.4,1.1-0.6,1.6-1c1.8-1.3,3.7-2.6,5.4-3.9
						C112.4,146.4,112.6,145.9,112.2,145.5z"/>
				</defs>
				<clipPath id="SVGID_80_">
					<use xlink:href="#SVGID_79_"  style="overflow:visible;"/>
				</clipPath>
				<g class="st50">
					<path class="st9" d="M112.2,145.5l4.3,4c0,0,0.1,0.1,0.1,0.1L112.2,145.5C112.2,145.5,112.2,145.5,112.2,145.5"/>
					<path class="st10" d="M112.3,145.6l4.3,4c0,0.1,0.1,0.1,0.1,0.2l-4.3-4C112.3,145.7,112.3,145.6,112.3,145.6"/>
					<path class="st9" d="M112.4,145.8l4.3,4c0,0,0,0.1,0,0.2l-4.3-4C112.4,145.9,112.4,145.8,112.4,145.8"/>
					<path class="st8" d="M112.4,145.9l4.3,4c0,0,0,0.1,0,0.1l-4.3-4C112.4,146,112.4,145.9,112.4,145.9"/>
					<path class="st7" d="M112.4,146l4.3,4c0,0,0,0.1,0,0.1l-4.3-4C112.4,146.1,112.4,146.1,112.4,146"/>
					<path class="st6" d="M112.4,146.1l4.3,4c0,0,0,0.1,0,0.1l-4.3-4C112.4,146.2,112.4,146.2,112.4,146.1"/>
					<path class="st5" d="M112.4,146.2l4.3,4c0,0,0,0.1-0.1,0.1l-4.3-4C112.3,146.3,112.3,146.3,112.4,146.2"/>
					<path class="st4" d="M112.3,146.4l4.3,4c0,0.1-0.1,0.1-0.1,0.2l-4.3-4C112.2,146.5,112.3,146.4,112.3,146.4"/>
					<path class="st3" d="M112.2,146.6l4.3,4c-0.1,0.1-0.2,0.2-0.4,0.4c-1.8,1.4-3.6,2.6-5.4,3.9c-0.5,0.4-1,0.7-1.6,1
						c-0.6,0.5-1.2,0.9-1.6,1.5l-4.3-4c0.4-0.5,1-1,1.6-1.5c0.5-0.4,1.1-0.6,1.6-1c1.8-1.3,3.7-2.6,5.4-3.9
						C111.9,146.8,112.1,146.7,112.2,146.6"/>
					<path class="st4" d="M103.2,153.3l4.3,4c-0.2,0.2-0.3,0.4-0.4,0.7l-4.3-4C102.9,153.8,103,153.5,103.2,153.3"/>
					<path class="st5" d="M102.7,154l4.3,4c-0.1,0.2-0.2,0.3-0.2,0.5l-4.3-4C102.6,154.3,102.6,154.2,102.7,154"/>
					<path class="st6" d="M102.5,154.5l4.3,4c-0.1,0.2-0.1,0.3-0.1,0.5l-4.3-4C102.4,154.8,102.4,154.7,102.5,154.5"/>
					<path class="st7" d="M102.4,155l4.3,4c0,0.2-0.1,0.4-0.1,0.6l-4.3-4C102.3,155.4,102.3,155.2,102.4,155"/>
					<path class="st8" d="M102.3,155.6l4.3,4c0,0.2,0,0.5,0,0.7l-4.3-4C102.3,156.1,102.3,155.8,102.3,155.6"/>
					<path class="st9" d="M102.3,156.3l4.3,4c0,0.5,0.2,1,0.4,1.6l-4.3-4C102.5,157.3,102.3,156.8,102.3,156.3"/>
					<path class="st10" d="M102.7,157.9l4.3,4c0,0,0,0,0,0c0,0,0,0,0,0L102.7,157.9C102.7,157.9,102.7,157.9,102.7,157.9
						C102.7,157.9,102.7,157.9,102.7,157.9"/>
					<path class="st9" d="M102.7,158l4.3,4c0.8,2.3,1.2,4.8,1.7,7.2c0,0,0,0.1,0,0.1l-4.3-4c0,0,0-0.1,0-0.1
						C103.9,162.7,103.5,160.2,102.7,158"/>
					<path class="st8" d="M104.4,165.3l4.3,4c0,0.1,0,0.2,0,0.3l-4.3-4C104.4,165.5,104.4,165.4,104.4,165.3"/>
					<path class="st7" d="M104.4,165.6l4.3,4c0,0.1,0,0.3-0.1,0.4l-4.3-4C104.4,165.8,104.4,165.7,104.4,165.6"/>
					<path class="st6" d="M104.3,166l4.3,4c-0.1,0.3-0.2,0.7-0.3,1l-4.3-4C104.1,166.7,104.2,166.3,104.3,166"/>
					<path class="st7" d="M104.1,167l4.3,4c0,0,0,0.1,0,0.1l-4.3-4C104,167.1,104.1,167,104.1,167"/>
				</g>
			</g>
			<g>
				<path class="st15" d="M94.3,130.8c0.7,0.9,1.3,1.6,1.6,2.3c0.6,1.8,0.8,3.6,1.5,5.4c1.9,4.9,0.3,5.2,7.1,5.6
					c2.3,0.1,4.6,0.6,6.9,1c1.2,0.3,1.3,1.1,0.4,1.8c-1.8,1.4-3.6,2.6-5.4,3.9c-0.5,0.4-1,0.7-1.6,1c-2.2,1.5-3.1,3.3-2.1,6
					c0.9,2.3,1.2,4.8,1.7,7.2c0.1,0.6-0.2,1.3-0.3,2c-0.6-0.1-1.2-0.1-1.7-0.4c-2.2-1.6-4.4-3.2-6.6-4.8c-0.9-0.7-1.9-1.1-2.8-1.2
					c-0.8,0-1.7,0.2-2.6,0.7c-2.4,1.4-4.7,2.8-7,4.2c-0.6,0.3-1.4,0.3-2.1,0.4c-0.1-0.7-0.4-1.5-0.2-2.1c0.9-2.8,1.9-5.6,3-8.3
					c0.6-1.5,0.3-2.7-0.8-3.7c-1.5-1.3-3-2.6-4.5-3.8c-0.6-0.5-1.2-0.9-1.6-1.5c-0.6-0.8-1.1-1.8-1.6-2.7c1-0.3,2.1-0.9,3.2-0.9
					c1.4-0.1,2.8,0,4.2,0c0.8,0,1.7,0.1,2.5,0.2c0.1,0,0.2,0,0.3,0c2.1,0.1,3.4-0.8,4.2-2.9c0.9-2.7,2.2-5.3,3.3-7.9
					C93.3,131.9,93.8,131.5,94.3,130.8z"/>
			</g>
			<g class="st1">
				<defs>
					<path id="SVGID_81_" class="st1" d="M104,167.1l4.3,4c-0.6-0.1-1.2-0.1-1.7-0.4l-4.3-4C102.8,167,103.5,167,104,167.1z"/>
				</defs>
				<clipPath id="SVGID_82_">
					<use xlink:href="#SVGID_81_"  style="overflow:visible;"/>
				</clipPath>
				<g class="st51">
					<path class="st3" d="M104,167.1l4.3,4c-0.6-0.1-1.2-0.1-1.7-0.4l-4.3-4C102.8,167,103.5,167,104,167.1"/>
				</g>
			</g>
		</g>
		<g class="st1">
			<g class="st1">
				<defs>
					<path id="SVGID_83_" class="st1" d="M224.1,21.9l-4.3-4c0,0,0,0,0,0L224.1,21.9C224.1,21.9,224.1,21.9,224.1,21.9z"/>
				</defs>
				<clipPath id="SVGID_84_">
					<use xlink:href="#SVGID_83_"  style="overflow:visible;"/>
				</clipPath>
				<g class="st52">
					<path class="st9" d="M219.8,17.9l4.3,4c0,0,0,0,0,0L219.8,17.9C219.8,17.9,219.8,17.9,219.8,17.9"/>
				</g>
			</g>
			<g class="st1">
				<defs>
					<path id="SVGID_85_" class="st1" d="M207.9,38.3l4.3,4c0,0-0.1,0-0.1-0.1c-0.5-0.5-1-0.9-1.5-1.4l-4.3-4
						C206.9,37.3,207.4,37.7,207.9,38.3C207.9,38.2,207.9,38.2,207.9,38.3z"/>
				</defs>
				<clipPath id="SVGID_86_">
					<use xlink:href="#SVGID_85_"  style="overflow:visible;"/>
				</clipPath>
				<g class="st53">
					<path class="st3" d="M207.9,38.3l4.3,4c0,0-0.1,0-0.1-0.1c-0.5-0.5-1-0.9-1.5-1.4l-4.3-4C206.9,37.3,207.4,37.7,207.9,38.3
						C207.9,38.2,207.9,38.2,207.9,38.3"/>
				</g>
			</g>
			<g class="st1">
				<defs>
					<path id="SVGID_87_" class="st1" d="M220.6,18.6l4.3,4c0.2,0.2,0.3,0.3,0.4,0.5c0.6,1.7,1.2,3.5,1.7,5.3
						c0.9,3.1,1.5,4.7,2.4,5.5l-4.3-4c-0.9-0.8-1.5-2.4-2.4-5.5c-0.5-1.8-1-3.6-1.7-5.3C220.9,18.9,220.8,18.8,220.6,18.6z"/>
				</defs>
				<clipPath id="SVGID_88_">
					<use xlink:href="#SVGID_87_"  style="overflow:visible;"/>
				</clipPath>
				<g class="st54">
					<path class="st9" d="M220.6,18.6l4.3,4c0.1,0.1,0.2,0.1,0.2,0.2l-4.3-4C220.8,18.8,220.7,18.7,220.6,18.6"/>
					<path class="st10" d="M220.8,18.8l4.3,4c0.1,0.1,0.1,0.2,0.2,0.3l-4.3-4C221,19,220.9,18.9,220.8,18.8"/>
					<path class="st9" d="M221,19.1l4.3,4c0,0,0,0,0,0c0.6,1.7,1.2,3.5,1.7,5.3c0.3,1.2,0.7,2.3,1,3.1l-4.3-4
						c-0.3-0.8-0.6-1.8-1-3.1C222.2,22.7,221.6,20.9,221,19.1C221,19.1,221,19.1,221,19.1"/>
					<path class="st10" d="M223.6,27.5l4.3,4c0.4,0.9,0.7,1.6,1.1,2.1l-4.3-4C224.3,29.1,224,28.4,223.6,27.5"/>
					<path class="st9" d="M224.7,29.6l4.3,4c0.1,0.1,0.2,0.3,0.3,0.4l-4.3-4C224.9,29.9,224.8,29.7,224.7,29.6"/>
				</g>
			</g>
			<g>
				<path class="st15" d="M219.8,17.9c0.4,0.4,1,0.7,1.2,1.2c0.6,1.7,1.2,3.5,1.7,5.3c1.6,5.8,2.3,6.3,5.5,6.5c0.3,0,0.6,0,1,0
					c0.4,0,0.8,0,1.3,0c0.2,0,0.4,0,0.6,0c0.3,0,0.7,0,1,0.1c0.3,0,0.7,0,1,0c1.2,0.1,2.3,0.1,3.5,0.2c0.5,0.1,1,0.4,1.6,0.7
					c-0.3,0.5-0.5,1.1-1,1.5c-1.6,1.2-3.2,2.4-4.8,3.5c-5.3,3.5-5.4,3.7-3.8,9.9c0.5,1.9,0.9,3.9,1.2,5.8c0.1,0.4-0.4,0.9-0.7,1.5
					c-0.9-0.5-1.6-0.8-2.2-1.3c-2.2-1.6-4.5-3.1-6.5-4.9c-0.8-0.7-1.5-1-2.2-1c-0.8,0-1.6,0.3-2.4,0.9c-2.2,1.6-4.6,2.9-7,4.3
					c-0.7,0.4-1.6,0.5-2.3,0.7c0-0.9-0.3-1.9,0-2.7c0.7-2.4,1.4-4.8,2.5-7c1-2.1,0.5-3.5-1-5c-1.8-1.7-3.6-3.4-5.4-5.1
					c-0.6-0.6-1.2-1.2-1.7-2c-0.6-0.9-0.2-1.4,0.8-1.5c0.8,0,1.7,0,2.5,0.1c0.4,0,0.8,0,1.2,0c0.8,0,1.7,0,2.5,0.1
					c0.4,0,0.8,0,1.2,0.1c0.3,0,0.5,0,0.8,0.1c2.6,0.1,4.6-0.7,5.6-3.7c0.8-2.4,2.2-4.7,3.4-7C219,18.8,219.5,18.4,219.8,17.9z"/>
			</g>
			<g class="st1">
				<defs>
					<path id="SVGID_89_" class="st1" d="M238.2,32l4.3,4c-0.3,0.5-0.5,1.1-1,1.5c-1.6,1.2-3.2,2.4-4.8,3.5
						c-5.3,3.5-5.4,3.7-3.8,9.9c0.5,1.9,0.9,3.9,1.2,5.8c0.1,0.4-0.4,0.9-0.7,1.5l-4.3-4c0.3-0.5,0.8-1.1,0.7-1.5
						c-0.3-1.9-0.7-3.9-1.2-5.8c-1.6-6.2-1.5-6.4,3.8-9.9c1.7-1.1,3.3-2.3,4.8-3.5C237.7,33.2,237.9,32.5,238.2,32z"/>
				</defs>
				<clipPath id="SVGID_90_">
					<use xlink:href="#SVGID_89_"  style="overflow:visible;"/>
				</clipPath>
				<g class="st55">
					<path class="st4" d="M238.2,32l4.3,4c0,0.1-0.1,0.1-0.1,0.2l-4.3-4C238.1,32.2,238.1,32.1,238.2,32"/>
					<path class="st5" d="M238.1,32.2l4.3,4c-0.1,0.2-0.2,0.4-0.3,0.6l-4.3-4C237.9,32.6,238,32.4,238.1,32.2"/>
					<path class="st4" d="M237.8,32.8l4.3,4c-0.1,0.2-0.2,0.3-0.3,0.4l-4.3-4C237.6,33.1,237.7,33,237.8,32.8"/>
					<path class="st3" d="M237.5,33.2l4.3,4c-0.1,0.1-0.2,0.2-0.3,0.3c-1.6,1.2-3.2,2.4-4.8,3.5c-2,1.3-3.2,2.1-3.9,3l-4.3-4
						c0.7-0.9,2-1.7,3.9-3c1.7-1.1,3.3-2.3,4.8-3.5C237.3,33.4,237.4,33.3,237.5,33.2"/>
					<path class="st4" d="M228.5,40l4.3,4c-0.1,0.2-0.3,0.4-0.4,0.5l-4.3-4C228.2,40.4,228.3,40.2,228.5,40"/>
					<path class="st5" d="M228.1,40.5l4.3,4c-0.1,0.1-0.1,0.3-0.2,0.4l-4.3-4C228,40.8,228,40.7,228.1,40.5"/>
					<path class="st6" d="M227.9,40.9l4.3,4c-0.1,0.1-0.1,0.3-0.1,0.4l-4.3-4C227.8,41.2,227.9,41.1,227.9,40.9"/>
					<path class="st7" d="M227.8,41.4l4.3,4c0,0.2-0.1,0.4-0.1,0.5l-4.3-4C227.7,41.7,227.8,41.5,227.8,41.4"/>
					<path class="st8" d="M227.7,41.9l4.3,4c0,0.3,0,0.6,0,1l-4.3-4C227.7,42.5,227.7,42.2,227.7,41.9"/>
					<path class="st9" d="M227.7,42.9l4.3,4c0.1,1,0.4,2.3,0.8,4c0.5,1.9,0.9,3.9,1.2,5.8c0,0,0,0,0,0l-4.3-4c0,0,0,0,0,0
						c-0.3-1.9-0.7-3.9-1.2-5.8C228.2,45.2,227.8,43.9,227.7,42.9"/>
					<path class="st8" d="M229.8,52.7l4.3,4c0,0,0,0.1,0,0.1L229.8,52.7C229.8,52.8,229.8,52.7,229.8,52.7"/>
					<path class="st7" d="M229.8,52.8l4.3,4c0,0,0,0.1,0,0.1L229.8,52.8C229.8,52.9,229.8,52.8,229.8,52.8"/>
					<path class="st6" d="M229.8,52.9l4.3,4c0,0,0,0.1,0,0.1l-4.3-4C229.7,53,229.8,53,229.8,52.9"/>
					<path class="st5" d="M229.7,53l4.3,4c0,0.1-0.1,0.1-0.1,0.2l-4.3-4C229.7,53.2,229.7,53.1,229.7,53"/>
					<path class="st4" d="M229.6,53.3l4.3,4c-0.1,0.3-0.4,0.6-0.5,0.9l-4.3-4C229.3,53.8,229.5,53.5,229.6,53.3"/>
					<path class="st5" d="M229.1,54.1l4.3,4c0,0,0,0,0,0L229.1,54.1C229.1,54.1,229.1,54.1,229.1,54.1"/>
				</g>
			</g>
			<g class="st1">
				<defs>
					<path id="SVGID_91_" class="st1" d="M229.1,54.2l4.3,4c-0.9-0.5-1.6-0.8-2.2-1.3c-2.2-1.6-4.5-3.1-6.5-4.9
						c-0.8-0.7-1.5-1-2.2-1c-0.8,0-1.6,0.3-2.4,0.9c-2.2,1.6-4.6,2.9-7,4.3c-0.7,0.4-1.6,0.5-2.3,0.7l-4.3-4
						c0.8-0.2,1.7-0.3,2.3-0.7c2.4-1.4,4.7-2.7,7-4.3c0.9-0.6,1.7-0.9,2.4-0.9c0.7,0,1.4,0.4,2.2,1c2,1.8,4.3,3.3,6.5,4.9
						C227.5,53.3,228.2,53.6,229.1,54.2z"/>
				</defs>
				<clipPath id="SVGID_92_">
					<use xlink:href="#SVGID_91_"  style="overflow:visible;"/>
				</clipPath>
				<g class="st56">
					<path class="st3" d="M229.1,54.2l4.3,4c-0.9-0.5-1.6-0.8-2.2-1.3c-2.2-1.6-4.5-3.1-6.5-4.9c-0.8-0.7-1.5-1-2.2-1
						c-0.8,0-1.6,0.3-2.4,0.9c-2.2,1.6-4.6,2.9-7,4.3c-0.7,0.4-1.6,0.5-2.3,0.7l-4.3-4c0.8-0.2,1.7-0.3,2.3-0.7
						c2.4-1.4,4.7-2.7,7-4.3c0.9-0.6,1.7-0.9,2.4-0.9c0.7,0,1.4,0.4,2.2,1c2,1.8,4.3,3.3,6.5,4.9C227.5,53.3,228.2,53.6,229.1,54.2"
						/>
				</g>
			</g>
		</g>
		<g class="st1">
			<g class="st1">
				<defs>
					<path id="SVGID_93_" class="st1" d="M100.4,93.3l4.3,4c0,0,0,0-0.1-0.1c-2.1-1.9-4.2-3.7-6.2-5.6l-4.3-4
						C96.1,89.5,98.3,91.3,100.4,93.3C100.3,93.2,100.4,93.2,100.4,93.3z"/>
				</defs>
				<clipPath id="SVGID_94_">
					<use xlink:href="#SVGID_93_"  style="overflow:visible;"/>
				</clipPath>
				<g class="st57">
					<path class="st3" d="M100.4,93.3l4.3,4c0,0,0,0-0.1-0.1c-2.1-1.9-4.2-3.7-6.2-5.6l-4.3-4C96.1,89.5,98.3,91.3,100.4,93.3
						C100.3,93.2,100.4,93.2,100.4,93.3"/>
				</g>
			</g>
			<g class="st1">
				<defs>
					<path id="SVGID_95_" class="st1" d="M121.1,88.5l-4.3-4c-0.7-0.7-1.1-1.7-1.5-3.4c-0.6-2.4-1.4-4.7-2.2-7c-0.2-0.5-0.7-1-1-1.4
						l4.3,4c0.4,0.5,0.8,0.9,1,1.4c0.8,2.3,1.6,4.7,2.2,7C120,86.8,120.4,87.9,121.1,88.5z"/>
				</defs>
				<clipPath id="SVGID_96_">
					<use xlink:href="#SVGID_95_"  style="overflow:visible;"/>
				</clipPath>
				<g class="st58">
					<path class="st10" d="M112,72.7l4.3,4c0,0,0.1,0.1,0.1,0.1l-4.3-4C112.1,72.8,112.1,72.8,112,72.7"/>
					<path class="st9" d="M112.1,72.9l4.3,4c0.2,0.2,0.3,0.4,0.5,0.6l-4.3-4C112.5,73.2,112.3,73,112.1,72.9"/>
					<path class="st10" d="M112.6,73.4l4.3,4c0.2,0.2,0.3,0.4,0.4,0.7l-4.3-4C112.9,73.9,112.8,73.6,112.6,73.4"/>
					<path class="st9" d="M113,74.1l4.3,4c0,0,0,0,0,0c0.8,2.3,1.6,4.7,2.2,7c0.2,0.6,0.3,1.2,0.5,1.7l-4.3-4
						c-0.2-0.5-0.3-1-0.5-1.7C114.7,78.8,113.8,76.5,113,74.1C113,74.1,113,74.1,113,74.1"/>
					<path class="st10" d="M115.8,82.9l4.3,4c0.2,0.6,0.4,1,0.7,1.4l-4.3-4C116.2,83.9,116,83.4,115.8,82.9"/>
					<path class="st9" d="M116.5,84.2l4.3,4c0.1,0.1,0.2,0.2,0.3,0.3l-4.3-4C116.7,84.5,116.6,84.3,116.5,84.2"/>
				</g>
			</g>
			<g>
				<path class="st15" d="M112,72.7c0.4,0.5,0.8,0.9,1,1.4c0.8,2.3,1.6,4.7,2.2,7c0.9,3.5,1.7,4.2,5.3,4.5c2.6,0.2,5.2,0.2,7.8,0.5
					c0.6,0.1,1.1,0.6,1.9,1.1c-0.8,0.8-1.2,1.4-1.8,1.8c-2.4,1.8-4.8,3.5-7.2,5.3c-1.5,1.1-1.9,2.4-1.3,4.2c0.7,2.4,1.2,4.8,1.7,7.2
					c0.2,0.9,0.4,2.4,0,2.7c-0.3,0.2-0.5,0.3-0.8,0.3c-0.7,0-1.4-0.9-2-1.3c-2.1-1.5-4.3-3-6.2-4.6c-0.8-0.6-1.5-1-2.2-1
					c-0.7,0-1.4,0.2-2.1,0.7c-2.5,1.7-5,3.2-7.6,4.7c-0.6,0.3-1.3,0.3-2,0.5c-0.1-0.7-0.4-1.5-0.3-2.1c0.8-2.8,1.7-5.7,2.8-8.4
					c0.8-1.7,0.3-2.9-0.9-3.9c-2.2-2-4.4-3.9-6.6-6c-0.5-0.4-1-1.4-0.8-1.7c0.2-0.5,1.1-1,1.8-1c1.7,0,3.4,0,5.2,0.1
					c1,0,2,0.1,3,0.2c0.1,0,0.2,0,0.2,0c1.8,0.1,2.9-0.6,3.6-2.3c1.2-2.8,2.5-5.7,3.8-8.5C110.8,73.5,111.5,73.2,112,72.7z"/>
			</g>
			<g class="st1">
				<defs>
					<path id="SVGID_97_" class="st1" d="M130.3,87.2l4.3,4c-0.8,0.8-1.2,1.4-1.8,1.8c-2.4,1.8-4.8,3.5-7.2,5.3
						c-1.5,1.1-1.9,2.4-1.3,4.2c0.7,2.4,1.2,4.8,1.7,7.2c0.2,0.9,0.4,2.4,0,2.7c-0.3,0.2-0.5,0.3-0.8,0.3c-0.7,0-1.4-0.9-2-1.3
						c-2.1-1.5-4.3-3-6.2-4.6c-0.8-0.6-1.5-1-2.2-1c-0.7,0-1.4,0.2-2.1,0.7c-2.5,1.7-5,3.2-7.6,4.7c-0.6,0.3-1.3,0.3-2,0.5l-4.3-4
						c0.7-0.2,1.5-0.1,2-0.5c2.6-1.5,5.1-3,7.6-4.7c0.8-0.5,1.5-0.8,2.1-0.7c0.7,0,1.4,0.4,2.2,1c2,1.7,4.1,3.1,6.2,4.6
						c0.6,0.4,1.3,1.3,2,1.3c0.2,0,0.5-0.1,0.8-0.3c0.4-0.3,0.2-1.8,0-2.7c-0.5-2.4-1-4.9-1.7-7.2c-0.6-1.8-0.2-3.2,1.3-4.2
						c2.4-1.8,4.8-3.5,7.2-5.3C129.1,88.5,129.5,88,130.3,87.2z"/>
				</defs>
				<clipPath id="SVGID_98_">
					<use xlink:href="#SVGID_97_"  style="overflow:visible;"/>
				</clipPath>
				<g class="st59">
					<path class="st3" d="M130.3,87.2l4.3,4c-0.8,0.8-1.2,1.4-1.8,1.8c-2.4,1.8-4.8,3.5-7.2,5.3c-0.4,0.3-0.7,0.5-0.9,0.8l-4.3-4
						c0.2-0.3,0.5-0.6,0.9-0.8c2.4-1.8,4.8-3.5,7.2-5.3C129.1,88.5,129.5,88,130.3,87.2"/>
					<path class="st4" d="M120.4,95.1l4.3,4c-0.1,0.2-0.2,0.3-0.3,0.5l-4.3-4C120.2,95.4,120.3,95.3,120.4,95.1"/>
					<path class="st5" d="M120.1,95.6l4.3,4c-0.1,0.1-0.1,0.3-0.2,0.4l-4.3-4C120,95.8,120,95.7,120.1,95.6"/>
					<path class="st6" d="M119.9,96l4.3,4c0,0.1-0.1,0.3-0.1,0.4l-4.3-4C119.8,96.2,119.9,96.1,119.9,96"/>
					<path class="st7" d="M119.8,96.4l4.3,4c0,0.1-0.1,0.3-0.1,0.4l-4.3-4C119.8,96.7,119.8,96.5,119.8,96.4"/>
					<path class="st8" d="M119.7,96.8l4.3,4c0,0.2,0,0.4,0,0.6l-4.3-4C119.7,97.2,119.7,97,119.7,96.8"/>
					<path class="st9" d="M119.8,97.4l4.3,4c0,0.3,0.1,0.7,0.2,1.1c0.7,2.4,1.2,4.8,1.7,7.2c0.1,0.4,0.2,0.8,0.2,1.3l-4.3-4
						c0-0.4-0.1-0.9-0.2-1.3c-0.5-2.4-1-4.9-1.7-7.2C119.9,98.1,119.8,97.8,119.8,97.4"/>
					<path class="st8" d="M121.9,107l4.3,4c0,0.3,0,0.5,0,0.8l-4.3-4C121.9,107.5,121.9,107.2,121.9,107"/>
					<path class="st7" d="M121.9,107.7l4.3,4c0,0.1,0,0.2,0,0.3l-4.3-4C121.9,107.9,121.9,107.8,121.9,107.7"/>
					<path class="st6" d="M121.9,108l4.3,4c0,0.1,0,0.1,0,0.2l-4.3-4C121.8,108.1,121.8,108.1,121.9,108"/>
					<path class="st5" d="M121.8,108.2l4.3,4c0,0,0,0.1,0,0.1l-4.3-4C121.8,108.2,121.8,108.2,121.8,108.2"/>
					<path class="st4" d="M121.8,108.3l4.3,4c0,0,0,0.1-0.1,0.1L121.8,108.3C121.7,108.3,121.7,108.3,121.8,108.3"/>
					<path class="st3" d="M121.7,108.4l4.3,4c0,0,0,0.1-0.1,0.1c-0.3,0.2-0.5,0.3-0.8,0.3c-0.7,0-1.4-0.9-2-1.3
						c-2.1-1.5-4.3-3-6.2-4.6c-0.8-0.6-1.5-1-2.2-1c-0.7,0-1.4,0.2-2.1,0.7c-2.5,1.7-5,3.2-7.6,4.7c-0.6,0.3-1.3,0.3-2,0.5l-4.3-4
						c0.7-0.2,1.5-0.1,2-0.5c2.6-1.5,5.1-3,7.6-4.7c0.8-0.5,1.5-0.8,2.1-0.7c0.7,0,1.4,0.4,2.2,1c2,1.7,4.1,3.1,6.2,4.6
						c0.6,0.4,1.3,1.3,2,1.3C121.1,108.7,121.4,108.6,121.7,108.4C121.7,108.4,121.7,108.4,121.7,108.4"/>
				</g>
			</g>
		</g>
		<g class="st1">
			<g class="st1">
				<defs>
					<path id="SVGID_99_" class="st1" d="M147.5,48.9l4.3,4c-0.2-0.2-0.4-0.3-0.6-0.5c-2.1-1.8-4.1-3.5-6.1-5.3l-4.3-4
						c2,1.8,4.1,3.6,6.1,5.3C147.1,48.6,147.3,48.8,147.5,48.9z"/>
				</defs>
				<clipPath id="SVGID_100_">
					<use xlink:href="#SVGID_99_"  style="overflow:visible;"/>
				</clipPath>
				<g class="st60">
					<path class="st3" d="M147.5,48.9l4.3,4c-0.2-0.2-0.4-0.3-0.6-0.5c-2.1-1.8-4.1-3.5-6.1-5.3l-4.3-4c2,1.8,4.1,3.6,6.1,5.3
						C147.1,48.6,147.3,48.8,147.5,48.9"/>
				</g>
			</g>
			<g class="st1">
				<defs>
					<path id="SVGID_101_" class="st1" d="M160,29.7l4.3,4c0.2,0.2,0.3,0.4,0.4,0.6c1,2.9,1.9,5.9,2.7,8.9c0.2,0.7,0.4,1.3,0.9,1.7
						l-4.3-4c-0.4-0.4-0.7-0.9-0.9-1.7c-0.8-3-1.7-5.9-2.7-8.9C160.4,30,160.2,29.8,160,29.7z"/>
				</defs>
				<clipPath id="SVGID_102_">
					<use xlink:href="#SVGID_101_"  style="overflow:visible;"/>
				</clipPath>
				<g class="st61">
					<path class="st9" d="M160,29.7l4.3,4c0.1,0.1,0.1,0.1,0.2,0.2l-4.3-4C160.2,29.8,160.1,29.7,160,29.7"/>
					<path class="st10" d="M160.2,29.9l4.3,4c0.1,0.1,0.2,0.2,0.2,0.3l-4.3-4C160.4,30.1,160.3,30,160.2,29.9"/>
					<path class="st9" d="M160.4,30.2l4.3,4c0,0,0,0,0,0c1,2.9,1.9,5.9,2.7,8.9c0.1,0.2,0.1,0.4,0.2,0.6l-4.3-4
						c-0.1-0.2-0.1-0.4-0.2-0.6C162.3,36.1,161.4,33.2,160.4,30.2C160.4,30.2,160.4,30.2,160.4,30.2"/>
					<path class="st10" d="M163.3,39.7l4.3,4c0.1,0.3,0.3,0.6,0.5,0.9l-4.3-4C163.6,40.3,163.4,40,163.3,39.7"/>
					<path class="st9" d="M163.7,40.5l4.3,4c0.1,0.1,0.1,0.2,0.2,0.2l-4.3-4C163.9,40.7,163.8,40.6,163.7,40.5"/>
				</g>
			</g>
			<g>
				<path class="st15" d="M159.4,29.3c0.4,0,0.9,0.5,1,0.9c1,2.9,1.9,5.9,2.7,8.9c0.4,1.4,1,2.1,2.5,2.3c2.5,0.3,4.9,0.7,7.3,1
					c0.1,0,0.1,0,0.2,0c0.3,0,0.6,0,1-0.1c0.3-0.1,0.7-0.1,1-0.1c0.8,0.1,2,0.1,2.3,0.5c0.5,1-0.4,1.7-1.3,2.3
					c-2.3,1.5-4.4,3.2-6.7,4.8c-2.6,1.8-2.8,2.1-2.2,5.2c0.5,2.4,1.1,4.8,1.7,7.2c0.1,0.6,0.4,1.2,0.4,1.8c0,0.4-0.3,0.9-0.6,1.2
					c0,0-0.1,0-0.1,0c-0.2,0-0.6-0.2-0.8-0.3c-2.2-1.6-4.4-3.2-6.5-4.9c-1.6-1.2-2.5-1.8-3.5-1.9c-0.9,0-1.8,0.5-3.5,1.4
					c-2.2,1.3-4.5,2.7-6.7,4c-0.4,0.2-0.8,0.5-1.4,0.7c-0.2-0.4-0.6-0.7-0.6-1c0.1-0.7,0.2-1.5,0.5-2.2c0.8-2.4,1.6-4.7,2.5-7
					c1-2.9,0.8-3.9-1.5-5.9c-2.1-1.8-4.1-3.5-6.1-5.3c-0.4-0.4-0.5-1.1-0.7-1.6c0.4-0.2,0.9-0.5,1.3-0.5c3.1-0.1,6.2-0.2,9.3-0.3
					c2.8,0,3.2-0.4,4.3-3.1c1-2.5,2.2-5,3.3-7.5C158.5,29.7,159.1,29.3,159.4,29.3z"/>
			</g>
			<g class="st1">
				<defs>
					<path id="SVGID_103_" class="st1" d="M177.3,42.6l4.3,4c0,0,0.1,0.1,0.1,0.1c0.5,1-0.4,1.7-1.3,2.3c-2.3,1.5-4.4,3.2-6.7,4.8
						c-2.6,1.8-2.8,2.1-2.2,5.2c0.5,2.4,1.1,4.8,1.7,7.2c0.1,0.6,0.4,1.2,0.4,1.8c0,0.4-0.3,0.9-0.6,1.2c0,0-0.1,0-0.1,0
						c-0.2,0-0.6-0.2-0.8-0.3c-2.2-1.6-4.4-3.2-6.5-4.9c-1.6-1.2-2.5-1.8-3.5-1.9c-0.9,0-1.8,0.5-3.5,1.4c-2.2,1.3-4.5,2.7-6.7,4
						c-0.4,0.2-0.8,0.5-1.4,0.7l-4.3-4c0.5-0.3,0.9-0.5,1.4-0.7c2.2-1.3,4.5-2.7,6.7-4c1.7-1,2.6-1.5,3.5-1.4c0.9,0,1.8,0.7,3.5,1.9
						c2.2,1.6,4.4,3.3,6.5,4.9c0.2,0.2,0.6,0.3,0.8,0.3c0.1,0,0.1,0,0.1,0c0.3-0.3,0.6-0.8,0.6-1.2c0-0.6-0.2-1.2-0.4-1.8
						c-0.6-2.4-1.1-4.8-1.7-7.2c-0.7-3.1-0.4-3.4,2.2-5.2c2.3-1.5,4.4-3.2,6.7-4.8c0.9-0.6,1.8-1.3,1.3-2.3
						C177.4,42.7,177.3,42.6,177.3,42.6z"/>
				</defs>
				<clipPath id="SVGID_104_">
					<use xlink:href="#SVGID_103_"  style="overflow:visible;"/>
				</clipPath>
				<g class="st62">
					<path class="st9" d="M177.3,42.6l4.3,4c0,0,0,0,0,0L177.3,42.6C177.3,42.6,177.3,42.6,177.3,42.6"/>
					<path class="st10" d="M177.3,42.7l4.3,4c0,0,0,0,0,0.1c0,0.1,0.1,0.1,0.1,0.2l-4.3-4C177.4,42.8,177.4,42.8,177.3,42.7
						C177.4,42.7,177.4,42.7,177.3,42.7"/>
					<path class="st9" d="M177.5,42.9l4.3,4c0,0.1,0.1,0.2,0.1,0.3l-4.3-4C177.5,43.1,177.5,43,177.5,42.9"/>
					<path class="st8" d="M177.5,43.2l4.3,4c0,0.1,0,0.1,0,0.2l-4.3-4C177.5,43.3,177.5,43.3,177.5,43.2"/>
					<path class="st7" d="M177.5,43.4l4.3,4c0,0.1,0,0.1,0,0.1l-4.3-4C177.5,43.5,177.5,43.4,177.5,43.4"/>
					<path class="st6" d="M177.5,43.5l4.3,4c0,0,0,0.1,0,0.1l-4.3-4C177.5,43.6,177.5,43.6,177.5,43.5"/>
					<path class="st5" d="M177.5,43.7l4.3,4c0,0.1,0,0.1-0.1,0.2l-4.3-4C177.4,43.8,177.4,43.7,177.5,43.7"/>
					<path class="st4" d="M177.4,43.8l4.3,4c0,0.1-0.1,0.2-0.2,0.2l-4.3-4C177.3,44,177.3,43.9,177.4,43.8"/>
					<path class="st3" d="M177.2,44.1l4.3,4c-0.3,0.3-0.7,0.6-1.1,0.9c-2.3,1.5-4.4,3.2-6.7,4.8c-1,0.7-1.6,1.1-2,1.6l-4.3-4
						c0.4-0.5,1-0.9,2-1.6c2.3-1.5,4.4-3.2,6.7-4.8C176.5,44.7,177,44.4,177.2,44.1"/>
					<path class="st4" d="M167.5,51.4l4.3,4c-0.1,0.1-0.2,0.2-0.2,0.3l-4.3-4C167.3,51.6,167.4,51.5,167.5,51.4"/>
					<path class="st5" d="M167.2,51.7l4.3,4c0,0.1-0.1,0.2-0.1,0.3l-4.3-4C167.1,51.9,167.2,51.8,167.2,51.7"/>
					<path class="st6" d="M167.1,52l4.3,4c0,0.1-0.1,0.2-0.1,0.3l-4.3-4C167,52.2,167.1,52.1,167.1,52"/>
					<path class="st7" d="M167,52.3l4.3,4c0,0.1,0,0.2-0.1,0.4l-4.3-4C167,52.5,167,52.4,167,52.3"/>
					<path class="st8" d="M167,52.6l4.3,4c0,0.2,0,0.4,0,0.7l-4.3-4C167,53.1,167,52.8,167,52.6"/>
					<path class="st9" d="M167,53.3l4.3,4c0,0.4,0.1,1,0.3,1.6c0.5,2.4,1.1,4.8,1.7,7.2c0.1,0.5,0.3,1,0.3,1.5l-4.3-4
						c0-0.5-0.2-1-0.3-1.5c-0.6-2.4-1.1-4.8-1.7-7.2C167.1,54.3,167,53.8,167,53.3"/>
					<path class="st8" d="M169.3,63.7l4.3,4c0,0.1,0,0.2,0,0.3c0,0,0,0,0,0l-4.3-4c0,0,0,0,0,0C169.3,63.9,169.3,63.8,169.3,63.7"/>
					<path class="st7" d="M169.3,64l4.3,4c0,0.1,0,0.1,0,0.2l-4.3-4C169.3,64.2,169.3,64.1,169.3,64"/>
					<path class="st6" d="M169.3,64.2l4.3,4c0,0.1,0,0.1-0.1,0.2l-4.3-4C169.2,64.3,169.2,64.3,169.3,64.2"/>
					<path class="st5" d="M169.2,64.4l4.3,4c0,0.1-0.1,0.2-0.1,0.3l-4.3-4C169.1,64.6,169.2,64.5,169.2,64.4"/>
					<path class="st4" d="M169.1,64.7l4.3,4c-0.1,0.1-0.1,0.2-0.2,0.3l-4.3-4C168.9,64.9,169,64.8,169.1,64.7"/>
					<path class="st3" d="M168.8,65l4.3,4c-0.1,0.1-0.1,0.1-0.2,0.2c0,0-0.1,0-0.1,0c-0.2,0-0.6-0.2-0.8-0.3
						c-2.2-1.6-4.4-3.2-6.5-4.9c-1.6-1.2-2.5-1.8-3.5-1.9c-0.9,0-1.8,0.5-3.5,1.4c-2.2,1.3-4.5,2.7-6.7,4c-0.4,0.2-0.8,0.5-1.4,0.7
						l-4.3-4c0.5-0.3,0.9-0.5,1.4-0.7c2.2-1.3,4.5-2.7,6.7-4c1.7-1,2.6-1.5,3.5-1.4c0.9,0,1.8,0.7,3.5,1.9c2.2,1.6,4.4,3.3,6.5,4.9
						c0.2,0.2,0.6,0.3,0.8,0.3c0.1,0,0.1,0,0.1,0C168.7,65.2,168.8,65.1,168.8,65"/>
				</g>
			</g>
		</g>
		<g class="st1">
			<g class="st1">
				<defs>
					<path id="SVGID_105_" class="st1" d="M134.7,257.2l4.3,4c-0.1-0.1-0.2-0.2-0.3-0.2c-2.2-1.8-4.3-3.7-6.4-5.6c0,0,0,0,0,0
						l-4.3-4c0,0,0,0,0,0c2.1,1.9,4.2,3.8,6.4,5.6C134.5,257.1,134.6,257.2,134.7,257.2z"/>
				</defs>
				<clipPath id="SVGID_106_">
					<use xlink:href="#SVGID_105_"  style="overflow:visible;"/>
				</clipPath>
				<g class="st63">
					<path class="st3" d="M134.7,257.2l4.3,4c-0.1-0.1-0.2-0.2-0.3-0.2c-2.2-1.8-4.3-3.7-6.4-5.6c0,0,0,0,0,0l-4.3-4c0,0,0,0,0,0
						c2.1,1.9,4.2,3.8,6.4,5.6C134.5,257.1,134.6,257.2,134.7,257.2"/>
				</g>
			</g>
			<g class="st1">
				<defs>
					<path id="SVGID_107_" class="st1" d="M147.2,237.9l4.3,4c0.1,0.1,0.3,0.3,0.4,0.5c0.3,0.5,0.5,1.1,0.7,1.7
						c0.2,0.7,0.4,1.4,0.6,2.1c1,3.4,1.7,5.4,2.9,6.6l-4.3-4c-1.3-1.2-2-3.1-2.9-6.6c-0.2-0.7-0.4-1.4-0.6-2.1
						c-0.2-0.6-0.4-1.2-0.7-1.7C147.5,238.2,147.3,238,147.2,237.9z"/>
				</defs>
				<clipPath id="SVGID_108_">
					<use xlink:href="#SVGID_107_"  style="overflow:visible;"/>
				</clipPath>
				<g class="st64">
					<path class="st9" d="M147.2,237.9l4.3,4c0.1,0.1,0.1,0.1,0.2,0.2l-4.3-4C147.3,238,147.2,237.9,147.2,237.9"/>
					<path class="st10" d="M147.4,238.1l4.3,4c0.1,0.1,0.2,0.2,0.2,0.3c0.2,0.4,0.4,0.8,0.6,1.2l-4.3-4c-0.2-0.4-0.3-0.8-0.6-1.2
						C147.5,238.3,147.4,238.2,147.4,238.1"/>
					<path class="st9" d="M148.1,239.6l4.3,4c0.1,0.2,0.1,0.3,0.2,0.5c0.2,0.7,0.4,1.4,0.6,2.1c0.4,1.3,0.7,2.4,1,3.3l-4.3-4
						c-0.3-0.9-0.7-2-1-3.3c-0.2-0.7-0.4-1.4-0.6-2.1C148.3,240,148.2,239.8,148.1,239.6"/>
					<path class="st10" d="M150,245.6l4.3,4c0.4,1.2,0.9,2,1.4,2.7l-4.3-4C150.8,247.6,150.4,246.7,150,245.6"/>
					<path class="st9" d="M151.4,248.3l4.3,4c0.2,0.2,0.3,0.4,0.5,0.5l-4.3-4C151.7,248.7,151.5,248.5,151.4,248.3"/>
				</g>
			</g>
			<g>
				<path class="st15" d="M146.6,237.6c0.4,0,0.7,0.3,1,0.8c0.3,0.5,0.5,1.1,0.7,1.7c0.2,0.7,0.4,1.4,0.6,2.1
					c2.1,7.3,2.9,8,10.7,8.5c1.5,0.1,3,0.2,4.5,0.3c0.4,0,0.7,0.5,1.2,0.9c-0.9,0.8-1.5,1.3-2.2,1.9c-2.5,1.9-5,3.7-7.5,5.5
					c-1.2,0.9-1.5,2-1,3.6c0.8,2.7,1.3,5.5,1.8,8.3c0.1,0.5-0.1,1.4-0.4,1.6c-0.1,0.1-0.3,0.1-0.6,0.1c-0.4,0-0.8-0.2-1.1-0.4
					c-2.2-1.6-4.4-3.2-6.6-4.8c-1-0.7-1.7-1.2-2.5-1.2c-0.7,0-1.3,0.2-2.2,0.7c-2.6,1.5-5.1,3.1-7.6,4.7c-0.5,0.3-1.1,0.5-1.6,0.5
					c-0.1,0-0.2,0-0.3-0.1c-1-0.5-0.5-1.4-0.2-2.2c0.9-2.3,1.6-4.7,2.5-7c0.9-2.3,0.7-4.3-1.3-6c-2.2-1.8-4.3-3.7-6.4-5.6
					c-0.4-0.4-0.5-1-0.8-1.6c0.5-0.2,1.1-0.5,1.6-0.5c2.6,0,5.2,0.2,7.8,0.3c3.1,0.1,4.2-0.7,5.4-3.5c1.1-2.5,2.1-5,3.3-7.5
					C145.8,237.9,146.2,237.6,146.6,237.6z"/>
			</g>
			<g class="st1">
				<defs>
					<path id="SVGID_109_" class="st1" d="M137.4,276.1l-4.3-4c0.1,0.1,0.2,0.2,0.3,0.2c0.1,0,0.2,0.1,0.3,0.1
						c0.5,0,1.2-0.2,1.6-0.5c2.6-1.5,5.1-3.2,7.6-4.7c0.8-0.5,1.5-0.7,2.2-0.7c0.8,0,1.6,0.4,2.5,1.2c2.1,1.7,4.3,3.3,6.6,4.8
						c0.3,0.2,0.7,0.3,1.1,0.4c0.2,0,0.4,0,0.6-0.1c0.3-0.2,0.5-1.1,0.4-1.6c-0.5-2.8-1-5.6-1.8-8.3c-0.5-1.6-0.2-2.6,1-3.6
						c2.5-1.9,5-3.7,7.5-5.5c0.7-0.5,1.3-1.1,2.2-1.9l4.3,4c-0.9,0.8-1.5,1.3-2.2,1.9c-2.5,1.9-5,3.7-7.5,5.5c-1.2,0.9-1.5,2-1,3.6
						c0.8,2.7,1.3,5.5,1.8,8.3c0.1,0.5-0.1,1.4-0.4,1.6c-0.1,0.1-0.3,0.1-0.6,0.1c-0.4,0-0.8-0.2-1.1-0.4c-2.2-1.6-4.4-3.2-6.6-4.8
						c-1-0.7-1.7-1.2-2.5-1.2c-0.7,0-1.3,0.2-2.2,0.7c-2.6,1.5-5.1,3.1-7.6,4.7c-0.5,0.3-1.1,0.5-1.6,0.5c-0.1,0-0.2,0-0.3-0.1
						C137.6,276.2,137.5,276.1,137.4,276.1z"/>
				</defs>
				<clipPath id="SVGID_110_">
					<use xlink:href="#SVGID_109_"  style="overflow:visible;"/>
				</clipPath>
				<g class="st65">
					<path class="st3" d="M165.2,251.9l4.3,4c-0.9,0.8-1.5,1.3-2.2,1.9c-2.5,1.9-5,3.7-7.5,5.5c-0.3,0.2-0.5,0.4-0.7,0.7l-4.3-4
						c0.2-0.2,0.4-0.4,0.7-0.7c2.5-1.9,5-3.7,7.5-5.5C163.7,253.3,164.3,252.7,165.2,251.9"/>
					<path class="st4" d="M154.9,260l4.3,4c-0.1,0.1-0.2,0.2-0.3,0.4l-4.3-4C154.7,260.3,154.8,260.1,154.9,260"/>
					<path class="st5" d="M154.6,260.4l4.3,4c-0.1,0.1-0.1,0.2-0.1,0.3l-4.3-4C154.5,260.6,154.5,260.5,154.6,260.4"/>
					<path class="st6" d="M154.5,260.7l4.3,4c0,0.1-0.1,0.2-0.1,0.3l-4.3-4C154.4,260.9,154.4,260.8,154.5,260.7"/>
					<path class="st7" d="M154.4,261l4.3,4c0,0.1,0,0.2-0.1,0.4l-4.3-4C154.3,261.2,154.3,261.1,154.4,261"/>
					<path class="st8" d="M154.3,261.4l4.3,4c0,0.2,0,0.3,0,0.5l-4.3-4C154.3,261.7,154.3,261.5,154.3,261.4"/>
					<path class="st9" d="M154.3,261.9l4.3,4c0,0.3,0.1,0.6,0.2,1c0.8,2.7,1.3,5.5,1.8,8.3c0,0,0,0.1,0,0.1l-4.3-4c0,0,0-0.1,0-0.1
						c-0.5-2.8-1-5.6-1.8-8.3C154.4,262.6,154.4,262.2,154.3,261.9"/>
					<path class="st8" d="M156.4,271.4l4.3,4c0,0.1,0,0.2,0,0.4l-4.3-4C156.4,271.6,156.4,271.5,156.4,271.4"/>
					<path class="st7" d="M156.4,271.7l4.3,4c0,0.1,0,0.3-0.1,0.4l-4.3-4C156.4,272,156.4,271.8,156.4,271.7"/>
					<path class="st6" d="M156.3,272.1l4.3,4c0,0.1,0,0.2-0.1,0.3l-4.3-4C156.3,272.3,156.3,272.2,156.3,272.1"/>
					<path class="st5" d="M156.2,272.4l4.3,4c0,0.1-0.1,0.1-0.1,0.2l-4.3-4C156.2,272.5,156.2,272.4,156.2,272.4"/>
					<path class="st4" d="M156.2,272.6l4.3,4c0,0-0.1,0.1-0.1,0.1l-4.3-4C156.1,272.7,156.1,272.6,156.2,272.6"/>
					<path class="st3" d="M156.1,272.7l4.3,4c0,0.1-0.1,0.1-0.1,0.1c-0.1,0.1-0.3,0.1-0.6,0.1c-0.4,0-0.8-0.2-1.1-0.4
						c-2.2-1.6-4.4-3.2-6.6-4.8c-1-0.7-1.7-1.2-2.5-1.2c-0.7,0-1.3,0.2-2.2,0.7c-2.6,1.5-5.1,3.1-7.6,4.7c-0.5,0.3-1.1,0.5-1.6,0.5
						c-0.1,0-0.2,0-0.3-0.1c-0.1-0.1-0.3-0.1-0.3-0.2l-4.3-4c0.1,0.1,0.2,0.2,0.3,0.2c0.1,0,0.2,0.1,0.3,0.1c0.5,0,1.2-0.2,1.6-0.5
						c2.6-1.5,5.1-3.2,7.6-4.7c0.8-0.5,1.5-0.7,2.2-0.7c0.8,0,1.6,0.4,2.5,1.2c2.1,1.7,4.3,3.3,6.6,4.8c0.3,0.2,0.7,0.3,1.1,0.4
						c0.2,0,0.4,0,0.6-0.1C156,272.8,156,272.7,156.1,272.7"/>
				</g>
			</g>
		</g>
	</g>
</g>
</svg>
