<?xml version="1.0" encoding="utf-8"?>
<!-- Generator: Adobe Illustrator 21.0.0, SVG Export Plug-In . SVG Version: 6.00 Build 0)  -->
<svg version="1.1" id="Calque_1" xmlns="http://www.w3.org/2000/svg" xmlns:xlink="http://www.w3.org/1999/xlink" x="0px" y="0px"
	 viewBox="0 0 566.9 566.9" style="enable-background:new 0 0 566.9 566.9;" xml:space="preserve">
<style type="text/css">
	.st0{opacity:0.3;}
	.st1{enable-background:new    ;}
	.st2{clip-path:url(#SVGID_2_);enable-background:new    ;}
	.st3{fill:#7E7E7E;}
	.st4{fill:#838383;}
	.st5{fill:#888888;}
	.st6{fill:#8C8C8C;}
	.st7{fill:#919191;}
	.st8{fill:#969696;}
	.st9{fill:#9B9B9B;}
	.st10{fill:#A0A0A0;}
	.st11{clip-path:url(#SVGID_4_);enable-background:new    ;}
	.st12{clip-path:url(#SVGID_6_);enable-background:new    ;}
	.st13{clip-path:url(#SVGID_8_);enable-background:new    ;}
	.st14{clip-path:url(#SVGID_10_);enable-background:new    ;}
	.st15{fill:#D0D0D0;}
	.st16{clip-path:url(#SVGID_12_);enable-background:new    ;}
	.st17{clip-path:url(#SVGID_14_);enable-background:new    ;}
	.st18{clip-path:url(#SVGID_16_);enable-background:new    ;}
	.st19{clip-path:url(#SVGID_18_);enable-background:new    ;}
	.st20{clip-path:url(#SVGID_20_);enable-background:new    ;}
	.st21{clip-path:url(#SVGID_22_);enable-background:new    ;}
	.st22{clip-path:url(#SVGID_24_);enable-background:new    ;}
	.st23{clip-path:url(#SVGID_26_);enable-background:new    ;}
	.st24{clip-path:url(#SVGID_28_);enable-background:new    ;}
	.st25{clip-path:url(#SVGID_30_);enable-background:new    ;}
	.st26{clip-path:url(#SVGID_32_);enable-background:new    ;}
	.st27{clip-path:url(#SVGID_34_);enable-background:new    ;}
	.st28{clip-path:url(#SVGID_36_);enable-background:new    ;}
	.st29{clip-path:url(#SVGID_38_);enable-background:new    ;}
	.st30{clip-path:url(#SVGID_40_);enable-background:new    ;}
	.st31{clip-path:url(#SVGID_42_);enable-background:new    ;}
	.st32{clip-path:url(#SVGID_44_);enable-background:new    ;}
	.st33{clip-path:url(#SVGID_46_);enable-background:new    ;}
	.st34{clip-path:url(#SVGID_48_);enable-background:new    ;}
	.st35{clip-path:url(#SVGID_50_);enable-background:new    ;}
	.st36{clip-path:url(#SVGID_52_);enable-background:new    ;}
	.st37{clip-path:url(#SVGID_54_);enable-background:new    ;}
	.st38{clip-path:url(#SVGID_56_);enable-background:new    ;}
	.st39{clip-path:url(#SVGID_58_);enable-background:new    ;}
	.st40{clip-path:url(#SVGID_60_);enable-background:new    ;}
	.st41{clip-path:url(#SVGID_62_);enable-background:new    ;}
	.st42{clip-path:url(#SVGID_64_);enable-background:new    ;}
	.st43{clip-path:url(#SVGID_66_);enable-background:new    ;}
	.st44{clip-path:url(#SVGID_68_);enable-background:new    ;}
	.st45{clip-path:url(#SVGID_70_);enable-background:new    ;}
	.st46{clip-path:url(#SVGID_72_);enable-background:new    ;}
	.st47{clip-path:url(#SVGID_74_);enable-background:new    ;}
	.st48{clip-path:url(#SVGID_76_);enable-background:new    ;}
	.st49{clip-path:url(#SVGID_78_);enable-background:new    ;}
	.st50{clip-path:url(#SVGID_80_);enable-background:new    ;}
	.st51{clip-path:url(#SVGID_82_);enable-background:new    ;}
	.st52{clip-path:url(#SVGID_84_);enable-background:new    ;}
	.st53{clip-path:url(#SVGID_86_);enable-background:new    ;}
	.st54{clip-path:url(#SVGID_88_);enable-background:new    ;}
	.st55{clip-path:url(#SVGID_90_);enable-background:new    ;}
	.st56{clip-path:url(#SVGID_92_);enable-background:new    ;}
	.st57{clip-path:url(#SVGID_94_);enable-background:new    ;}
	.st58{clip-path:url(#SVGID_96_);enable-background:new    ;}
	.st59{clip-path:url(#SVGID_98_);enable-background:new    ;}
	.st60{clip-path:url(#SVGID_100_);enable-background:new    ;}
	.st61{clip-path:url(#SVGID_102_);enable-background:new    ;}
	.st62{clip-path:url(#SVGID_104_);enable-background:new    ;}
</style>
<g class="st0">
	<g>
		<g class="st1">
			<g class="st1">
				<defs>
					<path id="SVGID_1_" class="st1" d="M306.2,204.3l4.3,4c-2.4-2.3-5.3-4.1-8.8-5.1c-3.7-1.1-7.5-1.8-11.3-2
						c-3.5-0.2-7,0.1-10.6,1c-14.3,3.5-23.6,12.4-24.7,28.1c-0.5,6.8-0.9,13.7-1.2,20.5c-0.1,2-0.1,3,0.4,3.6l-4.3-4
						c-0.6-0.5-0.5-1.5-0.4-3.6c0.3-6.8,0.7-13.7,1.2-20.5c1-15.7,10.4-24.6,24.7-28.1c3.6-0.9,7.1-1.1,10.6-1
						c3.8,0.2,7.6,0.9,11.3,2C300.9,200.2,303.8,202,306.2,204.3z"/>
				</defs>
				<clipPath id="SVGID_2_">
					<use xlink:href="#SVGID_1_"  style="overflow:visible;"/>
				</clipPath>
				<g class="st2">
					<path class="st3" d="M306.2,204.3l4.3,4c-2.4-2.3-5.3-4.1-8.8-5.1c-3.7-1.1-7.5-1.8-11.3-2c-3.5-0.2-7,0.1-10.6,1
						c-7.8,1.9-14.2,5.4-18.5,10.9l-4.3-4c4.3-5.4,10.7-9,18.5-10.9c3.6-0.9,7.1-1.1,10.6-1c3.8,0.2,7.6,0.9,11.3,2
						C300.9,200.2,303.8,202,306.2,204.3"/>
					<path class="st4" d="M257,209l4.3,4c-0.9,1.2-1.8,2.4-2.5,3.7l-4.3-4C255.2,211.4,256,210.1,257,209"/>
					<path class="st5" d="M254.5,212.7l4.3,4c-0.6,1.2-1.2,2.4-1.7,3.7l-4.3-4C253.3,215.1,253.8,213.9,254.5,212.7"/>
					<path class="st6" d="M252.8,216.4l4.3,4c-0.5,1.3-0.9,2.7-1.2,4.2l-4.3-4C251.9,219.2,252.3,217.8,252.8,216.4"/>
					<path class="st7" d="M251.6,220.6l4.3,4c-0.4,1.7-0.6,3.5-0.8,5.4l-4.3-4C251,224.1,251.2,222.3,251.6,220.6"/>
					<path class="st8" d="M250.8,226l4.3,4c0,0.1,0,0.1,0,0.2c-0.5,6.8-0.9,13.7-1.2,20.5c0,1-0.1,1.8,0,2.4l-4.3-4
						c-0.1-0.6,0-1.3,0-2.4c0.3-6.8,0.7-13.7,1.2-20.5C250.8,226.1,250.8,226.1,250.8,226"/>
					<path class="st9" d="M249.6,249.1l4.3,4c0,0.3,0.1,0.5,0.1,0.7l-4.3-4C249.7,249.6,249.7,249.3,249.6,249.1"/>
					<path class="st10" d="M249.8,249.8l4.3,4c0,0.1,0.1,0.2,0.2,0.3l-4.3-4C249.9,250,249.8,249.9,249.8,249.8"/>
					<path class="st9" d="M249.9,250.1l4.3,4c0,0.1,0.1,0.1,0.1,0.1l-4.3-4C250,250.2,250,250.2,249.9,250.1"/>
				</g>
			</g>
			<g class="st1">
				<defs>
					<path id="SVGID_3_" class="st1" d="M318,193.7l4.3,4c4.5,4.2,8,9.4,10.4,15.7c3.7,9.9,4.6,20,4,30.4c-0.2,3.3-0.4,6.6-0.5,10
						c-0.1,2.8-0.2,4,0.7,4.8l-4.3-4c-0.8-0.8-0.8-2-0.7-4.8c0.2-3.3,0.3-6.6,0.5-10c0.7-10.4-0.2-20.5-4-30.4
						C325.9,203.1,322.5,197.9,318,193.7z"/>
				</defs>
				<clipPath id="SVGID_4_">
					<use xlink:href="#SVGID_3_"  style="overflow:visible;"/>
				</clipPath>
				<g class="st11">
					<path class="st9" d="M318,193.7l4.3,4c1.4,1.3,2.7,2.7,3.9,4.2l-4.3-4C320.6,196.4,319.3,195,318,193.7"/>
					<path class="st10" d="M321.8,197.8l4.3,4c2.7,3.4,4.8,7.2,6.5,11.6c0,0.1,0.1,0.2,0.1,0.3l-4.3-4c0-0.1-0.1-0.2-0.1-0.3
						C326.7,205,324.5,201.2,321.8,197.8"/>
					<path class="st9" d="M328.4,209.7l4.3,4c2,5.4,3.2,10.8,3.7,16.4l-4.3-4C331.6,220.6,330.4,215.1,328.4,209.7"/>
					<path class="st8" d="M332.1,226.1l4.3,4c0.4,4.5,0.4,9.1,0.1,13.7c-0.2,3.3-0.4,6.6-0.5,10c-0.1,1.4-0.1,2.4,0,3.1l-4.3-4
						c-0.1-0.8,0-1.8,0-3.1c0.2-3.3,0.3-6.6,0.5-10C332.6,235.2,332.6,230.6,332.1,226.1"/>
					<path class="st9" d="M331.7,252.9l4.3,4c0,0.4,0.1,0.7,0.2,0.9l-4.3-4C331.8,253.6,331.7,253.3,331.7,252.9"/>
					<path class="st10" d="M331.9,253.8l4.3,4c0.1,0.2,0.2,0.4,0.3,0.5l-4.3-4C332.1,254.2,332,254,331.9,253.8"/>
					<path class="st9" d="M332.2,254.4l4.3,4c0.1,0.1,0.1,0.2,0.2,0.2l-4.3-4C332.3,254.5,332.2,254.4,332.2,254.4"/>
				</g>
			</g>
			<g class="st1">
				<defs>
					<path id="SVGID_5_" class="st1" d="M289.9,286.4l4.3,4c-1.8-1.7-4-2.7-6.8-3.4c-0.8-0.2-1.6-0.3-2.4-0.3
						c-5.2-0.2-10.1,2.6-13.1,7.3c-2.7,4.3-2.9,12.6,0.7,16c3.4,3.3,2.9,6.4,1.9,10c-2,7.3-3.9,14.7-5.8,22c-0.5,2-0.4,3.3,0.4,4.1
						l-4.3-4c-0.8-0.8-0.9-2.1-0.4-4.1c1.9-7.4,3.8-14.7,5.8-22c1-3.7,1.5-6.8-1.9-10c-3.6-3.5-3.4-11.7-0.7-16
						c3-4.8,7.9-7.6,13.1-7.3c0.8,0,1.6,0.1,2.4,0.3C285.9,283.7,288.1,284.7,289.9,286.4z"/>
				</defs>
				<clipPath id="SVGID_6_">
					<use xlink:href="#SVGID_5_"  style="overflow:visible;"/>
				</clipPath>
				<g class="st12">
					<path class="st3" d="M289.9,286.4l4.3,4c-1.8-1.7-4-2.7-6.8-3.4c-0.8-0.2-1.6-0.3-2.4-0.3c-4.6-0.2-9,2-12,5.8l-4.3-4
						c3-3.8,7.4-6,12-5.8c0.8,0,1.6,0.1,2.4,0.3C285.9,283.7,288.1,284.7,289.9,286.4"/>
					<path class="st4" d="M268.6,288.5l4.3,4c-0.4,0.5-0.8,1-1.1,1.6c-0.1,0.2-0.2,0.4-0.3,0.6l-4.3-4c0.1-0.2,0.2-0.4,0.3-0.6
						C267.8,289.5,268.2,289,268.6,288.5"/>
					<path class="st5" d="M267.2,290.6l4.3,4c-0.3,0.5-0.5,1-0.7,1.6l-4.3-4C266.7,291.6,266.9,291.1,267.2,290.6"/>
					<path class="st6" d="M266.4,292.2l4.3,4c-0.2,0.6-0.4,1.3-0.6,2l-4.3-4C266,293.5,266.2,292.8,266.4,292.2"/>
					<path class="st7" d="M265.9,294.2l4.3,4c-0.2,0.8-0.3,1.7-0.4,2.5l-4.3-4C265.6,295.9,265.7,295,265.9,294.2"/>
					<path class="st8" d="M265.5,296.7l4.3,4c-0.1,1-0.1,1.9,0,2.9l-4.3-4C265.4,298.7,265.4,297.7,265.5,296.7"/>
					<path class="st9" d="M265.5,299.6l4.3,4c0.1,1.2,0.4,2.4,0.8,3.4l-4.3-4C265.9,302,265.6,300.8,265.5,299.6"/>
					<path class="st10" d="M266.3,303l4.3,4c0.3,0.9,0.7,1.7,1.3,2.3l-4.3-4C267,304.7,266.6,303.9,266.3,303"/>
					<path class="st9" d="M267.6,305.3l4.3,4c0.2,0.2,0.4,0.5,0.6,0.7c0.4,0.4,0.7,0.7,1,1.1l-4.3-4c-0.3-0.4-0.6-0.7-1-1.1
						C268,305.8,267.8,305.6,267.6,305.3"/>
					<path class="st10" d="M269.2,307.1l4.3,4c0.5,0.7,0.9,1.4,1.2,2.1l-4.3-4C270.1,308.5,269.8,307.8,269.2,307.1"/>
					<path class="st9" d="M270.4,309.2l4.3,4c0.2,0.6,0.3,1.2,0.4,1.8l-4.3-4C270.7,310.4,270.6,309.8,270.4,309.2"/>
					<path class="st8" d="M270.8,311l4.3,4c0,0.5,0,0.9,0,1.4l-4.3-4C270.9,311.9,270.9,311.4,270.8,311"/>
					<path class="st7" d="M270.8,312.4l4.3,4c0,0.7-0.2,1.3-0.3,2l-4.3-4C270.7,313.8,270.8,313.1,270.8,312.4"/>
					<path class="st6" d="M270.5,314.5l4.3,4c-0.1,0.5-0.3,1.1-0.4,1.6c-2,7.3-3.9,14.7-5.8,22c0,0.2-0.1,0.3-0.1,0.5l-4.3-4
						c0-0.2,0.1-0.3,0.1-0.5c1.9-7.4,3.8-14.7,5.8-22C270.2,315.5,270.4,315,270.5,314.5"/>
					<path class="st7" d="M264.2,338.6l4.3,4c-0.1,0.5-0.2,0.9-0.2,1.2l-4.3-4C264,339.5,264.1,339,264.2,338.6"/>
					<path class="st8" d="M264,339.8l4.3,4c0,0.3,0,0.5,0,0.8l-4.3-4C264,340.4,264,340.1,264,339.8"/>
					<path class="st9" d="M264,340.6l4.3,4c0,0.3,0.1,0.5,0.2,0.7l-4.3-4C264.1,341.1,264,340.9,264,340.6"/>
					<path class="st10" d="M264.2,341.4l4.3,4c0.1,0.2,0.2,0.4,0.3,0.6l-4.3-4C264.4,341.8,264.3,341.6,264.2,341.4"/>
					<path class="st9" d="M264.5,342l4.3,4c0.1,0.1,0.1,0.2,0.2,0.2l-4.3-4C264.6,342.1,264.6,342,264.5,342"/>
				</g>
			</g>
			<g class="st1">
				<defs>
					<path id="SVGID_7_" class="st1" d="M215.4,367.9l-4.3-4c0.7,0.7,1.6,1.4,2.5,2c4,2.8,8.4,4.6,13.5,4.9
						c5.5,0.3,10.9,0.5,16.4,0.8c10.9,0.5,21.9,1,32.8,1.6l4.3,4c-10.9-0.6-21.9-1.1-32.8-1.6c-5.5-0.3-10.9-0.5-16.4-0.8
						c-5-0.2-9.5-2.1-13.5-4.9C216.9,369.3,216.1,368.7,215.4,367.9z"/>
				</defs>
				<clipPath id="SVGID_8_">
					<use xlink:href="#SVGID_7_"  style="overflow:visible;"/>
				</clipPath>
				<g class="st13">
					<path class="st3" d="M276.2,373.2l4.3,4c-10.9-0.6-21.9-1.1-32.8-1.6c-5.5-0.3-10.9-0.5-16.4-0.8c-5-0.2-9.5-2.1-13.5-4.9
						c-0.9-0.6-1.7-1.3-2.5-2l-4.3-4c0.7,0.7,1.6,1.4,2.5,2c4,2.8,8.4,4.6,13.5,4.9c5.5,0.3,10.9,0.5,16.4,0.8
						C254.4,372.1,265.3,372.6,276.2,373.2"/>
				</g>
			</g>
			<g class="st1">
				<defs>
					<path id="SVGID_9_" class="st1" d="M346.4,261.7l4.3,4c0.8,0.8,1.6,1.6,2.3,2.5c2.6,3.3,4,6.9,4.2,11.2
						c0.9,16.6-1.2,33.2-1.9,49.8l-4.3-4c0.7-16.6,2.8-33.1,1.9-49.8c-0.2-4.3-1.6-7.9-4.2-11.2C348,263.3,347.2,262.4,346.4,261.7z
						"/>
				</defs>
				<clipPath id="SVGID_10_">
					<use xlink:href="#SVGID_9_"  style="overflow:visible;"/>
				</clipPath>
				<g class="st14">
					<path class="st9" d="M346.4,261.7l4.3,4c0.8,0.7,1.5,1.5,2.2,2.4l-4.3-4C348,263.2,347.2,262.4,346.4,261.7"/>
					<path class="st10" d="M348.7,264.1l4.3,4c0,0,0,0,0,0.1c1.3,1.7,2.4,3.5,3.1,5.4l-4.3-4C351.1,267.6,350,265.9,348.7,264.1
						C348.7,264.1,348.7,264.1,348.7,264.1"/>
					<path class="st9" d="M351.8,269.5l4.3,4c0.6,1.5,0.9,3.1,1.1,4.9l-4.3-4C352.7,272.7,352.3,271,351.8,269.5"/>
					<path class="st8" d="M352.9,274.4l4.3,4c0,0.3,0.1,0.7,0.1,1c0.9,16.6-1.2,33.2-1.9,49.8l-4.3-4c0.7-16.6,2.8-33.1,1.9-49.8
						C352.9,275.1,352.9,274.7,352.9,274.4"/>
				</g>
			</g>
			<g>
				<path class="st15" d="M351,325.2c-0.4,9.9-2,19.8-2.4,29.8c-0.4,9.7-9.3,21.3-22.9,20.7c-6.8-0.4-13.3-0.8-19.9-1.1
					c-9.9-0.5-19.8-0.9-29.7-1.4c-10.9-0.6-21.9-1.1-32.8-1.6c-5.5-0.3-10.9-0.5-16.4-0.8c-5-0.2-9.5-2.1-13.5-4.9
					c-5.9-4.1-8.6-9.9-8.2-17c1.3-25.6,2.9-51.2,4.1-76.8c0.4-9.6,8.4-20.1,19.8-21.2c4-0.4,4.8-1.4,5.1-5.7
					c0.4-6.4,0.8-12.9,1.1-19.3c0.4-9.2,3.1-17.8,8.4-25.2c2.8-3.9,6.4-7.7,10.5-10.1c9.5-5.8,19.7-9.3,31.1-8.8
					c0.4,0,0.8,0,1.1,0.1c7.1,0.5,13.9,1.3,20.4,4.4c10.2,5,17.4,12.5,21.5,23.3c3.7,9.9,4.6,20,4,30.4c-0.2,3.3-0.4,6.6-0.5,10
					c-0.2,4.9-0.2,5,4.5,6.4c5,1.4,9.2,4,12.5,8c2.6,3.3,4,6.9,4.2,11.2C353.8,292,351.7,308.6,351,325.2z M315.4,249.7
					c0.4-6.8,0.9-13.7,1.1-20.5c0.2-6-1.4-11.8-4.1-16.8c-3.3-5.9-7.9-11.1-14.9-13.2c-3.7-1.1-7.5-1.8-11.3-2
					c-3.5-0.2-7,0.1-10.6,1c-14.3,3.5-23.6,12.4-24.7,28.1c-0.5,6.8-0.9,13.7-1.2,20.5c-0.2,3.9-0.1,4,3.7,4.2
					c4.1,0.2,8.2,0.4,12.3,0.6c5.5,0.3,10.9,0.5,16.4,0.8c5.5,0.3,10.9,0.5,16.4,0.8c4.1,0.2,8.2,0.4,12.3,0.6
					C315,253.8,315.1,253.7,315.4,249.7 M287.6,315.6c-0.2-1.8,0.3-3.8,1-5.5c0.6-1.4,1.7-2.6,2.8-3.7c3.3-3.7,4.1-7.8,2.7-12.5
					c-1.9-6.4-5.3-9.4-11-10.8c-0.8-0.2-1.6-0.3-2.4-0.3c-5.2-0.2-10.1,2.6-13.1,7.3c-2.7,4.3-2.9,12.6,0.7,16
					c3.4,3.3,2.9,6.4,1.9,10c-2,7.3-3.9,14.7-5.8,22c-0.9,3.6,0.1,4.9,3.9,5.2c1.1,0.1,2.2,0.2,3.4,0.2c1.8,0.1,3.6,0.1,5.4,0.2
					c2,0.1,4.1,0.2,6.1,0.3c1.3,0.1,2.6,0.1,3.9,0.1c3.9,0,4.9-1.2,4.3-5C290.1,331.3,288.7,323.4,287.6,315.6"/>
			</g>
			<g class="st1">
				<defs>
					<path id="SVGID_11_" class="st1" d="M351,325.2l4.3,4c-0.4,9.9-2,19.8-2.4,29.8c-0.4,9.7-9.3,21.3-22.9,20.7
						c-6.8-0.4-13.3-0.8-19.9-1.1c-9.9-0.5-19.8-0.9-29.7-1.4l-4.3-4c9.9,0.5,19.8,0.9,29.7,1.4c6.5,0.3,13,0.6,19.9,1.1
						c13.5,0.6,22.5-11,22.9-20.7C349,345,350.6,335.1,351,325.2z"/>
				</defs>
				<clipPath id="SVGID_12_">
					<use xlink:href="#SVGID_11_"  style="overflow:visible;"/>
				</clipPath>
				<g class="st16">
					<path class="st8" d="M351,325.2l4.3,4c-0.1,1.4-0.1,2.8-0.2,4.1l-4.3-4C350.9,327.9,350.9,326.5,351,325.2"/>
					<path class="st7" d="M350.8,329.3l4.3,4c-0.5,6.9-1.4,13.9-1.9,20.8l-4.3-4C349.4,343.1,350.3,336.2,350.8,329.3"/>
					<path class="st8" d="M348.9,350.1l4.3,4c-0.1,1.6-0.2,3.2-0.3,4.8c0,0.2,0,0.4,0,0.5l-4.3-4c0-0.2,0-0.4,0-0.5
						C348.7,353.3,348.8,351.7,348.9,350.1"/>
					<path class="st7" d="M348.6,355.5l4.3,4c-0.1,0.9-0.2,1.8-0.4,2.6l-4.3-4C348.4,357.2,348.5,356.3,348.6,355.5"/>
					<path class="st6" d="M348.2,358.1l4.3,4c-0.2,0.9-0.5,1.9-0.8,2.8l-4.3-4C347.7,360,348,359,348.2,358.1"/>
					<path class="st5" d="M347.4,360.9l4.3,4c-0.4,1-0.8,2-1.4,3l-4.3-4C346.6,362.9,347,361.9,347.4,360.9"/>
					<path class="st4" d="M346,363.9l4.3,4c-0.6,1.2-1.4,2.3-2.3,3.4l-4.3-4C344.6,366.2,345.4,365.1,346,363.9"/>
					<path class="st3" d="M343.8,367.3l4.3,4c-4,5-10.2,8.7-18,8.3c-6.8-0.4-13.3-0.8-19.9-1.1c-9.9-0.5-19.8-0.9-29.7-1.4l-4.3-4
						c9.9,0.5,19.8,0.9,29.7,1.4c6.5,0.3,13,0.6,19.9,1.1C333.5,376,339.8,372.3,343.8,367.3"/>
				</g>
			</g>
		</g>
		<g class="st1">
			<g class="st1">
				<defs>
					<path id="SVGID_13_" class="st1" d="M448.9,292.3l4.3,4c-2.5-2.3-5.2-4.5-7.7-6.7c-0.5-0.4-0.9-0.8-1.4-1.2l-4.3-4
						c0.4,0.4,0.9,0.8,1.4,1.2C443.8,287.8,446.5,289.9,448.9,292.3z"/>
				</defs>
				<clipPath id="SVGID_14_">
					<use xlink:href="#SVGID_13_"  style="overflow:visible;"/>
				</clipPath>
				<g class="st17">
					<path class="st3" d="M448.9,292.3l4.3,4c-2.5-2.3-5.2-4.5-7.7-6.7c-0.5-0.4-0.9-0.8-1.4-1.2l-4.3-4c0.4,0.4,0.9,0.8,1.4,1.2
						C443.8,287.8,446.5,289.9,448.9,292.3"/>
				</g>
			</g>
			<g class="st1">
				<defs>
					<path id="SVGID_15_" class="st1" d="M481.2,284.3l-4.3-4c-0.9-0.8-1.4-2.1-2.1-4.4c-1.2-3.9-2.4-7.8-3.7-11.6
						c-0.3-1-1-1.9-1.5-2.9l4.3,4c0.5,0.9,1.1,1.9,1.5,2.9c1.3,3.9,2.5,7.8,3.7,11.6C479.9,282.2,480.4,283.5,481.2,284.3z"/>
				</defs>
				<clipPath id="SVGID_16_">
					<use xlink:href="#SVGID_15_"  style="overflow:visible;"/>
				</clipPath>
				<g class="st18">
					<path class="st10" d="M469.7,261.4l4.3,4c0.5,0.9,1.1,1.7,1.4,2.7l-4.3-4C470.8,263.2,470.2,262.3,469.7,261.4"/>
					<path class="st9" d="M471.1,264.1l4.3,4c0,0.1,0,0.1,0.1,0.2c1.3,3.9,2.5,7.8,3.7,11.6c0.2,0.7,0.4,1.3,0.6,1.8l-4.3-4
						c-0.2-0.5-0.4-1.1-0.6-1.8c-1.2-3.9-2.4-7.8-3.7-11.6C471.2,264.2,471.2,264.2,471.1,264.1"/>
					<path class="st10" d="M475.5,277.7l4.3,4c0.4,1,0.7,1.7,1.1,2.2l-4.3-4C476.2,279.4,475.8,278.7,475.5,277.7"/>
					<path class="st9" d="M476.6,279.9l4.3,4c0.1,0.1,0.2,0.3,0.4,0.4l-4.3-4C476.9,280.2,476.7,280.1,476.6,279.9"/>
				</g>
			</g>
			<g>
				<path class="st15" d="M469.7,261.4c0.5,0.9,1.1,1.9,1.5,2.9c1.3,3.9,2.5,7.8,3.7,11.6c1.5,4.9,2.2,5.4,7.4,5.8
					c2,0.1,4,0.2,6,0.3c1.1,0.1,2.2,0.1,3.3,0.2c0.1,0,0.1,0,0.2,0c0.3,0,0.5,0,0.8,0c0.3,0,0.6,0,0.9,0c0.5,0,1.1,0.1,1.6,0.3
					c1,0.4,2,1.2,2.5,2c0.2,0.5-0.7,1.8-1.4,2.3c-3,2.2-6.1,4.2-9.1,6.3c-4,2.7-6.4,5.7-4.6,11.2c1.5,4.3,1.6,9.1,2.3,13.7
					c0.1,0.5-0.5,1-0.9,1.8c-1.1-0.7-1.7-1.1-2.3-1.6c-3.5-2.7-7-5.5-10.6-8.1c-1.8-1.4-3.3-2.1-4.8-2.2c-1.5-0.1-2.9,0.5-4.7,1.7
					c-3.6,2.3-7.1,4.8-10.7,7.1c-0.9,0.5-2.1,0.4-3.2,0.6c-0.1-1.1-0.7-2.3-0.4-3.3c1.2-3.7,2.6-7.3,4.1-10.9
					c2-4.8,1.8-6.9-1.8-10.4c-2.6-2.5-5.5-4.8-8.3-7.2c-0.7-0.6-1.5-1.2-2.1-2c-1.2-1.4-0.7-3.2,1.2-3.5c1.3-0.3,2.7-0.1,4.1-0.1
					c3.1,0.1,6.2,0.2,9.4,0.4c3.7,0.2,6.5-1.1,8-4.7c1.5-3.4,3-6.8,4.4-10.2c0.2-0.5,0.2-1.3,0.6-1.6
					C467.6,263,468.7,262.2,469.7,261.4z"/>
			</g>
			<g class="st1">
				<defs>
					<path id="SVGID_17_" class="st1" d="M496.8,283.6l4.3,4c0.3,0.3,0.6,0.6,0.8,1c0.2,0.5-0.7,1.8-1.4,2.3c-3,2.2-6.1,4.2-9.1,6.3
						c-4,2.7-6.4,5.7-4.6,11.2c1.5,4.3,1.6,9.1,2.3,13.7c0.1,0.5-0.5,1-0.9,1.8l-4.3-4c0.4-0.7,0.9-1.3,0.9-1.8
						c-0.6-4.6-0.8-9.4-2.3-13.7c-1.8-5.5,0.6-8.5,4.6-11.2c3.1-2.1,6.1-4.1,9.1-6.3c0.7-0.5,1.6-1.8,1.4-2.3
						C497.4,284.2,497.1,283.9,496.8,283.6z"/>
				</defs>
				<clipPath id="SVGID_18_">
					<use xlink:href="#SVGID_17_"  style="overflow:visible;"/>
				</clipPath>
				<g class="st19">
					<path class="st9" d="M496.8,283.6l4.3,4c0.1,0.1,0.3,0.3,0.4,0.4l-4.3-4C497.1,283.8,497,283.7,496.8,283.6"/>
					<path class="st10" d="M497.2,284l4.3,4c0.1,0.2,0.3,0.4,0.4,0.5c0,0,0,0,0,0l-4.3-4c0,0,0,0,0,0
						C497.5,284.4,497.4,284.2,497.2,284"/>
					<path class="st9" d="M497.6,284.6l4.3,4c0,0,0,0.1,0,0.1l-4.3-4C497.6,284.6,497.6,284.6,497.6,284.6"/>
					<path class="st8" d="M497.6,284.7l4.3,4c0,0,0,0.1,0,0.1L497.6,284.7C497.6,284.7,497.6,284.7,497.6,284.7"/>
					<path class="st7" d="M497.6,284.8l4.3,4c0,0,0,0.1,0,0.1l-4.3-4C497.6,284.8,497.6,284.8,497.6,284.8"/>
					<path class="st6" d="M497.6,284.9l4.3,4c0,0.1,0,0.1-0.1,0.2l-4.3-4C497.6,285,497.6,285,497.6,284.9"/>
					<path class="st5" d="M497.5,285.1l4.3,4c0,0.1-0.1,0.2-0.2,0.4l-4.3-4C497.4,285.4,497.5,285.2,497.5,285.1"/>
					<path class="st4" d="M497.4,285.5l4.3,4c-0.1,0.2-0.3,0.5-0.5,0.7l-4.3-4C497.1,286,497.2,285.7,497.4,285.5"/>
					<path class="st3" d="M496.9,286.2l4.3,4c-0.2,0.3-0.4,0.5-0.7,0.7c-3,2.2-6.1,4.2-9.1,6.3c-1.4,1-2.6,2-3.6,3.1l-4.3-4
						c0.9-1.1,2.1-2.1,3.6-3.1c3.1-2.1,6.1-4.1,9.1-6.3C496.4,286.7,496.7,286.4,496.9,286.2"/>
					<path class="st4" d="M483.6,296.2l4.3,4c-0.3,0.4-0.6,0.8-0.8,1.2l-4.3-4C483,297,483.2,296.6,483.6,296.2"/>
					<path class="st5" d="M482.8,297.4l4.3,4c-0.2,0.3-0.3,0.6-0.4,1l-4.3-4C482.4,298.1,482.6,297.7,482.8,297.4"/>
					<path class="st6" d="M482.3,298.4l4.3,4c-0.1,0.3-0.2,0.6-0.3,0.9l-4.3-4C482.1,299,482.2,298.7,482.3,298.4"/>
					<path class="st7" d="M482,299.3l4.3,4c-0.1,0.3-0.1,0.7-0.1,1l-4.3-4C481.9,300,482,299.7,482,299.3"/>
					<path class="st8" d="M481.9,300.4l4.3,4c0,0.4,0,0.9,0,1.4l-4.3-4C481.9,301.3,481.9,300.8,481.9,300.4"/>
					<path class="st9" d="M481.9,301.8l4.3,4c0.1,0.8,0.3,1.7,0.6,2.6c1.5,4.3,1.6,9.1,2.3,13.7c0,0,0,0,0,0l-4.3-4c0,0,0,0,0,0
						c-0.6-4.6-0.8-9.4-2.3-13.7C482.2,303.4,482,302.6,481.9,301.8"/>
					<path class="st8" d="M484.8,318.1l4.3,4c0,0,0,0.1,0,0.1L484.8,318.1C484.8,318.1,484.8,318.1,484.8,318.1"/>
					<path class="st7" d="M484.8,318.2l4.3,4c0,0,0,0.1,0,0.1l-4.3-4C484.8,318.2,484.8,318.2,484.8,318.2"/>
					<path class="st6" d="M484.8,318.3l4.3,4c0,0,0,0.1,0,0.1l-4.3-4C484.7,318.4,484.7,318.3,484.8,318.3"/>
					<path class="st5" d="M484.7,318.4l4.3,4c0,0.1-0.1,0.2-0.1,0.2l-4.3-4C484.6,318.6,484.7,318.5,484.7,318.4"/>
					<path class="st4" d="M484.6,318.6l4.3,4c-0.2,0.3-0.5,0.7-0.7,1.1l-4.3-4C484.1,319.3,484.4,319,484.6,318.6"/>
					<path class="st5" d="M483.9,319.7l4.3,4c0,0,0,0,0,0.1L483.9,319.7C483.9,319.8,483.9,319.8,483.9,319.7"/>
				</g>
			</g>
			<g class="st1">
				<defs>
					<path id="SVGID_19_" class="st1" d="M483.9,319.8l4.3,4c-1.1-0.7-1.7-1.1-2.3-1.6c-3.5-2.7-7-5.5-10.6-8.1
						c-1.8-1.4-3.3-2.1-4.8-2.2c-1.5-0.1-2.9,0.5-4.7,1.7c-3.6,2.3-7.1,4.8-10.7,7.1c-0.9,0.5-2.1,0.4-3.2,0.6l-4.3-4
						c1.1-0.2,2.3-0.1,3.2-0.6c3.6-2.3,7.1-4.8,10.7-7.1c1.8-1.2,3.3-1.7,4.7-1.7c1.5,0.1,2.9,0.8,4.8,2.2c3.6,2.7,7,5.4,10.6,8.1
						C482.2,318.7,482.8,319.1,483.9,319.8z"/>
				</defs>
				<clipPath id="SVGID_20_">
					<use xlink:href="#SVGID_19_"  style="overflow:visible;"/>
				</clipPath>
				<g class="st20">
					<path class="st3" d="M483.9,319.8l4.3,4c-1.1-0.7-1.7-1.1-2.3-1.6c-3.5-2.7-7-5.5-10.6-8.1c-1.8-1.4-3.3-2.1-4.8-2.2
						c-1.5-0.1-2.9,0.5-4.7,1.7c-3.6,2.3-7.1,4.8-10.7,7.1c-0.9,0.5-2.1,0.4-3.2,0.6l-4.3-4c1.1-0.2,2.3-0.1,3.2-0.6
						c3.6-2.3,7.1-4.8,10.7-7.1c1.8-1.2,3.3-1.7,4.7-1.7c1.5,0.1,2.9,0.8,4.8,2.2c3.6,2.7,7,5.4,10.6,8.1
						C482.2,318.7,482.8,319.1,483.9,319.8"/>
				</g>
			</g>
		</g>
		<g class="st1">
			<g class="st1">
				<defs>
					<path id="SVGID_21_" class="st1" d="M354.7,113.1l4.3,4c0.1,0.4,0.2,0.7,0.2,1.1l-4.3-4C354.9,113.8,354.8,113.4,354.7,113.1z"
						/>
				</defs>
				<clipPath id="SVGID_22_">
					<use xlink:href="#SVGID_21_"  style="overflow:visible;"/>
				</clipPath>
				<g class="st21">
					<path class="st9" d="M354.7,113.1l4.3,4c0.1,0.4,0.2,0.7,0.2,1.1l-4.3-4C354.9,113.8,354.8,113.4,354.7,113.1"/>
				</g>
			</g>
			<g class="st1">
				<defs>
					<path id="SVGID_23_" class="st1" d="M362.9,126.8l4.3,4c-0.2-0.2-0.5-0.4-0.8-0.7c-3-2.3-5.9-4.9-8.7-7.5l-4.3-4
						c2.8,2.6,5.7,5.1,8.7,7.5C362.4,126.4,362.6,126.6,362.9,126.8z"/>
				</defs>
				<clipPath id="SVGID_24_">
					<use xlink:href="#SVGID_23_"  style="overflow:visible;"/>
				</clipPath>
				<g class="st22">
					<path class="st3" d="M362.9,126.8l4.3,4c-0.2-0.2-0.5-0.4-0.8-0.7c-3-2.3-5.9-4.9-8.7-7.5l-4.3-4c2.8,2.6,5.7,5.1,8.7,7.5
						C362.4,126.4,362.6,126.6,362.9,126.8"/>
				</g>
			</g>
			<g class="st1">
				<defs>
					<path id="SVGID_25_" class="st1" d="M393.8,117.9l-4.3-4c-0.7-0.7-1.2-1.6-1.6-2.8c-1.3-4.3-2.5-8.6-3.9-12.8
						c-0.4-1.2-1.2-2.2-1.7-3.3l4.3,4c0.6,1.1,1.4,2.2,1.7,3.3c1.4,4.2,2.6,8.5,3.9,12.8C392.6,116.3,393.1,117.2,393.8,117.9z"/>
				</defs>
				<clipPath id="SVGID_26_">
					<use xlink:href="#SVGID_25_"  style="overflow:visible;"/>
				</clipPath>
				<g class="st23">
					<path class="st10" d="M382.3,95l4.3,4c0.6,1,1.3,2,1.7,3.1l-4.3-4C383.6,97,382.8,96,382.3,95"/>
					<path class="st9" d="M384,98.1l4.3,4c0,0.1,0.1,0.2,0.1,0.2c1.4,4.2,2.6,8.5,3.9,12.8c0.1,0.2,0.1,0.4,0.2,0.6l-4.3-4
						c-0.1-0.2-0.1-0.4-0.2-0.6c-1.3-4.3-2.5-8.6-3.9-12.8C384,98.3,384,98.2,384,98.1"/>
					<path class="st10" d="M388.1,111.7l4.3,4c0.2,0.7,0.5,1.2,0.9,1.7l-4.3-4C388.7,113,388.4,112.4,388.1,111.7"/>
					<path class="st9" d="M389.1,113.4l4.3,4c0.1,0.2,0.3,0.3,0.5,0.5l-4.3-4C389.4,113.8,389.2,113.6,389.1,113.4"/>
				</g>
			</g>
			<g>
				<path class="st15" d="M382.3,95c0.6,1.1,1.4,2.2,1.7,3.3c1.4,4.2,2.6,8.5,3.9,12.8c0.8,2.8,2.5,4,5.5,4.2c5,0.3,10,1.1,15,1.8
					c0.7,0.1,1.6,0.6,1.7,1.1c0.1,0.6-0.4,1.5-0.9,1.9c-2.8,2.1-5.7,4.1-8.5,6.1c-1.3,0.9-2.5,1.9-3.7,2.8c-2.4,1.7-2.9,4-2.3,6.7
					c1,4.5,1.9,9.1,3.1,13.6c0.3,1.3,0.3,2.6-0.9,2.9c-0.2,0-0.3,0.1-0.5,0.1c-0.8,0-1.8-0.5-2.4-1c-3.6-2.6-7.2-5.2-10.6-8.1
					c-1.2-1-2.2-1.5-3.4-1.6c-0.9,0-1.9,0.2-2.9,0.9c-4.3,2.6-8.7,5.1-13.1,7.5c-1,0.6-2.4,0.5-3.6,0.7c0.2-1.3,0.1-2.6,0.5-3.7
					c1.3-3.7,2.9-7.2,4-10.9c1.1-3.7,0.9-7.3-2.6-10c-3.2-2.5-6.3-5.2-9.2-8c-0.8-0.8-1.7-2.5-1.3-3.3c0.4-0.9,2.1-1.2,3.2-1.8
					c0.1,0.4,0.2,0.7,0.2,1.1c4.8,0,9.6-0.1,14.3,0c2.8,0,4.3-1.4,5.2-3.8c1.3-3.3,2.7-6.5,4-9.7c0.4-0.9,0.5-1.9,1.1-2.7
					C380.3,96.8,381.4,96,382.3,95z"/>
			</g>
			<g class="st1">
				<defs>
					<path id="SVGID_27_" class="st1" d="M409.9,117.8l4.3,4c0.1,0.1,0.2,0.3,0.3,0.4c0.1,0.6-0.4,1.5-0.9,1.9
						c-2.8,2.1-5.7,4.1-8.5,6.1c-1.3,0.9-2.5,1.9-3.7,2.8c-2.4,1.7-2.9,4-2.3,6.7c1,4.5,1.9,9.1,3.1,13.6c0.3,1.3,0.3,2.6-0.9,2.9
						c-0.2,0-0.3,0.1-0.5,0.1c-0.8,0-1.8-0.5-2.4-1c-3.6-2.6-7.2-5.2-10.6-8.1c-1.2-1-2.2-1.5-3.4-1.6c-0.9,0-1.9,0.2-2.9,0.9
						c-4.3,2.6-8.7,5.1-13.1,7.5c-1,0.6-2.4,0.5-3.6,0.7l-4.3-4c1.2-0.2,2.6-0.2,3.6-0.7c4.4-2.4,8.8-4.9,13.1-7.5
						c1.1-0.6,2-0.9,2.9-0.9c1.2,0.1,2.2,0.6,3.4,1.6c3.4,2.8,7,5.5,10.6,8.1c0.7,0.5,1.6,0.9,2.4,1c0.2,0,0.4,0,0.5-0.1
						c1.2-0.3,1.3-1.6,0.9-2.9c-1.1-4.5-2-9.1-3.1-13.6c-0.6-2.7-0.1-5,2.3-6.7c1.3-0.9,2.5-1.9,3.7-2.8c2.8-2,5.7-4,8.5-6.1
						c0.5-0.4,1.1-1.4,0.9-1.9C410.2,118.1,410.1,117.9,409.9,117.8z"/>
				</defs>
				<clipPath id="SVGID_28_">
					<use xlink:href="#SVGID_27_"  style="overflow:visible;"/>
				</clipPath>
				<g class="st24">
					<path class="st9" d="M409.9,117.8l4.3,4c0.1,0,0.1,0.1,0.1,0.1l-4.3-4C410,117.9,410,117.8,409.9,117.8"/>
					<path class="st10" d="M410,117.9l4.3,4c0.1,0.1,0.1,0.1,0.1,0.2l-4.3-4C410.1,118.1,410.1,118,410,117.9"/>
					<path class="st9" d="M410.2,118.1l4.3,4c0,0,0,0,0,0.1c0,0,0,0.1,0,0.1l-4.3-4C410.2,118.3,410.2,118.2,410.2,118.1
						C410.2,118.2,410.2,118.2,410.2,118.1"/>
					<path class="st8" d="M410.2,118.3l4.3,4c0,0.1,0,0.1,0,0.2l-4.3-4C410.2,118.4,410.2,118.3,410.2,118.3"/>
					<path class="st7" d="M410.2,118.5l4.3,4c0,0.1,0,0.1,0,0.2l-4.3-4C410.2,118.6,410.2,118.5,410.2,118.5"/>
					<path class="st6" d="M410.2,118.7l4.3,4c0,0.1,0,0.2-0.1,0.3l-4.3-4C410.1,118.8,410.1,118.8,410.2,118.7"/>
					<path class="st5" d="M410.1,118.9l4.3,4c0,0.1-0.1,0.2-0.2,0.4l-4.3-4C410,119.2,410,119.1,410.1,118.9"/>
					<path class="st4" d="M409.9,119.3l4.3,4c-0.1,0.2-0.2,0.3-0.3,0.4l-4.3-4C409.7,119.6,409.8,119.5,409.9,119.3"/>
					<path class="st3" d="M409.6,119.7l4.3,4c-0.1,0.1-0.2,0.3-0.4,0.4c-2.8,2.1-5.7,4.1-8.5,6.1c-1.3,0.9-2.5,1.9-3.7,2.8
						c-0.6,0.4-1,0.8-1.4,1.3l-4.3-4c0.4-0.5,0.8-0.9,1.4-1.3c1.3-0.9,2.5-1.9,3.7-2.8c2.8-2,5.7-4,8.5-6.1
						C409.4,120,409.5,119.9,409.6,119.7"/>
					<path class="st4" d="M395.6,130.3l4.3,4c-0.2,0.2-0.4,0.5-0.5,0.8l-4.3-4C395.2,130.8,395.4,130.6,395.6,130.3"/>
					<path class="st5" d="M395.1,131.1l4.3,4c-0.1,0.2-0.2,0.4-0.3,0.7l-4.3-4C394.9,131.6,395,131.3,395.1,131.1"/>
					<path class="st6" d="M394.8,131.8l4.3,4c-0.1,0.2-0.2,0.5-0.2,0.7l-4.3-4C394.6,132.3,394.7,132,394.8,131.8"/>
					<path class="st7" d="M394.6,132.5l4.3,4c-0.1,0.3-0.1,0.6-0.1,0.8l-4.3-4C394.5,133.1,394.5,132.8,394.6,132.5"/>
					<path class="st8" d="M394.4,133.3l4.3,4c0,0.4,0,0.8,0,1.2l-4.3-4C394.4,134.1,394.4,133.7,394.4,133.3"/>
					<path class="st9" d="M394.5,134.6l4.3,4c0,0.4,0.1,0.8,0.2,1.2c1,4.5,1.9,9.1,3.1,13.6c0.1,0.3,0.1,0.6,0.2,0.9l-4.3-4
						c0-0.3-0.1-0.6-0.2-0.9c-1.1-4.5-2-9.1-3.1-13.6C394.6,135.4,394.5,135,394.5,134.6"/>
					<path class="st8" d="M397.9,150.3l4.3,4c0,0.2,0,0.4,0,0.6l-4.3-4C397.9,150.7,397.9,150.5,397.9,150.3"/>
					<path class="st7" d="M397.9,150.9l4.3,4c0,0.1,0,0.2,0,0.3l-4.3-4C397.9,151.1,397.9,151,397.9,150.9"/>
					<path class="st6" d="M397.9,151.2l4.3,4c0,0.1,0,0.2-0.1,0.2l-4.3-4C397.8,151.4,397.9,151.3,397.9,151.2"/>
					<path class="st5" d="M397.8,151.4l4.3,4c0,0.1-0.1,0.1-0.1,0.2l-4.3-4C397.7,151.6,397.8,151.5,397.8,151.4"/>
					<path class="st4" d="M397.7,151.6l4.3,4c0,0.1-0.1,0.1-0.1,0.2l-4.3-4C397.6,151.8,397.7,151.7,397.7,151.6"/>
					<path class="st3" d="M397.6,151.8l4.3,4c-0.2,0.2-0.4,0.4-0.8,0.5c-0.2,0-0.3,0.1-0.5,0.1c-0.8,0-1.8-0.5-2.4-1
						c-3.6-2.6-7.2-5.2-10.6-8.1c-1.2-1-2.2-1.5-3.4-1.6c-0.9,0-1.9,0.2-2.9,0.9c-4.3,2.6-8.7,5.1-13.1,7.5c-1,0.6-2.4,0.5-3.6,0.7
						l-4.3-4c1.2-0.2,2.6-0.2,3.6-0.7c4.4-2.4,8.8-4.9,13.1-7.5c1.1-0.6,2-0.9,2.9-0.9c1.2,0.1,2.2,0.6,3.4,1.6
						c3.4,2.8,7,5.5,10.6,8.1c0.7,0.5,1.6,0.9,2.4,1c0.2,0,0.4,0,0.5-0.1C397.2,152.2,397.4,152,397.6,151.8"/>
				</g>
			</g>
		</g>
		<g class="st1">
			<g class="st1">
				<defs>
					<path id="SVGID_29_" class="st1" d="M418.6,386.7l4.3,4c-0.1-0.1-0.3-0.2-0.4-0.4c-2.5-2.1-5.1-4.2-7.6-6.3
						c-0.3-0.3-0.6-0.5-0.9-0.8l-4.3-4c0.3,0.3,0.6,0.5,0.9,0.8c2.5,2.1,5.1,4.2,7.6,6.3C418.4,386.5,418.5,386.6,418.6,386.7z"/>
				</defs>
				<clipPath id="SVGID_30_">
					<use xlink:href="#SVGID_29_"  style="overflow:visible;"/>
				</clipPath>
				<g class="st25">
					<path class="st3" d="M418.6,386.7l4.3,4c-0.1-0.1-0.3-0.2-0.4-0.4c-2.5-2.1-5.1-4.2-7.6-6.3c-0.3-0.3-0.6-0.5-0.9-0.8l-4.3-4
						c0.3,0.3,0.6,0.5,0.9,0.8c2.5,2.1,5.1,4.2,7.6,6.3C418.4,386.5,418.5,386.6,418.6,386.7"/>
				</g>
			</g>
			<g class="st1">
				<defs>
					<path id="SVGID_31_" class="st1" d="M448.5,376.7l-4.3-4c-0.9-0.9-1.6-2-2-3.5c-0.2-0.7-0.4-1.5-0.6-2.3
						c-0.9-3.4-1.8-6.7-2.9-10.1c-0.3-1-1.1-1.9-1.7-2.8l4.3,4c0.6,0.9,1.4,1.8,1.7,2.8c1.1,3.3,2,6.7,2.9,10.1
						c0.2,0.7,0.3,1.5,0.6,2.3C447,374.6,447.6,375.8,448.5,376.7z"/>
				</defs>
				<clipPath id="SVGID_32_">
					<use xlink:href="#SVGID_31_"  style="overflow:visible;"/>
				</clipPath>
				<g class="st26">
					<path class="st10" d="M437.1,354l4.3,4c0.6,0.9,1.3,1.7,1.7,2.7l-4.3-4C438.4,355.7,437.6,354.9,437.1,354"/>
					<path class="st9" d="M438.7,356.7l4.3,4c0,0.1,0,0.1,0.1,0.2c1.1,3.3,2,6.7,2.9,10.1c0.2,0.7,0.3,1.5,0.6,2.3
						c0.1,0.2,0.1,0.4,0.2,0.6l-4.3-4c-0.1-0.2-0.1-0.4-0.2-0.6c-0.2-0.7-0.4-1.5-0.6-2.3c-0.9-3.4-1.8-6.7-2.9-10.1
						C438.7,356.8,438.7,356.7,438.7,356.7"/>
					<path class="st10" d="M442.4,369.7l4.3,4c0.3,0.9,0.7,1.7,1.3,2.3l-4.3-4C443.2,371.4,442.8,370.6,442.4,369.7"/>
					<path class="st9" d="M443.7,372l4.3,4c0.2,0.2,0.4,0.4,0.6,0.6l-4.3-4C444.1,372.5,443.9,372.3,443.7,372"/>
				</g>
			</g>
			<g class="st1">
				<defs>
					<path id="SVGID_33_" class="st1" d="M449.8,410.6l4.3,4c-0.5,0-1-0.6-1.4-0.9c-3.8-2.6-7.7-5.2-11.5-7.9
						c-1.1-0.8-2.2-1.2-3.3-1.3c-1.2-0.1-2.4,0.3-3.7,1.1c-3.6,2.3-7.3,4.5-11,6.6c-0.9,0.5-2.1,0.5-3.2,0.7l-4.3-4
						c1.1-0.2,2.3-0.2,3.2-0.7c3.7-2.1,7.4-4.3,11-6.6c1.3-0.8,2.5-1.2,3.7-1.1c1.1,0.1,2.2,0.5,3.3,1.3c3.8,2.7,7.6,5.3,11.5,7.9
						C448.8,410,449.3,410.6,449.8,410.6z"/>
				</defs>
				<clipPath id="SVGID_34_">
					<use xlink:href="#SVGID_33_"  style="overflow:visible;"/>
				</clipPath>
				<g class="st27">
					<path class="st3" d="M449.8,410.6l4.3,4c-0.5,0-1-0.6-1.4-0.9c-3.8-2.6-7.7-5.2-11.5-7.9c-1.1-0.8-2.2-1.2-3.3-1.3
						c-1.2-0.1-2.4,0.3-3.7,1.1c-3.6,2.3-7.3,4.5-11,6.6c-0.9,0.5-2.1,0.5-3.2,0.7l-4.3-4c1.1-0.2,2.3-0.2,3.2-0.7
						c3.7-2.1,7.4-4.3,11-6.6c1.3-0.8,2.5-1.2,3.7-1.1c1.1,0.1,2.2,0.5,3.3,1.3c3.8,2.7,7.6,5.3,11.5,7.9
						C448.8,410,449.3,410.6,449.8,410.6"/>
				</g>
			</g>
			<g class="st1">
				<defs>
					<path id="SVGID_35_" class="st1" d="M464.8,375.7l4.3,4c0.6,0.6,0.6,1.5-0.3,2.4c-0.5,0.6-1.1,1.1-1.8,1.6
						c-3.8,2.7-7.5,5.5-11.4,8.2c-2.4,1.7-3.2,3.6-2.4,6.5c1.2,4.3,1.9,8.7,2.9,13c0.1,0.6,0.3,1.1,0.6,2.2l-4.3-4
						c-0.3-1.1-0.4-1.6-0.6-2.2c-0.9-4.3-1.7-8.8-2.9-13c-0.8-2.9,0-4.9,2.4-6.5c3.8-2.7,7.6-5.4,11.4-8.2c0.6-0.5,1.2-1,1.8-1.6
						C465.4,377.2,465.4,376.3,464.8,375.7z"/>
				</defs>
				<clipPath id="SVGID_36_">
					<use xlink:href="#SVGID_35_"  style="overflow:visible;"/>
				</clipPath>
				<g class="st28">
					<path class="st9" d="M464.8,375.7l4.3,4c0.1,0.1,0.1,0.1,0.2,0.2l-4.3-4C464.9,375.8,464.9,375.7,464.8,375.7"/>
					<path class="st10" d="M465,375.8l4.3,4c0.1,0.1,0.1,0.2,0.2,0.3l-4.3-4C465.1,376.1,465,375.9,465,375.8"/>
					<path class="st9" d="M465.2,376.2l4.3,4c0,0.1,0.1,0.2,0.1,0.3l-4.3-4C465.2,376.4,465.2,376.3,465.2,376.2"/>
					<path class="st8" d="M465.2,376.5l4.3,4c0,0.1,0,0.1,0,0.2l-4.3-4C465.2,376.6,465.2,376.6,465.2,376.5"/>
					<path class="st7" d="M465.2,376.7l4.3,4c0,0.1,0,0.1,0,0.2l-4.3-4C465.2,376.9,465.2,376.8,465.2,376.7"/>
					<path class="st6" d="M465.2,376.9l4.3,4c0,0.1,0,0.2-0.1,0.2l-4.3-4C465.2,377.1,465.2,377,465.2,376.9"/>
					<path class="st5" d="M465.1,377.2l4.3,4c0,0.1-0.1,0.2-0.1,0.3l-4.3-4C465.1,377.3,465.1,377.3,465.1,377.2"/>
					<path class="st4" d="M465,377.4l4.3,4c-0.1,0.1-0.2,0.3-0.3,0.4l-4.3-4C464.9,377.7,464.9,377.6,465,377.4"/>
					<path class="st3" d="M464.8,377.8l4.3,4c-0.1,0.1-0.1,0.2-0.2,0.2c-0.5,0.6-1.1,1.1-1.8,1.6c-3.8,2.7-7.5,5.5-11.4,8.2
						c-0.7,0.5-1.2,1-1.7,1.5l-4.3-4c0.4-0.5,1-1,1.7-1.5c3.8-2.7,7.6-5.4,11.4-8.2c0.6-0.5,1.2-1,1.8-1.6
						C464.6,378,464.7,377.9,464.8,377.8"/>
					<path class="st4" d="M449.8,389.3l4.3,4c-0.2,0.2-0.3,0.5-0.5,0.7l-4.3-4C449.4,389.8,449.6,389.5,449.8,389.3"/>
					<path class="st5" d="M449.3,390l4.3,4c-0.1,0.2-0.2,0.4-0.3,0.6l-4.3-4C449.1,390.4,449.2,390.2,449.3,390"/>
					<path class="st6" d="M449,390.6l4.3,4c-0.1,0.2-0.1,0.4-0.2,0.6l-4.3-4C448.9,391,449,390.8,449,390.6"/>
					<path class="st7" d="M448.8,391.2l4.3,4c0,0.2-0.1,0.5-0.1,0.7l-4.3-4C448.8,391.7,448.8,391.4,448.8,391.2"/>
					<path class="st8" d="M448.8,391.9l4.3,4c0,0.3,0,0.6,0,1l-4.3-4C448.7,392.6,448.7,392.2,448.8,391.9"/>
					<path class="st9" d="M448.8,392.9l4.3,4c0,0.4,0.1,0.9,0.3,1.4c1.2,4.3,1.9,8.7,2.9,13c0.1,0.6,0.3,1.1,0.6,2.2l-4.3-4
						c-0.3-1.1-0.4-1.6-0.6-2.2c-0.9-4.3-1.7-8.8-2.9-13C448.9,393.8,448.8,393.3,448.8,392.9"/>
				</g>
			</g>
			<g>
				<path class="st15" d="M437.1,354c0.6,0.9,1.4,1.8,1.7,2.8c1.1,3.3,2,6.7,2.9,10.1c0.2,0.7,0.3,1.5,0.6,2.3c1,3.1,2.8,5,6.2,5.1
					c0.2,0,0.4,0,0.6,0c1.3,0,2.6,0,3.8,0.1c2.4,0.1,4.9,0.3,7.3,0.5c0.1,0,0.3,0,0.4,0c0.1,0,0.3,0,0.4,0c0.1,0,0.2,0,0.3,0
					c0.8,0,1.6,0.1,2.4,0.2c1.7,0.4,2.1,1.7,0.9,2.9c-0.5,0.6-1.1,1.1-1.8,1.6c-3.8,2.7-7.5,5.5-11.4,8.2c-2.4,1.7-3.2,3.6-2.4,6.5
					c1.2,4.3,1.9,8.7,2.9,13c0.1,0.6,0.3,1.1,0.6,2.2c-0.9,0.4-1.8,0.9-2.7,1c-0.5,0-1-0.6-1.4-0.9c-3.8-2.6-7.7-5.2-11.5-7.9
					c-1.1-0.8-2.2-1.2-3.3-1.3c-1.2-0.1-2.4,0.3-3.7,1.1c-3.6,2.3-7.3,4.5-11,6.6c-0.9,0.5-2.1,0.5-3.2,0.7
					c-0.1-1.1-0.4-2.2-0.2-3.2c1.3-4.6,2.6-9.3,4.3-13.8c1-2.6,0.1-4.1-1.6-5.6c-2.5-2.1-5.1-4.2-7.6-6.3c-1.2-1-2.3-2.1-3.2-3.4
					c-0.6-0.9-1.3-2.2-1-3c0.2-0.6,1.8-1.2,2.8-1.2c4.1,0,8.2,0.3,12.3,0.5c4.8,0.2,6.6-1.2,8.3-5.6c1.4-3.6,2.9-7.2,4.5-10.7
					C434.9,355.5,436.1,354.9,437.1,354z"/>
			</g>
			<g class="st1">
				<defs>
					<path id="SVGID_37_" class="st1" d="M452.5,409.5l4.3,4c-0.9,0.4-1.8,0.9-2.7,1l-4.3-4C450.7,410.4,451.6,409.9,452.5,409.5z"
						/>
				</defs>
				<clipPath id="SVGID_38_">
					<use xlink:href="#SVGID_37_"  style="overflow:visible;"/>
				</clipPath>
				<g class="st29">
					<path class="st3" d="M452.5,409.5l4.3,4c-0.9,0.4-1.8,0.9-2.7,1l-4.3-4C450.7,410.4,451.6,409.9,452.5,409.5"/>
				</g>
			</g>
		</g>
		<g class="st1">
			<g class="st1">
				<defs>
					<path id="SVGID_39_" class="st1" d="M347.6,447.2l4.3,4c-0.4-0.3-0.7-0.7-1.2-1.1c-3-2.7-6.2-5.3-9.2-8l-4.3-4
						c3,2.7,6.1,5.3,9.2,8C346.9,446.6,347.2,446.9,347.6,447.2z"/>
				</defs>
				<clipPath id="SVGID_40_">
					<use xlink:href="#SVGID_39_"  style="overflow:visible;"/>
				</clipPath>
				<g class="st30">
					<path class="st3" d="M347.6,447.2l4.3,4c-0.4-0.3-0.7-0.7-1.2-1.1c-3-2.7-6.2-5.3-9.2-8l-4.3-4c3,2.7,6.1,5.3,9.2,8
						C346.9,446.6,347.2,446.9,347.6,447.2"/>
				</g>
			</g>
			<g class="st1">
				<defs>
					<path id="SVGID_41_" class="st1" d="M378.4,438.2l-4.3-4c-0.7-0.7-1.2-1.5-1.5-2.7c-1.2-4.5-2.5-9-3.8-13.4
						c-0.3-1-1-1.9-1.5-2.8l4.3,4c0.5,0.9,1.2,1.8,1.5,2.8c1.3,4.5,2.6,8.9,3.8,13.4C377.2,436.7,377.7,437.6,378.4,438.2z"/>
				</defs>
				<clipPath id="SVGID_42_">
					<use xlink:href="#SVGID_41_"  style="overflow:visible;"/>
				</clipPath>
				<g class="st31">
					<path class="st10" d="M367.3,415.3l4.3,4c0.5,0.8,1.1,1.6,1.4,2.5l-4.3-4C368.3,417,367.7,416.2,367.3,415.3"/>
					<path class="st9" d="M368.7,417.9l4.3,4c0,0.1,0.1,0.2,0.1,0.3c1.3,4.5,2.6,8.9,3.8,13.4c0.1,0.2,0.1,0.4,0.2,0.6l-4.3-4
						c-0.1-0.2-0.1-0.4-0.2-0.6c-1.2-4.5-2.5-9-3.8-13.4C368.7,418,368.7,418,368.7,417.9"/>
					<path class="st10" d="M372.8,432.2l4.3,4c0.2,0.6,0.5,1.1,0.9,1.6l-4.3-4C373.3,433.3,373,432.8,372.8,432.2"/>
					<path class="st9" d="M373.7,433.8l4.3,4c0.1,0.2,0.3,0.3,0.4,0.5l-4.3-4C373.9,434.1,373.8,433.9,373.7,433.8"/>
				</g>
			</g>
			<g>
				<path class="st15" d="M367.3,415.3c0.5,0.9,1.2,1.8,1.5,2.8c1.3,4.5,2.6,8.9,3.8,13.4c0.7,2.5,2.3,3.8,5,4.1
					c5.2,0.5,10.4,1.2,15.6,1.9c0.8,0.1,1.6,0.7,2.4,1.1c-0.6,0.9-0.9,1.5-1.3,1.8c-1.2,1-2.4,2-3.7,2.8c-1.3,0.9-2.8,1.5-4,2.4
					c-2.5,1.9-5.1,3.7-7.1,6.1c-2.2,2.7,0.5,5.4,0.8,8.2c0.4,3.6,1.4,7.2,1.7,10.9c0.1,1.5-0.3,2.2-1,2.1c-0.5,0-1.1-0.3-1.8-0.8
					c-3.6-2.6-7.1-5.2-10.6-7.9c-1.8-1.4-3.3-2.1-4.8-2.2c-1.5-0.1-3.1,0.6-5.2,1.9c-3.6,2.3-7.2,4.6-10.9,6.8
					c-0.7,0.4-1.8,0.3-2.7,0.5c0-0.9-0.3-1.9,0-2.7c1.3-4.3,2.6-8.5,4.2-12.7c2-5.1,0.7-6.4-2.8-9.6c-3-2.7-6.2-5.3-9.2-8
					c-0.6-0.6-0.8-1.6-1.1-2.5c0.9-0.3,1.7-0.8,2.6-0.8c5-0.2,10.1-0.5,15.1-0.4c2.6,0,4-1,5-3.2c1.6-3.9,3.2-7.8,4.9-11.8
					c0.3-0.7,0.4-1.6,0.9-2.1C365.3,416.6,366.3,416,367.3,415.3z"/>
			</g>
			<g class="st1">
				<defs>
					<path id="SVGID_43_" class="st1" d="M395.6,438.6l4.3,4c-0.6,0.9-0.9,1.5-1.3,1.8c-1.2,1-2.4,2-3.7,2.8c-1.3,0.9-2.8,1.5-4,2.4
						c-2.5,1.9-5.1,3.7-7.1,6.1c-2.2,2.7,0.5,5.4,0.8,8.2c0.4,3.6,1.4,7.2,1.7,10.9c0.1,1.5-0.3,2.2-1,2.1c-0.5,0-1.1-0.3-1.8-0.8
						c-3.6-2.6-7.1-5.2-10.6-7.9c-1.8-1.4-3.3-2.1-4.8-2.2c-1.5-0.1-3.1,0.6-5.2,1.9c-3.6,2.3-7.2,4.6-10.9,6.8
						c-0.7,0.4-1.8,0.3-2.7,0.5l-4.3-4c0.9-0.1,1.9,0,2.7-0.5c3.7-2.2,7.3-4.5,10.9-6.8c2.1-1.3,3.7-2,5.2-1.9
						c1.5,0.1,2.9,0.8,4.8,2.2c3.5,2.7,7,5.3,10.6,7.9c0.7,0.5,1.3,0.8,1.8,0.8c0.8,0,1.2-0.7,1-2.1c-0.3-3.7-1.3-7.2-1.7-10.9
						c-0.3-2.8-3-5.5-0.8-8.2c1.9-2.4,4.6-4.2,7.1-6.1c1.2-1,2.7-1.6,4-2.4c1.3-0.9,2.5-1.8,3.7-2.8
						C394.7,440,395,439.5,395.6,438.6z"/>
				</defs>
				<clipPath id="SVGID_44_">
					<use xlink:href="#SVGID_43_"  style="overflow:visible;"/>
				</clipPath>
				<g class="st32">
					<path class="st4" d="M395.6,438.6l4.3,4c-0.5,0.7-0.7,1.2-1,1.5l-4.3-4C394.9,439.7,395.1,439.2,395.6,438.6"/>
					<path class="st3" d="M394.6,440.1l4.3,4c-0.1,0.1-0.2,0.2-0.3,0.3c-1.2,1-2.4,2-3.7,2.8c-1.3,0.9-2.8,1.5-4,2.4
						c-2.5,1.9-5.1,3.7-7.1,6.1c0,0,0,0,0,0l-4.3-4c0,0,0,0,0,0c1.9-2.4,4.6-4.2,7.1-6.1c1.2-1,2.7-1.6,4-2.4
						c1.3-0.9,2.5-1.8,3.7-2.8C394.4,440.3,394.5,440.2,394.6,440.1"/>
					<path class="st4" d="M379.5,451.8l4.3,4c-0.2,0.2-0.3,0.4-0.4,0.6l-4.3-4C379.2,452.2,379.3,452,379.5,451.8"/>
					<path class="st5" d="M379.1,452.4l4.3,4c-0.1,0.2-0.2,0.3-0.2,0.5l-4.3-4C378.9,452.7,379,452.5,379.1,452.4"/>
					<path class="st6" d="M378.9,452.8l4.3,4c-0.1,0.1-0.1,0.3-0.1,0.4l-4.3-4C378.8,453.1,378.8,453,378.9,452.8"/>
					<path class="st7" d="M378.8,453.3l4.3,4c0,0.2-0.1,0.3-0.1,0.5l-4.3-4C378.7,453.6,378.7,453.5,378.8,453.3"/>
					<path class="st8" d="M378.7,453.8l4.3,4c0,0.2,0,0.5,0,0.7l-4.3-4C378.7,454.2,378.7,454,378.7,453.8"/>
					<path class="st9" d="M378.7,454.5l4.3,4c0.1,0.7,0.3,1.3,0.5,2l-4.3-4C379,455.8,378.8,455.1,378.7,454.5"/>
					<path class="st10" d="M379.2,456.5l4.3,4c0.2,0.5,0.4,1,0.6,1.5l-4.3-4C379.6,457.5,379.4,457,379.2,456.5"/>
					<path class="st9" d="M379.8,458l4.3,4c0.2,0.7,0.5,1.3,0.5,2c0.4,3.5,1.3,7,1.7,10.5l-4.3-4c-0.3-3.5-1.3-7-1.7-10.5
						C380.3,459.3,380.1,458.7,379.8,458"/>
					<path class="st8" d="M382,470.5l4.3,4c0,0.1,0,0.3,0,0.4c0,0.3,0,0.6,0,0.8l-4.3-4c0-0.2,0-0.5,0-0.8
						C382,470.7,382,470.6,382,470.5"/>
					<path class="st7" d="M382,471.7l4.3,4c0,0.2,0,0.3-0.1,0.4l-4.3-4C382,471.9,382,471.8,382,471.7"/>
					<path class="st6" d="M382,472.1l4.3,4c0,0.1,0,0.2-0.1,0.3l-4.3-4C381.9,472.2,382,472.2,382,472.1"/>
					<path class="st5" d="M381.9,472.3l4.3,4c0,0.1-0.1,0.1-0.1,0.2l-4.3-4C381.9,472.5,381.9,472.4,381.9,472.3"/>
					<path class="st4" d="M381.8,472.5l4.3,4c0,0.1-0.1,0.1-0.1,0.2l-4.3-4C381.8,472.6,381.8,472.6,381.8,472.5"/>
					<path class="st3" d="M381.7,472.7l4.3,4c-0.2,0.2-0.4,0.3-0.7,0.3c-0.5,0-1.1-0.3-1.8-0.8c-3.6-2.6-7.1-5.2-10.6-7.9
						c-1.8-1.4-3.3-2.1-4.8-2.2c-1.5-0.1-3.1,0.6-5.2,1.9c-3.6,2.3-7.2,4.6-10.9,6.8c-0.7,0.4-1.8,0.3-2.7,0.5l-4.3-4
						c0.9-0.1,1.9,0,2.7-0.5c3.7-2.2,7.3-4.5,10.9-6.8c2.1-1.3,3.7-2,5.2-1.9c1.5,0.1,2.9,0.8,4.8,2.2c3.5,2.7,7,5.3,10.6,7.9
						c0.7,0.5,1.3,0.8,1.8,0.8C381.3,473,381.6,472.9,381.7,472.7"/>
				</g>
			</g>
		</g>
		<g class="st1">
			<g class="st1">
				<defs>
					<path id="SVGID_45_" class="st1" d="M429.9,195.1l4.3,4c-0.4-0.4-0.9-0.8-1.3-1.1c-3-2.5-6.2-4.7-9.1-7.2c0,0-0.1-0.1-0.1-0.1
						l-4.3-4c0,0,0.1,0.1,0.1,0.1c3,2.5,6.2,4.7,9.1,7.2C429,194.3,429.5,194.7,429.9,195.1z"/>
				</defs>
				<clipPath id="SVGID_46_">
					<use xlink:href="#SVGID_45_"  style="overflow:visible;"/>
				</clipPath>
				<g class="st33">
					<path class="st3" d="M429.9,195.1l4.3,4c-0.4-0.4-0.9-0.8-1.3-1.1c-3-2.5-6.2-4.7-9.1-7.2c0,0-0.1-0.1-0.1-0.1l-4.3-4
						c0,0,0.1,0.1,0.1,0.1c3,2.5,6.2,4.7,9.1,7.2C429,194.3,429.5,194.7,429.9,195.1"/>
				</g>
			</g>
			<g class="st1">
				<defs>
					<path id="SVGID_47_" class="st1" d="M449.9,164.3l4.3,4c0.3,0.3,0.6,0.8,0.8,1.4c1.3,3.8,2.5,7.7,3.7,11.6
						c0.8,2.6,1.5,4.2,2.6,5.2l-4.3-4c-1.1-1-1.8-2.6-2.6-5.2c-1.2-3.9-2.4-7.8-3.7-11.6C450.4,165.1,450.2,164.6,449.9,164.3z"/>
				</defs>
				<clipPath id="SVGID_48_">
					<use xlink:href="#SVGID_47_"  style="overflow:visible;"/>
				</clipPath>
				<g class="st34">
					<path class="st9" d="M449.9,164.3l4.3,4c0.1,0.1,0.1,0.1,0.2,0.2l-4.3-4C450,164.4,449.9,164.4,449.9,164.3"/>
					<path class="st10" d="M450.1,164.5l4.3,4c0.2,0.3,0.4,0.6,0.6,1.1l-4.3-4C450.4,165.1,450.3,164.8,450.1,164.5"/>
					<path class="st9" d="M450.6,165.6l4.3,4c0,0.1,0,0.1,0.1,0.2c1.3,3.8,2.5,7.7,3.7,11.6c0.2,0.7,0.4,1.3,0.6,1.9l-4.3-4
						c-0.2-0.6-0.4-1.2-0.6-1.9c-1.2-3.9-2.4-7.8-3.7-11.6C450.7,165.7,450.6,165.6,450.6,165.6"/>
					<path class="st10" d="M455,179.2l4.3,4c0.4,1.2,0.9,2.1,1.4,2.8l-4.3-4C455.9,181.4,455.5,180.4,455,179.2"/>
					<path class="st9" d="M456.4,182.1l4.3,4c0.2,0.2,0.3,0.4,0.5,0.6l-4.3-4C456.8,182.4,456.6,182.3,456.4,182.1"/>
				</g>
			</g>
			<g>
				<path class="st15" d="M449.1,164c0.6,0,1.2,0.6,1.6,1.8c1.3,3.8,2.5,7.7,3.7,11.6c1.8,5.8,2.9,6.6,9.1,7c0.5,0,1,0.1,1.5,0.1
					c0.7,0,1.3,0.1,2,0.1c0.7,0,1.4,0.1,2.1,0.1c1.6,0.1,3.3,0.2,4.9,0.4c1.1,0.1,2.1,1.3,3.2,2c-0.6,0.9-1.1,2.1-1.9,2.7
					c-3.5,2.5-6.9,5.2-10.6,7.2c-3.4,1.8-3.7,4.1-2.9,7.3c0.7,2.8,1.5,5.6,2,8.5c0.3,2.1,0.4,4.2,0.3,6.4c-0.1,1-0.6,1.6-1.3,1.6
					c-0.3,0-0.7-0.2-1.1-0.5c-3.4-2.5-6.8-5.1-10.2-7.7c-0.8-0.6-1.5-1.2-2.3-1.8c-0.9-0.6-1.7-1-2.6-1c-0.9,0-1.7,0.2-2.7,0.9
					c-3.7,2.5-7.6,4.7-11.4,7c-0.8,0.5-1.6,1.3-2.5,1.4c-0.2,0-0.4,0-0.6,0c-0.7,0-1.5-0.3-2-0.6c-0.3-0.2,0-1.4,0.2-2
					c1.2-3.7,2.6-7.3,3.8-11c0.5-1.5,0.8-3,1.2-4.5c0.6-3.3-1.6-5.2-3.6-7c-3-2.5-6.2-4.7-9.1-7.2c-0.8-0.6-1.6-2.1-1.4-2.7
					c0.4-0.8,1.8-1.6,2.8-1.6c2.1,0,4.3,0.1,6.4,0.2c0.5,0,1,0.1,1.6,0.1c1,0,2.1,0.1,3.1,0.1c7.1,0.3,7.4,0.1,10-6.3
					c1.2-3.1,2.4-6.1,3.7-9.2c0.4-0.9,1-1.7,1.6-2.4C448,164.3,448.6,163.9,449.1,164z"/>
			</g>
			<g class="st1">
				<defs>
					<path id="SVGID_49_" class="st1" d="M431.3,222.5l-4.3-4c0,0,0,0,0,0c0.6,0.3,1.3,0.6,2,0.6c0.2,0,0.4,0,0.6,0
						c0.9-0.2,1.7-0.9,2.5-1.4c3.8-2.3,7.7-4.5,11.4-7c1-0.7,1.9-0.9,2.7-0.9c0.9,0,1.7,0.4,2.6,1c0.8,0.5,1.5,1.2,2.3,1.8
						c3.4,2.6,6.8,5.2,10.2,7.7c0.4,0.3,0.8,0.4,1.1,0.5c0.7,0,1.3-0.5,1.3-1.6c0.1-2.1,0.1-4.3-0.3-6.4c-0.5-2.9-1.2-5.7-2-8.5
						c-0.8-3.1-0.4-5.5,2.9-7.3c3.8-2,7.2-4.7,10.6-7.2c0.9-0.6,1.3-1.8,1.9-2.7l4.3,4c-0.6,0.9-1.1,2.1-1.9,2.7
						c-3.5,2.5-6.9,5.2-10.6,7.2c-3.4,1.8-3.7,4.1-2.9,7.3c0.7,2.8,1.5,5.6,2,8.5c0.3,2.1,0.4,4.2,0.3,6.4c-0.1,1-0.6,1.6-1.3,1.6
						c-0.3,0-0.7-0.2-1.1-0.5c-3.4-2.5-6.8-5.1-10.2-7.7c-0.8-0.6-1.5-1.2-2.3-1.8c-0.9-0.6-1.7-1-2.6-1c-0.9,0-1.7,0.2-2.7,0.9
						c-3.7,2.5-7.6,4.7-11.4,7c-0.8,0.5-1.6,1.3-2.5,1.4c-0.2,0-0.4,0-0.6,0C432.6,223.1,431.9,222.8,431.3,222.5
						C431.3,222.5,431.3,222.5,431.3,222.5z"/>
				</defs>
				<clipPath id="SVGID_50_">
					<use xlink:href="#SVGID_49_"  style="overflow:visible;"/>
				</clipPath>
				<g class="st35">
					<path class="st4" d="M477.2,187l4.3,4c-0.5,0.7-0.8,1.5-1.3,2.1l-4.3-4C476.3,188.5,476.7,187.7,477.2,187"/>
					<path class="st3" d="M475.8,189.2l4.3,4c-0.2,0.2-0.4,0.4-0.6,0.6c-3.5,2.5-6.9,5.2-10.6,7.2c-1,0.5-1.8,1.1-2.3,1.8l-4.3-4
						c0.5-0.6,1.3-1.2,2.3-1.8c3.8-2,7.2-4.7,10.6-7.2C475.4,189.6,475.6,189.4,475.8,189.2"/>
					<path class="st4" d="M462.3,198.7l4.3,4c-0.2,0.2-0.3,0.4-0.4,0.7l-4.3-4C462,199.1,462.1,198.9,462.3,198.7"/>
					<path class="st5" d="M461.9,199.4l4.3,4c-0.1,0.2-0.2,0.4-0.3,0.6l-4.3-4C461.7,199.7,461.8,199.5,461.9,199.4"/>
					<path class="st6" d="M461.6,199.9l4.3,4c-0.1,0.2-0.1,0.4-0.2,0.6l-4.3-4C461.5,200.3,461.5,200.1,461.6,199.9"/>
					<path class="st7" d="M461.4,200.6l4.3,4c-0.1,0.2-0.1,0.5-0.1,0.7l-4.3-4C461.3,201,461.4,200.8,461.4,200.6"/>
					<path class="st8" d="M461.3,201.3l4.3,4c0,0.4,0,0.7,0,1.1l-4.3-4C461.3,202,461.3,201.7,461.3,201.3"/>
					<path class="st9" d="M461.3,202.4l4.3,4c0.1,0.6,0.2,1.1,0.3,1.8c0.7,2.8,1.5,5.6,2,8.5c0.1,0.5,0.1,1,0.2,1.5l-4.3-4
						c0-0.5-0.1-1-0.2-1.5c-0.5-2.9-1.2-5.7-2-8.5C461.5,203.6,461.4,203,461.3,202.4"/>
					<path class="st8" d="M463.8,214.2l4.3,4c0.2,1.6,0.2,3.2,0.1,4.9c0,0,0,0,0,0l-4.3-4c0,0,0,0,0,0
						C464,217.5,464,215.8,463.8,214.2"/>
					<path class="st7" d="M463.9,219.1l4.3,4c0,0.1,0,0.3-0.1,0.4l-4.3-4C463.9,219.4,463.9,219.2,463.9,219.1"/>
					<path class="st6" d="M463.8,219.5l4.3,4c0,0.1,0,0.2-0.1,0.3l-4.3-4C463.8,219.7,463.8,219.6,463.8,219.5"/>
					<path class="st5" d="M463.8,219.8l4.3,4c0,0.1-0.1,0.2-0.1,0.2l-4.3-4C463.7,219.9,463.7,219.8,463.8,219.8"/>
					<path class="st4" d="M463.6,220l4.3,4c0,0.1-0.1,0.1-0.1,0.2l-4.3-4C463.6,220.1,463.6,220.1,463.6,220"/>
					<path class="st3" d="M463.5,220.2l4.3,4c-0.2,0.3-0.6,0.4-1,0.4c-0.3,0-0.7-0.2-1.1-0.5c-3.4-2.5-6.8-5.1-10.2-7.7
						c-0.8-0.6-1.5-1.2-2.3-1.8c-0.9-0.6-1.7-1-2.6-1c-0.9,0-1.7,0.2-2.7,0.9c-3.7,2.5-7.6,4.7-11.4,7c-0.8,0.5-1.6,1.3-2.5,1.4
						c-0.2,0-0.4,0-0.6,0c-0.7,0-1.5-0.3-2-0.6c0,0,0,0,0,0l-4.3-4c0,0,0,0,0,0c0.6,0.3,1.3,0.6,2,0.6c0.2,0,0.4,0,0.6,0
						c0.9-0.2,1.7-0.9,2.5-1.4c3.8-2.3,7.7-4.5,11.4-7c1-0.7,1.9-0.9,2.7-0.9c0.9,0,1.7,0.4,2.6,1c0.8,0.5,1.5,1.2,2.3,1.8
						c3.4,2.6,6.8,5.2,10.2,7.7c0.4,0.3,0.8,0.4,1.1,0.5C462.9,220.6,463.3,220.5,463.5,220.2"/>
				</g>
			</g>
		</g>
		<g class="st1">
			<g class="st1">
				<defs>
					<path id="SVGID_51_" class="st1" d="M97.6,367.7l4.3,4c-0.1,0-0.1-0.1-0.2-0.1c-2.6-2.3-5.3-4.6-7.8-6.9
						c-0.6-0.5-1.2-1.1-1.8-1.6l-4.3-4c0.6,0.5,1.2,1.1,1.8,1.6c2.6,2.3,5.3,4.6,7.8,6.9C97.5,367.7,97.5,367.7,97.6,367.7z"/>
				</defs>
				<clipPath id="SVGID_52_">
					<use xlink:href="#SVGID_51_"  style="overflow:visible;"/>
				</clipPath>
				<g class="st36">
					<path class="st3" d="M97.6,367.7l4.3,4c-0.1,0-0.1-0.1-0.2-0.1c-2.6-2.3-5.3-4.6-7.8-6.9c-0.6-0.5-1.2-1.1-1.8-1.6l-4.3-4
						c0.6,0.5,1.2,1.1,1.8,1.6c2.6,2.3,5.3,4.6,7.8,6.9C97.5,367.7,97.5,367.7,97.6,367.7"/>
				</g>
			</g>
			<g class="st1">
				<defs>
					<path id="SVGID_53_" class="st1" d="M127.1,357.6l-4.3-4c-0.9-0.9-1.6-2-2-3.4c-1.2-4.1-2.5-8.1-3.8-12.2c-0.3-1-1-1.9-1.5-2.8
						l4.3,4c0.5,0.9,1.2,1.8,1.5,2.8c1.3,4,2.5,8.1,3.8,12.2C125.5,355.5,126.1,356.7,127.1,357.6z"/>
				</defs>
				<clipPath id="SVGID_54_">
					<use xlink:href="#SVGID_53_"  style="overflow:visible;"/>
				</clipPath>
				<g class="st37">
					<path class="st10" d="M115.5,335.2l4.3,4c0.5,0.9,1.1,1.7,1.5,2.7l-4.3-4C116.6,336.9,116,336,115.5,335.2"/>
					<path class="st9" d="M117,337.8l4.3,4c0,0.1,0,0.1,0.1,0.2c1.3,4,2.5,8.1,3.8,12.2c0.1,0.2,0.1,0.4,0.2,0.6l-4.3-4
						c-0.1-0.2-0.1-0.4-0.2-0.6c-1.2-4.1-2.5-8.1-3.8-12.2C117,337.9,117,337.9,117,337.8"/>
					<path class="st10" d="M121,350.8l4.3,4c0.3,0.8,0.7,1.5,1.2,2.1l-4.3-4C121.7,352.3,121.3,351.6,121,350.8"/>
					<path class="st9" d="M122.2,352.9l4.3,4c0.2,0.3,0.4,0.5,0.6,0.7l-4.3-4C122.6,353.3,122.4,353.1,122.2,352.9"/>
				</g>
			</g>
			<g>
				<path class="st15" d="M115.5,335.2c0.5,0.9,1.2,1.8,1.5,2.8c1.3,4,2.5,8.1,3.8,12.2c0.9,3,3,4.9,6.2,5.2
					c3.9,0.3,7.8,0.4,11.7,0.7c1.2,0.1,2.3,0.3,3.4,0.6c0.7,0.2,1.4,0.7,2.3,1.2c-1.5,1.6-2.2,2.6-3.1,3.3c-3.3,2.4-6.6,5-10.2,6.8
					c-3.6,1.9-3.9,4.3-3.1,7.7c1.2,4.7,1.9,9.5,2.8,14.2c0.2,1.3-0.3,2.2-1.3,2.1c-0.3,0-0.7-0.1-1-0.3c-2.2-1.2-4.2-2.8-6.3-4.2
					c-1-0.7-1.9-1.4-2.8-2.1c-3.6-2.6-5.4-3.9-7.2-4c-1.9-0.1-3.8,1.1-7.7,3.5c-2.6,1.7-5.2,3.5-7.9,5.1c-1,0.6-2.4,0.5-3.7,0.7
					c0.2-1.1,0.2-2.2,0.5-3.2c1.6-4.8,3.1-9.6,5.1-14.2c1.1-2.5,0.3-4.1-1.4-5.7c-2.6-2.3-5.3-4.6-7.8-6.9c-1.4-1.3-2.9-2.6-4.2-4
					c-0.4-0.5-0.8-1.5-0.6-1.9c0.3-0.6,1.2-1.1,1.9-1.1c4.5,0.1,9,0.3,13.5,0.4c5.6,0.2,6.1-0.2,8.2-5.4c1.5-3.6,2.8-7.2,4.5-10.8
					C113.3,336.8,114.6,336.1,115.5,335.2z"/>
			</g>
			<g class="st1">
				<defs>
					<path id="SVGID_55_" class="st1" d="M144.5,357.8l4.3,4c-1.5,1.6-2.2,2.6-3.1,3.3c-3.3,2.4-6.6,5-10.2,6.8
						c-3.6,1.9-3.9,4.3-3.1,7.7c1.2,4.7,1.9,9.5,2.8,14.2c0.2,1.3-0.3,2.2-1.3,2.1c-0.3,0-0.7-0.1-1-0.3c-2.2-1.2-4.2-2.8-6.3-4.2
						c-1-0.7-1.9-1.4-2.8-2.1c-3.6-2.6-5.4-3.9-7.2-4c-1.9-0.1-3.8,1.1-7.7,3.5c-2.6,1.7-5.2,3.5-7.9,5.1c-1,0.6-2.4,0.5-3.7,0.7
						l-4.3-4c1.2-0.2,2.6-0.1,3.7-0.7c2.7-1.5,5.2-3.4,7.9-5.1c3.9-2.4,5.8-3.6,7.7-3.5c1.8,0.1,3.6,1.4,7.2,4
						c0.9,0.7,1.9,1.4,2.8,2.1c2.1,1.4,4.1,3,6.3,4.2c0.4,0.2,0.7,0.3,1,0.3c1,0,1.5-0.8,1.3-2.1c-0.9-4.8-1.7-9.5-2.8-14.2
						c-0.8-3.5-0.5-5.9,3.1-7.7c3.6-1.9,6.8-4.5,10.2-6.8C142.3,360.5,142.9,359.5,144.5,357.8z"/>
				</defs>
				<clipPath id="SVGID_56_">
					<use xlink:href="#SVGID_55_"  style="overflow:visible;"/>
				</clipPath>
				<g class="st38">
					<path class="st3" d="M144.5,357.8l4.3,4c-1.5,1.6-2.2,2.6-3.1,3.3c-3.3,2.4-6.6,5-10.2,6.8c-1.1,0.6-1.9,1.2-2.4,1.9l-4.3-4
						c0.6-0.7,1.3-1.3,2.4-1.9c3.6-1.9,6.8-4.5,10.2-6.8C142.3,360.5,142.9,359.5,144.5,357.8"/>
					<path class="st4" d="M128.7,369.8l4.3,4c-0.2,0.2-0.3,0.4-0.4,0.7l-4.3-4C128.4,370.2,128.6,370,128.7,369.8"/>
					<path class="st5" d="M128.3,370.5l4.3,4c-0.1,0.2-0.2,0.4-0.3,0.6l-4.3-4C128.1,370.9,128.2,370.7,128.3,370.5"/>
					<path class="st6" d="M128,371.1l4.3,4c-0.1,0.2-0.1,0.4-0.2,0.6l-4.3-4C127.9,371.5,127.9,371.3,128,371.1"/>
					<path class="st7" d="M127.8,371.7l4.3,4c-0.1,0.3-0.1,0.5-0.1,0.8l-4.3-4C127.7,372.2,127.8,371.9,127.8,371.7"/>
					<path class="st8" d="M127.7,372.5l4.3,4c0,0.4,0,0.8,0,1.2l-4.3-4C127.7,373.3,127.7,372.9,127.7,372.5"/>
					<path class="st9" d="M127.8,373.7l4.3,4c0.1,0.6,0.2,1.2,0.3,1.9c1.2,4.7,1.9,9.5,2.8,14.2c0,0.1,0,0.2,0,0.3l-4.3-4
						c0-0.1,0-0.2,0-0.3c-0.9-4.8-1.7-9.5-2.8-14.2C127.9,375,127.8,374.3,127.8,373.7"/>
					<path class="st8" d="M131,390.2l4.3,4c0,0.2,0,0.3,0,0.5l-4.3-4C131,390.5,131,390.4,131,390.2"/>
					<path class="st7" d="M131,390.7l4.3,4c0,0.1,0,0.2,0,0.3l-4.3-4C130.9,390.9,131,390.8,131,390.7"/>
					<path class="st6" d="M130.9,391l4.3,4c0,0.1,0,0.2-0.1,0.2l-4.3-4C130.9,391.1,130.9,391.1,130.9,391"/>
					<path class="st5" d="M130.9,391.2l4.3,4c0,0.1-0.1,0.1-0.1,0.2l-4.3-4C130.8,391.4,130.8,391.3,130.9,391.2"/>
					<path class="st4" d="M130.8,391.4l4.3,4c0,0.1-0.1,0.1-0.1,0.2l-4.3-4C130.7,391.5,130.7,391.5,130.8,391.4"/>
					<path class="st3" d="M130.6,391.6l4.3,4c-0.2,0.3-0.6,0.4-1,0.4c-0.3,0-0.7-0.1-1-0.3c-2.2-1.2-4.2-2.8-6.3-4.2
						c-1-0.7-1.9-1.4-2.8-2.1c-3.6-2.6-5.4-3.9-7.2-4c-1.9-0.1-3.8,1.1-7.7,3.5c-2.6,1.7-5.2,3.5-7.9,5.1c-1,0.6-2.4,0.5-3.7,0.7
						l-4.3-4c1.2-0.2,2.6-0.1,3.7-0.7c2.7-1.5,5.2-3.4,7.9-5.1c3.9-2.4,5.8-3.6,7.7-3.5c1.8,0.1,3.6,1.4,7.2,4
						c0.9,0.7,1.9,1.4,2.8,2.1c2.1,1.4,4.1,3,6.3,4.2c0.4,0.2,0.7,0.3,1,0.3C130.1,392,130.4,391.9,130.6,391.6"/>
				</g>
			</g>
		</g>
		<g class="st1">
			<g class="st1">
				<defs>
					<path id="SVGID_57_" class="st1" d="M253.9,471.4l4.3,4c-0.5-0.5-1.1-1-1.9-1.6c-3.1-2.6-6.3-5.2-9.4-7.8c0,0,0,0,0,0l-4.3-4
						c0,0,0,0,0,0c3.1,2.7,6.2,5.2,9.4,7.8C252.8,470.3,253.4,470.9,253.9,471.4z"/>
				</defs>
				<clipPath id="SVGID_58_">
					<use xlink:href="#SVGID_57_"  style="overflow:visible;"/>
				</clipPath>
				<g class="st39">
					<path class="st3" d="M253.9,471.4l4.3,4c-0.5-0.5-1.1-1-1.9-1.6c-3.1-2.6-6.3-5.2-9.4-7.8c0,0,0,0,0,0l-4.3-4c0,0,0,0,0,0
						c3.1,2.7,6.2,5.2,9.4,7.8C252.8,470.3,253.4,470.9,253.9,471.4"/>
				</g>
			</g>
			<g class="st1">
				<defs>
					<path id="SVGID_59_" class="st1" d="M273.4,439.8l4.3,4c0.3,0.3,0.5,0.6,0.6,0.9c1.5,4.4,2.7,8.9,4.2,13.3
						c0.6,1.8,1.6,3.4,2.7,5c0,0.1,0.1,0.1,0.2,0.2l-4.3-4c-0.1-0.1-0.1-0.1-0.2-0.2c-1-1.6-2.1-3.2-2.7-5
						c-1.5-4.4-2.7-8.9-4.2-13.3C273.9,440.3,273.7,440,273.4,439.8z"/>
				</defs>
				<clipPath id="SVGID_60_">
					<use xlink:href="#SVGID_59_"  style="overflow:visible;"/>
				</clipPath>
				<g class="st40">
					<path class="st9" d="M273.4,439.8l4.3,4c0.1,0.1,0.2,0.2,0.3,0.3l-4.3-4C273.6,440,273.5,439.9,273.4,439.8"/>
					<path class="st10" d="M273.7,440.1l4.3,4c0.1,0.2,0.2,0.3,0.3,0.5l-4.3-4C273.9,440.4,273.8,440.2,273.7,440.1"/>
					<path class="st9" d="M274,440.6l4.3,4c0,0,0,0,0,0c1.5,4.4,2.7,8.9,4.2,13.3c0,0.1,0.1,0.2,0.1,0.3l-4.3-4
						c0-0.1-0.1-0.2-0.1-0.3C276.7,449.5,275.4,445,274,440.6C274,440.6,274,440.6,274,440.6"/>
					<path class="st10" d="M278.3,454.2l4.3,4c0.6,1.7,1.6,3.2,2.6,4.7c0,0,0,0,0,0.1l-4.3-4c0,0,0,0,0-0.1
						C279.9,457.4,278.9,455.9,278.3,454.2"/>
					<path class="st9" d="M280.9,459l4.3,4c0,0,0.1,0.1,0.1,0.1l-4.3-4C281,459.1,281,459,280.9,459"/>
				</g>
			</g>
			<g class="st1">
				<defs>
					<path id="SVGID_61_" class="st1" d="M300.5,462.2l4.3,4c0.2,0.2,0.2,0.6,0.4,1.1l-4.3-4C300.7,462.9,300.7,462.4,300.5,462.2z"
						/>
				</defs>
				<clipPath id="SVGID_62_">
					<use xlink:href="#SVGID_61_"  style="overflow:visible;"/>
				</clipPath>
				<g class="st41">
					<path class="st9" d="M300.5,462.2l4.3,4c0,0,0,0,0,0L300.5,462.2C300.5,462.3,300.5,462.2,300.5,462.2"/>
					<path class="st10" d="M300.5,462.3l4.3,4c0,0.1,0.1,0.1,0.1,0.2l-4.3-4C300.6,462.4,300.6,462.3,300.5,462.3"/>
					<path class="st9" d="M300.6,462.5l4.3,4c0.1,0.2,0.1,0.5,0.2,0.8l-4.3-4C300.8,463,300.7,462.7,300.6,462.5"/>
				</g>
			</g>
			<g class="st1">
				<defs>
					<path id="SVGID_63_" class="st1" d="M255,498.5l-4.3-4c0,0,0,0,0.1,0c0.3,0.1,0.7,0.2,1,0.2c0.4,0,0.7,0,1-0.2
						c4-2.4,8-4.9,12-7.3c2-1.2,3.5-1.8,4.9-1.7c1.5,0.1,3,0.9,5,2.5c3,2.4,6.2,4.7,9.4,6.8c0.4,0.3,0.9,0.3,1.4,0.4
						c0.2,0,0.5,0,0.7,0l4.3,4c-0.2,0-0.5,0-0.7,0c-0.5,0-1-0.1-1.4-0.4c-3.2-2.1-6.4-4.4-9.4-6.8c-2-1.6-3.5-2.4-5-2.5
						c-1.4-0.1-2.9,0.5-4.9,1.7c-4,2.4-8,4.9-12,7.3c-0.3,0.1-0.6,0.2-1,0.2C255.7,498.8,255.4,498.7,255,498.5
						C255.1,498.6,255.1,498.6,255,498.5z"/>
				</defs>
				<clipPath id="SVGID_64_">
					<use xlink:href="#SVGID_63_"  style="overflow:visible;"/>
				</clipPath>
				<g class="st42">
					<path class="st3" d="M286.3,495.4l4.3,4c-0.2,0-0.5,0-0.7,0c-0.5,0-1-0.1-1.4-0.4c-3.2-2.1-6.4-4.4-9.4-6.8
						c-2-1.6-3.5-2.4-5-2.5c-1.4-0.1-2.9,0.5-4.9,1.7c-4,2.4-8,4.9-12,7.3c-0.3,0.1-0.6,0.2-1,0.2c-0.4,0-0.7-0.1-1-0.2
						c0,0,0,0-0.1,0l-4.3-4c0,0,0,0,0.1,0c0.3,0.1,0.7,0.2,1,0.2c0.4,0,0.7,0,1-0.2c4-2.4,8-4.9,12-7.3c2-1.2,3.5-1.8,4.9-1.7
						c1.5,0.1,3,0.9,5,2.5c3,2.4,6.2,4.7,9.4,6.8c0.4,0.3,0.9,0.3,1.4,0.4C285.8,495.4,286,495.4,286.3,495.4"/>
				</g>
			</g>
			<g>
				<path class="st15" d="M272.3,439.2c0.7,0.1,1.4,0.8,1.7,1.4c1.5,4.4,2.7,8.9,4.2,13.3c0.6,1.8,1.6,3.4,2.7,5
					c0.3,0.5,1.3,0.8,2,0.8c5.2,0.5,10.4,1,15.5,1.5c0.7,0.1,1.4,0.6,2,1c0.2,0.2,0.3,0.7,0.4,1.1c-0.4,0.4-0.8,0.8-1.2,1.1
					c-3.9,2.9-7.7,6-11.9,8.4c-3.2,1.9-3.5,4.1-2.7,7.3c1.1,4.1,1.8,8.3,2.5,12.5c0.2,0.9-0.2,1.8-0.3,2.7c-0.1,0-0.2,0-0.3,0
					c-0.2,0-0.5,0-0.7,0c-0.2,0-0.5,0-0.7,0c-0.5,0-1-0.1-1.4-0.4c-3.2-2.1-6.4-4.4-9.4-6.8c-2-1.6-3.5-2.4-5-2.5
					c-1.4-0.1-2.9,0.5-4.9,1.7c-4,2.4-8,4.9-12,7.3c-0.3,0.1-0.6,0.2-1,0.2c-0.4,0-0.7-0.1-1-0.2c-0.3-0.1-0.4-1.1-0.2-1.6
					c1.4-4.4,2.9-8.9,4.3-13.3c1.8-5.5,1.5-6.3-2.9-10c-3.1-2.6-6.3-5.2-9.4-7.8c-0.5-0.4-1.1-1.6-0.9-1.9c0.5-0.7,1.4-1.4,2.2-1.4
					c5.2-0.2,10.5-0.4,15.7-0.4c2.5,0,3.8-0.9,4.8-3.3c1.9-4.9,4.2-9.6,6.5-14.4C271.2,440,271.9,439.2,272.3,439.2z"/>
			</g>
			<g class="st1">
				<defs>
					<path id="SVGID_65_" class="st1" d="M300.9,463.3l4.3,4c-0.4,0.4-0.8,0.8-1.2,1.1c-3.9,2.9-7.7,6-11.9,8.4
						c-3.2,1.9-3.5,4.1-2.7,7.3c1.1,4.1,1.8,8.3,2.5,12.5c0.2,0.9-0.2,1.8-0.3,2.7l-4.3-4c0.1-0.9,0.4-1.8,0.3-2.7
						c-0.7-4.2-1.4-8.4-2.5-12.5c-0.8-3.2-0.5-5.4,2.7-7.3c4.2-2.5,7.9-5.6,11.9-8.4C300.1,464.1,300.5,463.7,300.9,463.3z"/>
				</defs>
				<clipPath id="SVGID_66_">
					<use xlink:href="#SVGID_65_"  style="overflow:visible;"/>
				</clipPath>
				<g class="st43">
					<path class="st3" d="M300.9,463.3l4.3,4c-0.4,0.4-0.8,0.8-1.2,1.1c-3.9,2.9-7.7,6-11.9,8.4c-0.9,0.5-1.6,1.1-2.1,1.7l-4.3-4
						c0.5-0.6,1.2-1.2,2.1-1.7c4.2-2.5,7.9-5.6,11.9-8.4C300.1,464.1,300.5,463.7,300.9,463.3"/>
					<path class="st4" d="M285.7,474.6l4.3,4c-0.2,0.2-0.3,0.4-0.5,0.7l-4.3-4C285.4,475,285.5,474.8,285.7,474.6"/>
					<path class="st5" d="M285.3,475.3l4.3,4c-0.1,0.2-0.2,0.4-0.3,0.6l-4.3-4C285.1,475.7,285.2,475.5,285.3,475.3"/>
					<path class="st6" d="M285,475.9l4.3,4c-0.1,0.2-0.1,0.4-0.2,0.6l-4.3-4C284.9,476.3,284.9,476.1,285,475.9"/>
					<path class="st7" d="M284.8,476.5l4.3,4c-0.1,0.2-0.1,0.5-0.1,0.7l-4.3-4C284.7,476.9,284.8,476.7,284.8,476.5"/>
					<path class="st8" d="M284.7,477.2l4.3,4c0,0.4,0,0.7,0,1.1l-4.3-4C284.7,477.9,284.7,477.6,284.7,477.2"/>
					<path class="st9" d="M284.7,478.3l4.3,4c0.1,0.6,0.2,1.2,0.3,1.9c1.1,4.1,1.8,8.3,2.5,12.5c0,0.1,0,0.1,0,0.2l-4.3-4
						c0-0.1,0-0.1,0-0.2c-0.7-4.2-1.4-8.4-2.5-12.5C284.9,479.5,284.8,478.9,284.7,478.3"/>
					<path class="st8" d="M287.6,492.9l4.3,4c0,0.2,0,0.4,0,0.5l-4.3-4C287.6,493.3,287.6,493.1,287.6,492.9"/>
					<path class="st7" d="M287.6,493.5l4.3,4c0,0.6-0.2,1.3-0.3,1.9l-4.3-4C287.4,494.8,287.6,494.1,287.6,493.5"/>
				</g>
			</g>
			<g class="st1">
				<defs>
					<path id="SVGID_67_" class="st1" d="M287.3,495.4l4.3,4c-0.1,0-0.2,0-0.3,0c-0.2,0-0.5,0-0.7,0l-4.3-4c0.2,0,0.5,0,0.7,0
						C287.1,495.4,287.2,495.4,287.3,495.4z"/>
				</defs>
				<clipPath id="SVGID_68_">
					<use xlink:href="#SVGID_67_"  style="overflow:visible;"/>
				</clipPath>
				<g class="st44">
					<path class="st3" d="M287.3,495.4l4.3,4c-0.1,0-0.2,0-0.3,0c-0.2,0-0.5,0-0.7,0l-4.3-4c0.2,0,0.5,0,0.7,0
						C287.1,495.4,287.2,495.4,287.3,495.4"/>
				</g>
			</g>
		</g>
		<g class="st1">
			<g class="st1">
				<defs>
					<path id="SVGID_69_" class="st1" d="M78.2,276.6l4.3,4c-0.1-0.1-0.1-0.1-0.2-0.2c-2.3-2-4.7-4-7-6c-0.6-0.5-1.2-1-1.8-1.5
						l-4.3-4c0.6,0.5,1.2,1,1.8,1.5c2.4,2,4.7,4,7,6C78,276.5,78.1,276.5,78.2,276.6z"/>
				</defs>
				<clipPath id="SVGID_70_">
					<use xlink:href="#SVGID_69_"  style="overflow:visible;"/>
				</clipPath>
				<g class="st45">
					<path class="st3" d="M78.2,276.6l4.3,4c-0.1-0.1-0.1-0.1-0.2-0.2c-2.3-2-4.7-4-7-6c-0.6-0.5-1.2-1-1.8-1.5l-4.3-4
						c0.6,0.5,1.2,1,1.8,1.5c2.4,2,4.7,4,7,6C78,276.5,78.1,276.5,78.2,276.6"/>
				</g>
			</g>
			<g class="st1">
				<defs>
					<path id="SVGID_71_" class="st1" d="M107.3,266.6l-4.3-4c-1.2-1.1-1.3-3.2-2.8-7.2c-1.1-2.7-1.4-5.7-2.3-8.4
						c-0.4-1.2-1.4-2.2-2.5-3.7l4.3,4c1,1.5,2.1,2.5,2.5,3.7c0.9,2.7,1.3,5.7,2.3,8.4C106.1,263.4,106.1,265.4,107.3,266.6z"/>
				</defs>
				<clipPath id="SVGID_72_">
					<use xlink:href="#SVGID_71_"  style="overflow:visible;"/>
				</clipPath>
				<g class="st46">
					<path class="st10" d="M95.4,243.3l4.3,4c1,1.4,2,2.4,2.4,3.6l-4.3-4C97.4,245.7,96.4,244.7,95.4,243.3"/>
					<path class="st9" d="M97.9,246.9l4.3,4c0,0,0,0.1,0,0.1c0.9,2.6,1.2,5.4,2.2,8l-4.3-4c-1-2.6-1.3-5.4-2.2-8
						C97.9,247,97.9,246.9,97.9,246.9"/>
					<path class="st10" d="M100.1,255l4.3,4c0,0.1,0.1,0.3,0.2,0.4c0.1,0.3,0.2,0.6,0.3,0.8l-4.3-4c-0.1-0.3-0.2-0.5-0.3-0.8
						C100.2,255.3,100.1,255.1,100.1,255"/>
					<path class="st9" d="M100.5,256.2l4.3,4c0.8,2.1,1.1,3.6,1.5,4.6l-4.3-4C101.7,259.8,101.3,258.3,100.5,256.2"/>
					<path class="st10" d="M102.1,260.9l4.3,4c0.2,0.5,0.4,1,0.7,1.3l-4.3-4C102.5,261.8,102.3,261.4,102.1,260.9"/>
					<path class="st9" d="M102.8,262.2l4.3,4c0.1,0.1,0.2,0.2,0.3,0.4l-4.3-4C103,262.5,102.9,262.3,102.8,262.2"/>
				</g>
			</g>
			<g class="st1">
				<defs>
					<path id="SVGID_73_" class="st1" d="M123.5,266.3l4.3,4c0.6,0.6,0.4,1.5-0.6,2.3c-2.8,2.2-5.7,4.1-8.5,6.2
						c-0.8,0.6-1.7,1-2.4,1.6c-3.4,2.4-5,5.1-3.3,9.5c1.3,3.6,1.9,7.5,2.7,11.3c0.2,1-0.3,2.1-0.5,3.1l-4.3-4
						c0.2-1.1,0.7-2.2,0.5-3.1c-0.7-3.8-1.3-7.7-2.7-11.3c-1.6-4.4-0.1-7.1,3.3-9.5c0.8-0.6,1.7-1,2.4-1.6c2.9-2,5.7-4,8.5-6.2
						C123.9,267.8,124.1,266.9,123.5,266.3z"/>
				</defs>
				<clipPath id="SVGID_74_">
					<use xlink:href="#SVGID_73_"  style="overflow:visible;"/>
				</clipPath>
				<g class="st47">
					<path class="st9" d="M123.5,266.3l4.3,4c0,0,0.1,0.1,0.1,0.1l-4.3-4C123.6,266.4,123.5,266.4,123.5,266.3"/>
					<path class="st10" d="M123.6,266.5l4.3,4c0.1,0.1,0.1,0.2,0.2,0.3l-4.3-4C123.7,266.7,123.7,266.6,123.6,266.5"/>
					<path class="st9" d="M123.8,266.8l4.3,4c0,0.1,0,0.2,0.1,0.2l-4.3-4C123.8,266.9,123.8,266.8,123.8,266.8"/>
					<path class="st8" d="M123.8,267l4.3,4c0,0.1,0,0.1,0,0.2l-4.3-4C123.8,267.1,123.8,267.1,123.8,267"/>
					<path class="st7" d="M123.8,267.2l4.3,4c0,0.1,0,0.1,0,0.2l-4.3-4C123.8,267.3,123.8,267.2,123.8,267.2"/>
					<path class="st6" d="M123.8,267.3l4.3,4c0,0.1,0,0.1-0.1,0.2l-4.3-4C123.8,267.5,123.8,267.4,123.8,267.3"/>
					<path class="st5" d="M123.8,267.5l4.3,4c0,0.1-0.1,0.1-0.1,0.2l-4.3-4C123.7,267.7,123.7,267.6,123.8,267.5"/>
					<path class="st4" d="M123.7,267.7l4.3,4c-0.1,0.1-0.1,0.2-0.2,0.3l-4.3-4C123.5,267.9,123.6,267.8,123.7,267.7"/>
					<path class="st3" d="M123.5,268l4.3,4c-0.2,0.2-0.4,0.4-0.6,0.6c-2.8,2.2-5.7,4.1-8.5,6.2c-0.8,0.6-1.7,1-2.4,1.6
						c-1,0.7-1.9,1.5-2.5,2.3l-4.3-4c0.7-0.8,1.5-1.6,2.5-2.3c0.8-0.6,1.7-1,2.4-1.6c2.9-2,5.7-4,8.5-6.2
						C123.1,268.4,123.3,268.2,123.5,268"/>
					<path class="st4" d="M109.4,278.7l4.3,4c-0.3,0.3-0.5,0.7-0.7,1l-4.3-4C108.9,279.3,109.1,279,109.4,278.7"/>
					<path class="st5" d="M108.7,279.7l4.3,4c-0.1,0.3-0.3,0.5-0.4,0.8l-4.3-4C108.4,280.2,108.5,280,108.7,279.7"/>
					<path class="st6" d="M108.3,280.5l4.3,4c-0.1,0.3-0.2,0.5-0.2,0.8l-4.3-4C108.1,281,108.2,280.8,108.3,280.5"/>
					<path class="st7" d="M108.1,281.3l4.3,4c-0.1,0.3-0.1,0.6-0.1,0.9l-4.3-4C108,281.9,108,281.6,108.1,281.3"/>
					<path class="st8" d="M107.9,282.2l4.3,4c0,0.4,0,0.8,0,1.2l-4.3-4C107.9,283,107.9,282.6,107.9,282.2"/>
					<path class="st9" d="M108,283.4l4.3,4c0.1,0.8,0.3,1.6,0.6,2.5l-4.3-4C108.2,284.9,108,284.1,108,283.4"/>
					<path class="st10" d="M108.6,285.8l4.3,4c0,0,0,0,0,0c0,0,0,0,0,0.1l-4.3-4C108.6,285.9,108.6,285.9,108.6,285.8
						C108.6,285.9,108.6,285.8,108.6,285.8"/>
					<path class="st9" d="M108.6,285.9l4.3,4c1.3,3.6,1.9,7.4,2.6,11.2c0,0.1,0,0.1,0,0.2l-4.3-4c0-0.1,0-0.1,0-0.2
						C110.5,293.4,109.9,289.5,108.6,285.9"/>
					<path class="st8" d="M111.3,297.4l4.3,4c0,0.2,0,0.3,0,0.5l-4.3-4C111.3,297.7,111.3,297.5,111.3,297.4"/>
					<path class="st7" d="M111.3,297.8l4.3,4c0,0.2-0.1,0.5-0.1,0.7l-4.3-4C111.2,298.3,111.2,298.1,111.3,297.8"/>
					<path class="st6" d="M111.2,298.5l4.3,4c-0.1,0.5-0.3,1-0.4,1.6l-4.3-4C110.9,299.6,111,299,111.2,298.5"/>
					<path class="st7" d="M110.8,300.1l4.3,4c0,0.1,0,0.1,0,0.2l-4.3-4C110.7,300.2,110.7,300.2,110.8,300.1"/>
				</g>
			</g>
			<g>
				<path class="st15" d="M95.4,243.3c1,1.5,2.1,2.5,2.5,3.7c0.9,2.7,1.3,5.7,2.3,8.4c3,7.7,0.5,8.2,11.1,8.8
					c3.7,0.2,7.3,0.9,10.9,1.6c1.9,0.4,2.1,1.7,0.6,2.8c-2.8,2.2-5.7,4.1-8.5,6.2c-0.8,0.6-1.7,1-2.4,1.6c-3.4,2.4-5,5.1-3.3,9.5
					c1.3,3.6,1.9,7.5,2.7,11.3c0.2,1-0.3,2.1-0.5,3.1c-0.9-0.2-2-0.2-2.7-0.7c-3.5-2.4-6.9-5-10.3-7.6c-1.5-1.1-2.9-1.8-4.4-1.9
					c-1.3-0.1-2.6,0.3-4.1,1.2c-3.7,2.1-7.3,4.5-11.1,6.6c-0.9,0.5-2.1,0.4-3.2,0.6c-0.1-1.1-0.7-2.3-0.4-3.3
					c1.4-4.4,3.1-8.7,4.7-13.1c0.9-2.3,0.5-4.2-1.3-5.8c-2.3-2-4.7-4-7-6c-0.9-0.8-1.9-1.4-2.6-2.3c-1-1.3-1.8-2.8-2.6-4.2
					c1.7-0.5,3.3-1.4,5-1.4c2.2-0.1,4.4-0.1,6.6,0c1.3,0.1,2.6,0.2,4,0.3c0.2,0,0.3,0,0.5,0c3.4,0.2,5.4-1.2,6.6-4.6
					c1.5-4.2,3.4-8.3,5.3-12.4C93.9,245,94.6,244.4,95.4,243.3z"/>
			</g>
			<g class="st1">
				<defs>
					<path id="SVGID_75_" class="st1" d="M110.7,300.3l4.3,4c-0.9-0.2-2-0.2-2.7-0.7c-3.5-2.4-6.9-5-10.3-7.6
						c-1.5-1.1-2.9-1.8-4.4-1.9c-1.3-0.1-2.6,0.3-4.1,1.2c-3.7,2.1-7.3,4.5-11.1,6.6c-0.9,0.5-2.1,0.4-3.2,0.6l-4.3-4
						c1.1-0.2,2.3-0.1,3.2-0.6c3.7-2.1,7.4-4.4,11.1-6.6c1.5-0.8,2.8-1.2,4.1-1.2c1.5,0.1,2.9,0.7,4.4,1.9c3.4,2.6,6.8,5.1,10.3,7.6
						C108.7,300.1,109.8,300.1,110.7,300.3z"/>
				</defs>
				<clipPath id="SVGID_76_">
					<use xlink:href="#SVGID_75_"  style="overflow:visible;"/>
				</clipPath>
				<g class="st48">
					<path class="st3" d="M110.7,300.3l4.3,4c-0.9-0.2-2-0.2-2.7-0.7c-3.5-2.4-6.9-5-10.3-7.6c-1.5-1.1-2.9-1.8-4.4-1.9
						c-1.3-0.1-2.6,0.3-4.1,1.2c-3.7,2.1-7.3,4.5-11.1,6.6c-0.9,0.5-2.1,0.4-3.2,0.6l-4.3-4c1.1-0.2,2.3-0.1,3.2-0.6
						c3.7-2.1,7.4-4.4,11.1-6.6c1.5-0.8,2.8-1.2,4.1-1.2c1.5,0.1,2.9,0.7,4.4,1.9c3.4,2.6,6.8,5.1,10.3,7.6
						C108.7,300.1,109.8,300.1,110.7,300.3"/>
				</g>
			</g>
		</g>
		<g class="st1">
			<g class="st1">
				<defs>
					<path id="SVGID_77_" class="st1" d="M296.9,70.1l-4.3-4c0,0-0.1-0.1-0.1-0.1L296.9,70.1C296.8,70,296.8,70,296.9,70.1z"/>
				</defs>
				<clipPath id="SVGID_78_">
					<use xlink:href="#SVGID_77_"  style="overflow:visible;"/>
				</clipPath>
				<g class="st49">
					<path class="st9" d="M292.5,66l4.3,4c0,0,0.1,0.1,0.1,0.1L292.5,66C292.6,66,292.5,66,292.5,66"/>
				</g>
			</g>
			<g class="st1">
				<defs>
					<path id="SVGID_79_" class="st1" d="M273.9,97.9l4.3,4c0,0-0.1-0.1-0.1-0.1c-0.8-0.7-1.6-1.4-2.3-2.2l-4.3-4
						c0.8,0.7,1.6,1.5,2.3,2.2C273.8,97.9,273.9,97.9,273.9,97.9z"/>
				</defs>
				<clipPath id="SVGID_80_">
					<use xlink:href="#SVGID_79_"  style="overflow:visible;"/>
				</clipPath>
				<g class="st50">
					<path class="st3" d="M273.9,97.9l4.3,4c0,0-0.1-0.1-0.1-0.1c-0.8-0.7-1.6-1.4-2.3-2.2l-4.3-4c0.8,0.7,1.6,1.5,2.3,2.2
						C273.8,97.9,273.9,97.9,273.9,97.9"/>
				</g>
			</g>
			<g class="st1">
				<defs>
					<path id="SVGID_81_" class="st1" d="M293.8,67.1l4.3,4c0.3,0.3,0.5,0.5,0.6,0.8c1,2.7,1.8,5.5,2.6,8.3c1.4,4.9,2.3,7.4,3.7,8.7
						l-4.3-4c-1.4-1.3-2.3-3.8-3.7-8.7c-0.8-2.8-1.6-5.6-2.6-8.3C294.3,67.6,294.1,67.3,293.8,67.1z"/>
				</defs>
				<clipPath id="SVGID_82_">
					<use xlink:href="#SVGID_81_"  style="overflow:visible;"/>
				</clipPath>
				<g class="st51">
					<path class="st9" d="M293.8,67.1l4.3,4c0.1,0.1,0.2,0.2,0.3,0.4l-4.3-4C294,67.3,293.9,67.2,293.8,67.1"/>
					<path class="st10" d="M294.1,67.4l4.3,4c0.1,0.2,0.2,0.3,0.3,0.5l-4.3-4C294.4,67.7,294.3,67.6,294.1,67.4"/>
					<path class="st9" d="M294.4,67.9l4.3,4c0,0,0,0,0,0c1,2.7,1.8,5.5,2.6,8.3c0.5,2,1,3.5,1.5,4.8l-4.3-4c-0.5-1.3-1-2.8-1.5-4.8
						C296.2,73.4,295.4,70.6,294.4,67.9C294.4,67.9,294.4,67.9,294.4,67.9"/>
					<path class="st10" d="M298.5,81l4.3,4c0.6,1.5,1.1,2.6,1.7,3.3l-4.3-4C299.6,83.6,299.1,82.5,298.5,81"/>
					<path class="st9" d="M300.2,84.3l4.3,4c0.2,0.2,0.3,0.4,0.5,0.6l-4.3-4C300.6,84.8,300.4,84.6,300.2,84.3"/>
				</g>
			</g>
			<g>
				<path class="st15" d="M292.5,66c0.6,0.6,1.6,1.2,1.9,1.9c1,2.7,1.8,5.5,2.6,8.3c2.5,9.1,3.7,9.9,8.6,10.1c0.5,0,1,0,1.6,0.1
					c0.6,0,1.3,0,2,0.1c0.3,0,0.6,0,0.9,0c1.1,0.1,2.2,0.1,3.3,0.2c0.5,0,0.9,0,1.4,0.1c1.4,0.1,2.7,0.1,4.1,0.3
					c0.8,0.1,1.6,0.7,2.4,1.1c-0.5,0.8-0.8,1.8-1.5,2.3c-2.5,1.9-5,3.7-7.6,5.4c-8.3,5.5-8.4,5.9-5.9,15.6c0.8,3,1.4,6,1.8,9.1
					c0.1,0.7-0.7,1.5-1.1,2.3c-1.4-0.8-2.5-1.3-3.4-2c-3.4-2.5-7-4.9-10.2-7.7c-1.2-1-2.3-1.6-3.4-1.6c-1.2-0.1-2.5,0.4-3.8,1.4
					c-3.5,2.4-7.2,4.6-10.9,6.7c-1.1,0.6-2.4,0.8-3.7,1.1c0-1.4-0.4-3,0-4.3c1.1-3.7,2.2-7.5,3.9-11c1.5-3.2,0.8-5.6-1.6-7.8
					c-2.9-2.6-5.7-5.3-8.4-8c-1-0.9-1.9-2-2.7-3.1c-0.9-1.3-0.3-2.3,1.2-2.3c1.1,0,2.2,0,3.3,0.1c0.3,0,0.7,0,1,0.1
					c0.3,0,0.7,0,1,0.1c0.2,0,0.3,0,0.5,0c1.3,0.1,2.7,0.1,4,0.1c0.6,0,1.2,0.1,1.8,0.1c0.4,0,0.8,0.1,1.2,0.1
					c4.1,0.2,7.2-1.1,8.7-5.9c1.3-3.8,3.5-7.4,5.4-11C291.3,67.3,292,66.7,292.5,66z"/>
			</g>
			<g class="st1">
				<defs>
					<path id="SVGID_83_" class="st1" d="M321.4,88.1l4.3,4c-0.5,0.8-0.8,1.8-1.5,2.3c-2.5,1.9-5,3.7-7.6,5.4
						c-8.3,5.5-8.4,5.9-5.9,15.6c0.8,3,1.4,6,1.8,9.1c0.1,0.7-0.7,1.5-1.1,2.3l-4.3-4c0.4-0.9,1.2-1.7,1.1-2.3
						c-0.5-3.1-1.1-6.1-1.8-9.1c-2.5-9.7-2.3-10.1,5.9-15.6c2.6-1.7,5.1-3.5,7.6-5.4C320.6,89.9,320.9,88.9,321.4,88.1z"/>
				</defs>
				<clipPath id="SVGID_84_">
					<use xlink:href="#SVGID_83_"  style="overflow:visible;"/>
				</clipPath>
				<g class="st52">
					<path class="st4" d="M321.4,88.1l4.3,4c-0.1,0.1-0.1,0.2-0.2,0.3l-4.3-4C321.3,88.3,321.3,88.2,321.4,88.1"/>
					<path class="st5" d="M321.2,88.4l4.3,4c-0.2,0.3-0.3,0.7-0.5,1l-4.3-4C320.9,89.1,321,88.7,321.2,88.4"/>
					<path class="st4" d="M320.7,89.4l4.3,4c-0.1,0.2-0.3,0.5-0.4,0.7l-4.3-4C320.4,89.9,320.6,89.6,320.7,89.4"/>
					<path class="st3" d="M320.3,90.1l4.3,4c-0.1,0.1-0.2,0.3-0.4,0.4c-2.5,1.9-5,3.7-7.6,5.4c-3.1,2-5,3.4-6.1,4.8l-4.3-4
						c1.1-1.4,3.1-2.7,6.1-4.8c2.6-1.7,5.1-3.5,7.6-5.4C320,90.4,320.2,90.2,320.3,90.1"/>
					<path class="st4" d="M306.1,100.7l4.3,4c-0.2,0.3-0.4,0.6-0.6,0.9l-4.3-4C305.7,101.2,305.9,100.9,306.1,100.7"/>
					<path class="st5" d="M305.6,101.5l4.3,4c-0.1,0.2-0.2,0.4-0.3,0.6l-4.3-4C305.4,101.9,305.4,101.7,305.6,101.5"/>
					<path class="st6" d="M305.3,102.2l4.3,4c-0.1,0.2-0.1,0.4-0.2,0.7l-4.3-4C305.1,102.6,305.2,102.4,305.3,102.2"/>
					<path class="st7" d="M305.1,102.8l4.3,4c-0.1,0.3-0.1,0.6-0.1,0.9l-4.3-4C305,103.4,305,103.1,305.1,102.8"/>
					<path class="st8" d="M305,103.7l4.3,4c0,0.5,0,1,0,1.5l-4.3-4C304.9,104.6,304.9,104.1,305,103.7"/>
					<path class="st9" d="M305,105.2l4.3,4c0.2,1.6,0.6,3.6,1.3,6.3c0.8,3,1.4,6,1.8,9.1c0,0,0,0,0,0l-4.3-4c0,0,0,0,0,0
						c-0.5-3.1-1.1-6.1-1.8-9.1C305.6,108.8,305.2,106.8,305,105.2"/>
					<path class="st8" d="M308.2,120.6l4.3,4c0,0,0,0.1,0,0.1l-4.3-4C308.2,120.7,308.2,120.7,308.2,120.6"/>
					<path class="st7" d="M308.2,120.8l4.3,4c0,0,0,0.1,0,0.2l-4.3-4C308.2,120.9,308.2,120.8,308.2,120.8"/>
					<path class="st6" d="M308.2,120.9l4.3,4c0,0.1,0,0.1-0.1,0.2l-4.3-4C308.1,121.1,308.2,121,308.2,120.9"/>
					<path class="st5" d="M308.1,121.1l4.3,4c0,0.1-0.1,0.2-0.2,0.3l-4.3-4C308,121.4,308.1,121.2,308.1,121.1"/>
					<path class="st4" d="M307.9,121.5l4.3,4c-0.2,0.4-0.6,0.9-0.8,1.3l-4.3-4C307.4,122.3,307.7,121.9,307.9,121.5"/>
					<path class="st5" d="M307.1,122.8l4.3,4c0,0,0,0.1-0.1,0.1l-4.3-4C307.1,122.9,307.1,122.8,307.1,122.8"/>
				</g>
			</g>
			<g class="st1">
				<defs>
					<path id="SVGID_85_" class="st1" d="M307.1,122.9l4.3,4c-1.4-0.8-2.5-1.3-3.4-2c-3.4-2.5-7-4.9-10.2-7.7
						c-1.2-1-2.3-1.6-3.4-1.6c-1.2-0.1-2.5,0.4-3.8,1.4c-3.5,2.4-7.2,4.6-10.9,6.7c-1.1,0.6-2.4,0.8-3.7,1.1l-4.3-4
						c1.2-0.4,2.6-0.5,3.7-1.1c3.7-2.1,7.4-4.3,10.9-6.7c1.4-1,2.6-1.5,3.8-1.4c1.1,0.1,2.2,0.6,3.4,1.6c3.2,2.8,6.8,5.2,10.2,7.7
						C304.6,121.6,305.6,122.1,307.1,122.9z"/>
				</defs>
				<clipPath id="SVGID_86_">
					<use xlink:href="#SVGID_85_"  style="overflow:visible;"/>
				</clipPath>
				<g class="st53">
					<path class="st3" d="M307.1,122.9l4.3,4c-1.4-0.8-2.5-1.3-3.4-2c-3.4-2.5-7-4.9-10.2-7.7c-1.2-1-2.3-1.6-3.4-1.6
						c-1.2-0.1-2.5,0.4-3.8,1.4c-3.5,2.4-7.2,4.6-10.9,6.7c-1.1,0.6-2.4,0.8-3.7,1.1l-4.3-4c1.2-0.4,2.6-0.5,3.7-1.1
						c3.7-2.1,7.4-4.3,10.9-6.7c1.4-1,2.6-1.5,3.8-1.4c1.1,0.1,2.2,0.6,3.4,1.6c3.2,2.8,6.8,5.2,10.2,7.7
						C304.6,121.6,305.6,122.1,307.1,122.9"/>
				</g>
			</g>
		</g>
		<g class="st1">
			<g class="st1">
				<defs>
					<path id="SVGID_87_" class="st1" d="M105,184.3l4.3,4c0,0-0.1-0.1-0.1-0.1c-3.2-2.9-6.5-5.8-9.6-8.7l-4.3-4
						c3.2,3,6.4,5.8,9.6,8.7C104.9,184.3,105,184.3,105,184.3z"/>
				</defs>
				<clipPath id="SVGID_88_">
					<use xlink:href="#SVGID_87_"  style="overflow:visible;"/>
				</clipPath>
				<g class="st54">
					<path class="st3" d="M105,184.3l4.3,4c0,0-0.1-0.1-0.1-0.1c-3.2-2.9-6.5-5.8-9.6-8.7l-4.3-4c3.2,3,6.4,5.8,9.6,8.7
						C104.9,184.3,105,184.3,105,184.3"/>
				</g>
			</g>
			<g class="st1">
				<defs>
					<path id="SVGID_89_" class="st1" d="M135,174.6l-4.3-4c-1.1-1-1.7-2.7-2.4-5.3c-0.9-3.7-2.3-7.4-3.5-11.1
						c-0.3-0.8-1-1.5-1.6-2.2l4.3,4c0.5,0.7,1.3,1.4,1.6,2.2c1.3,3.7,2.6,7.3,3.5,11.1C133.3,172,133.9,173.6,135,174.6z"/>
				</defs>
				<clipPath id="SVGID_90_">
					<use xlink:href="#SVGID_89_"  style="overflow:visible;"/>
				</clipPath>
				<g class="st55">
					<path class="st10" d="M123.3,152l4.3,4c0.1,0.1,0.1,0.2,0.2,0.3l-4.3-4C123.4,152.2,123.3,152.1,123.3,152"/>
					<path class="st9" d="M123.5,152.3l4.3,4c0.2,0.3,0.5,0.6,0.7,0.8l-4.3-4C123.9,152.9,123.7,152.6,123.5,152.3"/>
					<path class="st10" d="M124.2,153.2l4.3,4c0.3,0.3,0.5,0.7,0.7,1.1l-4.3-4C124.7,153.9,124.4,153.5,124.2,153.2"/>
					<path class="st9" d="M124.8,154.2l4.3,4c0,0,0,0,0,0.1c1.3,3.7,2.6,7.3,3.5,11.1c0.3,1,0.5,1.9,0.8,2.6l-4.3-4
						c-0.3-0.7-0.5-1.6-0.8-2.6C127.4,161.6,126.1,157.9,124.8,154.2C124.8,154.3,124.8,154.3,124.8,154.2"/>
					<path class="st10" d="M129.2,168l4.3,4c0.3,0.9,0.7,1.6,1.1,2.2l-4.3-4C129.9,169.6,129.5,168.9,129.2,168"/>
					<path class="st9" d="M130.3,170.1l4.3,4c0.1,0.2,0.3,0.4,0.5,0.5l-4.3-4C130.6,170.5,130.4,170.3,130.3,170.1"/>
				</g>
			</g>
			<g>
				<path class="st15" d="M123.3,152c0.5,0.7,1.3,1.4,1.6,2.2c1.3,3.7,2.6,7.3,3.5,11.1c1.4,5.5,2.6,6.7,8.3,7
					c4.1,0.2,8.2,0.4,12.3,0.7c0.9,0.1,1.7,0.9,3,1.7c-1.2,1.2-1.9,2.1-2.8,2.8c-3.7,2.8-7.5,5.6-11.3,8.3c-2.3,1.7-3,3.8-2.1,6.7
					c1.1,3.7,1.9,7.5,2.7,11.3c0.3,1.4,0.6,3.7-0.1,4.3c-0.4,0.3-0.8,0.4-1.2,0.4c-1.2-0.1-2.2-1.3-3.2-2c-3.3-2.4-6.7-4.6-9.8-7.2
					c-1.2-1-2.3-1.6-3.4-1.6c-1,0-2.1,0.3-3.3,1.2c-3.9,2.6-7.9,5-11.9,7.4c-0.9,0.5-2.1,0.5-3.2,0.7c-0.2-1.1-0.7-2.3-0.4-3.3
					c1.3-4.5,2.6-9,4.5-13.2c1.2-2.7,0.5-4.5-1.4-6.2c-3.4-3.1-6.9-6.2-10.3-9.4c-0.7-0.7-1.6-2.1-1.3-2.7c0.4-0.8,1.8-1.6,2.8-1.6
					c2.7,0,5.4,0,8.1,0.2c1.6,0.1,3.2,0.2,4.8,0.3c0.1,0,0.2,0,0.4,0c2.8,0.1,4.5-1,5.6-3.5c1.9-4.5,3.9-8.9,6-13.3
					C121.3,153.3,122.5,152.8,123.3,152z"/>
			</g>
			<g class="st1">
				<defs>
					<path id="SVGID_91_" class="st1" d="M151.9,174.8l4.3,4c-1.2,1.2-1.9,2.1-2.8,2.8c-3.7,2.8-7.5,5.6-11.3,8.3
						c-2.3,1.7-3,3.8-2.1,6.7c1.1,3.7,1.9,7.5,2.7,11.3c0.3,1.4,0.6,3.7-0.1,4.3c-0.4,0.3-0.8,0.4-1.2,0.4c-1.2-0.1-2.2-1.3-3.2-2
						c-3.3-2.4-6.7-4.6-9.8-7.2c-1.2-1-2.3-1.6-3.4-1.6c-1,0-2.1,0.3-3.3,1.2c-3.9,2.6-7.9,5-11.9,7.4c-0.9,0.5-2.1,0.5-3.2,0.7
						l-4.3-4c1.1-0.2,2.3-0.2,3.2-0.7c4-2.4,8.1-4.8,11.9-7.4c1.2-0.8,2.3-1.2,3.3-1.2c1.1,0.1,2.2,0.6,3.4,1.6
						c3.1,2.6,6.5,4.9,9.8,7.2c1,0.7,2,2,3.2,2c0.4,0,0.8-0.1,1.2-0.4c0.7-0.5,0.3-2.9,0.1-4.3c-0.7-3.8-1.5-7.6-2.7-11.3
						c-0.9-2.9-0.3-4.9,2.1-6.7c3.8-2.8,7.6-5.5,11.3-8.3C150,176.9,150.7,176,151.9,174.8z"/>
				</defs>
				<clipPath id="SVGID_92_">
					<use xlink:href="#SVGID_91_"  style="overflow:visible;"/>
				</clipPath>
				<g class="st56">
					<path class="st3" d="M151.9,174.8l4.3,4c-1.2,1.2-1.9,2.1-2.8,2.8c-3.7,2.8-7.5,5.6-11.3,8.3c-0.6,0.4-1,0.8-1.4,1.3l-4.3-4
						c0.4-0.5,0.8-0.9,1.4-1.3c3.8-2.8,7.6-5.5,11.3-8.3C150,176.9,150.7,176,151.9,174.8"/>
					<path class="st4" d="M136.4,187.2l4.3,4c-0.2,0.2-0.4,0.5-0.5,0.7l-4.3-4C136.1,187.7,136.2,187.4,136.4,187.2"/>
					<path class="st5" d="M135.9,187.9l4.3,4c-0.1,0.2-0.2,0.4-0.3,0.6l-4.3-4C135.7,188.3,135.8,188.1,135.9,187.9"/>
					<path class="st6" d="M135.7,188.6l4.3,4c-0.1,0.2-0.1,0.4-0.2,0.6l-4.3-4C135.5,189,135.6,188.8,135.7,188.6"/>
					<path class="st7" d="M135.5,189.2l4.3,4c0,0.2-0.1,0.5-0.1,0.7l-4.3-4C135.4,189.6,135.4,189.4,135.5,189.2"/>
					<path class="st8" d="M135.4,189.9l4.3,4c0,0.3,0,0.6,0,1l-4.3-4C135.4,190.5,135.4,190.2,135.4,189.9"/>
					<path class="st9" d="M135.4,190.9l4.3,4c0.1,0.5,0.2,1.1,0.4,1.7c1.1,3.7,1.9,7.5,2.7,11.3c0.1,0.6,0.2,1.3,0.3,2l-4.3-4
						c-0.1-0.7-0.2-1.4-0.3-2c-0.7-3.8-1.5-7.6-2.7-11.3C135.6,191.9,135.4,191.4,135.4,190.9"/>
					<path class="st8" d="M138.7,205.8l4.3,4c0,0.4,0.1,0.9,0,1.2l-4.3-4C138.8,206.7,138.7,206.3,138.7,205.8"/>
					<path class="st7" d="M138.7,207.1l4.3,4c0,0.2,0,0.3-0.1,0.4l-4.3-4C138.7,207.4,138.7,207.2,138.7,207.1"/>
					<path class="st6" d="M138.7,207.5l4.3,4c0,0.1,0,0.2-0.1,0.2l-4.3-4C138.6,207.7,138.7,207.6,138.7,207.5"/>
					<path class="st5" d="M138.6,207.7l4.3,4c0,0.1,0,0.1-0.1,0.2l-4.3-4C138.6,207.9,138.6,207.8,138.6,207.7"/>
					<path class="st4" d="M138.5,207.9l4.3,4c0,0-0.1,0.1-0.1,0.1l-4.3-4C138.5,208,138.5,208,138.5,207.9"/>
					<path class="st3" d="M138.5,208l4.3,4c0,0-0.1,0.1-0.1,0.1c-0.4,0.3-0.8,0.4-1.2,0.4c-1.2-0.1-2.2-1.3-3.2-2
						c-3.3-2.4-6.7-4.6-9.8-7.2c-1.2-1-2.3-1.6-3.4-1.6c-1,0-2.1,0.3-3.3,1.2c-3.9,2.6-7.9,5-11.9,7.4c-0.9,0.5-2.1,0.5-3.2,0.7
						l-4.3-4c1.1-0.2,2.3-0.2,3.2-0.7c4-2.4,8.1-4.8,11.9-7.4c1.2-0.8,2.3-1.2,3.3-1.2c1.1,0.1,2.2,0.6,3.4,1.6
						c3.1,2.6,6.5,4.9,9.8,7.2c1,0.7,2,2,3.2,2c0.4,0,0.8-0.1,1.2-0.4C138.4,208.1,138.4,208.1,138.5,208"/>
				</g>
			</g>
		</g>
		<g class="st1">
			<g class="st1">
				<defs>
					<path id="SVGID_93_" class="st1" d="M179,114.7l4.3,4c-0.3-0.3-0.6-0.5-0.9-0.8c-3.2-2.8-6.5-5.5-9.6-8.4l-4.3-4
						c3.1,2.9,6.4,5.6,9.6,8.4C178.4,114.1,178.7,114.4,179,114.7z"/>
				</defs>
				<clipPath id="SVGID_94_">
					<use xlink:href="#SVGID_93_"  style="overflow:visible;"/>
				</clipPath>
				<g class="st57">
					<path class="st3" d="M179,114.7l4.3,4c-0.3-0.3-0.6-0.5-0.9-0.8c-3.2-2.8-6.5-5.5-9.6-8.4l-4.3-4c3.1,2.9,6.4,5.6,9.6,8.4
						C178.4,114.1,178.7,114.4,179,114.7"/>
				</g>
			</g>
			<g class="st1">
				<defs>
					<path id="SVGID_95_" class="st1" d="M198.7,84.5l4.3,4c0.3,0.3,0.5,0.6,0.6,0.9c1.5,4.6,3,9.3,4.2,13.9c0.3,1.1,0.7,2,1.3,2.6
						l-4.3-4c-0.6-0.6-1-1.5-1.3-2.6c-1.2-4.7-2.7-9.3-4.2-13.9C199.2,85,198.9,84.7,198.7,84.5z"/>
				</defs>
				<clipPath id="SVGID_96_">
					<use xlink:href="#SVGID_95_"  style="overflow:visible;"/>
				</clipPath>
				<g class="st58">
					<path class="st9" d="M198.7,84.5l4.3,4c0.1,0.1,0.2,0.2,0.3,0.3l-4.3-4C198.8,84.6,198.8,84.5,198.7,84.5"/>
					<path class="st10" d="M198.9,84.8l4.3,4c0.1,0.2,0.2,0.4,0.3,0.5l-4.3-4C199.2,85.1,199.1,84.9,198.9,84.8"/>
					<path class="st9" d="M199.2,85.3l4.3,4c0,0,0,0,0,0.1c1.5,4.6,3,9.3,4.2,13.9c0.1,0.3,0.2,0.6,0.3,0.9l-4.3-4
						c-0.1-0.3-0.2-0.6-0.3-0.9C202.3,94.6,200.8,90,199.2,85.3C199.3,85.3,199.3,85.3,199.2,85.3"/>
					<path class="st10" d="M203.8,100.2l4.3,4c0.2,0.5,0.4,1,0.7,1.3l-4.3-4C204.2,101.1,204,100.7,203.8,100.2"/>
					<path class="st9" d="M204.5,101.5l4.3,4c0.1,0.1,0.2,0.3,0.3,0.4l-4.3-4C204.7,101.8,204.6,101.6,204.5,101.5"/>
				</g>
			</g>
			<g>
				<path class="st15" d="M197.6,83.9c0.6,0.1,1.4,0.8,1.6,1.4c1.5,4.6,3,9.3,4.2,13.9c0.6,2.2,1.5,3.4,3.9,3.6
					c3.9,0.4,7.7,1.1,11.5,1.5c0.1,0,0.2,0,0.2,0c0.5,0,1-0.1,1.6-0.2c0.6-0.1,1.1-0.2,1.7-0.2c1.3,0.1,3.2,0.1,3.6,0.8
					c0.8,1.6-0.6,2.6-2,3.6c-3.5,2.4-6.9,5.1-10.5,7.5c-4.1,2.8-4.4,3.4-3.4,8.2c0.8,3.8,1.7,7.6,2.6,11.4c0.2,0.9,0.6,1.9,0.5,2.8
					c0,0.7-0.5,1.4-1,1.9c0,0-0.1,0.1-0.2,0.1c-0.4,0-1-0.3-1.3-0.5c-3.5-2.5-6.9-5.1-10.3-7.6c-2.6-1.9-4-2.9-5.4-2.9
					c-1.4-0.1-2.9,0.7-5.5,2.3c-3.5,2.1-7,4.2-10.6,6.3c-0.6,0.4-1.3,0.7-2.1,1.2c-0.4-0.6-0.9-1.1-0.9-1.5c0.1-1.1,0.4-2.3,0.7-3.4
					c1.2-3.7,2.5-7.4,3.9-11c1.6-4.6,1.2-6.1-2.4-9.2c-3.2-2.8-6.5-5.5-9.6-8.4c-0.6-0.6-0.7-1.7-1.1-2.5c0.7-0.3,1.4-0.7,2.1-0.7
					c4.9-0.2,9.7-0.3,14.6-0.4c4.3-0.1,5.1-0.7,6.7-4.9c1.6-4,3.4-7.9,5.2-11.7C196.3,84.6,197.1,83.9,197.6,83.9z"/>
			</g>
			<g class="st1">
				<defs>
					<path id="SVGID_97_" class="st1" d="M225.8,104.8l4.3,4c0.1,0.1,0.1,0.1,0.1,0.2c0.8,1.6-0.6,2.6-2,3.6
						c-3.5,2.4-6.9,5.1-10.5,7.5c-4.1,2.8-4.4,3.4-3.4,8.2c0.8,3.8,1.7,7.6,2.6,11.4c0.2,0.9,0.6,1.9,0.5,2.8c0,0.7-0.5,1.4-1,1.9
						c0,0-0.1,0.1-0.2,0.1c-0.4,0-1-0.3-1.3-0.5c-3.5-2.5-6.9-5.1-10.3-7.6c-2.6-1.9-4-2.9-5.4-2.9c-1.4-0.1-2.9,0.7-5.5,2.3
						c-3.5,2.1-7,4.2-10.6,6.3c-0.6,0.4-1.3,0.7-2.1,1.2l-4.3-4c0.8-0.4,1.5-0.8,2.1-1.2c3.5-2.1,7-4.2,10.6-6.3
						c2.6-1.6,4.1-2.3,5.5-2.3c1.5,0.1,2.9,1,5.4,2.9c3.4,2.6,6.8,5.1,10.3,7.6c0.3,0.2,0.9,0.5,1.3,0.5c0.1,0,0.2,0,0.2-0.1
						c0.5-0.5,0.9-1.2,1-1.9c0-0.9-0.3-1.9-0.5-2.8c-0.9-3.8-1.8-7.6-2.6-11.4c-1-4.8-0.6-5.4,3.4-8.2c3.5-2.4,6.9-5.1,10.5-7.5
						c1.4-0.9,2.8-2,2-3.6C225.9,104.9,225.8,104.8,225.8,104.8z"/>
				</defs>
				<clipPath id="SVGID_98_">
					<use xlink:href="#SVGID_97_"  style="overflow:visible;"/>
				</clipPath>
				<g class="st59">
					<path class="st9" d="M225.8,104.8l4.3,4c0,0,0.1,0.1,0.1,0.1L225.8,104.8C225.8,104.8,225.8,104.8,225.8,104.8"/>
					<path class="st10" d="M225.8,104.8l4.3,4c0,0,0,0.1,0.1,0.1c0,0.1,0.1,0.2,0.1,0.3l-4.3-4c0-0.1-0.1-0.2-0.1-0.3
						C225.9,104.9,225.9,104.9,225.8,104.8"/>
					<path class="st9" d="M226,105.2l4.3,4c0.1,0.2,0.1,0.3,0.1,0.5l-4.3-4C226.1,105.5,226.1,105.4,226,105.2"/>
					<path class="st8" d="M226.1,105.7l4.3,4c0,0.1,0,0.2,0,0.3l-4.3-4C226.1,105.9,226.1,105.8,226.1,105.7"/>
					<path class="st7" d="M226.1,106l4.3,4c0,0.1,0,0.2,0,0.2l-4.3-4C226.1,106.1,226.1,106,226.1,106"/>
					<path class="st6" d="M226.1,106.2l4.3,4c0,0.1,0,0.2-0.1,0.2l-4.3-4C226.1,106.4,226.1,106.3,226.1,106.2"/>
					<path class="st5" d="M226,106.4l4.3,4c0,0.1-0.1,0.2-0.1,0.3l-4.3-4C226,106.6,226,106.5,226,106.4"/>
					<path class="st4" d="M225.9,106.7l4.3,4c-0.1,0.1-0.2,0.3-0.3,0.4l-4.3-4C225.7,107,225.8,106.8,225.9,106.7"/>
					<path class="st3" d="M225.6,107.1l4.3,4c-0.4,0.5-1.1,1-1.7,1.5c-3.5,2.4-6.9,5.1-10.5,7.5c-1.5,1-2.5,1.8-3.1,2.5l-4.3-4
						c0.6-0.8,1.6-1.5,3.1-2.5c3.5-2.4,6.9-5.1,10.5-7.5C224.6,108.1,225.2,107.6,225.6,107.1"/>
					<path class="st4" d="M210.3,118.5l4.3,4c-0.1,0.2-0.3,0.4-0.4,0.5l-4.3-4C210.1,118.9,210.2,118.7,210.3,118.5"/>
					<path class="st5" d="M210,119.1l4.3,4c-0.1,0.1-0.1,0.3-0.2,0.4l-4.3-4C209.8,119.3,209.9,119.2,210,119.1"/>
					<path class="st6" d="M209.8,119.5l4.3,4c-0.1,0.1-0.1,0.3-0.1,0.4l-4.3-4C209.7,119.8,209.7,119.6,209.8,119.5"/>
					<path class="st7" d="M209.6,119.9l4.3,4c0,0.2-0.1,0.4-0.1,0.6l-4.3-4C209.6,120.3,209.6,120.1,209.6,119.9"/>
					<path class="st8" d="M209.6,120.5l4.3,4c0,0.3,0,0.7,0,1.1l-4.3-4C209.5,121.2,209.5,120.8,209.6,120.5"/>
					<path class="st9" d="M209.6,121.6l4.3,4c0.1,0.7,0.2,1.5,0.4,2.6c0.8,3.8,1.7,7.6,2.6,11.4c0.2,0.8,0.5,1.6,0.5,2.3l-4.3-4
						c-0.1-0.8-0.4-1.6-0.5-2.3c-0.9-3.8-1.8-7.6-2.6-11.4C209.8,123.2,209.7,122.3,209.6,121.6"/>
					<path class="st8" d="M213.2,137.9l4.3,4c0,0.2,0,0.3,0,0.5c0,0,0,0,0,0.1l-4.3-4c0,0,0,0,0-0.1
						C213.2,138.2,213.2,138,213.2,137.9"/>
					<path class="st7" d="M213.2,138.4l4.3,4c0,0.1,0,0.2,0,0.3l-4.3-4C213.1,138.6,213.2,138.5,213.2,138.4"/>
					<path class="st6" d="M213.1,138.7l4.3,4c0,0.1-0.1,0.2-0.1,0.3l-4.3-4C213.1,138.9,213.1,138.8,213.1,138.7"/>
					<path class="st5" d="M213,139l4.3,4c-0.1,0.1-0.1,0.3-0.2,0.4l-4.3-4C212.9,139.3,213,139.1,213,139"/>
					<path class="st4" d="M212.8,139.4l4.3,4c-0.1,0.2-0.2,0.4-0.4,0.5l-4.3-4C212.6,139.8,212.7,139.6,212.8,139.4"/>
					<path class="st3" d="M212.5,139.9l4.3,4c-0.1,0.1-0.2,0.2-0.3,0.3c0,0-0.1,0.1-0.2,0.1c-0.4,0-1-0.3-1.3-0.5
						c-3.5-2.5-6.9-5.1-10.3-7.6c-2.6-1.9-4-2.9-5.4-2.9c-1.4-0.1-2.9,0.7-5.5,2.3c-3.5,2.1-7,4.2-10.6,6.3
						c-0.6,0.4-1.3,0.7-2.1,1.2l-4.3-4c0.8-0.4,1.5-0.8,2.1-1.2c3.5-2.1,7-4.2,10.6-6.3c2.6-1.6,4.1-2.3,5.5-2.3
						c1.5,0.1,2.9,1,5.4,2.9c3.4,2.6,6.8,5.1,10.3,7.6c0.3,0.2,0.9,0.5,1.3,0.5c0.1,0,0.2,0,0.2-0.1
						C212.3,140.2,212.4,140.1,212.5,139.9"/>
				</g>
			</g>
		</g>
		<g class="st1">
			<g class="st1">
				<defs>
					<path id="SVGID_99_" class="st1" d="M158.9,441.8l4.3,4c-0.1-0.1-0.3-0.2-0.4-0.4c-3.4-2.9-6.8-5.8-10.1-8.8l-4.3-4
						c3.3,3,6.7,5.9,10.1,8.8C158.6,441.6,158.7,441.7,158.9,441.8z"/>
				</defs>
				<clipPath id="SVGID_100_">
					<use xlink:href="#SVGID_99_"  style="overflow:visible;"/>
				</clipPath>
				<g class="st60">
					<path class="st3" d="M158.9,441.8l4.3,4c-0.1-0.1-0.3-0.2-0.4-0.4c-3.4-2.9-6.8-5.8-10.1-8.8l-4.3-4c3.3,3,6.7,5.9,10.1,8.8
						C158.6,441.6,158.7,441.7,158.9,441.8"/>
				</g>
			</g>
			<g class="st1">
				<defs>
					<path id="SVGID_101_" class="st1" d="M178.5,411.4l4.3,4c0.2,0.2,0.4,0.5,0.6,0.8c0.5,0.8,0.8,1.8,1.1,2.7
						c0.4,1.1,0.6,2.3,0.9,3.4c1.5,5.4,2.6,8.5,4.6,10.3l-4.3-4c-2-1.8-3.1-4.9-4.6-10.3c-0.3-1.1-0.6-2.3-0.9-3.4
						c-0.3-0.9-0.7-1.8-1.1-2.7C178.9,411.9,178.7,411.7,178.5,411.4z"/>
				</defs>
				<clipPath id="SVGID_102_">
					<use xlink:href="#SVGID_101_"  style="overflow:visible;"/>
				</clipPath>
				<g class="st61">
					<path class="st9" d="M178.5,411.4l4.3,4c0.1,0.1,0.2,0.2,0.3,0.3l-4.3-4C178.7,411.6,178.6,411.5,178.5,411.4"/>
					<path class="st10" d="M178.8,411.8l4.3,4c0.1,0.2,0.2,0.3,0.4,0.5c0.4,0.6,0.6,1.3,0.9,1.9l-4.3-4c-0.2-0.7-0.5-1.3-0.9-1.9
						C179,412.1,178.9,411.9,178.8,411.8"/>
					<path class="st9" d="M180,414.2l4.3,4c0.1,0.2,0.2,0.5,0.3,0.7c0.4,1.1,0.6,2.3,0.9,3.4c0.6,2.1,1.1,3.8,1.7,5.2l-4.3-4
						c-0.5-1.4-1.1-3.2-1.7-5.2c-0.3-1.1-0.6-2.3-0.9-3.4C180.2,414.7,180.1,414.5,180,414.2"/>
					<path class="st10" d="M182.8,423.6l4.3,4c0.7,1.8,1.4,3.2,2.2,4.2l-4.3-4C184.2,426.8,183.5,425.4,182.8,423.6"/>
					<path class="st9" d="M185,427.8l4.3,4c0.2,0.3,0.5,0.6,0.8,0.8l-4.3-4C185.5,428.4,185.3,428.1,185,427.8"/>
				</g>
			</g>
			<g>
				<path class="st15" d="M177.5,411c0.6,0,1.1,0.5,1.6,1.3c0.5,0.8,0.8,1.8,1.1,2.7c0.4,1.1,0.6,2.3,0.9,3.4
					c3.3,11.5,4.6,12.6,16.8,13.3c2.3,0.1,4.7,0.2,7,0.5c0.6,0.1,1.1,0.8,1.8,1.4c-1.4,1.2-2.4,2.1-3.5,2.9
					c-3.9,2.9-7.8,5.8-11.7,8.7c-2,1.5-2.4,3.1-1.6,5.6c1.3,4.2,2,8.7,2.9,13c0.2,0.8-0.1,2.2-0.7,2.5c-0.2,0.1-0.5,0.2-0.9,0.2
					c-0.6,0-1.3-0.3-1.8-0.6c-3.5-2.4-6.9-5-10.3-7.6c-1.5-1.2-2.7-1.8-4-1.9c-1,0-2.1,0.3-3.4,1.1c-4,2.4-8,4.9-12,7.3
					c-0.7,0.4-1.7,0.8-2.5,0.8c-0.2,0-0.3,0-0.5-0.1c-1.6-0.8-0.9-2.2-0.3-3.5c1.4-3.6,2.5-7.4,3.9-11c1.4-3.7,1.1-6.8-2-9.5
					c-3.4-2.9-6.8-5.8-10.1-8.8c-0.6-0.6-0.8-1.6-1.2-2.5c0.9-0.3,1.7-0.8,2.6-0.8c4.1,0.1,8.2,0.4,12.3,0.4c4.9,0.1,6.6-1,8.5-5.5
					c1.7-3.9,3.3-7.9,5.1-11.8C176.2,411.5,176.9,411,177.5,411z"/>
			</g>
			<g class="st1">
				<defs>
					<path id="SVGID_103_" class="st1" d="M160.6,469.1l-4.3-4c0.1,0.1,0.3,0.3,0.5,0.4c0.1,0.1,0.3,0.1,0.5,0.1
						c0.8,0,1.8-0.4,2.5-0.8c4-2.4,8-5,12-7.3c1.3-0.8,2.4-1.1,3.4-1.1c1.3,0.1,2.5,0.7,4,1.9c3.4,2.6,6.8,5.1,10.3,7.6
						c0.4,0.3,1.1,0.5,1.8,0.6c0.3,0,0.6,0,0.9-0.2c0.5-0.3,0.8-1.7,0.7-2.5c-0.8-4.4-1.6-8.8-2.9-13c-0.8-2.5-0.4-4.1,1.6-5.6
						c3.9-2.9,7.8-5.8,11.7-8.7c1.1-0.8,2.1-1.7,3.5-2.9l4.3,4c-1.4,1.2-2.4,2.1-3.5,2.9c-3.9,2.9-7.8,5.8-11.7,8.7
						c-2,1.5-2.4,3.1-1.6,5.6c1.3,4.2,2,8.7,2.9,13c0.2,0.8-0.1,2.2-0.7,2.5c-0.2,0.1-0.5,0.2-0.9,0.2c-0.6,0-1.3-0.3-1.8-0.6
						c-3.5-2.4-6.9-5-10.3-7.6c-1.5-1.2-2.7-1.8-4-1.9c-1,0-2.1,0.3-3.4,1.1c-4,2.4-8,4.9-12,7.3c-0.7,0.4-1.7,0.8-2.5,0.8
						c-0.2,0-0.3,0-0.5-0.1C161,469.4,160.8,469.3,160.6,469.1z"/>
				</defs>
				<clipPath id="SVGID_104_">
					<use xlink:href="#SVGID_103_"  style="overflow:visible;"/>
				</clipPath>
				<g class="st62">
					<path class="st3" d="M206.8,433.5l4.3,4c-1.4,1.2-2.4,2.1-3.5,2.9c-3.9,2.9-7.8,5.8-11.7,8.7c-0.4,0.3-0.8,0.7-1.1,1l-4.3-4
						c0.3-0.4,0.7-0.7,1.1-1c3.9-2.9,7.8-5.8,11.7-8.7C204.4,435.6,205.4,434.7,206.8,433.5"/>
					<path class="st4" d="M190.5,446.2l4.3,4c-0.2,0.2-0.3,0.4-0.4,0.6l-4.3-4C190.2,446.6,190.4,446.4,190.5,446.2"/>
					<path class="st5" d="M190.1,446.8l4.3,4c-0.1,0.2-0.2,0.3-0.2,0.5l-4.3-4C190,447.1,190,446.9,190.1,446.8"/>
					<path class="st6" d="M189.9,447.3l4.3,4c-0.1,0.2-0.1,0.3-0.1,0.5l-4.3-4C189.8,447.6,189.8,447.4,189.9,447.3"/>
					<path class="st7" d="M189.7,447.8l4.3,4c0,0.2-0.1,0.4-0.1,0.6l-4.3-4C189.7,448.1,189.7,447.9,189.7,447.8"/>
					<path class="st8" d="M189.7,448.3l4.3,4c0,0.3,0,0.5,0,0.8l-4.3-4C189.7,448.9,189.6,448.6,189.7,448.3"/>
					<path class="st9" d="M189.7,449.2l4.3,4c0,0.5,0.2,1,0.3,1.6c1.3,4.2,2,8.7,2.9,13c0,0.1,0,0.1,0,0.2l-4.3-4c0-0.1,0-0.1,0-0.2
						c-0.8-4.4-1.6-8.8-2.9-13C189.8,450.2,189.7,449.7,189.7,449.2"/>
					<path class="st8" d="M192.9,464l4.3,4c0,0.2,0,0.4,0,0.6l-4.3-4C192.9,464.4,192.9,464.2,192.9,464"/>
					<path class="st7" d="M192.9,464.6l4.3,4c0,0.2,0,0.4-0.1,0.6l-4.3-4C192.9,465,192.9,464.8,192.9,464.6"/>
					<path class="st6" d="M192.8,465.1l4.3,4c0,0.2-0.1,0.3-0.1,0.5l-4.3-4C192.8,465.5,192.8,465.3,192.8,465.1"/>
					<path class="st5" d="M192.7,465.6l4.3,4c0,0.1-0.1,0.2-0.1,0.3l-4.3-4C192.6,465.8,192.7,465.7,192.7,465.6"/>
					<path class="st4" d="M192.6,465.9l4.3,4c0,0.1-0.1,0.1-0.1,0.2l-4.3-4C192.5,466.1,192.5,466,192.6,465.9"/>
					<path class="st3" d="M192.4,466.1l4.3,4c-0.1,0.1-0.1,0.1-0.2,0.2c-0.2,0.1-0.5,0.2-0.9,0.2c-0.6,0-1.3-0.3-1.8-0.6
						c-3.5-2.4-6.9-5-10.3-7.6c-1.5-1.2-2.7-1.8-4-1.9c-1,0-2.1,0.3-3.4,1.1c-4,2.4-8,4.9-12,7.3c-0.7,0.4-1.7,0.8-2.5,0.8
						c-0.2,0-0.3,0-0.5-0.1c-0.2-0.1-0.4-0.2-0.5-0.4l-4.3-4c0.1,0.1,0.3,0.3,0.5,0.4c0.1,0.1,0.3,0.1,0.5,0.1
						c0.8,0,1.8-0.4,2.5-0.8c4-2.4,8-5,12-7.3c1.3-0.8,2.4-1.1,3.4-1.1c1.3,0.1,2.5,0.7,4,1.9c3.4,2.6,6.8,5.1,10.3,7.6
						c0.4,0.3,1.1,0.5,1.8,0.6c0.3,0,0.6,0,0.9-0.2C192.3,466.3,192.4,466.2,192.4,466.1"/>
				</g>
			</g>
		</g>
	</g>
</g>
</svg>
