<?xml version="1.0" encoding="utf-8"?>
<!-- Generator: Adobe Illustrator 21.0.0, SVG Export Plug-In . SVG Version: 6.00 Build 0)  -->
<svg version="1.1" id="Calque_1" xmlns="http://www.w3.org/2000/svg" xmlns:xlink="http://www.w3.org/1999/xlink" x="0px" y="0px"
	 viewBox="0 0 566.9 566.9" style="enable-background:new 0 0 566.9 566.9;" xml:space="preserve">
<style type="text/css">
	.st0{fill:#3F3F3F;}
</style>
<g id="XMLID_5732_">
	<path id="XMLID_5742_" class="st0" d="M390.7,564L390.7,564c2.7,0,5.3-1,7.3-2.9l112.8-106.6c2.1-2,3.2-4.8,3.2-7.6
		c1.1-1.9,1.8-4,1.8-6.4v-395c0-24.6-20-44.6-44.5-44.6H95.7c-24.6,0-44.5,20-44.5,44.6v476.7c0,24.6,20,44.6,44.5,44.6h287.2
		C385.9,566.9,388.6,565.8,390.7,564z M401.3,529v-41c0-16.9,13.7-30.7,30.6-30.7h45.2L401.3,529z M370.5,542.2H95.7
		c-10.9,0-19.8-8.9-19.8-19.9V45.6c0-11,8.9-19.9,19.8-19.9h375.6c10.9,0,19.8,8.9,19.8,19.9v382.6h-57.7c-34.7,0-62.9,28.3-62.9,63
		V542.2z"/>
	<path id="XMLID_5739_" class="st0" d="M147.3,165.7h272.2c6.8,0,12.4-5.5,12.4-12.4v-22.2c0-6.8-5.5-12.4-12.4-12.4H147.3
		c-6.8,0-12.4,5.5-12.4,12.4v22.2C135,160.1,140.5,165.7,147.3,165.7z M149.8,133.6h267.3v17.2H149.8V133.6z"/>
	<path id="XMLID_5736_" class="st0" d="M147.3,243.3h272.2c6.8,0,12.4-5.5,12.4-12.4v-22.2c0-6.8-5.5-12.4-12.4-12.4H147.3
		c-6.8,0-12.4,5.5-12.4,12.4v22.2C135,237.8,140.5,243.3,147.3,243.3z M149.8,211.2h267.3v17.2H149.8V211.2z"/>
	<path id="XMLID_5733_" class="st0" d="M431.9,308.6v-22.2c0-6.8-5.5-12.4-12.4-12.4H147.3c-6.8,0-12.4,5.5-12.4,12.4v22.2
		c0,6.8,5.5,12.4,12.4,12.4h272.2C426.4,321,431.9,315.5,431.9,308.6z M417.1,306.2H149.8v-17.2h267.3V306.2z"/>
</g>
</svg>
