<?xml version="1.0" encoding="utf-8"?>
<!-- Generator: Adobe Illustrator 21.0.0, SVG Export Plug-In . SVG Version: 6.00 Build 0)  -->
<svg version="1.1" id="Calque_1" xmlns="http://www.w3.org/2000/svg" xmlns:xlink="http://www.w3.org/1999/xlink" x="0px" y="0px"
	 viewBox="0 0 566.9 69.7" style="enable-background:new 0 0 566.9 69.7;" xml:space="preserve">
<style type="text/css">
	.st0{fill:none;stroke:#3F3F3F;stroke-width:2.35;stroke-linecap:round;stroke-linejoin:round;stroke-miterlimit:10;}
	.st1{opacity:0.7;}
	.st2{fill:#3F3F3F;}
</style>
<polyline class="st0" points="561.3,25.3 6,25.3 6,5.1 "/>
<polyline class="st0" points="561.3,5.1 561.3,25.3 191.1,25.3 191.1,5.1 "/>
<line class="st0" x1="376.2" y1="5.1" x2="376.2" y2="25.3"/>
<g class="st1">
	<path class="st2" d="M462.6,64.9c0-10.3-9.1-11.8-17.2-11.8c-6.5,0-13,0.6-19.5,1.2c-6.5,0.6-12.8,1.2-19.3,1.2
		c-21.4,0-30.4-8.7-30.4-21v-3H389V34c0,8.6,7.4,11.5,20,11.5c5.3,0,10.9-0.4,16.5-1c5.8-0.6,11.4-1,17.7-1
		c14.9-0.1,22.3,3.9,25.1,10.4h0.5c2.6-6.5,10.5-10.6,25.3-10.4c6.3,0,12.1,0.4,17.7,1c5.8,0.6,11.1,1,16.7,1
		c13,0,20.2-3.3,20.2-11.5v-2.6h12.8v3c0,12-8.4,21-31.8,21c-6.3,0-12.8-0.6-19-1.2c-6.3-0.6-12.5-1.2-18.8-1.2
		c-7.2,0-17.2,1.5-17.2,11.8H462.6z"/>
</g>
</svg>
