<?xml version="1.0" encoding="utf-8"?>
<!-- Generator: Adobe Illustrator 21.0.0, SVG Export Plug-In . SVG Version: 6.00 Build 0)  -->
<svg version="1.1" id="Calque_1" xmlns="http://www.w3.org/2000/svg" xmlns:xlink="http://www.w3.org/1999/xlink" x="0px" y="0px"
	 viewBox="0 0 283.5 283.5" style="enable-background:new 0 0 283.5 283.5;" xml:space="preserve">
<style type="text/css">
	.st0{display:none;}
	.st1{display:inline;}
	.st2{fill:#FFFFFF;}
</style>
<g id="Calque_2_1_" class="st0">
	<rect x="0.7" y="0" class="st1" width="282.8" height="282.8"/>
</g>
<g>
	<path class="st2" d="M272.6,141.8c0,30.7,0,61.4,0,92.1c0,22.2-16.3,38.6-38.5,38.6c-61.4,0-122.9,0-184.3,0
		c-19.8,0-35-12.6-38.3-31.8c-0.4-2.3-0.5-4.8-0.5-7.1c0-61.3,0-122.5,0-183.8c0-22.6,16.2-38.9,38.8-38.9c61.3,0,122.5,0,183.8,0
		c22.8,0,39,16.1,39,38.9C272.6,80.5,272.6,111.1,272.6,141.8z M179,138.1c15.3-9,20.5-18,19.1-34.6c-0.9-11.3-6.2-19.9-16.5-25.2
		c-8.4-4.4-17.4-5.6-26.7-5.6c-21.8,0-43.5,0-65.3,0c-0.9,0-1.7,0-2.7,0c0,47.6,0,95,0,142.4c0.9,0.1,1.6,0.1,2.3,0.1
		c21.4,0,42.8,0.1,64.3-0.1c5.6-0.1,11.3-0.6,16.9-1.7c9.7-1.9,18.7-5.6,25.5-13.2c8.3-9.3,9.9-20.5,8.4-32.3
		c-1.2-9.1-4.6-17.2-12.1-22.8C188,142.2,183.3,140.4,179,138.1z"/>
	<path class="st2" d="M112,194.5c0-14.8,0-29.3,0-44c1,0,1.8,0,2.7,0c13.4,0,26.9-0.1,40.3,0c3.1,0,6.2,0.3,9.2,1
		c8.4,2.1,13.7,7.4,14.7,16.1c0.5,3.9,0.3,8-0.5,11.8c-1.8,8.6-8.9,14.2-18.5,14.8c-6.7,0.4-13.4,0.2-20.2,0.3
		C130.7,194.5,121.5,194.5,112,194.5z"/>
	<path class="st2" d="M112.1,132c0-12.9,0-25.6,0-38.3c0.3-0.1,0.4-0.3,0.6-0.3c14.2,0,28.5-0.1,42.7,0.1c2.7,0,5.4,0.8,8,1.6
		c4.7,1.6,8,4.9,8.7,9.8c0.6,4.5,0.9,9.2,0.2,13.6c-1.2,7.3-7.4,12.8-16,13.2C141.6,132.4,126.9,132,112.1,132z"/>
</g>
</svg>
