<?xml version="1.0" encoding="utf-8"?>
<!-- Generator: Adobe Illustrator 21.0.0, SVG Export Plug-In . SVG Version: 6.00 Build 0)  -->
<svg version="1.1" xmlns="http://www.w3.org/2000/svg" xmlns:xlink="http://www.w3.org/1999/xlink" x="0px" y="0px"
	 viewBox="0 0 283.5 283.5" style="enable-background:new 0 0 283.5 283.5;" xml:space="preserve">
<style type="text/css">
	.st0{display:none;}
	.st1{display:inline;}
	.st2{fill:#FFFFFF;}
</style>
<g id="Calque_2_1_" class="st0">
	<rect x="0.7" class="st1" width="282.8" height="282.8"/>
</g>
<g id="Calque_1">
	<g id="Calque_2" class="st0">
		<rect x="-5.7" y="-5.7" class="st1" width="294.8" height="294.8"/>
	</g>
	<g>
		<g>
			<path class="st2" d="M194.3,21.1H179l15.9,17.2v8.2h-32.7v-9.6h15.9l-15.9-17.2v-8.2h32.1V21.1L194.3,21.1z M155.7,21.1h-15.3
				l15.9,17.2v8.2h-32.7v-9.6h15.9l-15.9-17.2v-8.2h32.1L155.7,21.1L155.7,21.1z M117.5,21.5H101v15h16.5v10H89.3V11.5h28.2V21.5z"
				/>
		</g>
		<path class="st2" d="M50.1,62.5l16.8,187.9l75.2,20.9l75.4-20.9l16.8-187.9H50.1z M94.9,216.7l-3.2-36.2h10.7h12.5l1.6,18.4
			l25.6,6.9l0,0l0,0v0l25.7-6.9l2.7-29.9h-28.4h0v0h-25.3h-0.1l-0.5-5.2l-1.1-11.7l-0.6-6.2h27.4v0h0h30.5l2.1-23.6h-32.5h-0.1h0
			H86.6h-0.1l-0.5-5.2L85,105.5l-0.6-6.2h57.6h0h0.1h57.7l-0.6,6.2l-5.6,62.5h0l-0.1,0.8l0,0.1h0l-3.9,43.8l-0.3,3.9l-47.2,13.1v0
			l-0.1,0l0,0L94.9,216.7z"/>
	</g>
</g>
</svg>
