<?xml version="1.0" encoding="utf-8"?>
<!-- Generator: Adobe Illustrator 21.0.0, SVG Export Plug-In . SVG Version: 6.00 Build 0)  -->
<svg version="1.1" id="Calque_1" xmlns="http://www.w3.org/2000/svg" xmlns:xlink="http://www.w3.org/1999/xlink" x="0px" y="0px"
	 viewBox="0 0 396.6 529.7" style="enable-background:new 0 0 396.6 529.7;" xml:space="preserve">
<style type="text/css">
	.st0{display:none;}
	.st1{fill:#475558;}
	.st2{fill:#FFFFFF;}
	.st3{fill:#EFEFEF;}
	.st4{fill:#808285;}
	.st5{fill:#BCBEC0;}
	.st6{font-family:'MyriadPro-Regular';}
	.st7{font-size:13.2084px;}
	.st8{fill:#3E4A4C;}
	.st9{fill:none;stroke:#EFEFEF;stroke-linecap:round;stroke-linejoin:round;stroke-miterlimit:10;}
</style>
<g id="Calque_1_1_" class="st0">
	
		<image style="display:inline;overflow:visible;enable-background:new    ;" width="154" height="204" xlink:href="../../../../../Desktop/Capture d’écran 2019-02-04 à 19.29.43.png"  transform="matrix(2.7791 0 0 2.7791 -15.7 -18.6)">
	</image>
</g>
<g id="Calque_2">
	<g>
		<g>
			<path class="st1" d="M80.9,19c0.5-2.4,2.2-4.9,4.9-4.9H250c2.7,0,4.1,2.2,4.9,4.9l6.8,25.8h134.9V0H7.1C3.3,0,0.3,3,0.3,6.8v37.7
				h74.1L80.9,19z M262.9,23.1h24.2c0.8,0,1.4,0.5,1.6,1.4l4.1,14.4c0.3,0.8-0.8,1.4-1.6,1.4h-24.4c-0.8,0-1.4-0.5-1.6-1.4L261,24.4
				C261,23.9,261.9,23.1,262.9,23.1z M20.1,28.5c-3.3,0-5.7-2.7-5.7-5.7s2.7-5.7,5.7-5.7s5.7,2.7,5.7,5.7S23.3,28.5,20.1,28.5z
				 M37.7,28.5c-3.3,0-5.7-2.7-5.7-5.7s2.7-5.7,5.7-5.7c3.3,0,5.7,2.7,5.7,5.7S40.7,28.5,37.7,28.5z M55.1,28.5
				c-3.3,0-5.7-2.7-5.7-5.7s2.7-5.7,5.7-5.7c3.3,0,5.7,2.7,5.7,5.7S58.3,28.5,55.1,28.5z"/>
			<path class="st2" d="M0.3,91.7v431.2c0,3.8,3,6.8,6.8,6.8h389.1v-438L0.3,91.7L0.3,91.7z"/>
			<rect y="45.6" class="st3" width="0.3" height="46.4"/>
			<polygon class="st3" points="73.8,45.6 74.1,44.5 0,44.5 0,45.6 0.3,45.6 			"/>
			<polygon class="st3" points="261.6,45.6 396.2,45.6 396.2,44.5 261.3,44.5 			"/>
			<path class="st3" d="M396.2,83.3H122.7c-2.7,0-4.9-1.6-4.9-3.8V56.7c0-2.2,2.2-3.8,4.9-3.8h273.5v-7.6H261.6H73.8H0.3v46.4h395.9
				L396.2,83.3L396.2,83.3z M99.9,61.3h1.6v3.5l-1.1-1.1l-0.5-0.5V61.3z M29.3,69.5H17.9l3.5,3.5c0.3,0.3,0.3,1.1-0.3,1.4
				c-0.5,0.5-1.1,0.5-1.4,0.3L14,69l-0.3-0.3l0,0l0,0c-0.3-0.3-0.3-0.5-0.3-0.8s0-0.5,0.3-0.8l0,0l0,0l0.3-0.3l5.7-5.7
				c0.3-0.3,1.1-0.3,1.4,0.3c0.5,0.5,0.5,1.1,0.3,1.4l-3.5,3.5h11.4c0.8,0,1.6,0.8,1.6,1.6S30.4,69.5,29.3,69.5z M55.4,68.7
				C55.4,68.7,55.4,68.9,55.4,68.7L55.4,68.7C55.1,69,55.1,69,55.1,69l-5.7,5.7C49.1,75,48.3,75,48,74.4c-0.5-0.5-0.5-1.1-0.3-1.4
				l3.5-3.5H39.9c-0.8,0-1.6-0.8-1.6-1.6c0-0.8,0.8-1.6,1.6-1.6h11.4l-3.5-3.5c-0.3-0.3-0.3-1.1,0.3-1.4c0.5-0.5,1.1-0.5,1.4-0.3
				l5.7,5.7l0.3,0.3l0,0l0,0c0.3,0.3,0.3,0.5,0.3,0.8C55.9,68.1,55.6,68.7,55.4,68.7z M68.9,64.6c-1.9,1.9-1.9,4.6,0,6.5
				s4.6,1.9,6.5,0l1.6,1.6c-2.7,2.7-7.1,2.7-9.8,0s-2.7-7.1,0-9.8s7.1-2.7,9.8,0l1.1-1.1l0.3,2.2l0.3,2.2l-2.2-0.3l-2.2-0.3l1.4-1.4
				C73.5,63,70.8,63,68.9,64.6z M101.5,67.9V75h-3.3v-4.9h-3V75h-3.3v-7.1h-2.2l3.5-3.3l3.5-3.3l3.5,3.3l3.5,3.3H101.5z"/>
			<circle class="st2" cx="20.1" cy="22.8" r="5.7"/>
			<circle class="st2" cx="37.7" cy="22.8" r="5.7"/>
			<circle class="st2" cx="55.1" cy="22.8" r="5.7"/>
			<path class="st2" d="M117.8,56.7v22.8c0,2.2,2.2,3.8,4.9,3.8h273.5V52.9H122.7C119.9,52.9,117.8,54.8,117.8,56.7z M128.9,61.6
				c2.7,0,4.9,2.2,4.9,4.9c0,0.8-0.3,1.6-0.5,2.4l4.1,4.1c0.3,0.3,0,0.8-0.3,1.4c-0.5,0.5-1.1,0.5-1.4,0.3l-4.1-4.1
				c-0.8,0.5-1.6,0.8-2.7,0.8c-2.7,0-4.9-2.2-4.9-4.9S126.2,61.6,128.9,61.6z"/>
			<circle class="st2" cx="128.9" cy="66.5" r="3.3"/>
			<path class="st3" d="M266.5,40.2h24.4c0.8,0,1.9-0.5,1.6-1.4l-3.8-14.4c-0.3-0.8-0.8-1.4-1.6-1.4h-24.2c-0.8,0-1.9,0.5-1.6,1.4
				l3.8,14.4C265.1,39.9,265.7,40.2,266.5,40.2z"/>
			<path class="st3" d="M254.5,19c-0.8-2.7-2.2-4.9-4.9-4.9H85.7c-2.7,0-4.1,2.4-4.9,4.9L74,44.8h187.2L254.5,19z M98.5,36.4h-10
				V23.1h5.4l4.6,4.6V36.4z M249.1,32c0.3,0.3,0.3,0.8,0,1.1s-0.8,0.3-1.1,0l-2.2-2.2l-2.2,2.2c-0.3,0.3-0.8,0.3-1.1,0
				s-0.3-0.8,0-1.1l2.2-2.2l-2.2-2.2c-0.3-0.3-0.3-0.8,0-1.1s0.8-0.3,1.1,0l2.2,2.2l2.2-2.2c0.3-0.3,0.8-0.3,1.1,0s0.3,0.8,0,1.1
				l-2.2,2.2L249.1,32z"/>
			<polygon class="st3" points="74.1,44.5 73.8,45.6 261.6,45.6 261.3,44.5 			"/>
			<polygon class="st4" points="93.9,27.7 98.5,27.7 93.9,23.1 			"/>
			<polygon class="st5" points="93.9,23.1 88.2,23.1 88.2,36.4 98.5,36.4 98.5,27.7 93.9,27.7 			"/>
			<path class="st4" d="M249.1,26.6c-0.3-0.3-0.8-0.3-1.1,0l-2.2,2.2l-2.2-2.2c-0.3-0.3-0.8-0.3-1.1,0s-0.3,0.8,0,1.1l2.2,2.2
				l-2.2,2.2c-0.3,0.3-0.3,0.8,0,1.1s0.8,0.3,1.1,0l2.2-2.2l2.2,2.2c0.3,0.3,0.8,0.3,1.1,0s0.3-0.8,0-1.1l-2.2-2.2l2.2-2.2
				C249.4,27.4,249.4,26.9,249.1,26.6z"/>
			<path class="st5" d="M55.4,67L55.4,67l-0.3-0.3L49.4,61c-0.3-0.3-1.1-0.3-1.4,0.3c-0.5,0.5-0.5,1.1-0.3,1.4l3.5,3.5H39.9
				c-0.8,0-1.6,0.8-1.6,1.6s0.8,1.6,1.6,1.6h11.4l-3.5,3.5c-0.3,0.3-0.3,1.1,0.3,1.4c0.5,0.5,1.1,0.5,1.4,0.3l5.7-5.7l0.3-0.3l0,0
				l0,0c0.3-0.3,0.3-0.5,0.3-0.8C55.9,67.6,55.6,67.3,55.4,67L55.4,67z"/>
			<path class="st5" d="M29.3,66.5H17.9l3.5-3.5c0.3-0.3,0.3-1.1-0.3-1.4c-0.5-0.5-1.1-0.5-1.4-0.3L14,67l-0.3,0.3l0,0l0,0
				c-0.3,0.3-0.3,0.5-0.3,0.8s0,0.5,0.3,0.8l0,0l0,0l0.3,0.3l5.7,5.7c0.3,0.3,1.1,0.3,1.4-0.3c0.5-0.5,0.5-1.1,0.3-1.4l-3.5-3.5
				h11.4c0.8,0,1.6-0.8,1.6-1.6C30.9,67,30.4,66.5,29.3,66.5z"/>
			<path class="st4" d="M76.3,66.2l2.2,0.3l-0.3-2.2v-2.2l-1.1,1.1c-2.7-2.7-7.1-2.7-9.8,0c-2.7,2.7-2.7,7.1,0,9.8s7.1,2.7,9.8,0
				l-1.6-1.9c-1.9,1.9-4.6,1.9-6.5,0s-1.9-4.6,0-6.5c1.6-1.6,4.6-1.9,6.5,0L74.1,66L76.3,66.2z"/>
			<polygon class="st4" points="96.6,61.1 93.1,64.3 89.5,67.9 92,67.9 92,74.6 95.2,74.6 95.2,69.8 98.2,69.8 98.2,74.6 
				101.5,74.6 101.5,67.9 103.9,67.9 100.4,64.3 			"/>
			<polygon class="st4" points="101.5,64.9 101.5,61.3 99.9,61.3 99.9,63.2 100.4,64.1 			"/>
			<path class="st5" d="M128.9,71.4c1.1,0,1.9-0.3,2.7-0.8l4.1,4.1c0.3,0.3,0.8,0,1.4-0.3c0.5-0.5,0.5-1.1,0.3-1.4l-4.1-4.1
				c0.5-0.8,0.5-1.6,0.5-2.4c0-2.7-2.2-4.9-4.9-4.9s-4.9,2.2-4.9,4.9C124,69.2,126.2,71.4,128.9,71.4z M128.9,63.2
				c1.9,0,3.3,1.4,3.3,3.3s-1.4,3.3-3.3,3.3s-3.3-1.4-3.3-3.3S127,63.2,128.9,63.2z"/>
		</g>
	</g>
</g>
<image style="overflow:visible;" width="1530" height="992" xlink:href="../../../../../Desktop/Capture d’écran 2019-02-04 à 19.58.06.png"  transform="matrix(0.5 0 0 0.5 407.5505 14.1)">
</image>
<g>
	<text transform="matrix(1 0 0 1 106.2002 34.6998)" class="st5 st6 st7">GitHub</text>
</g>
<path class="st8" d="M396.6,91.7c0,0,3.4,60.5-0.4,60.5H0.3V91.7H396.6z"/>
<path class="st1" d="M290.7,136.8H76.3c-2.2,0-3.8-1.6-3.8-3.8v-22.2c0-2.2,1.6-3.8,3.8-3.8h214.3c2.2,0,3.8,1.6,3.8,3.8V133
	C294.5,134.9,292.9,136.8,290.7,136.8z"/>
<g>
	<path class="st2" d="M59.4,123.3c0,0.3,0,0.6-0.1,0.8c-0.2,2.9-1,5.7-2.3,8.3c-2.8,5.4-7,9.1-12.7,11.1c-0.3,0.1-0.6,0.1-0.9,0.1
		c-0.5-0.1-0.8-0.5-0.8-1.1c0-0.8,0-1.7,0-2.5c0-1.2,0-2.4,0-3.5c0-1.1-0.1-2.1-0.6-3c-0.2-0.4-0.5-0.8-0.8-1.1
		c0.2,0,0.5-0.1,0.7-0.1c1.6-0.2,3.2-0.6,4.7-1.4c2.2-1.2,3.6-3,4.2-5.4c0.4-1.6,0.6-3.3,0.4-5c-0.2-1.8-0.9-3.5-2.1-4.9
		c-0.1-0.2-0.1-0.3-0.1-0.5c0.5-1.6,0.5-3.1,0-4.7c-0.1-0.3-0.2-0.5-0.2-0.8c-0.1-0.2-0.2-0.3-0.4-0.3c-0.4,0-0.9,0-1.3,0.1
		c-1.2,0.3-2.4,0.9-3.5,1.5c-0.3,0.2-0.6,0.4-1,0.6c-0.1,0-0.2,0.1-0.2,0c-2.1-0.6-4.3-0.8-6.5-0.7c-1.5,0.1-2.9,0.3-4.3,0.7
		c-0.1,0-0.2,0-0.3-0.1c-1.2-0.8-2.5-1.5-3.9-2c-0.6-0.2-1.2-0.3-1.8-0.3c-0.2,0-0.3,0.1-0.4,0.3c-0.6,1.7-0.8,3.5-0.3,5.2
		c0.1,0.4,0.1,0.6-0.2,0.9c-1.2,1.4-1.8,3.1-1.9,5c-0.1,2,0.1,4,0.9,5.9c0.9,2.3,2.6,3.8,4.8,4.7c1.3,0.5,2.8,0.8,4.2,1
		c0.1,0,0.1,0,0.2,0c0,0,0,0,0,0.1c-0.8,0.7-1.1,1.6-1.3,2.6c0,0.2-0.1,0.3-0.3,0.4c-1,0.4-2.1,0.6-3.2,0.4c-1.3-0.3-2.2-1-2.9-2.1
		c-0.5-0.8-1-1.5-1.8-2c-0.7-0.5-1.4-0.6-2.2-0.5c-0.2,0-0.5,0.1-0.5,0.3c-0.1,0.2,0.1,0.4,0.2,0.5c0.2,0.2,0.4,0.4,0.6,0.5
		c0.5,0.3,0.9,0.7,1.3,1.2c0.5,0.7,0.9,1.5,1.3,2.3c0.5,1.2,1.5,2,2.7,2.4c1.1,0.3,2.1,0.3,3.2,0.2c0.5,0,1-0.1,1.5-0.2
		c0,0.1,0,0.1,0,0.2c0,1.3,0,2.5,0,3.8c0,1-0.8,1.4-1.6,1.2c-3.8-1.3-6.9-3.4-9.6-6.3c-2.4-2.7-4.1-5.9-5-9.4
		c-0.4-1.4-0.6-2.8-0.6-4.3c0-0.1,0-0.2,0-0.3c0-0.6,0-1.1,0-1.7c0-0.1,0-0.1,0-0.2c0.1-1.6,0.3-3.2,0.7-4.7c1.4-5,4.1-9.1,8.2-12.2
		c3.5-2.6,7.4-4,11.7-4.4c0.3,0,0.6,0,0.8-0.1c0.5,0,1.1,0,1.6,0c0.1,0,0.1,0,0.2,0c0.5,0,1,0.1,1.5,0.1c2.3,0.2,4.6,0.9,6.7,1.8
		c7.4,3.4,12.4,10.5,13,18.7c0,0.3,0,0.6,0.1,0.8C59.4,122.2,59.4,122.8,59.4,123.3z"/>
</g>
<g>
	<text transform="matrix(1 0 0 1 79.5001 126.6996)" class="st5 st6 st7">Search or jump to...</text>
</g>
<g>
	<path class="st3" d="M289,112v20h-20v-20H289 M289,111h-20c-0.6,0-1,0.4-1,1v20c0,0.6,0.4,1,1,1h20c0.6,0,1-0.4,1-1v-20
		C290,111.4,289.6,111,289,111L289,111z"/>
</g>
<line class="st9" x1="273.3" y1="128" x2="285.3" y2="116"/>
</svg>
