<?xml version="1.0" encoding="utf-8"?>
<!-- Generator: Adobe Illustrator 21.0.0, SVG Export Plug-In . SVG Version: 6.00 Build 0)  -->
<svg version="1.1" xmlns="http://www.w3.org/2000/svg" xmlns:xlink="http://www.w3.org/1999/xlink" x="0px" y="0px"
	 viewBox="0 0 283.5 283.5" style="enable-background:new 0 0 283.5 283.5;" xml:space="preserve">
<style type="text/css">
	.st0{display:none;}
	.st1{display:inline;}
	.st2{fill:#FFFFFF;}
</style>
<g id="Calque_2_1_" class="st0">
	<rect x="0.7" class="st1" width="282.8" height="282.8"/>
</g>
<g id="Calque_1">
	<g id="Calque_2" class="st0">
		<rect x="-5.7" y="-5.7" class="st1" width="294.8" height="294.8"/>
	</g>
	<g>
		<g>
			<path class="st2" d="M68,13.5h11.6v11.4h10.6V13.5h11.6v34.7H90.2V36.5H79.6v11.6H68V13.5L68,13.5z"/>
			<path class="st2" d="M117,25h-10.2V13.5h32V25h-10.2v23.2H117L117,25L117,25z"/>
			<path class="st2" d="M143.9,13.5H156l7.4,12.2l7.4-12.2h12.1v34.7h-11.5V30.9l-8,12.3h-0.2l-8-12.3v17.2h-11.3L143.9,13.5
				L143.9,13.5z"/>
			<path class="st2" d="M188.7,13.5h11.6v23.2h16.3v11.5h-27.9L188.7,13.5L188.7,13.5z"/>
		</g>
		<path class="st2" d="M51.1,64l16.6,185.9l74.4,20.6l74.6-20.7L233.2,64H51.1z M198.6,108.1l-1,11.6l-0.5,5.1H197h-54.9H142h-32.2
			l2.1,23.3H142h0.1h46.8h6.1l-0.6,6.1l-5.4,60l-0.3,3.9L142.1,231v0l-0.1,0l-46.7-13l-3.2-35.8h10.5H115l1.6,18.2l25.4,6.9l0,0v0
			l0.1,0l25.3-6.8l2.6-29.6h-28H142H91.1l-5.6-62.8L85,102H142h0.1h57L198.6,108.1z"/>
	</g>
</g>
</svg>
