<?xml version="1.0" encoding="utf-8"?>
<!-- Generator: Adobe Illustrator 21.0.0, SVG Export Plug-In . SVG Version: 6.00 Build 0)  -->
<svg version="1.1" xmlns="http://www.w3.org/2000/svg" xmlns:xlink="http://www.w3.org/1999/xlink" x="0px" y="0px"
	 viewBox="0 0 395.7 529.4" style="enable-background:new 0 0 395.7 529.4;" xml:space="preserve">
<style type="text/css">
	.st0{display:none;}
	.st1{fill:#475558;}
	.st2{fill:#FFFFFF;}
	.st3{fill:#3E4A4C;}
	.st4{enable-background:new    ;}
	.st5{fill:#BCBEC0;}
</style>
<g id="Calque_1" class="st0">
	
		<image style="display:inline;overflow:visible;" width="154" height="204" xlink:href="../../../../../Desktop/Capture d’écran 2019-02-04 à 19.29.43.png"  transform="matrix(2.7791 0 0 2.7791 -16.136 -18.6223)">
	</image>
</g>
<g id="Calque_2">
	<path class="st1" d="M60.5,529.7H7.1c-4.1,0-7.1-3.3-7.1-7.1V50.7l60.5-1.9C60.5,48.8,60.5,529.7,60.5,529.7z"/>
	<g>
		<g>
			<rect x="60.5" y="52.3" class="st2" width="335.2" height="477.1"/>
			<path class="st1" d="M395.7,44.5V0H6.8C3,0,0,3,0,6.8v37.7H395.7z M19.8,28.5c-3.3,0-5.7-2.7-5.7-5.7s2.7-5.7,5.7-5.7
				s5.7,2.7,5.7,5.7C25.5,25.8,23.1,28.5,19.8,28.5z M37.4,28.5c-3.3,0-5.7-2.7-5.7-5.7s2.7-5.7,5.7-5.7c3.3,0,5.7,2.7,5.7,5.7
				C43.1,25.8,40.4,28.5,37.4,28.5z M54.8,28.5c-3.3,0-5.7-2.7-5.7-5.7s2.7-5.7,5.7-5.7c3.3,0,5.7,2.7,5.7,5.7
				C60.5,25.8,58,28.5,54.8,28.5z"/>
			<path class="st3" d="M395.7,44.5H0v11.7h395.7V44.5z"/>
			<circle class="st2" cx="19.8" cy="22.8" r="5.7"/>
			<circle class="st2" cx="37.4" cy="22.8" r="5.7"/>
			<circle class="st2" cx="54.8" cy="22.8" r="5.7"/>
		</g>
		<g class="st4">
			<path class="st5" d="M82.4,18h5v1h-3.8v3.1h3.5v1h-3.5v4.2h-1.2V18z"/>
			<path class="st5" d="M90.1,18.8c0,0.4-0.3,0.7-0.8,0.7c-0.4,0-0.7-0.3-0.7-0.7c0-0.4,0.3-0.8,0.8-0.8
				C89.8,18,90.1,18.4,90.1,18.8z M88.8,27.3v-6.7H90v6.7H88.8z"/>
			<path class="st5" d="M92,17.6h1.2v9.8H92V17.6z"/>
			<path class="st5" d="M95.9,24.2c0,1.6,1.1,2.3,2.3,2.3c0.9,0,1.4-0.2,1.8-0.3l0.2,0.9c-0.4,0.2-1.2,0.4-2.2,0.4
				c-2.1,0-3.3-1.4-3.3-3.4c0-2,1.2-3.6,3.1-3.6c2.2,0,2.8,1.9,2.8,3.1c0,0.2,0,0.4,0,0.6H95.9z M99.5,23.4c0-0.8-0.3-2-1.7-2
				c-1.2,0-1.8,1.1-1.9,2H99.5z"/>
		</g>
		<g class="st4">
			<path class="st5" d="M135.8,23h-3.6v3.3h4v1h-5.2V18h5v1h-3.8V22h3.6V23z"/>
			<path class="st5" d="M143.4,17.6v8.1c0,0.6,0,1.3,0.1,1.7h-1.1l-0.1-1.2h0c-0.4,0.7-1.2,1.3-2.3,1.3c-1.6,0-2.9-1.4-2.9-3.4
				c0-2.2,1.4-3.6,3-3.6c1,0,1.7,0.5,2,1h0v-4H143.4z M142.2,23.4c0-0.2,0-0.4-0.1-0.5c-0.2-0.8-0.8-1.4-1.8-1.4c-1.3,0-2,1.1-2,2.6
				c0,1.4,0.7,2.5,2,2.5c0.8,0,1.6-0.5,1.8-1.4c0-0.2,0.1-0.3,0.1-0.5V23.4z"/>
			<path class="st5" d="M146.8,18.8c0,0.4-0.3,0.7-0.8,0.7c-0.4,0-0.7-0.3-0.7-0.7c0-0.4,0.3-0.8,0.8-0.8
				C146.5,18,146.8,18.4,146.8,18.8z M145.4,27.3v-6.7h1.2v6.7H145.4z"/>
			<path class="st5" d="M150.1,18.8v1.9h1.7v0.9h-1.7v3.6c0,0.8,0.2,1.3,0.9,1.3c0.3,0,0.6,0,0.7-0.1l0.1,0.9
				c-0.2,0.1-0.6,0.2-1.1,0.2c-0.6,0-1-0.2-1.3-0.5c-0.3-0.4-0.5-1-0.5-1.7v-3.6h-1v-0.9h1v-1.6L150.1,18.8z"/>
		</g>
		<g class="st4">
			<path class="st5" d="M180.5,22.6c0,3.2-1.9,4.9-4.3,4.9c-2.5,0-4.2-1.9-4.2-4.7c0-3,1.8-4.9,4.3-4.9
				C178.9,17.9,180.5,19.8,180.5,22.6z M173.3,22.7c0,2,1.1,3.8,3,3.8c1.9,0,3-1.8,3-3.9c0-1.8-1-3.8-3-3.8
				C174.3,18.9,173.3,20.7,173.3,22.7z"/>
			<path class="st5" d="M182,27.3c0-0.5,0.1-1.1,0.1-1.7v-8.1h1.2v4.2h0c0.4-0.7,1.2-1.2,2.3-1.2c1.7,0,2.8,1.4,2.8,3.4
				c0,2.4-1.5,3.6-3,3.6c-1,0-1.7-0.4-2.2-1.3h0l-0.1,1.1H182z M183.3,24.7c0,0.2,0,0.3,0.1,0.4c0.2,0.8,0.9,1.4,1.8,1.4
				c1.3,0,2-1,2-2.6c0-1.3-0.7-2.5-2-2.5c-0.8,0-1.6,0.6-1.8,1.5c0,0.1-0.1,0.3-0.1,0.5V24.7z"/>
			<path class="st5" d="M188.3,29.3c0.6,0,1-0.2,1.3-0.5c0.3-0.4,0.5-0.9,0.5-2.5v-5.6h1.2v6c0,1.3-0.2,2.1-0.8,2.7
				c-0.5,0.5-1.4,0.8-2.1,0.8L188.3,29.3z M191.4,18.8c0,0.4-0.3,0.7-0.8,0.7c-0.5,0-0.7-0.3-0.7-0.7c0-0.4,0.3-0.8,0.8-0.8
				C191.1,18,191.4,18.4,191.4,18.8z"/>
			<path class="st5" d="M194,24.2c0,1.6,1.1,2.3,2.3,2.3c0.9,0,1.4-0.2,1.8-0.3l0.2,0.9c-0.4,0.2-1.2,0.4-2.2,0.4
				c-2.1,0-3.3-1.4-3.3-3.4c0-2,1.2-3.6,3.1-3.6c2.2,0,2.8,1.9,2.8,3.1c0,0.2,0,0.4,0,0.6H194z M197.5,23.4c0-0.8-0.3-2-1.7-2
				c-1.2,0-1.8,1.1-1.9,2H197.5z"/>
			<path class="st5" d="M204.9,27.1c-0.3,0.2-1,0.4-1.9,0.4c-2,0-3.3-1.4-3.3-3.4c0-2.1,1.4-3.5,3.6-3.5c0.7,0,1.4,0.2,1.7,0.3
				l-0.3,0.9c-0.3-0.2-0.7-0.3-1.4-0.3c-1.5,0-2.4,1.1-2.4,2.5c0,1.5,1,2.5,2.3,2.5c0.7,0,1.1-0.2,1.5-0.3L204.9,27.1z"/>
			<path class="st5" d="M208,18.8v1.9h1.7v0.9H208v3.6c0,0.8,0.2,1.3,0.9,1.3c0.3,0,0.6,0,0.7-0.1l0.1,0.9c-0.2,0.1-0.6,0.2-1.1,0.2
				c-0.6,0-1-0.2-1.3-0.5c-0.3-0.4-0.5-1-0.5-1.7v-3.6h-1v-0.9h1v-1.6L208,18.8z"/>
		</g>
		<g class="st4">
			<path class="st5" d="M229.6,19.1h-2.8v-1h6.9v1h-2.8v8.3h-1.2V19.1z"/>
			<path class="st5" d="M234.6,20.7l1.5,3.9c0.2,0.4,0.3,1,0.4,1.4h0c0.1-0.4,0.3-0.9,0.4-1.4l1.3-3.9h1.3l-1.8,4.8
				c-0.9,2.3-1.5,3.5-2.3,4.2c-0.6,0.5-1.2,0.7-1.5,0.8l-0.3-1c0.3-0.1,0.7-0.3,1.1-0.6c0.3-0.3,0.7-0.7,1-1.4
				c0.1-0.1,0.1-0.2,0.1-0.3c0-0.1,0-0.2-0.1-0.3l-2.5-6.1H234.6z"/>
			<path class="st5" d="M240.6,22.8c0-0.9,0-1.5-0.1-2.2h1.1l0.1,1.1h0c0.5-0.8,1.3-1.3,2.4-1.3c1.6,0,2.8,1.4,2.8,3.4
				c0,2.4-1.5,3.6-3,3.6c-0.9,0-1.7-0.4-2.1-1h0v3.6h-1.2V22.8z M241.8,24.6c0,0.2,0,0.3,0.1,0.5c0.2,0.8,1,1.4,1.8,1.4
				c1.3,0,2-1,2-2.6c0-1.3-0.7-2.5-2-2.5c-0.8,0-1.6,0.6-1.8,1.5c0,0.2-0.1,0.3-0.1,0.5V24.6z"/>
			<path class="st5" d="M249.2,24.2c0,1.6,1.1,2.3,2.3,2.3c0.9,0,1.4-0.2,1.8-0.3l0.2,0.9c-0.4,0.2-1.2,0.4-2.2,0.4
				c-2.1,0-3.3-1.4-3.3-3.4c0-2,1.2-3.6,3.1-3.6c2.2,0,2.8,1.9,2.8,3.1c0,0.2,0,0.4,0,0.6H249.2z M252.7,23.4c0-0.8-0.3-2-1.7-2
				c-1.2,0-1.8,1.1-1.9,2H252.7z"/>
		</g>
	</g>
	<path class="st3" d="M51,359.1H9.5c-2.2,0-3.8-1.6-3.8-3.8v-41.5c0-2.2,1.6-3.8,3.8-3.8H51c2.2,0,3.8,1.6,3.8,3.8v41.5
		C54.8,357.2,53.2,359.1,51,359.1z"/>
	<path class="st3" d="M51,298.6H9.5c-2.2,0-3.8-1.6-3.8-3.8V253c0-2.2,1.6-3.8,3.8-3.8H51c2.2,0,3.8,1.6,3.8,3.8v41.5
		C54.8,296.7,53.2,298.6,51,298.6z"/>
	<path class="st3" d="M51,237.3H9.5c-2.2,0-3.8-1.6-3.8-3.8V192c0-2.2,1.6-3.8,3.8-3.8H51c2.2,0,3.8,1.6,3.8,3.8v41.5
		C54.8,235.7,53.2,237.3,51,237.3z"/>
	<path class="st3" d="M51,176.8H9.5c-2.2,0-3.8-1.6-3.8-3.8v-41.5c0-2.2,1.6-3.8,3.8-3.8H51c2.2,0,3.8,1.6,3.8,3.8V173
		C54.8,174.9,53.2,176.8,51,176.8z"/>
	<path class="st3" d="M51,114.7H9.5c-2.2,0-3.8-1.6-3.8-3.8V69.4c0-2.2,1.6-3.8,3.8-3.8H51c2.2,0,3.8,1.6,3.8,3.8v41.5
		C54.8,113.1,53.2,114.7,51,114.7z"/>
	<g>
		<path class="st5" d="M13.8,169.2c-0.3-0.3-0.5-0.8-0.5-1.1c0.8-4.3,1.6-8.7,2.7-13c0-0.5,0.5-0.8,0.8-1.1c3.3-2.4,6.5-4.9,9.8-7.3
			c0.8-0.5,1.4-0.5,1.9,0c2.4,2.4,4.9,4.9,7.3,7.3c0.8,0.8,0.5,1.4,0,1.9c-2.4,3.3-4.9,6.5-7.3,9.8c-0.3,0.3-0.8,0.8-1.4,0.8
			c-4.3,0.8-8.7,1.6-12.7,2.7C14.4,169.2,14.4,169.2,13.8,169.2z M16.3,167.1C16.5,167.1,16.5,167.3,16.3,167.1
			c3.8-0.5,7.1-1.1,10.6-1.9c0.3,0,0.5-0.5,0.8-0.8c2.2-3,4.3-6,6.5-8.7c0.3-0.3,0.3-0.5,0.3-0.5c-2.4-2.4-4.9-4.9-7.3-7.3
			c-3.3,2.4-6.5,4.9-9.8,7.3c-0.3,0.3-0.3,0.3-0.5,0.5c-0.8,3.5-1.4,7.1-2.2,10.6c2.7-2.7,5.4-5.4,8.1-8.1c0,0,0,0,0-0.3
			c-0.3-1.6,0-2.7,1.1-3.3s2.4-0.5,3.3,0.3c0.8,0.8,1.1,2.2,0.5,3.3c-0.5,1.1-1.6,1.6-3.3,1.4c-0.3,0-0.5,0-0.8,0
			C21.4,161.9,19,164.6,16.3,167.1z M25.5,158.4c0.3,0,0.3,0,0.5,0c0.3-0.5,0.8-0.8,1.1-1.4c0.3-0.8-0.3-1.4-1.4-1.4
			c-0.8,0-1.4,0.5-1.4,1.4C24.7,157.3,25.2,157.8,25.5,158.4z"/>
		<path class="st5" d="M40.1,136.2c1.6,0,3.3,0,4.9,0c0.8,0,1.4,0.3,1.4,1.4c0,3.3,0,6.5,0,10c0,0.5-0.3,1.1-0.8,1.4
			c-1.9,1.6-4.1,3.3-6,4.9c-0.8,0.5-1.4,0.5-1.9,0c-3-3-5.7-6-8.7-8.7c-0.5-0.5-0.8-1.1,0-1.9c1.6-1.9,3.3-4.1,4.9-6
			c0.3-0.3,1.1-0.5,1.6-0.8C36.9,136.2,38.5,136.2,40.1,136.2z M45,137.5c-3.3,0-6.5,0-9.5,0c-0.3,0-0.5,0-0.8,0.3
			c-1.6,1.9-3.3,3.8-4.6,5.7c3,3,6,6,8.7,8.7c1.6-1.4,3.5-2.7,5.4-4.3c0.3-0.3,0.5-0.5,0.5-0.8C45,144,45,140.8,45,137.5z"/>
		<path class="st1" d="M16.3,167.1c2.4-2.4,5.2-5.2,7.6-7.6c0.3-0.3,0.5,0,0.8,0c1.6,0.3,2.7-0.3,3.3-1.4c0.5-1.1,0.3-2.4-0.5-3.3
			c-0.8-0.8-2.2-1.1-3.3-0.3c-1.1,0.5-1.6,1.9-1.1,3.3v0.3c-2.7,2.7-5.4,5.4-8.1,8.1c0.8-3.5,1.4-7.1,2.2-10.6
			c0-0.3,0.3-0.5,0.5-0.5c3.3-2.4,6.5-4.9,9.8-7.3c2.4,2.4,4.9,4.9,7.3,7.3l-0.3,0.5c-2.2,3-4.3,6-6.5,8.7c-0.3,0.3-0.5,0.8-0.8,0.8
			C23.6,166,20.1,166.5,16.3,167.1C16.5,167.3,16.5,167.1,16.3,167.1z"/>
		<path class="st1" d="M25.5,158.4c-0.3-0.5-0.8-1.1-1.1-1.4c-0.3-0.8,0.5-1.4,1.4-1.4c0.8,0,1.4,0.5,1.4,1.4c0,0.5-0.5,1.1-1.1,1.4
			C25.8,158.4,25.8,158.4,25.5,158.4z"/>
		<path class="st1" d="M45,137.5c0,3.3,0,6.5,0,9.5c0,0.3-0.3,0.5-0.5,0.8c-1.9,1.6-3.8,3-5.4,4.3c-3-3-5.7-5.7-8.7-8.7
			c1.4-1.6,3-3.8,4.6-5.7c0-0.3,0.5-0.3,0.8-0.3C38.8,137.5,41.8,137.5,45,137.5z"/>
	</g>
	<g>
		<path class="st5" d="M40.7,108.2c-0.3-0.5-0.8-0.8-0.8-1.1c-1.9-4.6-3.8-9.5-5.7-14.1c0-0.3,0-0.8,0.3-1.1c0-0.3,0.8,0,1.1,0
			c4.3,2.4,8.7,4.6,12.7,7.1c0.8,0.5,0.8,1.1,0,1.6c-0.3,0-0.3,0.3-0.5,0.3c-3.3,0.8-5.2,2.7-6,6C41.5,107.4,41.2,107.7,40.7,108.2z
			 M40.7,105l0.3,0.3c0.3-3.3,2.4-4.6,5.7-5.4c-3.5-1.9-6.8-3.8-10.3-5.7C37.7,97.9,39.1,101.4,40.7,105z"/>
		<path class="st5" d="M15.5,72.4c2.2,0,2.2,0,2.2,2.2c0,2.2,0,2.2-2.4,2.2c-2.2,0-2.2,0-2.2-2.4C13.3,72.4,13.3,72.4,15.5,72.4z
			 M16.5,74.9C16,74.3,15.7,74,15.5,74c-0.3,0-0.5,0.3-0.8,0.5c0.3,0.3,0.5,0.8,0.8,0.8C15.7,75.4,16,75.1,16.5,74.9z"/>
		<path class="st5" d="M15.5,95.5c2.2,0,2.2,0,2.2,2.4c0,1.9,0,1.9-2.4,1.9c-2.2,0-2.2,0-2.2-2.4C13.3,95.5,13.3,95.5,15.5,95.5z
			 M14.6,97.1c0,0.5,0,0.8,0,1.4c0.5,0,0.8,0,1.4,0c0-0.5,0-0.8,0-1.4C15.5,96.8,15.2,96.8,14.6,97.1z"/>
		<path class="st5" d="M41.5,74.6c0,2.2,0,2.2-2.4,2.2c-2.2,0-2.2,0-2.2-2.2c0-2.2,0-2.2,2.4-2.2C41.5,72.4,41.5,72.4,41.5,74.6z
			 M39.9,75.4c0-0.5,0-0.8,0-1.4c-0.5,0-0.8,0-1.4,0c0,0.5,0,0.8,0,1.4C39.1,75.4,39.3,75.4,39.9,75.4z"/>
		<path class="st5" d="M22.8,73.5c0.8,0.5,1.9,0.8,1.9,1.1c0,1.4-1.4,0.8-1.9,0.8c-0.8,0-1.9,0.5-2.2-0.8C20.9,74.3,22,74,22.8,73.5
			z"/>
		<path class="st5" d="M31.7,75.4c-0.5,0-0.8,0-1.4,0c-0.3,0-0.5-0.5-1.1-0.8c0.3-0.3,0.5-0.5,1.1-0.8c0.8,0,1.4,0,2.2,0
			c0.3,0,0.8,0.5,1.1,0.8c-0.3,0.3-0.8,0.5-1.1,0.8C32.5,75.4,32.3,75.4,31.7,75.4L31.7,75.4z"/>
		<path class="st5" d="M14.4,81.9c0.5-0.8,0.8-1.9,1.1-1.9c1.1,0,0.8,1.4,0.8,1.9c0,0.8,0.5,1.9-0.8,2.2
			C15.2,84.1,14.6,82.7,14.4,81.9z"/>
		<path class="st5" d="M16.5,91.1c-0.3,0.5-0.8,1.4-1.1,1.9c-0.3-0.5-0.5-1.4-0.8-1.9c0-0.5,0-0.8,0-1.4c0-0.3,0.5-0.5,0.8-0.8
			c0.3,0.3,0.5,0.5,0.8,0.8c0,0.5,0,0.8,0,1.4C16.3,91.1,16.3,91.1,16.5,91.1z"/>
		<path class="st5" d="M38.5,81.9c0-0.5,0-0.8,0-1.4c0-0.3,0.5-0.5,0.8-0.8c0.3,0.3,0.5,0.5,0.8,0.8c0,0.8,0,1.6,0,2.4
			c0,0.3-0.5,0.8-0.5,1.1c-0.3-0.3-0.5-0.8-0.8-1.1C38.2,82.7,38.5,82.4,38.5,81.9L38.5,81.9z"/>
		<path class="st5" d="M31.7,98.5c-0.5,0-0.8,0-1.4,0c-0.3,0-0.5-0.5-0.8-0.5c0.3-0.3,0.5-0.5,0.8-0.8c0.8,0,1.6,0,2.7,0
			c0.3,0,0.5,0.5,0.8,0.8c-0.3,0.3-0.5,0.5-0.8,0.5C32.5,98.5,32,98.5,31.7,98.5L31.7,98.5z"/>
		<path class="st5" d="M22.5,98.7c-0.5-0.3-1.4-0.8-1.9-1.1c0.5-0.3,1.4-0.5,1.9-0.5c0.5,0,0.8,0,1.4,0c0.3,0,0.5,0.5,0.8,0.8
			c-0.3,0.3-0.5,0.5-0.8,0.8C23.3,98.7,23.1,98.7,22.5,98.7C22.8,98.5,22.5,98.5,22.5,98.7z"/>
		<path class="st5" d="M40.4,91.1c-0.5,0.8-0.8,2.2-1.1,1.9c-1.4-0.3-0.5-1.4-0.8-1.9c0-0.8-0.5-1.9,0.5-2.2
			C39.3,89,39.9,90.3,40.4,91.1z"/>
		<path class="st1" d="M40.7,105c-1.4-3.5-2.7-7.1-4.3-10.8c3.5,1.9,6.8,3.8,10.3,5.7c-3,0.8-5.2,2.2-5.7,5.4
			C40.7,105.2,40.7,105.2,40.7,105z"/>
		<path class="st1" d="M16.5,74.9c-0.5,0.3-1.1,0.8-1.1,0.5c-0.3,0-0.5-0.5-0.8-0.8c0.3-0.3,0.5-0.5,0.8-0.5
			C15.7,74,16,74.3,16.5,74.9z"/>
		<path class="st1" d="M14.6,97.1c0.5,0,0.8,0,1.4,0c0,0.5,0,0.8,0,1.4c-0.5,0-0.8,0-1.4,0C14.6,97.9,14.6,97.4,14.6,97.1z"/>
		<path class="st1" d="M39.9,75.4c-0.5,0-0.8,0-1.4,0c0-0.5,0-0.8,0-1.4c0.5,0,0.8,0,1.4,0C39.9,74.3,39.9,74.9,39.9,75.4z"/>
	</g>
	<g>
		<path class="st5" d="M47.2,200.2c-0.3,0.5-0.8,1.6-1.6,2.2c-5.4,5.4-10.8,10.6-16,16c-2.4,2.4-4.6,4.9-7.1,7.3
			c-0.5,0.5-1.4,1.1-2.2,1.4c-1.9,0.8-3.5,1.4-5.4,2.2c-0.3,0-0.8,0.3-1.1,0c-0.3-0.3-0.3-0.8,0-1.1c0.8-2.2,1.6-4.1,2.4-6.2
			c0.3-0.5,0.5-1.1,1.1-1.4c7.9-7.9,15.5-15.5,23.3-23.3c1.4-1.4,2.7-1.9,4.3-1.4C46.4,196.6,47.5,198,47.2,200.2z M21.7,224.3
			c6.2-6.2,12.5-12.2,18.7-18.4c-1.1-1.1-2.2-1.9-3-2.7c-6.2,6.2-12.5,12.5-18.4,18.7C19.8,222.4,20.9,223.2,21.7,224.3z
			 M38.8,201.2c1.1,1.1,2.2,2.2,3.3,3.3c1.1-1.1,2.2-2.2,3.3-3.3c1.1-1.1,1.1-2.4,0-3.3c-0.8-0.8-2.2-0.8-3.3,0
			C40.7,199.1,39.6,200.2,38.8,201.2z M15.5,227.8c1.9-0.8,3.8-1.6,5.2-2.2c-1.1-1.1-1.9-2.2-3-3.3C16.8,224,16.3,225.7,15.5,227.8z
			"/>
		<path class="st1" d="M21.7,224.3c-0.8-0.8-1.9-1.9-2.7-2.7c6.2-6.2,12.5-12.5,18.4-18.7c0.8,0.8,1.9,1.9,3,2.7
			C34.2,211.8,27.9,218.1,21.7,224.3z"/>
		<path class="st1" d="M38.8,201.2c1.1-1.1,2.2-2.2,3.3-3.3c1.1-0.8,2.4-0.8,3.3,0c0.8,0.8,0.8,2.2,0,3.3c-1.1,1.1-2.2,2.2-3.3,3.3
			C40.7,203.4,39.9,202.6,38.8,201.2z"/>
		<path class="st1" d="M15.5,227.8c0.8-1.9,1.4-3.8,2.2-5.4c1.1,1.1,2.2,2.2,3,3.3C19.3,226.2,17.4,227,15.5,227.8z"/>
	</g>
	<g>
		<path class="st5" d="M27.9,285.3c-1.9,0.5-3.5-0.5-4.9-2.2c-0.8-1.1-1.9-1.9-3-3c-1.4-1.6-1.6-3.5,0-5.2
			c5.2-5.2,10.3-10.3,15.5-15.5c0.5-0.5,1.1-0.5,1.9,0c3,3,6,6,9,9c0.5,0.5,0.5,1.1,0,1.6c-4.6,4.6-9.2,9.2-13.8,13.8
			C31.2,285.6,29.6,285.3,27.9,285.3z M35,279.4c3.3-3.3,6.5-6.5,9.8-9.8c-2.7-2.7-5.7-5.7-8.4-8.4c-3.3,3.3-6.5,6.5-9.8,9.8
			C29.3,273.7,32.3,276.6,35,279.4z M34.2,280.7c-3-3-6-5.7-8.7-8.7c-1.4,1.4-3,2.7-4.3,4.3c-0.8,1.1-0.8,2.2,0.3,3
			c1.1,1.4,2.4,2.4,3.8,3.8c1.1,1.1,5.2,1.4,6.2,0.3C32.3,282.6,33.1,281.5,34.2,280.7z"/>
		<path class="st5" d="M27.4,286.7c1.9,0,3.8,0,5.7,0c0.3,0,0.8,0.3,1.1,0.5c-0.3,0.3-0.8,0.8-1.1,0.8c-3.8,0-7.6,0-11.4,0
			c-0.3,0-0.8-0.5-1.1-0.5c0.3-0.3,0.8-0.5,1.1-0.5C23.6,286.7,25.5,286.7,27.4,286.7z"/>
		<path class="st5" d="M17.9,285.3c-1.1,0-2.2,0-3.3,0c-0.3,0-0.5-0.3-0.8-0.5c0.3-0.3,0.5-0.8,0.8-0.8c2.2,0,4.3,0,6.5,0
			c0.3,0,0.5,0.5,0.8,0.8c-0.3,0.3-0.5,0.5-0.8,0.5C20.1,285.3,19,285.3,17.9,285.3z"/>
		<path class="st1" d="M35,279.4c-2.7-2.7-5.7-5.7-8.4-8.4c3.3-3.3,6.5-6.5,9.8-9.8c2.7,2.7,5.7,5.7,8.4,8.4
			C41.5,272.6,38.2,276.1,35,279.4z"/>
		<path class="st1" d="M34.2,280.7c-0.8,0.8-1.9,1.9-2.7,2.7c-1.1,1.1-5.2,0.8-6.2-0.3c-1.4-1.1-2.4-2.4-3.8-3.8
			c-1.1-1.1-1.1-2.2-0.3-3c1.4-1.6,3-3,4.3-4.3C28.2,275,31.2,277.7,34.2,280.7z"/>
	</g>
	<g>
		<path class="st5" d="M42.9,318.7c0.5-1.4,0.8-1.6,3.3-1.4c0.3,0,1.1,0.5,1.1,1.1c0.3,2.2,0,3-1.4,3.5c0,8.4,0,16.5,0,25
			c1.4,0.5,1.6,1.4,1.4,3.5c0,0.3-0.8,0.8-1.1,0.8c-1.1,0-2.7,0.8-3.3-1.4c-8.4,0-16.8,0-25,0c-0.5,1.4-0.8,1.6-3.3,1.4
			c-0.3,0-1.1-0.5-1.1-1.1c-0.3-2.2,0-3,1.4-3.5c0-8.4,0-16.5,0-25c-1.4-0.5-1.6-1.4-1.4-3.5c0-0.3,0.8-0.8,1.1-0.8
			c1.1,0,2.7-0.8,3.3,1.4C26,318.7,34.4,318.7,42.9,318.7z M16.3,322.2c0,8.1,0,16.3,0,24.4c0.8,0.8,1.1,1.4,1.9,1.9
			c8.1,0,16.5,0,24.7,0c0,0,0-0.3-0.3-0.3c0.5-0.5,1.1-0.8,1.6-1.4c0-8.1,0-16.5,0-24.4c-0.8-0.8-1.1-1.4-1.9-1.9
			c-8.1,0-16.5,0-24.4,0C17.4,321.1,17.1,321.4,16.3,322.2z M44.5,348.5c0,0.5,0,0.8,0,1.4c1.1,0.3,1.6,0,1.1-1.4
			C45.3,348.5,45,348.5,44.5,348.5z M14.9,348.5c-0.3,1.1,0,1.6,1.1,1.1c0-0.5,0-0.8,0-1.1C15.7,348.5,15.5,348.5,14.9,348.5z
			 M44.5,319c0,0.5,0,0.8,0,1.4c0.5,0,0.8,0,1.1,0C46.1,319,45.6,318.7,44.5,319z M14.9,320c0.5,0,0.8,0,1.4,0c0-0.5,0-0.8,0-1.4
			C14.9,318.7,14.6,319,14.9,320z"/>
		<path class="st1" d="M16.3,322.2c0.5-0.5,1.1-1.1,1.9-1.9c7.9,0,16.3,0,24.4,0c0.5,0.5,1.1,1.1,1.9,1.9c0,7.9,0,16.3,0,24.4
			c-0.5,0.5-1.1,1.1-1.6,1.4c0,0,0,0.3,0.3,0.3c-8.4,0-16.8,0-24.7,0c-0.5-0.5-1.1-1.1-1.9-1.9C16.3,338.5,16.3,330.1,16.3,322.2z"
			/>
		<path class="st1" d="M44.5,348.5c0.5,0,0.8,0,1.4,0c0.3,1.1,0,1.6-1.1,1.4C44.5,349.3,44.5,349.1,44.5,348.5z"/>
		<path class="st1" d="M14.9,348.5c0.5,0,0.8,0,1.1,0c0,0.5,0,0.8,0,1.1C14.9,350.1,14.6,349.6,14.9,348.5z"/>
		<path class="st1" d="M44.5,319c1.1-0.3,1.6,0,1.1,1.1c-0.3,0-0.8,0-1.1,0C44.5,319.8,44.5,319.2,44.5,319z"/>
		<path class="st1" d="M14.9,320c-0.3-1.1,0-1.6,1.4-1.4c0,0.3,0,0.8,0,1.4C15.7,320,15.5,320,14.9,320z"/>
	</g>
</g>
</svg>
