<?xml version="1.0" encoding="utf-8"?>
<!-- Generator: Adobe Illustrator 21.0.0, SVG Export Plug-In . SVG Version: 6.00 Build 0)  -->
<svg version="1.1" id="Calque_1" xmlns="http://www.w3.org/2000/svg" xmlns:xlink="http://www.w3.org/1999/xlink" x="0px" y="0px"
	 viewBox="0 0 283.5 283.5" style="enable-background:new 0 0 283.5 283.5;" xml:space="preserve">
<style type="text/css">
	.st0{display:none;}
	.st1{display:inline;}
	.st2{fill:#FFFFFF;}
</style>
<g id="Calque_2_1_" class="st0">
	<rect x="0.7" y="0" class="st1" width="282.8" height="282.8"/>
</g>
<g id="BAeHsR.tif">
	<g>
		<path class="st2" d="M141.2,266.4c-0.3,0-0.5,0-0.7,0c-20.7-8.7-39.2-20.9-55.7-36C69.3,216.2,56,200.1,46,181.3
			c-6.5-12.2-10.8-25.2-13.6-38.7c-4-19-5.5-38.4-3.5-57.7c1-10.2,3.4-20.4,5.8-30.4c1.3-5.3,3.9-10.4,8.9-13.5
			C55,33.8,67.3,28.8,80.4,25.7c17-4.1,34.1-6,51.5-6c1.1,0,2.2-0.4,3.2-0.6c3.2,0,6.5,0,9.7,0c1.1,0.2,2.2,0.5,3.2,0.6
			c12.2,1,24.6,1.7,36.8,3.1c12.8,1.5,25,5.3,37.1,10c15.4,6,25,16.3,27.1,33.1c0.7,6.4,1.9,12.8,2.9,19.2c0,11,0,22,0,33
			c-0.2,1.3-0.6,2.7-0.6,4c-1.7,18.4-5.7,36.3-13.6,52.9c-15.9,33-40.5,58.3-71.4,77.6C158.4,257.7,149.6,261.8,141.2,266.4z
			 M138.1,37.3c-11.1,0.8-24.3,1.5-37.4,3.1c-7.3,0.8-14.6,3-21.7,5.2c-7,2.1-13.8,4.7-20.3,7.9c-2.9,1.4-5.7,4.4-6.9,7.3
			c-4.2,11.2-5.6,23.1-5.5,34.9c0.1,13.3,1.5,26.5,3.3,39.7c2.6,17.8,9.3,34.3,19.4,49.2c4.7,7,9.7,13.9,15.5,19.9
			c7.4,7.8,15.1,15.2,24,21.6c9.4,6.8,18.5,13.6,29,18.7c1.3,0.6,3.5,0.7,4.7,0.1c6.2-3.2,12.6-6.3,18.4-10.4
			c7.5-5.2,14.6-10.9,21.6-17c6.1-5.4,12.1-11,17.3-17.2c5.3-6.2,9.6-13.2,14.3-19.8c7.1-10.3,11.6-21.8,14.6-33.7
			c4.6-18.5,7.4-37.4,5.4-56.6c-0.9-8.5-2.2-17.1-3.8-25.4c-0.7-3.8-1.9-8.2-5.7-10c-6.5-3.2-13.2-6.5-20-8.6
			c-9.3-2.8-18.7-5.2-28.3-6.4C164.2,38.2,152.2,38.1,138.1,37.3z"/>
		<path class="st2" d="M141.4,55.6c0.6,0,0.7,0,0.7,0.1c8.7,12.9,21.2,23.1,27.8,37.5c7.3,16,12.4,32.6,11.1,50.6
			c-1,14.3-4.8,27.6-12.5,39.9c-5.2,8.3-11.3,15.7-19,21.8c-3.1,2.4-4.7,5.7-4.5,9.8c0.2,3.7,0.2,7.5-0.1,11.2
			c-0.1,1.3-1.2,3.3-2.1,3.5c-2.2,0.4-3.1-1.4-3.2-3.6c-0.1-2.5-0.6-4.9-0.6-7.4c-0.1-6.2-2.2-11.1-7.3-14.9
			c-8.4-6.3-14.5-14.6-19.8-23.5c-9.8-16.4-13.5-34.1-11.4-53.1c1.5-13.3,4.8-26,10.7-37.9c0.6-1,1.2-2,2-3.4
			c9.1,27.4,17.9,54,26.7,80.7c0.3,0,0.6,0,0.8,0c0.4-3.3,1.1-6.7,1.1-9.9c0.1-14.4,0.2-28.7,0-43.1c-0.1-18.8-0.5-37.6-0.6-56.6
			C141.1,56.8,141.3,56.3,141.4,55.6z"/>
	</g>
</g>
</svg>
