<?xml version="1.0" encoding="utf-8"?>
<!-- Generator: Adobe Illustrator 21.0.0, SVG Export Plug-In . SVG Version: 6.00 Build 0)  -->
<svg version="1.1" id="Calque_1" xmlns="http://www.w3.org/2000/svg" xmlns:xlink="http://www.w3.org/1999/xlink" x="0px" y="0px"
	 viewBox="0 0 283.5 283.5" style="enable-background:new 0 0 283.5 283.5;" xml:space="preserve">
<style type="text/css">
	.st0{display:none;}
	.st1{display:inline;}
	.st2{fill:#FFFFFF;}
</style>
<g id="Calque_2_1_" class="st0">
	<rect x="0.7" y="0" class="st1" width="282.8" height="282.8"/>
</g>
<g>
	<path class="st2" d="M9.7,160.4c0.1-0.2,0.1-0.3,0.2-0.5c0.4-1.9,1.4-3.3,3.2-4.1c3.1-1.3,6.2-1.9,9.5-1.3c3.3,0.6,5.5,2.6,6.7,5.6
		c4.8,11.1,9.5,22.2,14.3,33.3c0.1,0.2,0.1,0.3,0.3,0.6c0.4-0.9,0.8-1.7,1.2-2.5c4.6-10.3,9.2-20.7,13.8-31c1.3-3.1,3.4-5.3,6.8-6
		c2.4-0.5,4.8-0.3,7.2,0.4c0.8,0.2,1.7,0.5,2.5,0.8c1.9,0.8,3,2.4,3.3,4.4c0.1,0.7,0.1,1.5,0.2,2.2c0,12.9,0,25.8,0,38.7
		c0,0.3,0,0.6,0,0.9c-3.5,0-7,0-10.6,0c0-12.6,0-25.2,0-37.8c-0.1,0-0.1,0-0.2,0c-0.7,1.6-1.5,3.2-2.2,4.7
		c-4.2,9.3-8.4,18.7-12.7,28c-1.4,3.2-3.9,4.9-7.4,5c-1.6,0-3.1,0-4.7-0.2c-2.8-0.5-4.6-2.3-5.7-4.9c-1.6-3.6-3.2-7.2-4.8-10.8
		c-3.3-7.5-6.6-15-9.9-22.4c-0.1-0.1-0.1-0.2-0.3-0.3c0,12.9,0,25.8,0,38.8c-3.6,0-7.1,0-10.6,0C9.7,188.3,9.7,174.4,9.7,160.4z"/>
	<path class="st2" d="M222.3,200.2c2.7,2.4,5.3,4.8,8,7.2c-0.4,0-0.6,0.1-0.8,0.1c-3.4,0-6.9,0-10.3,0c-0.4,0-1-0.2-1.3-0.5
		c-1.6-1.4-3.1-2.8-4.8-4.2c-0.3-0.3-0.9-0.5-1.3-0.5c-5.9,0-11.8,0-17.7,0c-3.8,0-7.4-0.8-10.6-2.9c-2.4-1.5-3.6-3.7-3.9-6.5
		c-0.1-0.6-0.1-1.3-0.1-1.9c0-8.4,0-16.9,0-25.3c0-1.8,0.1-3.6,0.9-5.3c1.4-3.1,4-4.6,7-5.3c1.3-0.3,2.7-0.5,4.1-0.5
		c7.9,0,15.8-0.1,23.7,0c3.1,0,6.1,1.1,8.6,3c2.2,1.7,3.4,4.1,3.4,6.9c0.1,9.4,0,18.7,0,28.1c0,3.4-1.4,6.1-4.7,7.5
		C222.5,200,222.4,200.1,222.3,200.2z M215.7,194.2c0.8-0.8,1-1.7,1-2.7c0-8.5,0-17-0.1-25.5c0-3.2-2.9-6.2-6.1-6.3
		c-4.9-0.1-9.8-0.1-14.7,0c-3.4,0.1-5.7,2.6-5.8,6c0,8.4,0,16.8,0,25.3c0,0.4,0,0.8,0.2,1.1c0.9,2.9,3.2,4.7,6.3,4.7
		c3.1,0,6.2,0,9.4,0c0.2,0,0.4,0,0.7,0c-2-1.8-3.9-3.5-5.8-5.2c0.2,0,0.3-0.1,0.4-0.1c3.7,0,7.4,0,11.1,0c0.3,0,0.6,0.2,0.9,0.4
		C214.1,192.7,214.9,193.4,215.7,194.2z"/>
	<path class="st2" d="M265.2,148.5c-0.5-0.5-1-1.2-1.6-1.6c-3.4-2.3-6.7-4.8-10.3-6.8c-2.4-1.3-5-2.3-7.7-3
		c-3.4-0.8-5.5-2.8-6.9-5.8c-2.9-6.5-5.9-13.1-8.9-19.6c-1.4-3.2-3.3-6.2-5.3-9.1c-5.4-7.7-12.2-13.9-20.4-18.5
		c-2.8-1.6-5.8-3-9-3.6c-1.9-0.3-3.8-0.5-5.7-0.5c-1.3,0-2.3-0.6-3.2-1.4c-3.2-2.7-7-4.4-11-5.5c-1-0.3-1.9-0.1-2.5,0.6
		c-0.7,0.8-0.7,1.8-0.3,2.7c0.6,1.2,1.2,2.4,2,3.4c3.8,4.4,6.5,9.4,8.5,14.8c1.1,3,2.6,6,4,8.9c0.5,1.1,1.4,2.1,2.3,2.9
		c1.5,1.4,1.9,3,1.2,4.8c-0.7,2.2-1.6,4.3-2.1,6.6c-1.4,6.4-1,12.7,1.8,18.7c0.6,1.2,1.2,2.4,2.5,3c0.9,0.4,1,0.3,1.2-0.6
		c0.4-2.6,0.7-5.2,1.2-7.8c0.3-1.8,1.2-3.4,2.4-4.9c0.6-0.7,1.1-1.3,1.7-2.1c0.2,0.4,0.5,0.7,0.6,1c1.6,5.1,4.1,9.7,6.8,14.3
		c2.3,3.9,4.8,7.8,8.1,11c0.6,0.6,1.3,1.1,1.9,1.7c0,0.1-0.1,0.1-0.1,0.2c-0.4-0.3-0.9-0.5-1.3-0.8c-3-2.7-5.9-5.3-8.9-8
		c-2.7-2.5-4.6-5.7-6.1-9.1c-0.2-0.5-0.5-0.9-0.7-1.4c0,0-0.1-0.1-0.3-0.2c-0.3,1.4-0.5,2.8-0.7,4.1c-0.2,1.3-0.3,2.6-0.7,3.9
		c-0.8,2.8-3.7,3.9-6.2,2.4c-2-1.2-3.3-3.2-4.3-5.2c-2.3-4.6-2.9-9.5-2.7-14.5c0.1-3.3,1-6.5,1.8-9.7c0.3-1.1,0.8-2.3,1-3.4
		c0.1-0.4-0.1-1-0.3-1.3c-4.3-5.3-7.1-11.4-9.1-17.9c-0.6-2-1.9-3.7-3.1-5.4c-1.6-2.2-3.3-4.4-4.8-6.7c-1.1-1.7-1.5-3.7-0.7-5.8
		c1.1-2.9,3.6-4.3,7-3.8c3.4,0.5,6.4,1.9,9.3,3.6c1.1,0.7,2.2,1.5,3.2,2.4c0.6,0.5,1.3,0.8,2.1,0.9c2.8,0.1,5.5,0.4,8.3,1.1
		c3.5,0.9,6.5,2.7,9.6,4.6c9.9,6.2,17.8,14.4,23.6,24.6c1.2,2.1,1.9,4.5,3,6.8c2.3,5,4.7,10,7.1,15c0.5,1.1,1.1,2.2,1.8,3.2
		c0.3,0.4,0.8,0.8,1.3,1c7.4,2.6,13.6,6.9,19.6,11.9c1.8,1.5,3.2,3.3,4.6,5.1c0.4,0.5,0.3,0.8-0.4,1c-2.5,0.8-5,1.2-7.6,1.5
		c-2.4,0.3-4.7,1-7.1,1.5c0.3,1.1,1.1,1.9,2,2.5c1.4,1,2.8,1.9,4.2,2.7c3.5,2.1,6.5,4.7,9,7.9c0.2,0.3,0.5,0.6,0.7,0.8
		c1.2,1.1,2.4,2.3,2.8,4.2c-0.3-0.2-0.7-0.4-1-0.7c-3.1-2.9-6.6-5.2-10.6-6.9c-3.3-1.4-6.2-3.3-8.9-5.6c-1.7-1.4-3.1-3.2-3.9-5.3
		c-0.2-0.4-0.5-1-0.4-1.2c0.4-0.5,0.9-0.9,1.5-1c2.3-0.7,4.6-1.5,7-1.9c2.5-0.4,5-0.3,7.5-0.5c0.1,0,0.3,0,0.4,0
		C265.1,148.7,265.2,148.6,265.2,148.5z"/>
	<path class="st2" d="M84.1,170.4c3.5,0,7,0,10.5,0c0,0.4,0,0.7,0,1c0,7,0,13.9,0,20.9c0,2.6,1.1,4,3.7,4.4c0.7,0.1,1.3,0.2,2,0.2
		c5,0,9.9,0,14.9,0c0.2,0,0.4,0,0.7,0c0-8.9,0-17.7,0-26.5c3.6,0,7,0,10.6,0c0,1.6,0,3.2,0,4.8c0,9.4,0,18.7,0,28.1
		c0,3.4-1.5,5.8-4.5,7.4c-3.1,1.6-6.4,2.1-9.8,2.1c-9.2,0.1-18.3,0-27.5,0c-0.2,0-0.4,0-0.6,0c0-1.8,0-3.5,0-5.3c0.4,0,0.7,0,1,0
		c8.3,0,16.5,0,24.8,0c1,0,2.1-0.2,3-0.5c2.4-0.7,3.2-2.1,2.9-4.8c-0.3,0-0.6,0-1,0c-5.9,0-11.8,0-17.7-0.2
		c-3.7-0.1-7.3-1.1-10.3-3.5c-2-1.5-2.9-3.5-2.9-6.1c0.1-7.2,0.1-14.4,0.1-21.7C84.1,170.7,84.1,170.5,84.1,170.4z"/>
	<path class="st2" d="M131.8,202.1c0-1.7,0-3.4,0-5.2c0.3,0,0.7,0,1,0c8.3,0,16.7,0,25,0c0.9,0,1.9-0.1,2.8-0.4c2.2-0.8,3-2.6,3-4.7
		c0.1-2.2,0.1-4.4,0-6.5c-0.1-2.5-1.7-4.1-4.3-4.2c-3.7-0.1-7.4,0-11,0c-4,0-7.8-0.4-11.4-2.2c-2.3-1.1-4.1-2.8-4.8-5.4
		c-0.1-0.3-0.2-0.5-0.2-0.8c0-3.2-0.2-6.4,0.1-9.6c0.4-3.3,2.7-5.4,5.7-6.7c3.1-1.4,6.4-1.9,9.8-1.9c8.8-0.1,17.5,0,26.3,0
		c0.1,0,0.3,0,0.5,0c0,1.7,0,3.5,0,5.3c-0.3,0-0.6,0-1,0c-8.3,0-16.6,0.1-24.9,0c-3.6,0-5.7,2.6-5.9,5.9c-0.1,1.9-0.1,3.9,0.2,5.7
		c0.5,3.1,2,4.3,5.2,4.3c4.2,0,8.4,0,12.5,0c3.1,0,6.1,0.3,9,1.5c3.2,1.3,4.8,3.7,4.8,7.2c0,2.3-0.1,4.5,0,6.8
		c0.2,3.9-1.7,6.5-5,8.4c-3.4,1.9-7.1,2.7-10.9,2.7c-8.6,0-17.2,0-25.8,0C132.3,202.2,132.1,202.2,131.8,202.1z"/>
	<path class="st2" d="M232.7,154.4c3.6,0,7,0,10.6,0c0,0.4,0,0.7,0,1.1c0,11.9,0,23.8,0,35.6c0,3.2,1.3,4.8,4.5,5.5
		c0.7,0.1,1.4,0.2,2.2,0.3c1.6,0,3.2,0,4.8,0c6.4,0,12.9,0,19.3,0c0.3,0,0.6,0,1,0c0,1.8,0,3.5,0,5.3c-0.3,0-0.6,0-0.9,0
		c-8.4,0-16.8,0-25.3,0c-3.2,0-6.4-0.3-9.5-1.3c-3.5-1.2-5.9-3.4-6.6-7.2c-0.1-0.9-0.2-1.8-0.2-2.7c0-11.9,0-23.8,0-35.7
		C232.7,155.1,232.7,154.8,232.7,154.4z"/>
	<path class="st2" d="M189.8,87.5c2.4-0.8,4.2-0.2,5.1,1.6c1,1.9,0.7,3.5-1.1,4.8C193,91.4,191.5,89.4,189.8,87.5z"/>
</g>
</svg>
