<?xml version="1.0" encoding="utf-8"?>
<!-- Generator: Adobe Illustrator 21.0.0, SVG Export Plug-In . SVG Version: 6.00 Build 0)  -->
<svg version="1.1" id="Calque_1" xmlns="http://www.w3.org/2000/svg" xmlns:xlink="http://www.w3.org/1999/xlink" x="0px" y="0px"
	 viewBox="0 0 283.5 283.5" style="enable-background:new 0 0 283.5 283.5;" xml:space="preserve">
<style type="text/css">
	.st0{display:none;}
	.st1{display:inline;}
	.st2{fill:#FFFFFF;}
</style>
<g id="Calque_2_1_" class="st0">
	<rect x="0.7" y="0" class="st1" width="282.8" height="282.8"/>
</g>
<g>
	<path class="st2" d="M111.3,153.8c0,17.9,0.1,35.9-0.1,53.8c-0.1,4.2-0.7,8.6-2.2,12.6c-3.9,11-12.7,15.6-23.8,16.6
		c-9.9,0.8-18.6-2.5-27-7.2c-7.2-4-14.3-8.3-21.5-12.3c-8.5-4.7-12.6-11.7-12.5-21.5c0.2-36.1,0.1-72.1,0-108.2
		c0-9.8,4.2-16.6,12.7-21.4c28.6-16.4,57.1-33,85.6-49.5c2.9-1.7,5.8-3.3,8.7-5c7.4-4.2,14.9-4.3,22.4,0
		c18.9,10.9,37.7,21.8,56.6,32.7c12.6,7.3,25.2,14.8,37.9,21.9c8.4,4.7,12.5,11.6,12.5,21.3c-0.1,36.3,0,72.6,0,108.9
		c0,8.9-3.6,15.7-11.4,20.2c-32,18.5-63.9,37-95.9,55.5c-7.3,4.2-14.8,4-22.1-0.2c-10.4-6.1-20.7-12.2-31-18.4
		c-0.7-0.4-1.5-0.9-2.1-1.5c-1.3-1.2-1.1-2.2,0.5-3c4.9-2.2,9.7-4.6,14.7-6.5c1.2-0.5,3.2,0.2,4.4,0.9c7,4,13.9,8.1,20.7,12.4
		c2.8,1.8,5.1,1.8,8,0.1c30.9-18,61.8-35.9,92.8-53.7c2.7-1.5,3.7-3.3,3.7-6.4c-0.1-36.1-0.1-72.1,0-108.2c0-2.9-1-4.7-3.5-6.2
		c-31-17.8-61.9-35.7-92.8-53.7c-2.6-1.5-4.9-1.9-7.7-0.3c-31.1,18.1-62.2,36.1-93.4,54c-2.6,1.5-3.6,3.3-3.6,6.2
		c0.1,36,0.1,71.9,0,107.9c0,3.2,1.2,5.1,4,6.6c7.8,4.3,15.3,9.1,23.2,13.2c3.4,1.8,7.4,3,11.2,3.3c7.4,0.6,12.7-4.6,13.4-11.9
		c0.1-1.4,0.1-2.8,0.1-4.2c0-34.9,0-69.8,0-104.7c0-5.4,0.4-5.9,5.9-5.9c2.3,0,4.5,0,6.8,0c4.4,0.1,5.1,0.7,5.1,5.1
		C111.3,116,111.3,134.9,111.3,153.8C111.3,153.8,111.3,153.8,111.3,153.8z"/>
	<path class="st2" d="M171.7,196.1c-10.2-0.3-20.2-1.3-29.7-5c-12.9-5.1-20.2-14.4-21.4-28.3c-0.4-4.5,0.6-5.7,5-5.7
		c3.1,0,6.2,0,9.3,0c2.2,0,3.7,1,4,3.3c1.5,11.2,8.8,16.1,19.2,17.5c10.1,1.4,20.1,1.6,30.1-0.5c6.2-1.3,11.7-3.9,13.2-11
		c1.3-5.9-0.6-10.2-6.4-11.9c-6.8-2-13.7-3.3-20.7-4.5c-8.7-1.5-17.5-2.2-26.1-4c-4.7-1-9.4-3.1-13.7-5.4
		c-14.4-8.1-14.7-33.5,0.5-44.1c6.4-4.5,13.6-6.7,21.2-7.9c12.1-1.8,24-1.1,35.7,2.1c14.8,4,23.7,14.7,25.1,30
		c0.3,2.7-0.9,4.1-3.5,4.2c-3.6,0.1-7.3,0-11,0c-2.1,0-3.4-1-3.9-3.1c-2.5-11.2-10.2-16-21-16.4c-7.6-0.2-15.2,0-22.7,0.9
		c-3.2,0.4-6.8,2.5-9.2,4.8c-5.3,5.2-3.2,13.7,3.9,15.5c9.4,2.3,19,3.5,28.4,5.4c8.5,1.7,17.2,2.9,25.4,5.7
		c18.7,6.6,23.8,30.3,10.1,44.8c-7.5,7.9-17.2,11.1-27.6,12.5C181.3,195.6,176.5,195.7,171.7,196.1z"/>
</g>
</svg>
