<?xml version="1.0" encoding="utf-8"?>
<!-- Generator: Adobe Illustrator 21.0.0, SVG Export Plug-In . SVG Version: 6.00 Build 0)  -->
<svg version="1.1" id="Calque_1" xmlns="http://www.w3.org/2000/svg" xmlns:xlink="http://www.w3.org/1999/xlink" x="0px" y="0px"
	 viewBox="0 0 396.6 529.7" style="enable-background:new 0 0 396.6 529.7;" xml:space="preserve">
<style type="text/css">
	.st0{display:none;}
	.st1{fill:#FFFFFF;}
	.st2{fill:#3E4A4C;}
	.st3{fill:#475558;}
	.st4{fill:none;stroke:#BCBEC0;stroke-width:5;stroke-miterlimit:10;}
	.st5{fill:none;stroke:#BCBEC0;stroke-width:3;stroke-miterlimit:10;}
</style>
<g id="Calque_1_1_" class="st0">
	
		<image style="display:inline;overflow:visible;enable-background:new    ;" width="154" height="204" xlink:href="../../../../../Desktop/Capture d’écran 2019-02-04 à 19.29.43.png"  transform="matrix(2.7791 0 0 2.7791 -15.7 -18.6)">
	</image>
</g>
<path class="st1" d="M6.8,0C3,0,0,3,0,6.8v37.7h0.3v6v6v466.2c0,4.1,3.3,7.1,7.1,7.1h53.4H396V56.4v-3.8v-7.9V0H6.8z"/>
<circle class="st2" cx="86" cy="382.2" r="38"/>
<g>
	<circle class="st2" cx="86" cy="86" r="38"/>
</g>
<g>
	<circle class="st3" cx="86" cy="234.1" r="38"/>
	<g>
		<path class="st1" d="M71.9,256c-0.5-0.3-0.8-0.3-1.4-0.5c-3.5-1.1-4.3-4.6-1.9-7.3c1.9-2.2,4.6-2.7,7.3-2.4c0.3,0,0.5,0,1.1,0.3
			c0-10,0-20.1,0-30.1c8.4-1.4,16.5-2.7,25.2-4.1c0,0.5,0,0.8,0,1.1c0,10.6,0,21.4,0,32c0,2.7-1.1,4.6-3.5,6
			c-2.7,1.4-5.4,1.6-7.9-0.3c-1.9-1.4-2.4-3.8-1.1-6c1.6-2.4,5.2-3.8,8.1-3.3c0.3,0,0.5,0,0.8,0.3c0-6.8,0-13.6,0-20.3
			c-1.4,0.3-2.4,0.5-3.8,0.8c-4.3,0.8-9,1.6-13.3,2.4c-0.8,0.3-1.1,0.5-1.1,1.4c0,7.6,0,15.5,0,23.1c0,3.8-1.9,6-5.4,6.8
			c-0.3,0-0.5,0.3-0.8,0.3C73.5,256,72.7,256,71.9,256z"/>
	</g>
</g>
<polygon class="st1" points="73.8,366.2 73.8,397.9 103.3,382.2 "/>
<line class="st4" x1="149.7" y1="63.7" x2="294" y2="63.7"/>
<line class="st4" x1="149.7" y1="211.8" x2="245.2" y2="211.8"/>
<line class="st4" x1="149.7" y1="359.9" x2="313.8" y2="359.9"/>
<line class="st5" x1="149.7" y1="88.1" x2="395.7" y2="88.1"/>
<line class="st5" x1="149.7" y1="236.2" x2="395.7" y2="236.2"/>
<line class="st5" x1="149.7" y1="384.3" x2="395.7" y2="384.3"/>
<line class="st5" x1="149.7" y1="107.9" x2="395.7" y2="107.9"/>
<line class="st5" x1="149.7" y1="256" x2="395.7" y2="256"/>
<line class="st5" x1="149.7" y1="404.1" x2="395.7" y2="404.1"/>
<line class="st5" x1="149.7" y1="127.7" x2="395.7" y2="127.7"/>
<line class="st5" x1="149.7" y1="275.8" x2="395.7" y2="275.8"/>
<line class="st5" x1="149.7" y1="423.9" x2="395.7" y2="423.9"/>
<line class="st5" x1="48" y1="147.5" x2="395.7" y2="147.5"/>
<line class="st5" x1="48" y1="295.6" x2="395.7" y2="295.6"/>
<line class="st5" x1="48" y1="443.7" x2="395.7" y2="443.7"/>
<line class="st5" x1="48" y1="167.3" x2="313.8" y2="167.3"/>
<line class="st5" x1="48" y1="315.4" x2="351.8" y2="315.4"/>
<line class="st5" x1="48" y1="463.5" x2="238.4" y2="463.5"/>
<g>
	<path class="st1" d="M84.1,89.2c1.9-1.9,3.5-3.5,5.4-5.4c4.1,4.9,8.4,9.5,12.5,14.4c1.4,1.6,2.7,3.3,4.1,4.9c0.8,0.8,0.5,2.4-0.5,3
		c-0.5,0.3-1.1,0-1.6-0.3c-1.1-1.1-2.4-2.2-3.5-3.3c-4.6-4.1-9.2-7.9-13.8-11.9C86.2,90.3,86,90,85.4,90
		C84.9,90,84.4,89.8,84.1,89.2z"/>
	<path class="st1" d="M65.6,65.6c1.1,0.5,1.9,1.1,3,1.6c1.4,0.5,3,0.8,4.6,1.1c1.1,0.3,2.2,0.3,3.3,0.8c2.4,1.1,3.8,3.3,3.5,6.2
		c0,0.3,0,0.3,0,0.5c0,0.5-0.3,0.8-0.5,1.4c-0.8,0.8-1.6,1.6-2.4,2.4L76.8,80c-0.3,0.5-0.5,0.5-0.8,0.5c-2.2,0.3-4.1-0.3-6-1.6
		s-2.7-3.3-3.3-5.4C65.9,71.1,65.6,68.3,65.6,65.6C65.6,65.9,65.6,65.6,65.6,65.6z"/>
	<path class="st1" d="M82.2,78.1c1.9,0.8,3.8,2.2,5.2,3.5c-1.9,1.9-3.8,3.8-5.7,5.7c-0.5-0.5-0.8-1.1-0.8-1.6c0-0.3-0.3-0.5-0.3-0.5
		c-0.8-1.1-1.6-2.2-2.2-3.3C79.7,80.6,81.1,79.5,82.2,78.1z"/>
</g>
</svg>
