<?xml version="1.0" encoding="utf-8"?>
<!-- Generator: Adobe Illustrator 21.0.0, SVG Export Plug-In . SVG Version: 6.00 Build 0)  -->
<svg version="1.1" id="Calque_1" xmlns="http://www.w3.org/2000/svg" xmlns:xlink="http://www.w3.org/1999/xlink" x="0px" y="0px"
	 viewBox="0 0 283.5 283.5" style="enable-background:new 0 0 283.5 283.5;" xml:space="preserve">
<style type="text/css">
	.st0{display:none;}
	.st1{display:inline;}
	.st2{fill:#FFFFFF;}
</style>
<g id="Calque_2_1_" class="st0">
	<rect x="0.7" y="0" class="st1" width="282.8" height="282.8"/>
</g>
<g>
	<path class="st2" d="M142.9,213.8c-8.1,0-16.3-0.3-24.4-1.1c-15.1-1.4-30-4.2-44.5-8.8c-12.1-3.8-23.6-8.8-34.3-15.6
		c-6.8-4.4-13.1-9.4-18.5-15.5c-5.8-6.6-10.1-14-11.9-22.7c-2-9.7-0.6-19,3.8-27.8c3.9-7.9,9.6-14.3,16.3-19.9
		C40,93.5,52.1,87.3,64.9,82.4c11.2-4.2,22.7-7.2,34.5-9.3c8.4-1.5,16.8-2.5,25.3-3.1c10-0.7,20-0.7,30-0.2
		c14.9,0.8,29.7,2.8,44.2,6.5c12.4,3.1,24.4,7.4,35.7,13.3c9.7,5,18.6,11.1,26.1,19.1c5.9,6.3,10.6,13.5,12.9,21.9
		c2.9,10.6,1.6,20.7-3.2,30.5c-3.5,7-8.4,12.8-14.2,18c-8.8,7.9-18.9,13.8-29.7,18.6c-12.1,5.3-24.7,9.1-37.6,11.7
		c-8.5,1.7-17.1,3-25.8,3.6c-6.7,0.5-13.4,0.8-20.2,1.1C142.9,214,142.9,213.9,142.9,213.8z M138.3,202.8
		c11.9-0.1,20.3-0.5,28.6-1.4c9-1,18-2.5,26.8-4.6c12.2-2.9,24-6.9,35.1-12.6c7.7-3.9,14.8-8.6,21.1-14.5c4.7-4.5,8.7-9.5,11.3-15.5
		c2.1-4.7,3-9.6,2.6-14.8c-0.5-6.2-2.8-11.8-6.3-16.9c-4.4-6.5-10.1-11.6-16.5-16.1c-9.2-6.4-19.2-11.1-29.8-14.8
		c-12.7-4.5-25.7-7.3-39-9.1c-8.1-1.1-16.3-1.7-24.5-1.9c-12.5-0.3-24.9,0.3-37.2,2c-8.1,1.1-16.2,2.6-24.2,4.7
		c-9.3,2.4-18.3,5.4-27,9.5c-8.7,4-16.9,8.8-24.1,15.2c-4.9,4.3-9.1,9.2-12.1,15c-3.8,7.3-4.8,15-2.6,23c1.9,6.6,5.6,12.2,10.2,17.2
		c6.4,6.8,13.9,11.9,22.1,16.3c10.9,5.8,22.6,9.9,34.6,13c10.7,2.7,21.6,4.6,32.6,5.4C127.4,202.3,134.6,202.6,138.3,202.8z"/>
	<path class="st2" d="M187,158.3c-1,5.6-1.9,11.1-2.9,16.6c-4.9,0-9.7,0-14.7,0c3.7-20.3,7.5-40.6,11.2-61c0.3,0,0.6,0,0.8,0
		c9.8,0,19.6,0,29.4,0c4,0,7.9,0.8,11.4,2.9c5.8,3.5,8.3,8.8,8.1,15.4c-0.2,5.6-1.8,10.8-4.9,15.5c-3.1,4.7-7.6,7.4-13,8.9
		c-5,1.4-10.2,1.7-15.4,1.7c-3,0-6,0-9,0C187.7,158.3,187.4,158.3,187,158.3z M193.3,124.9c-1.4,7.5-2.8,14.8-4.2,22.3
		c0.4,0,0.7,0,1,0c2.8,0,5.7,0.1,8.5,0c2.2-0.1,4.3-0.1,6.4-0.4c4.3-0.6,7.5-2.7,9.3-6.8c1-2.2,1.4-4.6,1.5-7
		c0.1-1.6-0.2-3.2-1.2-4.6c-1.3-1.7-3.1-2.6-5.2-3C204,124.5,198.7,125.2,193.3,124.9z"/>
	<path class="st2" d="M67.4,174.9c-4.9,0-9.8,0-14.7,0c3.8-20.3,7.5-40.7,11.2-61c0.3,0,0.6,0,0.9,0c9.8,0,19.6,0,29.4,0
		c4.7,0,9.1,1.1,12.9,4c4.1,3,6.2,7.2,6.4,12.2c0.3,7.4-1.8,14.1-6.6,19.8c-3.3,3.9-7.8,5.9-12.7,7.1c-4.6,1.1-9.3,1.3-14.1,1.4
		c-3.1,0-6.1,0-9.2,0c-0.6,0-0.8,0.1-0.9,0.7C69.3,164.3,68.3,169.6,67.4,174.9z M72.4,147.2c3.5,0,6.8,0,10.1,0
		c1.9,0,3.9-0.1,5.8-0.4c3.9-0.5,7-2.3,8.8-5.9c1.4-2.8,2-5.7,1.9-8.8c-0.1-2.9-1.6-5-4.4-6c-1.4-0.5-2.9-0.9-4.4-0.9
		c-4.4-0.2-8.7-0.1-13.1-0.1c-0.2,0-0.3,0-0.6,0.1C75.2,132.4,73.8,139.7,72.4,147.2z"/>
	<path class="st2" d="M114,158.2c4.6-22.2,9.3-44.4,13.9-66.5c4.9,0,9.7,0,14.6,0c-1.5,7.4-3.1,14.7-4.6,22.2c0.4,0,0.7,0,1,0
		c4.5,0,8.9,0,13.4,0c3.8,0,7.6,0.3,11.3,1.6c4.9,1.7,7.4,5.4,7.5,10.6c0.1,3.7-0.9,7.3-1.6,10.9c-1.5,6.9-3,13.8-4.5,20.7
		c-0.1,0.4-0.2,0.7-0.7,0.7c-4.6,0-9.3,0-13.9,0c-0.1,0-0.2,0-0.3-0.1c0.5-2.1,0.9-4.2,1.4-6.3c1.3-6.2,2.7-12.4,4-18.7
		c0.3-1.5,0.2-3,0.1-4.5c-0.1-1.3-1-2.3-2.2-2.8c-2.1-0.9-4.3-0.9-6.4-0.9c-3.4,0-6.8,0-10.2,0c-0.8,0-1.1,0.2-1.2,1
		c-1.3,6.2-2.6,12.4-3.9,18.5c-0.9,4.4-1.9,8.8-2.8,13.2c-0.1,0.4-0.2,0.6-0.7,0.6c-4.5,0-9.1,0-13.6,0
		C114.2,158.3,114.1,158.3,114,158.2z"/>
</g>
</svg>
