<?xml version="1.0" encoding="utf-8"?>
<!-- Generator: Adobe Illustrator 21.0.0, SVG Export Plug-In . SVG Version: 6.00 Build 0)  -->
<svg version="1.1" id="Calque_1" xmlns="http://www.w3.org/2000/svg" xmlns:xlink="http://www.w3.org/1999/xlink" x="0px" y="0px"
	 viewBox="0 0 396.6 529.7" style="enable-background:new 0 0 396.6 529.7;" xml:space="preserve">
<style type="text/css">
	.st0{display:none;}
	.st1{fill:#FFFFFF;}
	.st2{fill:#3E4A4C;}
	.st3{fill:#475558;}
	.st4{fill:none;stroke:#BCBEC0;stroke-width:5;stroke-miterlimit:10;}
	.st5{fill:none;stroke:#BCBEC0;stroke-width:3;stroke-miterlimit:10;}
	.st6{fill:#EFEFEF;}
	.st7{fill:#BCBEC0;}
	.st8{font-family:'MyriadPro-Regular';}
	.st9{font-size:13.8018px;}
</style>
<g id="Calque_1_1_" class="st0">
	
		<image style="display:inline;overflow:visible;enable-background:new    ;" width="154" height="204" xlink:href="../../../../../Desktop/Capture d’écran 2019-02-04 à 19.29.43.png"  transform="matrix(2.7791 0 0 2.7791 -15.7 -18.6)">
	</image>
</g>
<path class="st1" d="M568.1,88.1c-3.8,0-6.8,3-6.8,6.8v37.7h0.3v6v6v466.2c0,4.1,3.3,7.1,7.1,7.1h53.4h335.2V144.6v-3.8v-7.9V88.1
	H568.1z"/>
<circle class="st2" cx="647.3" cy="470.3" r="38"/>
<g>
	<circle class="st2" cx="647.3" cy="174.1" r="38"/>
</g>
<g>
	<circle class="st3" cx="647.3" cy="322.2" r="38"/>
	<g>
		<path class="st1" d="M633.2,344.2c-0.5-0.3-0.8-0.3-1.4-0.5c-3.5-1.1-4.3-4.6-1.9-7.3c1.9-2.2,4.6-2.7,7.3-2.4
			c0.3,0,0.5,0,1.1,0.3c0-10,0-20.1,0-30.1c8.4-1.4,16.5-2.7,25.2-4.1c0,0.5,0,0.8,0,1.1c0,10.6,0,21.4,0,32c0,2.7-1.1,4.6-3.5,6
			c-2.7,1.4-5.4,1.6-7.9-0.3c-1.9-1.4-2.4-3.8-1.1-6c1.6-2.4,5.2-3.8,8.1-3.3c0.3,0,0.5,0,0.8,0.3c0-6.8,0-13.6,0-20.3
			c-1.4,0.3-2.4,0.5-3.8,0.8c-4.3,0.8-9,1.6-13.3,2.4c-0.8,0.3-1.1,0.5-1.1,1.4c0,7.6,0,15.5,0,23.1c0,3.8-1.9,6-5.4,6.8
			c-0.3,0-0.5,0.3-0.8,0.3C634.8,344.2,634,344.2,633.2,344.2z"/>
	</g>
</g>
<polygon class="st1" points="635.1,454.3 635.1,486 664.7,470.3 "/>
<line class="st4" x1="711" y1="151.9" x2="855.3" y2="151.9"/>
<line class="st4" x1="711" y1="300" x2="806.5" y2="300"/>
<line class="st4" x1="711" y1="448.1" x2="875.1" y2="448.1"/>
<line class="st5" x1="711" y1="176.3" x2="957" y2="176.3"/>
<line class="st5" x1="711" y1="324.4" x2="957" y2="324.4"/>
<line class="st5" x1="711" y1="472.5" x2="957" y2="472.5"/>
<line class="st5" x1="711" y1="196.1" x2="957" y2="196.1"/>
<line class="st5" x1="711" y1="344.2" x2="957" y2="344.2"/>
<line class="st5" x1="711" y1="492.3" x2="957" y2="492.3"/>
<line class="st5" x1="711" y1="215.9" x2="957" y2="215.9"/>
<line class="st5" x1="711" y1="364" x2="957" y2="364"/>
<line class="st5" x1="711" y1="512.1" x2="957" y2="512.1"/>
<line class="st5" x1="609.3" y1="235.7" x2="957" y2="235.7"/>
<line class="st5" x1="609.3" y1="383.8" x2="957" y2="383.8"/>
<line class="st5" x1="609.3" y1="531.9" x2="957" y2="531.9"/>
<line class="st5" x1="609.3" y1="255.5" x2="875.1" y2="255.5"/>
<line class="st5" x1="609.3" y1="403.6" x2="913.1" y2="403.6"/>
<line class="st5" x1="609.3" y1="551.7" x2="799.7" y2="551.7"/>
<g>
	<path class="st1" d="M645.4,177.4c1.9-1.9,3.5-3.5,5.4-5.4c4.1,4.9,8.4,9.5,12.5,14.4c1.4,1.6,2.7,3.3,4.1,4.9
		c0.8,0.8,0.5,2.4-0.5,3c-0.5,0.3-1.1,0-1.6-0.3c-1.1-1.1-2.4-2.2-3.5-3.3c-4.6-4.1-9.2-7.9-13.8-11.9c-0.3-0.3-0.5-0.5-1.1-0.5
		C646.2,178.2,645.7,177.9,645.4,177.4z"/>
	<path class="st1" d="M627,153.8c1.1,0.5,1.9,1.1,3,1.6c1.4,0.5,3,0.8,4.6,1.1c1.1,0.3,2.2,0.3,3.3,0.8c2.4,1.1,3.8,3.3,3.5,6.2
		c0,0.3,0,0.3,0,0.5c0,0.5-0.3,0.8-0.5,1.4c-0.8,0.8-1.6,1.6-2.4,2.4l-0.3,0.3c-0.3,0.5-0.5,0.5-0.8,0.5c-2.2,0.3-4.1-0.3-6-1.6
		c-1.9-1.4-2.7-3.3-3.3-5.4C627.2,159.2,627,156.5,627,153.8C627,154.1,627,153.8,627,153.8z"/>
	<path class="st1" d="M643.5,166.3c1.9,0.8,3.8,2.2,5.2,3.5c-1.9,1.9-3.8,3.8-5.7,5.7c-0.5-0.5-0.8-1.1-0.8-1.6
		c0-0.3-0.3-0.5-0.3-0.5c-0.8-1.1-1.6-2.2-2.2-3.3C641.1,168.7,642.4,167.6,643.5,166.3z"/>
</g>
<path class="st1" d="M57.2,11.6c-4,0-7.1,3-7.1,6.8v25.8h0.3v6v6v466.2c0,4.1,3.4,7.1,7.3,7.1h55.6H409v-511L57.2,11.6z"/>
<g>
	<path class="st2" d="M22.7-0.3v142.7c0,17.9,14.3,32.5,31.8,32.5L409,152.1V-0.3H22.7z"/>
</g>
<path class="st3" d="M392.7,174.9H32.2c-17.9,0-32.5-14.6-32.5-32.5V50.9c0-17.9,14.6-32.5,32.5-32.5h360.5
	c17.9,0,32.5,14.6,32.5,32.5v91.4C425.2,160.2,410.6,174.9,392.7,174.9z"/>
<path class="st2" d="M414.2,82.9H72.8c-12.5,0-22.7-10.3-22.7-23.1l0,0c0-12.7,10.1-23.1,22.7-23.1H414c12.5,0,22.7,10.3,22.7,23.1
	l0,0C436.6,72.6,426.5,82.9,414.2,82.9z"/>
<path class="st3" d="M416.9,77.5H75.5c-12.5,0-22.7-10.3-22.7-23.1l0,0c0-12.7,10.1-23.1,22.7-23.1h341.2
	c12.5,0,22.7,10.3,22.7,23.1l0,0C439.3,67.2,429.2,77.5,416.9,77.5z"/>
<circle class="st1" cx="31.9" cy="142.6" r="9.5"/>
<circle class="st1" cx="31.9" cy="111.1" r="9.5"/>
<path class="st2" d="M367.9,151.8H204.6c-5.4,0-10-4.6-10-10V112c0-5.4,4.6-10,10-10h163.3c5.4,0,10,4.6,10,10v29.8
	C377.9,147.5,373.5,151.8,367.9,151.8z"/>
<g>
	<path class="st6" d="M361.6,145.3h-15.2c-6,0-10.8-4.9-10.8-10.8v-15.2c0-6,4.9-10.8,10.8-10.8h15.2c6,0,10.8,4.9,10.8,10.8v15.2
		C372.5,140.4,367.6,145.3,361.6,145.3z"/>
	<rect x="206.7" y="114.7" class="st1" width="118.8" height="24.7"/>
	<text transform="matrix(1 0 0 1 212.1986 131.6519)" class="st7 st8 st9">Printing...</text>
</g>
</svg>
