<?xml version="1.0" encoding="utf-8"?>
<!-- Generator: Adobe Illustrator 21.0.0, SVG Export Plug-In . SVG Version: 6.00 Build 0)  -->
<svg version="1.1" id="Calque_1" xmlns="http://www.w3.org/2000/svg" xmlns:xlink="http://www.w3.org/1999/xlink" x="0px" y="0px"
	 viewBox="0 0 283.5 283.5" style="enable-background:new 0 0 283.5 283.5;" xml:space="preserve">
<style type="text/css">
	.st0{display:none;}
	.st1{display:inline;}
	.st2{fill:#FFFFFF;}
</style>
<g id="Calque_2_1_" class="st0">
	<rect x="0.7" y="0" class="st1" width="282.8" height="282.8"/>
</g>
<g>
	<path class="st2" d="M223.8,64.2c-0.1,9.8-1.4,19.6-3.5,29.4c-0.7,3.2-0.7,3.2,2.4,4.2c11.9,3.9,23.5,8.8,33.9,16
		c5.4,3.7,10.4,7.9,14.2,13.4c7.4,10.9,6.8,21.7-1.5,31.9c-5.6,6.8-12.7,11.7-20.4,16.1c-8.4,4.7-17.2,8.2-26.3,11.2
		c-2.1,0.7-2.6,1.5-2.1,3.8c2.4,10.9,3.9,21.9,3.6,33c-0.2,7.3-1.2,14.5-3.9,21.4c-5.3,13.5-15.8,19.3-30.1,16.5
		c-11.4-2.2-21.4-7.6-30.6-14.3c-5.7-4-11-8.7-16.3-13.1c-1.4-1.2-2-0.5-3,0.4c-10,9-20.5,17.1-32.8,22.7c-6.8,3.1-13.9,5.3-21.5,5
		c-8.7-0.3-15.2-4.2-19.6-11.7c-3.9-6.5-5.5-13.9-6.3-21.5c-1.3-13.2,0.6-26.2,3.3-39.1c0.4-2-0.4-2.6-2-3.2
		c-12.7-4-24.9-9.2-35.9-17c-5.2-3.7-9.8-7.8-13.4-13.2c-6.5-9.8-6.4-19.9,0.8-29.4c5.4-7.2,12.4-12.5,20.2-17
		c8.9-5.1,18.2-9,27.8-12c2-0.7,2.7-1.5,2.2-3.8c-2.3-9.6-3.6-19.4-3.7-29.2c-0.1-9.4,0.9-18.7,4.9-27.4C69.8,25.5,80.4,20.7,93,23
		c9.5,1.7,18.3,5.7,26.1,11.2c7.2,5,14.2,10.7,21,16.3c1.9,1.5,2.7,0.1,3.8-0.7c5-4,9.8-8.4,15-12.1c9.1-6.6,19-12.2,30.2-14.4
		c6-1.2,11.8-1.2,17.4,1.3c7.1,3.3,11.1,9.2,13.7,16.3C223.1,48.2,223.8,56.1,223.8,64.2z M122.3,99c-3.6,0-6.2,1.3-8.2,4.5
		c-7.4,11.7-14.3,23.6-20.4,36c-1,1.9-1,3.5,0,5.3c2.4,4.5,4.5,9.1,7.1,13.6c4.9,8.4,10.1,16.6,15.3,24.7c0.6,0.9,1.8,1.7,2.9,1.8
		c5.9,0.5,11.7,1,17.5,1c9.3-0.1,18.6-0.5,27.9-1c1.2-0.1,2.6-1,3.3-1.8c8.6-12.6,16.3-25.7,22.6-39.7c0.4-0.8,0.3-2.1-0.1-3
		c-6.4-13.8-14-26.9-22.7-39.4c-0.6-0.9-1.8-1.6-2.9-1.6C157.1,99,128.9,99.1,122.3,99z M263.9,142.1c-0.2-4.3-2.3-7.7-5.2-10.6
		c-11.3-11.5-25.7-17.1-40.4-22.2c-1.3-0.5-1.7,0.3-2.1,1.3c-3.6,9.9-7.3,19.8-10.9,29.9c-0.4,1-0.3,2.2,0,3.2
		c3.6,9.9,7.3,19.7,10.9,29.6c0.7,1.7,1.3,2.1,2.9,1.4c8.1-3.5,16.4-6.6,24.4-10.5c5.9-2.8,11-6.7,15.4-11.7
		C261.6,149.5,263.7,146.2,263.9,142.1z M211.8,67.8c0.5-10-0.8-17.2-3.3-23.9c-1.7-4.4-4.2-8.1-9.4-9.1c-5.2-1-10,0.5-14.7,2.3
		C172.1,42,162,49.9,152.3,58.4c-1.3,1.2-1.3,1.9-0.2,3.3c6.8,8.1,13.5,16.3,20.2,24.4c0.7,0.8,1.8,1.3,2.9,1.4
		c10.3,1.8,20.5,3.6,30.8,5.4c1.5,0.3,2.2-0.1,2.5-1.6C209.7,82.5,210.9,73.5,211.8,67.8z M72.4,227.1c1,4.9,1.7,9.9,3.5,14.5
		c1.9,5.5,6.4,8.3,12.3,7.8c2.6-0.2,5.2-0.7,7.7-1.4c13.9-4.4,25.1-13.2,35.7-22.8c1.2-1.1,0.8-1.8,0-2.8
		c-6.8-8.2-13.6-16.5-20.3-24.6c-0.5-0.7-1.4-1.2-2.2-1.3c-10.5-1.8-21-3.6-31.5-5.4c-1.3-0.3-2.1,0.1-2.3,1.5
		C73.9,201.6,70.6,218.9,72.4,227.1z M19.5,143.1c0.5,1.3,1,3.6,2.2,5.3c2,2.9,4.2,5.7,6.9,7.9c10.7,9,23.3,14.2,36.3,18.5
		c1.3,0.4,1.9,0.1,2.4-1.2c3.6-9.9,7.2-19.7,10.8-29.7c0.4-1.1,0.4-2.6,0-3.7c-3.5-9.6-7.1-19.1-10.5-28.7c-0.8-2.2-1.6-2.7-3.7-1.8
		c-7.2,3.1-14.6,5.9-21.8,9.2c-6.4,3.1-12.2,7.1-17.1,12.3C22.1,134.3,19.8,137.7,19.5,143.1z M72.4,74.5c0.8,5.7,1.8,11.4,2.7,17.1
		c0.2,1.3,0.8,1.8,2.3,1.5c10.3-1.8,20.7-3.7,31-5.5c1.1-0.2,2.2-0.9,3-1.7c6.8-8.1,13.5-16.3,20.2-24.5c0.9-1.1,1-1.6-0.2-2.5
		c-6.2-4.7-12-9.7-18.3-14.2c-6.6-4.6-13.8-8.5-21.9-9.6c-8.9-1.3-13,0-16.8,9.6c-0.4,0.9-0.7,1.8-0.9,2.8
		C71.7,54.2,72,71.1,72.4,74.5z M211.6,220.2c0.2-9.5-1.3-18.6-3.1-27.5c-0.3-1.6-1.1-2-2.6-1.6c-10.1,1.8-20.2,3.6-30.3,5.3
		c-1.6,0.3-2.7,0.9-3.7,2.1c-6.5,8.1-13.3,16.1-19.9,24.1c-1,1.2-1,1.7,0.2,2.7c4.4,3.6,8.7,7.4,13.3,10.8
		c7.9,5.8,16.1,10.9,25.8,12.7c9,1.6,14.4,0.5,17.9-9.9C211.2,232.6,211.8,226.3,211.6,220.2z M127.5,197.9
		c-0.2,0.2-0.3,0.3-0.5,0.5c4.8,5.6,9.6,11.2,14.8,17c5.2-6,9.9-11.5,14.6-16.9c-0.2-0.2-0.3-0.4-0.5-0.6
		C146.5,197.9,137.1,197.9,127.5,197.9z M127,86.1c10,0,19.5,0,29.3,0c-0.3-0.6-0.5-0.9-0.7-1.1c-4.1-4.9-8.4-9.8-12.5-14.7
		c-1-1.2-1.8-1-2.8,0.1c-3.6,4-7.1,8.1-10.7,12.1C128.7,83.7,128,84.7,127,86.1z M197.5,157.1c-5,8.8-9.7,17-14.3,25.2
		c0.1,0.2,0.2,0.4,0.3,0.6c6.7-1.3,13.5-2.7,20.1-4.2c0.4-0.1,0.9-1.3,0.8-1.8c-0.9-3.2-1.9-6.4-3-9.4
		C200.2,164.1,199,160.9,197.5,157.1z M86.1,126.6c4.8-8.4,9.5-16.6,14.3-24.8c-0.2-0.1-0.4-0.3-0.5-0.2c-6.6,1.3-13.3,2.5-19.9,3.8
		c-1.3,0.3-1.3,1.1-0.9,2c2,6,4.1,11.9,6.2,17.9C85.5,125.6,85.8,126,86.1,126.6z M182.7,101.2c5.1,8.8,9.8,16.9,14.9,25.8
		c2.4-7.1,4.5-13.6,6.5-20c0.1-0.4-0.6-1.5-1.1-1.6c-2.1-0.7-4.3-1.2-6.5-1.5C192.2,102.9,187.7,102.1,182.7,101.2z M86.1,157.7
		c-0.2,0.1-0.4,0.2-0.4,0.3c-2.2,6.3-4.3,12.6-6.5,18.9c-0.5,1.4,0.3,1.8,1.5,2.1c4.5,1,9.1,1.9,13.7,2.8c1.9,0.4,3.9,0.6,6.3,0.9
		C95.7,174.1,90.9,166,86.1,157.7z"/>
	<path class="st2" d="M141.8,167c-14,0-25.3-11-25.2-24.9c0.1-14.3,11.7-25,25-25.1c13.1-0.1,25.2,10.5,25.1,25.2
		C166.7,156.2,155.3,167.3,141.8,167z"/>
</g>
</svg>
