<?xml version="1.0" encoding="utf-8"?>
<!-- Generator: Adobe Illustrator 21.0.0, SVG Export Plug-In . SVG Version: 6.00 Build 0)  -->
<svg version="1.1" id="Calque_1" xmlns="http://www.w3.org/2000/svg" xmlns:xlink="http://www.w3.org/1999/xlink" x="0px" y="0px"
	 viewBox="0 0 283.5 283.5" style="enable-background:new 0 0 283.5 283.5;" xml:space="preserve">
<style type="text/css">
	.st0{display:none;}
	.st1{display:inline;}
	.st2{fill:#FFFFFF;}
</style>
<g id="Calque_2_1_" class="st0">
	<rect x="0.7" y="0" class="st1" width="282.8" height="282.8"/>
</g>
<g>
	<path class="st2" d="M207,100.2c-1.6-0.5-3-1-4.4-1.4c-3.6-1.1-7.2-2.1-10.9-3.2c-0.6-0.2-0.8-0.5-0.9-1.1
		c-1.6-14.1-6.5-26.9-14.5-38.6c-4.5-6.6-10.1-12-17.2-15.8c-5.7-3-11.8-4.6-18.2-4.3c-13.1,0.7-25,4.8-35.3,13.1
		c-4.3,3.4-7.4,7.9-10.3,12.4c-6.5,10-10.5,20.9-12.6,32.6c-1.5,8.4-1.9,17-1.6,25.5c0.8,20.5,6.4,39.5,16.8,57.2
		c0.4,0.8,1,0.7,1.6,0.6c5.7-0.6,10.7,1.2,14.7,5.3c5.1,5.2,6.6,11.5,4.3,18.4c-2.3,6.9-7.3,11.1-14.5,12.2
		c-10.1,1.6-19.3-5.5-20.6-15.6c-0.5-3.8,0.2-7.4,2-10.8c0.3-0.6,0.3-1,0-1.5c-7.5-13-13.2-26.7-16.6-41.3c-1.3-5.6-2.4-11.3-2.8-17
		c-0.3-5-0.7-10.1-0.6-15.2c0.2-13.7,2.9-27,7.6-39.8c4.5-12.4,11.4-23.3,21-32.4c9.7-9.1,21-15.3,34.1-17.8
		c15.1-2.9,29.3-0.1,42.3,8.1c11.5,7.3,19.9,17.5,26,29.6c4.5,8.9,7.5,18.4,9.1,28.2c0.6,3.9,1,7.8,1.5,11.7
		C207.1,99.5,207,99.8,207,100.2z"/>
	<path class="st2" d="M158.9,253.1c3.4-2.7,6.8-5.3,10.1-8c1.3-1,2.5-2.2,3.8-3.2c0.2-0.2,0.7-0.3,1-0.2c6.7,2.9,13.6,4.8,20.9,5.8
		c10.9,1.6,21.7,1,31.9-3.4c9.4-4.1,16.5-10.8,21.7-19.5c3-5,5.1-10.3,5.9-16c1-7.1,0.3-14.1-1.9-20.9
		c-4.6-14.2-12.5-26.2-23.5-36.2c-15.7-14.2-34.1-23.4-54.7-28.1c-7.8-1.8-15.7-2.8-23.8-2.9c-2.9,0-5.9,0.1-8.8,0.2
		c-0.5,0-0.7,0.2-0.9,0.6c-2.8,5.6-7.2,9.1-13.4,10.2c-9.4,1.6-18.9-4.5-20.7-14.4c-1.9-10.1,4.3-19.2,14.3-21.2
		c7.5-1.5,14.8,1.8,18.8,8.4c0.5,0.9,1.1,1.1,2.1,1c2.7-0.1,5.3-0.1,8-0.1c2.7,0.1,5.5,0.2,8.2,0.5c5.2,0.6,10.4,1.1,15.5,2
		c10.1,1.7,19.9,4.7,29.3,8.8c17.9,7.7,33.2,18.9,45.9,33.8c7.8,9.1,13.9,19.3,17.5,30.8c1.6,5.2,2.7,10.5,3.2,16
		c0.8,9.2-0.1,18.3-3.5,27c-2.9,7.5-7.6,13.8-13.5,19.2c-10.6,9.8-23.1,15.8-37.2,18.4c-5.4,1-10.8,1.4-16.2,1.3
		c-11.8-0.3-23.2-2.9-34.2-7.3c-1.9-0.8-3.7-1.6-5.6-2.4C159,253.3,159,253.2,158.9,253.1z"/>
	<path class="st2" d="M51.7,134.4c0.6,2.4,1.1,4.6,1.7,6.9c0.8,2.9,1.6,5.8,2.4,8.6c0.2,0.6,0.1,1-0.4,1.4
		c-9.5,7.6-17.2,16.7-22.4,27.7c-2.6,5.5-4.2,11.2-4.8,17.2c-0.8,9.3,1.2,18,5.5,26.2c3.9,7.5,9.4,13.6,16.8,17.8
		c5.4,3.1,11.3,5,17.4,6c4.8,0.7,9.6,1.1,14.4,1c12.8-0.3,25-3.3,36.5-8.9c14.6-7,28-15.7,39.3-27.4c7.2-7.4,13.2-15.8,17.9-25
		c0.3-0.6,0.2-0.9-0.2-1.4c-4.6-5.2-6-11.3-3.8-17.9c2.2-6.6,6.9-10.6,13.7-12.1c9.7-2.1,19.6,4.7,21.3,14.5
		c1.7,10.2-4.7,19.4-14.9,21.1c-0.7,0.1-1.1,0.6-1.4,1.2c-6.9,13.8-15.7,26-26.9,36.6c-13.2,12.5-28.5,21.6-45.7,27.5
		c-8,2.8-16.3,4.9-24.7,6.2c-5.7,0.9-11.5,1.1-17.2,0.8c-11.3-0.6-22-3.3-32.1-8.6c-15-7.9-24.2-20.2-28.2-36.5
		c-1.3-5.5-2-11.1-2-16.7c0.1-14.6,4.3-27.9,12.2-40.1c6.6-10.3,15.2-18.7,25-25.9C51.3,134.6,51.4,134.6,51.7,134.4z"/>
</g>
</svg>
