<?xml version="1.0" encoding="utf-8"?>
<!-- Generator: Adobe Illustrator 21.0.0, SVG Export Plug-In . SVG Version: 6.00 Build 0)  -->
<svg version="1.1" id="Calque_1" xmlns="http://www.w3.org/2000/svg" xmlns:xlink="http://www.w3.org/1999/xlink" x="0px" y="0px"
	 viewBox="0 0 283.5 113.4" style="enable-background:new 0 0 283.5 113.4;" xml:space="preserve">
<style type="text/css">
	.st0{fill:#FFFFFF;}
</style>
<g id="ujbjzC.tif">
	<g>
		<path class="st0" d="M42.1,108.5c5.5-24.5,80.2-21.4,98.6-15.7c-5.7,5.7-51,3.5-60.4,6c-3.2,0.8-3.4-4.1-12.8-0.4
			C57.3,102.3,50.3,108.5,42.1,108.5z"/>
		<path class="st0" d="M265.9,32.5c-13.3-2.1-17.5-16-12.9-26.6C260,10,265.9,24.7,265.9,32.5z"/>
		<path class="st0" d="M200.2,98.6c0-0.6,23.5-28.9,24.5-29.1C223.9,69.6,213,98.6,200.2,98.6z"/>
		<path class="st0" d="M218.5,98.6c0-4.2,11.6-22.3,12.4-22.4C241.5,75.6,219.6,98.6,218.5,98.6z"/>
		<path class="st0" d="M204.5,61c-1.4-0.5-19.8-3.4-20.2-6.4C184,51.4,204.5,51.7,204.5,61z"/>
		<path class="st0" d="M204.5,51c-1-0.3-19.4-3.6-15.1-6.9C196.3,38.8,204.5,43.9,204.5,51z"/>
		<path class="st0" d="M257.5,99.9c0-9.8-1.5-8.3,8.3-8.3C265.8,101.6,267.5,99.9,257.5,99.9z"/>
		<path class="st0" d="M151.9,83.3c0-3.3-4.9-26.7-2.2-30c3.6,4.8,36.5,40.7,36.1,41.2C181.5,99.1,151.9,90.3,151.9,83.3z"/>
		<path class="st0" d="M160.8,21.7c0,17.8,13.3-21.6,19.3-15.2c3.5,3.7-16.7,28.1-20.5,27.8c-3.6-0.3-2.4-8.6-3.2-10.7
			c-1.1,1.4-9.5,22-11.9,20.4c-6.1-3.9-1.2-14.6-4.1-19.7c-5.6,5.6-6.4,15.2-12.9,20.4c-2.8,2.3-5.7-18.4-2-22.1
			c2.7,2.8,2,13.3,2.7,13.2c5.7-1.3,7.9-22.3,15.7-19c4.4,1.8-2.6,18.1,2,19C147.3,36.2,160.8,0.8,160.8,21.7z"/>
		<path class="st0" d="M112.5,56.7C90.7,110.5,69.7,0,112.5,56.7z"/>
		<path class="st0" d="M77.5,10.8c0.3,2.2-36.9,21.8-37.7,21.1C31.5,24.5,77.7,6.1,77.5,10.8z"/>
		<path class="st0" d="M80.8,21.9C77.2,25,42.1,44.5,41,40C39,32.5,81.2,16.6,80.8,21.9z"/>
		<path class="st0" d="M25.4,16C36.8,38.2-7.1,6.9,9,10.7C13.5,11.8,23-3.8,25.4,16z"/>
		<path class="st0" d="M253.2,53.3C295,56.7,209.9,68,253.2,53.3z"/>
		<path class="st0" d="M44.7,69.4c7.1,4.2,46.7-2.2,14.5-10.9C48.4,55.6,57.5,65.6,44.7,69.4z"/>
		<path class="st0" d="M5.4,89.7c0-7.2,24.6,4.2,23.3,8.6C27.3,102.9,5.4,94.9,5.4,89.7z"/>
		<path class="st0" d="M5.4,100.1c0-8.6,20,5.1,18.5,6.5C21.3,109.3,4.4,103.4,5.4,100.1z"/>
		<path class="st0" d="M212.6,12.6c-0.3,14,25.4,40.4,23.3,24.3C235,41.9,212.6,3.9,212.6,12.6z"/>
	</g>
</g>
<path class="st0" d="M14.2,62.8c-2.9-14.5-4.2-11.9,7.7-14.3C24.9,63.3,26.5,60.4,14.2,62.8z"/>
</svg>
