<?xml version="1.0" encoding="utf-8"?>
<!-- Generator: Adobe Illustrator 21.0.0, SVG Export Plug-In . SVG Version: 6.00 Build 0)  -->
<svg version="1.1" xmlns="http://www.w3.org/2000/svg" xmlns:xlink="http://www.w3.org/1999/xlink" x="0px" y="0px"
	 viewBox="0 0 283.5 283.5" style="enable-background:new 0 0 283.5 283.5;" xml:space="preserve">
<style type="text/css">
	.st0{display:none;}
	.st1{display:inline;}
	.st2{fill:#FFFFFF;}
</style>
<g id="Calque_2_1_" class="st0">
	<rect x="0.7" class="st1" width="282.8" height="282.8"/>
</g>
<g id="Calque_1">
	<g id="Calque_2" class="st0">
		<rect x="-5.7" y="-5.7" class="st1" width="294.8" height="294.8"/>
	</g>
	<g>
		<path class="st2" d="M73.3,39.6c-0.8,6.7-1.7,12.8-2.2,18.9c-1.9,24.8,5.4,46.6,22.7,64.5c13.8,14.3,29.9,25.4,49.3,30.5
			c23.8,6.3,46.9,4.3,68.3-8.8c2-1.2,3.8-2.6,5.7-4c1.8-1.4,3.4-2.9,5.7-4.8c-3,6.2-6.4,11.1-10.6,15.5
			c-14.4,15.5-32.1,24-53.2,25.7c-50,4.3-87.7-29.7-99.5-66C53.4,92.3,53,73.6,62,55.3C64.9,49.6,68.5,44.5,73.3,39.6z"/>
		<path class="st2" d="M227.4,91.5c-5.3,12.1-14.1,20.7-26.3,25.8c-44.2,18.6-84.4-11.6-93-44.6c-4.3-16.4-2.5-31.9,8.1-45.8
			c0.5-0.6,1-1.2,2-2.3c-0.5,4.1-1,7.4-1.2,10.8c-2.1,29.8,11.9,50.3,37.2,64.1c9.5,5.2,19.6,8.6,30.5,8.9
			C201.4,108.9,215.6,103.3,227.4,91.5z"/>
		<path class="st2" d="M96.7,240c2.1,0.2,3.6,0.3,5.5,0.5c-0.8,3.3-1.5,6.4-2.4,9.9c-4.9,0-9.7,0-14.5,0c-6.3-0.1-12.7,0-19-0.4
			c-6.9-0.5-11.9-5.3-12.9-12.2c-1.6-11.3,1.2-21.7,8.4-30.6c7.1-8.7,21.1-11.5,31.1-6.5c7.5,3.7,11.5,12.4,9.3,21.3
			c-1.2,5-3,9.8-4.5,14.6C97.6,237.6,97.2,238.6,96.7,240z M78.3,239.8c0,0.1,0,0.1,0,0.2c1.8,0,3.6,0.2,5.3-0.1
			c0.8-0.1,2-0.8,2.2-1.5c1.8-6.4,3.6-12.7,5-19.2c0.8-3.5-0.7-6.7-3.8-8.7c-5.5-3.6-14.6-1.4-17,4.8c-2,5.2-3.2,10.8-4.2,16.4
			c-0.7,4.5,2,7.5,6.6,8C74.3,240,76.3,239.8,78.3,239.8z"/>
		<path class="st2" d="M183.2,240.8c-0.6,3-1.1,5.7-1.8,8.2c-0.1,0.5-1.1,1.2-1.7,1.2c-7.3,0.1-14.5,0.3-21.8-0.1
			c-8.3-0.5-11.8-5.2-10.6-13.6c0.6-3.9,1.3-7.9,2.4-11.7c3.1-10.6,10.4-16.1,21.5-16.4c1.1,0,2.2,0,3.3,0.1
			c9.4,1.1,13.2,5.9,12.4,15.3c-0.9,9.9-0.9,9.9-10.7,9.9c-4.9,0-9.9-0.1-14.8,0.1c-1,0-2.7,1-2.7,1.4c0.1,1.4,0.5,3.1,1.5,4.1
			c0.7,0.8,2.4,0.9,3.7,0.9c5.3,0.2,10.6,0.3,15.9,0.5C181,240.8,182,240.8,183.2,240.8z M161,225.1c1.2,0,2.2,0,3.1,0
			c3.4,0,6.7,0.1,10-0.1c0.6,0,1.6-1.3,1.5-1.6c-0.6-1.4-1.3-3.3-2.5-4C168.4,216.8,162.9,219.4,161,225.1z"/>
		<path class="st2" d="M138.9,250.3c-7.7,0-15,0.2-22.4-0.1c-6.8-0.3-10.7-4.4-9.8-11.2c1.2-9.3,3.2-18.5,4.9-27.7
			c0.1-0.6,1.1-1.5,1.8-1.5c2.8-0.2,5.6-0.1,8.9-0.1c-0.4,2.8-0.7,5.3-1.1,7.8c-1,6.3-2.3,12.6-3,18.9c-0.4,3.6,0,3.7,3.7,3.7
			c1.3,0,2.6,0,3.9,0c4.3,0,4.3,0,5.3-4.3c1.9-8.6,3.8-17.2,5.7-25.9c3.5,0,6.8,0,10.5,0C144.6,223.4,141.8,236.8,138.9,250.3z"/>
		<path class="st2" d="M156,15.2c-6.2,34.4,34.1,61.8,63.9,46.3c-3.1,4.6-6.5,7.8-10.9,9.9c-9.2,4.4-18.8,4.1-28.4,1.6
			c-17.6-4.5-31.7-22.7-31.3-40.3C149.4,26.6,152.5,18.7,156,15.2z"/>
		<path class="st2" d="M221.1,250.2c5.1-10-0.7-18.5-2.2-27.7c3.7,0,7.2-0.1,10.7,0.1c0.6,0,1.3,0.9,1.6,1.5
			c0.6,1.3,0.9,2.8,1.5,4.7c0.8-1,1.3-1.7,1.8-2.4c4.8-6.9,9.5-13.8,14.2-20.7c1-1.5,2-2.1,3.9-2.1c3.3,0.2,6.7,0,10.7,0
			c-0.8,1.4-1.3,2.5-2.1,3.5c-4.9,6.5-9.7,13-14.7,19.4c-5.2,6.8-10,13.9-13,22.1c-0.2,0.7-1,1.6-1.5,1.6
			C228.6,250.2,225.1,250.2,221.1,250.2z"/>
		<path class="st2" d="M187.9,250c2.9-13.6,5.7-26.9,8.6-40.3c9.1,0,17.9-0.1,26.7,0c3.1,0,5.2,1.9,5.9,5c0.3,1.4,0.6,2.9,0.9,4.7
			c-1.1,0.1-2,0.2-2.8,0.2c-6.5,0-13,0.1-19.5,0c-1.8,0-2.5,0.6-2.9,2.4c-1.9,9.3-3.9,18.5-6,28.1C195.3,250,191.8,250,187.9,250z"
			/>
		<path class="st2" d="M49.2,222.3c-1.9,8.5-3.7,16.6-5.5,24.6c-0.9,3.9-1.9,7.8-3.1,11.6c-1.7,5.7-5.8,8.5-11.6,8.6
			c-2.9,0.1-5.9,0-9.3,0c0.8-3.4,1.3-6.2,2.1-8.9c0.2-0.7,1.7-1.4,2.6-1.4c3.2,0.2,4.9-1.5,5.6-4.2c1.6-5.7,3-11.5,4.4-17.2
			c0.9-3.6,1.8-7.2,2.6-10.8c0.4-1.6,1.2-2.3,2.9-2.2C42.9,222.4,45.9,222.3,49.2,222.3z"/>
		<path class="st2" d="M38.5,219c-0.1-0.7-0.1-0.9-0.1-1.1c1.7-9,2.3-9.3,13.2-8c-0.6,2.7-1.1,5.4-1.7,8.1c-0.1,0.4-0.9,1-1.4,1
			C45.3,219.1,41.9,219,38.5,219z"/>
	</g>
</g>
</svg>
