<?xml version="1.0" encoding="utf-8"?>
<!-- Generator: Adobe Illustrator 21.0.0, SVG Export Plug-In . SVG Version: 6.00 Build 0)  -->
<svg version="1.1" xmlns="http://www.w3.org/2000/svg" xmlns:xlink="http://www.w3.org/1999/xlink" x="0px" y="0px"
	 viewBox="0 0 283.5 283.5" style="enable-background:new 0 0 283.5 283.5;" xml:space="preserve">
<style type="text/css">
	.st0{display:none;}
	.st1{display:inline;}
	.st2{fill:#FFFFFF;}
</style>
<g id="Calque_2_1_" class="st0">
	<rect x="0.7" class="st1" width="282.8" height="282.8"/>
</g>
<g id="Calque_1">
	<g id="Calque_2" class="st0">
		<rect x="-5.7" y="-5.7" class="st1" width="294.8" height="294.8"/>
	</g>
	<g>
		<path class="st2" d="M141.1,271.3c-1.4-0.5-2.8-1.2-4.3-1.6c-22.7-6.4-45.3-12.7-68-19c-2.2-0.6-3-1.6-3.2-3.8
			c-1.2-14.8-2.6-29.7-3.8-44.5c-1.7-19.5-3.4-39-5.1-58.4c-1.4-16.6-2.9-33.3-4.3-49.9c-0.8-9.2-1.6-18.4-2.4-27.7
			c-0.1-1.1-0.1-2.2-0.2-3.6c61.3,0,122.4,0,183.9,0c-0.3,3.7-0.5,7.4-0.8,11.2c-1.5,17.2-3,34.5-4.5,51.7
			c-1.8,21.1-3.7,42.2-5.5,63.4c-1.5,16.9-2.9,33.8-4.4,50.7c-0.2,2.5-0.5,5-0.6,7.5c0,2.2-1.3,2.9-3.1,3.4
			c-23.3,6.5-46.5,13-69.8,19.5c-1,0.3-1.9,0.8-2.8,1.1C141.8,271.3,141.5,271.3,141.1,271.3z M169.6,121.6c0.8,0,1.5,0,2.1,0
			c10,0,20.1-0.1,30.1,0.1c2.5,0,3.6-0.9,3.7-3.4c0.3-4.9,0.7-9.8,1.3-14.7c0.3-2.4-0.6-2.9-2.8-2.9c-17.5,0.1-35,0.1-52.5,0
			c-2.4,0-3.2,0.8-3.1,3.1c0.1,24.5,0.1,49,0,73.5c0,2.6,1,3,3.3,2.7c5.8-1,11.6-1.9,17.4-2.8c4-0.6,8-1.2,12.1-1.9
			c0,0.9,0.1,1.5,0,2.1c-0.7,7-1.6,13.9-2.2,20.9c-0.2,2-0.9,2.8-2.8,3.3c-8.4,2.2-16.7,4.6-25,6.8c-2,0.5-2.9,1.4-2.8,3.6
			c0.1,5.4,0,10.7,0.1,16.1c0,0.9,0.3,1.8,0.5,2.9c15.7-4.4,31-8.6,46.3-12.9c0.7-0.2,1.5-1.4,1.6-2.3c0.5-3.1,0.7-6.2,1-9.3
			c1.5-16.4,3.1-32.7,4.6-49.1c0.2-1.9,0.3-3.8,0.4-6.1c-11.3,1.7-22.2,3.3-33.2,5C169.6,144.6,169.6,133.2,169.6,121.6z M78.8,194
			c-0.1,1.3-0.2,2.1-0.2,3c0,5.2,0.1,10.4-0.1,15.6c-0.1,2.4,0.8,3.3,3,3.9c16.9,4.5,33.7,9.2,50.6,13.8c0.7,0.2,1.5,0.3,2.5,0.5
			c0.1-1.4,0.2-2.6,0.2-3.8c0-27.4,0-54.9,0-82.3c0-13.6,0-27.2,0-40.8c0-2.4-0.8-3.2-3.1-3.1c-4.7,0.2-9.3,0-14,0
			c-3.7,0-3.7,0-3.7,3.7c0,31.8,0,63.5,0,95.3c0,1.1,0,2.2,0,3.8C102.2,200.4,90.7,197.2,78.8,194z"/>
		<path class="st2" d="M150.1,21.3c0,1,0,1.9,0,3.2c1,0.1,1.9,0.2,2.8,0.2c6,0,11.9,0.1,17.9,0c1.9,0,2.6,0.5,2.6,2.5
			c-0.1,5.6-0.1,11.3,0,16.9c0,2-0.8,2.5-2.6,2.4c-9.3-0.1-18.5-0.1-27.8,0c-1.9,0-2.6-0.6-2.5-2.5c0.1-2.1,0-4.3,0-6.8
			c7.8,0,15.4,0,23.2,0c0-1.5,0-2.5,0-3.9c-7.6,0-15.2,0-22.9,0c-0.1-0.8-0.3-1.4-0.3-2c0-5.8,0-11.6,0-17.4c0-1.6,0.4-2.3,2.2-2.3
			c9.5,0.1,19,0.1,28.6,0c1.6,0,2.1,0.5,2.1,2.1c0.3,7.4,0.3,7.4-6.9,7.4c-5.2,0-10.4,0-15.6,0.1C150.7,21,150.6,21.1,150.1,21.3z"
			/>
		<path class="st2" d="M126.4,11.6c3.3,0,6.2,0,9.3,0c0.1,0.9,0.2,1.7,0.2,2.6c0,9.8,0,19.6,0,29.3c0,2-0.4,2.9-2.7,2.9
			c-6.5-0.1-13-0.1-19.5,0c-2.1,0-2.6-0.7-2.6-2.7c0-6.8-0.1-6.8,6.7-6.8c2.7,0,5.5,0,8.6,0C126.4,28.4,126.4,20.1,126.4,11.6z"/>
	</g>
</g>
</svg>
