<?xml version="1.0" encoding="utf-8"?>
<!-- Generator: Adobe Illustrator 21.0.0, SVG Export Plug-In . SVG Version: 6.00 Build 0)  -->
<svg version="1.1" xmlns="http://www.w3.org/2000/svg" xmlns:xlink="http://www.w3.org/1999/xlink" x="0px" y="0px"
	 viewBox="0 0 283.5 283.5" style="enable-background:new 0 0 283.5 283.5;" xml:space="preserve">
<style type="text/css">
	.st0{display:none;}
	.st1{display:inline;}
	.st2{fill:#FFFFFF;}
	.st3{fill-rule:evenodd;clip-rule:evenodd;fill:#FFFFFF;}
	.st4{fill:#FFFFFF;stroke:#FFFFFF;stroke-width:0.25;stroke-miterlimit:10;}
</style>
<g id="Calque_2" class="st0">
	<rect x="-5.7" y="-5.7" class="st1" width="294.8" height="294.8"/>
</g>
<g id="Calque_1">
	<g>
		<path class="st2" d="M970.3,1335.8c-1-1.7-0.9-3,0.1-4.7c3.7-6,7.2-12.1,10.7-18.2c0.6-1.1,0.8-2.7,0.5-3.9
			c-5.1-19.5-10.4-39-15.6-58.6c-2.2-8.2-4.3-16.4-6.5-24.5c-0.3-0.1-0.4-0.1-0.5-0.1c-27.9,7.4-55.8,14.9-83.7,22.4
			c-0.9,0.2-1.8,1.1-2.2,1.9c-3.6,6.2-7.2,12.5-10.7,18.9c-0.8,1.6-1.8,2.2-3.6,2.1c-6.7-0.2-13.4-0.2-20.1-0.5
			c-2.4-0.1-4.1,0.7-5.8,2.4c-19.4,19.5-38.8,38.8-58.2,58.2c-0.7,0.7-1.3,1.4-2,2.1c0.3,0.4,0.5,0.7,0.8,1
			c20.1,20.2,40.3,40.3,60.4,60.4c0.8,0.8,2.3,1.3,3.5,1.3c7.2,0.1,14.4,0.1,21.6,0c1.6,0,2.6,0.4,3.4,1.9
			c3.4,6.3,6.9,12.5,10.5,18.6c0.5,0.9,1.7,1.8,2.8,2.1c16.7,4.6,33.4,9.2,50.2,13.7c11,3,22.1,5.8,33.3,8.8
			c0.3-0.7,0.6-1.4,0.8-2.1c7.2-27,14.4-53.9,21.5-80.9c0.3-1.3,0.1-3-0.5-4.2C977.6,1347.8,974,1341.8,970.3,1335.8z M817.6,1319.9
			c13.7-13.9,27.6-27.8,41-41.9c2.9-3.1,6-4.6,9.8-5.6c18.9-4.7,37.8-9.7,56.6-14.5c1-0.3,2-0.3,4-0.6c-1.7,3.2-2.9,5.9-4.4,8.4
			c-9,15.7-18.1,31.3-27.2,47c-1.7,2.9-3.2,5.8-5,8.6c-0.6,0.9-1.9,1.7-2.8,1.7c-24.3,0.1-48.6,0.1-72.8,0.1c-0.4,0-0.7-0.1-1.9-0.3
			C816.1,1321.5,816.8,1320.7,817.6,1319.9z M928.2,1409.7c-3.1-0.7-6.3-1.4-9.4-2.2c-17.9-4.6-35.9-9.2-53.8-14
			c-2.2-0.6-4.3-2.3-6-4c-9.1-9.1-18-18.3-27-27.5c-5.1-5.3-10.3-10.6-15.4-15.9c-0.5-0.5-0.8-1.2-1.5-2.1c1.4-0.1,2.3-0.2,3.2-0.2
			c23.4,0,46.8,0,70.2-0.1c2.3,0,3.4,0.9,4.4,2.7c11.2,19.5,22.4,39,33.7,58.4c0.7,1.3,1.4,2.7,2,4
			C928.6,1409.2,928.4,1409.5,928.2,1409.7z M964.6,1338c-5.6,20.3-11.3,40.6-16.9,60.8c0,0.1-0.1,0.1-0.7,0.5
			c-0.9-1.3-1.9-2.6-2.7-3.9c-11.6-20-23.1-40-34.5-60c-0.6-1-0.5-2.9,0.1-3.9c11.9-20.7,23.8-41.3,35.8-61.9
			c0.4-0.7,0.9-1.2,1.8-2.3c6.2,22.1,12.1,43.2,17.9,64.5C965.8,1333.6,965.2,1336,964.6,1338z"/>
	</g>
	<g>
		<path class="st3" d="M559.4,1528.8c-0.1,1.9-0.4,3.8-0.4,5.7c0,46.4,0,92.9,0,139.3c0,1.7,0,3.5,0,5.9c-53.7,0-106.9,0-160.2,0
			c0-50.3,0-100.6,0-150.9c2.7,0,5.3,0,7.9,0c-0.1,1.5-0.2,2.9-0.2,4.4c0,44.7,0,89.3,0,134c0,1.6,0,3.2,0,5c48.5,0,96.4,0,144.7,0
			c0-45.2,0-90.1,0-135.5c-24.1,0-48.3,0-73,0c0-3,0-5.5,0-7.9C505.3,1528.8,532.3,1528.8,559.4,1528.8z"/>
		<path class="st3" d="M454.4,1528.8c0,31.6,0,63.2,0,95.3c24,0,47.7,0,71.8,0c0,8.4,0,16.2,0,24.2c-31.8,0-63.4,0-95.6,0
			c0-39.9,0-79.7,0-119.5c2.6,0,5.3,0,7.9,0c-0.1,0.6-0.2,1.2-0.2,1.8c0,35.7,0,71.4,0,107.1c0,1,0.2,2,0.3,3.1c26.8,0,53.3,0,80,0
			c0-2.9,0-5.6,0-8.8c-23.9,0-47.6,0-71.8,0c0-3,0-5.5,0-7.9c0-30,0-59.9,0-89.9c0-1.7-0.3-3.5-0.4-5.2
			C449.1,1528.8,451.8,1528.8,454.4,1528.8z"/>
		<path class="st3" d="M421.8,1528.8c0,42.2,0,84.4,0,127c37.7,0,75.2,0,113.1,0c0-13.1,0-26.2,0-39.7c-18.9,0-37.5,0-56.3,0
			c0-2.6,0-4.9,0-7.4c21.3,0,42.4,0,63.8,0c0,18.3,0,36.3,0,54.7c-42.5,0-85,0-128.3,0c0-1.7,0-3.5,0-5.4c0-41.3,0-82.6,0-123.9
			c0-1.8-0.1-3.5-0.2-5.3C416.5,1528.8,419.1,1528.8,421.8,1528.8z"/>
		<path class="st3" d="M574.4,1528.8c0,50.1,0,100.1,0,150.5c-2.4,0-4.5,0-6.9,0c-0.1-1.1-0.3-2.2-0.3-3.4c0-48.5,0-96.9,0-145.4
			c0-0.6,0.1-1.2,0.1-1.8C569.7,1528.8,572,1528.8,574.4,1528.8z"/>
		<path class="st3" d="M542.4,1545.1c0,18.3,0,36.4,0,54.6c-21.3,0-42.4,0-63.8,0c0-2.3,0-4.6,0-7.2c18.7,0,37.3,0,56.6,0
			c0-2.1,0-3.8,0-5.5c0-10-0.2-20,0.1-30c0.1-4-0.9-5.3-5.1-5.2c-15.7,0.2-31.4,0.1-47.2,0.1c-1.4,0-2.9,0-4.5,0c0-2.5,0-4.5,0-6.8
			C499.7,1545.1,520.9,1545.1,542.4,1545.1z"/>
		<path class="st3" d="M526.3,1583.4c-16,0-31.7,0-47.7,0c0-2.2,0-4.3,0-6.9c13.2,0,26.4,0,40,0c0-2.9,0-5.3,0-8.3
			c-13.3,0-26.5,0-40.1,0c0-2.8,0-5,0-7.4c15.9,0,31.7,0,47.7,0C526.3,1568.4,526.3,1575.6,526.3,1583.4z"/>
	</g>
	<g>
		<text transform="matrix(1 0 0 1 398.832 1724.1313)" class="st4" style="font-family:'Code-Light'; font-size:36.548px;">LECTRA V7</text>
	</g>
	
		<text transform="matrix(1.0352 0 0 1 747.6328 1602.688)" class="st2" style="font-family:'CenturyGothic-Bold'; font-size:111.6446px;">HTML</text>
	
		<text transform="matrix(0.854 0 0 1 744.3584 1721.7759)" class="st2" style="font-family:'CenturyGothic-Bold'; font-size:99.2396px; letter-spacing:2.3;">CSS/JS</text>
	<g>
		<path class="st2" d="M158.7,50.9c2.1,60.1,4.1,119,6.2,178.8c-10.1,0-18.9,0-30,0c0-48.4,0-96.6,0-144.8c-0.9,0-1.8,0-2.7,0
			c-11.7,45.3-23.6,90.6-34.9,136c-1.9,7.7-5.1,10.9-12.9,9.7c-7.6-1.2-16.7,3.6-19.5-9.9c-9.4-44.9-20-89.6-30.1-134.3
			c-0.3-1.3-0.6-2.6-2.7-3.7c-1.7,48.7-3.4,97.5-5.1,147.1c-8.7,0-16.8,0-26.9,0c3.1-59.4,6.2-118.6,9.3-178.3c14.5,0,27.8,0,42.7,0
			C62.2,95.1,72.3,139,83,185c6.7-25.8,12.9-49.8,19.1-73.7c4.5-17.3,9.3-34.6,13.7-51.9c1.6-6.3,4.4-9.2,11.4-8.6
			C137.2,51.4,147.3,50.9,158.7,50.9z"/>
		<path class="st2" d="M254.6,98.5c9.9,0,18.1,0,27.5,0c0.3,3.7,0.7,7.3,0.7,10.9c0.2,34.8,0.2,69.7,0.6,104.5
			c0.1,5.8-1.6,8.6-7.2,10.6c-17.8,6.5-36.1,9.7-55,7.8c-18.5-1.8-34.3-14-35.1-32.1c-1.6-33.5-0.5-67.2-0.5-101.3c9.2,0,18,0,28,0
			c0,17,0,33.4,0,49.7c0,10.9-0.1,21.7,0,32.6c0.2,21.6,10.3,29.5,31.5,25.8c7.2-1.3,9.1-4.2,9-11c-0.3-27.7-0.2-55.4-0.2-83.1
			C253.9,108.3,254.3,103.9,254.6,98.5z"/>
	</g>
	<g>
		<path class="st2" d="M416.1,1074.9c0,21.3,0,42.2,0,63.6c-9.8,0-18.7,0-28.4,0c0-59.9,0-119.8,0-181.1c26-1,52.2-5.1,77.3,5.5
			c7.2,3.1,14.4,8.3,19.3,14.3c15,18.4,15.8,39.6,8,61.1c-7.7,21.1-25.1,30.6-46.1,34.1C436.8,1074,427.2,1074.1,416.1,1074.9z
			 M416.3,1046.9c9.1,0,17.3,1,25.2-0.2c16.7-2.4,26-14.6,25.8-31.9c-0.2-17.3-8.8-28.6-24.5-31c-6.8-1-13.9-0.8-20.9-0.2
			c-2,0.2-5.3,3.6-5.3,5.5C416.1,1007.9,416.3,1026.8,416.3,1046.9z"/>
		<path class="st2" d="M583.2,1003.4c0.7,1.2,1,1.4,1,1.7c2.9,23.7,2.9,23.7-20.4,25.4c-11.5,0.9-12,1.4-12,13.1
			c0,28.6-0.4,57.1,0.1,85.7c0.1,8.3-2.6,10.8-10.4,10c-6-0.6-12.1-0.1-18.5-0.1c-0.3-3.2-0.6-5.5-0.6-7.7c-0.1-37-0.2-74,0-111
			c0-2.7,2.3-7,4.5-7.8C545,1006.4,563.7,1002.2,583.2,1003.4z"/>
	</g>
	<g>
		<path class="st2" d="M748.9,1136.4c16.9-59.9,33.8-119.6,51.3-181.7c9.3,0,20.4-0.4,31.5,0.3c2.4,0.1,5.8,3.7,6.6,6.4
			c16.9,56.8,33.6,113.7,50.2,170.6c0.4,1.5,0.1,3.3,0.1,6.3c-8,0-15.8,0.7-23.3-0.4c-3.1-0.5-7-4.4-8.1-7.7
			c-4-11.4-7.2-23.1-10-34.9c-1.6-6.8-5-9.1-11.8-8.8c-13.8,0.5-31.1-4.5-40.6,2c-8.9,6.2-10,24.1-13.9,37.1
			C776.5,1140,772.9,1141.5,748.9,1136.4z M836.9,1058c-6.2-23.7-12-45.9-17.8-68.2c-0.9,0-1.9,0.1-2.8,0.1
			c-5.8,22.3-11.5,44.5-17.6,68C811.8,1058,823.2,1058,836.9,1058z"/>
		<path class="st2" d="M931.2,1076.3c0.2,33.1,16.2,41.4,62.7,34.5c4.7,22.4,2.1,26.4-18,28.4c-57.8,5.7-89.1-34.2-72.9-93
			c5.9-21.3,17-38.4,39.6-44c33.5-8.4,60.3,12.3,62.5,47.3c1.7,26.7,1.7,26.7-24.9,26.8C963.8,1076.4,947.5,1076.3,931.2,1076.3z
			 M932,1052.2c15.4,0,29.9,0,44.5,0c-1.4-18.1-8.1-26.6-20.3-27.2C942.7,1024.5,934.1,1033.8,932,1052.2z"/>
	</g>
	<g>
		<path class="st2" d="M432.8,1444.6c-0.2,0-0.5,0-0.7,0c-5.3-16.3-10.6-32.7-15.8-49c-5.7-17.9-12.1-35.6-14.6-54.4
			c-3.5-26.2-8.2-52.3-12.4-78.5c-0.7-4.3-1.2-8.7-1.8-13.1c11.9-1.5,23.2-3,34.4-4.4c18.9-2.5,37.8-5,56.7-7.5
			c11.4-1.5,22.9-3.1,34.3-4.4c1.9-0.2,4.4,0.3,5.8,1.4c20.6,16,41,32.2,61.5,48.3c1.6,1.2,2.2,2.4,1.9,4.5c-0.6,4-0.9,7.9-1.4,11.9
			c-4,34.3-8.1,68.5-12,102.8c-0.3,2.7-1.3,3.7-3.8,4.4c-42.9,12.1-85.8,24.3-128.7,36.5C435,1443.4,433.9,1444.1,432.8,1444.6z
			 M400.1,1258.9c2,5.9,3.8,11.4,5.9,16.7c0.3,0.8,2,1.5,2.9,1.4c4.9-0.5,9.8-1.3,14.7-1.9c20.9-2.9,41.8-5.8,62.7-8.8
			c2.6-0.4,4.3,0.3,6.2,2.2c8.2,8.5,16.5,16.8,24.7,25.3c1.5,1.6,2.9,2.2,5.2,1.8c10.1-1.9,20.2-3.6,30.3-5.3
			c4.8-0.8,9.6-1.8,15-2.8c-1.1-1.1-1.6-1.6-2.3-2.1c-16.9-13.2-33.8-26.4-50.8-39.5c-1.1-0.8-2.8-1.2-4.1-1.1
			c-32.4,4.1-64.8,8.2-97.1,12.4C409,1257.7,404.7,1258.3,400.1,1258.9z M413.5,1311.3c2.1,6.1,4.3,11.7,6,17.4
			c0.9,2.8,2.3,3.2,4.9,2.6c11.8-2.5,23.6-4.8,35.3-7.3c2.5-0.5,3.6,0.1,4.7,2.2c2.6,4.6,5.5,9.1,8.1,13.7c1,1.8,2.1,2.4,4.3,1.9
			c12.9-2.9,25.8-5.6,38.7-8.4c1.1-0.2,2.1-0.6,3.4-1c-9.3-11.4-18.2-22.4-27.2-33.3c-0.7-0.8-2.5-1-3.7-0.8
			c-18.6,3.1-37.2,6.4-55.7,9.6C426,1309,419.9,1310.1,413.5,1311.3z M476.7,1380.2c-2-3.6-3.7-6.8-5.5-10c-1.8-3.3-3-8.1-5.8-9.3
			c-2.9-1.3-7.4,0.7-11.2,1.5c-9,1.9-17.9,3.9-27.3,5.9c2.4,7.1,4.7,13.9,7.1,20.6c0.2,0.6,1.9,1,2.8,0.8c7-1.6,14-3.3,20.9-5
			C464,1383.2,470.1,1381.8,476.7,1380.2z"/>
	</g>
</g>
</svg>
