<?xml version="1.0" encoding="utf-8"?>
<!-- Generator: Adobe Illustrator 21.0.0, SVG Export Plug-In . SVG Version: 6.00 Build 0)  -->
<svg version="1.1" xmlns="http://www.w3.org/2000/svg" xmlns:xlink="http://www.w3.org/1999/xlink" x="0px" y="0px"
	 viewBox="0 0 283.5 283.5" style="enable-background:new 0 0 283.5 283.5;" xml:space="preserve">
<style type="text/css">
	.st0{display:none;}
	.st1{display:inline;}
	.st2{fill:#FFFFFF;}
	.st3{fill-rule:evenodd;clip-rule:evenodd;fill:#FFFFFF;}
	.st4{fill:#FFFFFF;stroke:#FFFFFF;stroke-width:0.25;stroke-miterlimit:10;}
</style>
<g id="Calque_2" class="st0">
	<rect x="-5.7" y="-5.7" class="st1" width="294.8" height="294.8"/>
</g>
<g id="Calque_1">
	<g>
		<path class="st2" d="M234.8,143.9c-1-1.7-0.9-3,0.1-4.7c3.7-6,7.2-12.1,10.7-18.2c0.6-1.1,0.8-2.7,0.5-3.9
			c-5.1-19.5-10.4-39-15.6-58.6c-2.2-8.2-4.3-16.4-6.5-24.5c-0.3-0.1-0.4-0.1-0.5-0.1c-27.9,7.4-55.8,14.9-83.7,22.4
			c-0.9,0.2-1.8,1.1-2.2,1.9c-3.6,6.2-7.2,12.5-10.7,18.9c-0.8,1.6-1.8,2.2-3.6,2.1c-6.7-0.2-13.4-0.2-20.1-0.5
			c-2.4-0.1-4.1,0.7-5.8,2.4c-19.4,19.5-38.8,38.8-58.2,58.2c-0.7,0.7-1.3,1.4-2,2.1c0.3,0.4,0.5,0.7,0.8,1
			c20.1,20.2,40.3,40.3,60.4,60.4c0.8,0.8,2.3,1.3,3.5,1.3c7.2,0.1,14.4,0.1,21.6,0c1.6,0,2.6,0.4,3.4,1.9
			c3.4,6.3,6.9,12.5,10.5,18.6c0.5,0.9,1.7,1.8,2.8,2.1c16.7,4.6,33.4,9.2,50.2,13.7c11,3,22.1,5.8,33.3,8.8
			c0.3-0.7,0.6-1.4,0.8-2.1c7.2-27,14.4-53.9,21.5-80.9c0.3-1.3,0.1-3-0.5-4.2C242.1,156,238.5,150,234.8,143.9z M82.1,128.1
			c13.7-13.9,27.6-27.8,41-41.9c2.9-3.1,6-4.6,9.8-5.6c18.9-4.7,37.8-9.7,56.6-14.5c1-0.3,2-0.3,4-0.6c-1.7,3.2-2.9,5.9-4.4,8.4
			c-9,15.7-18.1,31.3-27.2,47c-1.7,2.9-3.2,5.8-5,8.6c-0.6,0.9-1.9,1.7-2.8,1.7c-24.3,0.1-48.6,0.1-72.8,0.1c-0.4,0-0.7-0.1-1.9-0.3
			C80.6,129.7,81.3,128.9,82.1,128.1z M192.7,217.9c-3.1-0.7-6.3-1.4-9.4-2.2c-17.9-4.6-35.9-9.2-53.8-14c-2.2-0.6-4.3-2.3-6-4
			c-9.1-9.1-18-18.3-27-27.5c-5.1-5.3-10.3-10.6-15.4-15.9c-0.5-0.5-0.8-1.2-1.5-2.1c1.4-0.1,2.3-0.2,3.2-0.2
			c23.4,0,46.8,0,70.2-0.1c2.3,0,3.4,0.9,4.4,2.7c11.2,19.5,22.4,39,33.7,58.4c0.7,1.3,1.4,2.7,2,4
			C193.1,217.3,192.9,217.6,192.7,217.9z M229.1,146.2c-5.6,20.3-11.3,40.6-16.9,60.8c0,0.1-0.1,0.1-0.7,0.5
			c-0.9-1.3-1.9-2.6-2.7-3.9c-11.6-20-23.1-40-34.5-60c-0.6-1-0.5-2.9,0.1-3.9c11.9-20.7,23.8-41.3,35.8-61.9
			c0.4-0.7,0.9-1.2,1.8-2.3c6.2,22.1,12.1,43.2,17.9,64.5C230.3,141.7,229.7,144.1,229.1,146.2z"/>
	</g>
	<g>
		<path class="st3" d="M641,916.7c-0.1,1.9-0.4,3.8-0.4,5.7c0,46.4,0,92.9,0,139.3c0,1.7,0,3.5,0,5.9c-53.7,0-106.9,0-160.2,0
			c0-50.3,0-100.6,0-150.9c2.7,0,5.3,0,7.9,0c-0.1,1.5-0.2,2.9-0.2,4.4c0,44.7,0,89.3,0,134c0,1.6,0,3.2,0,5c48.5,0,96.4,0,144.7,0
			c0-45.2,0-90.1,0-135.5c-24.1,0-48.3,0-73,0c0-3,0-5.5,0-7.9C586.8,916.7,613.9,916.7,641,916.7z"/>
		<path class="st3" d="M536,916.7c0,31.6,0,63.2,0,95.3c24,0,47.7,0,71.8,0c0,8.4,0,16.2,0,24.2c-31.8,0-63.4,0-95.6,0
			c0-39.9,0-79.7,0-119.5c2.6,0,5.3,0,7.9,0c-0.1,0.6-0.2,1.2-0.2,1.8c0,35.7,0,71.4,0,107.1c0,1,0.2,2,0.3,3.1c26.8,0,53.3,0,80,0
			c0-2.9,0-5.6,0-8.8c-23.9,0-47.6,0-71.8,0c0-3,0-5.5,0-7.9c0-30,0-59.9,0-89.9c0-1.7-0.3-3.5-0.4-5.2
			C530.7,916.7,533.3,916.7,536,916.7z"/>
		<path class="st3" d="M503.3,916.7c0,42.2,0,84.4,0,127c37.7,0,75.2,0,113.1,0c0-13.1,0-26.2,0-39.7c-18.9,0-37.5,0-56.3,0
			c0-2.6,0-4.9,0-7.4c21.3,0,42.4,0,63.8,0c0,18.3,0,36.3,0,54.7c-42.5,0-85,0-128.3,0c0-1.7,0-3.5,0-5.4c0-41.3,0-82.6,0-123.9
			c0-1.8-0.1-3.5-0.2-5.3C498,916.7,500.7,916.7,503.3,916.7z"/>
		<path class="st3" d="M656,916.7c0,50.1,0,100.1,0,150.5c-2.4,0-4.5,0-6.9,0c-0.1-1.1-0.3-2.2-0.3-3.4c0-48.5,0-96.9,0-145.4
			c0-0.6,0.1-1.2,0.1-1.8C651.2,916.7,653.6,916.7,656,916.7z"/>
		<path class="st3" d="M624,933c0,18.3,0,36.4,0,54.6c-21.3,0-42.4,0-63.8,0c0-2.3,0-4.6,0-7.2c18.7,0,37.3,0,56.6,0
			c0-2.1,0-3.8,0-5.5c0-10-0.2-20,0.1-30c0.1-4-0.9-5.3-5.1-5.2c-15.7,0.2-31.4,0.1-47.2,0.1c-1.4,0-2.9,0-4.5,0c0-2.5,0-4.5,0-6.8
			C581.2,933,602.4,933,624,933z"/>
		<path class="st3" d="M607.9,971.4c-16,0-31.7,0-47.7,0c0-2.2,0-4.3,0-6.9c13.2,0,26.4,0,40,0c0-2.9,0-5.3,0-8.3
			c-13.3,0-26.5,0-40.1,0c0-2.8,0-5,0-7.4c15.9,0,31.7,0,47.7,0C607.9,956.3,607.9,963.6,607.9,971.4z"/>
	</g>
	<g>
		<text transform="matrix(1 0 0 1 480.3937 1112.0784)" class="st4" style="font-family:'Code-Light'; font-size:36.548px;">LECTRA V7</text>
	</g>
	
		<text transform="matrix(1.0352 0 0 1 829.1945 990.635)" class="st2" style="font-family:'CenturyGothic-Bold'; font-size:111.6446px;">HTML</text>
	
		<text transform="matrix(0.854 0 0 1 825.9201 1109.7229)" class="st2" style="font-family:'CenturyGothic-Bold'; font-size:99.2396px; letter-spacing:2.3;">CSS/JS</text>
</g>
</svg>
